<svg width="24" height="24" viewBox="0 0 24 24" fill="none" xmlns="http://www.w3.org/2000/svg">
<rect x="0.75" y="0.75" width="22.5" height="22.5" rx="5.25" fill="white"/>
<path d="M17.1429 12.8571H12.8571V17.1429C12.8571 17.6143 12.4714 18 12 18C11.5286 18 11.1429 17.6143 11.1429 17.1429V12.8571H6.85714C6.38571 12.8571 6 12.4714 6 12C6 11.5286 6.38571 11.1429 6.85714 11.1429H11.1429V6.85714C11.1429 6.38571 11.5286 6 12 6C12.4714 6 12.8571 6.38571 12.8571 6.85714V11.1429H17.1429C17.6143 11.1429 18 11.5286 18 12C18 12.4714 17.6143 12.8571 17.1429 12.8571Z" fill="#9CA1A1"/>
<rect x="0.75" y="0.75" width="22.5" height="22.5" rx="5.25" stroke="#9CA1A1" stroke-width="1.5"/>
</svg>
