<svg width="45" height="45" viewBox="0 0 45 45" fill="none" xmlns="http://www.w3.org/2000/svg">
<defs>
<linearGradient id="paint0_linear_4933_2211" x1="13.768" y1="13.3195" x2="31.2282" y2="30.7797" gradientUnits="userSpaceOnUse">
<stop stop-color="#B8DEC7"/>
<stop offset="1" stop-color="#21AADA"/>
</linearGradient>
<linearGradient id="paint1_linear_4933_2211" x1="30.9004" y1="18.1934" x2="39.5665" y2="18.1934" gradientUnits="userSpaceOnUse">
<stop stop-color="#B8DEC7"/>
<stop offset="1" stop-color="#21AADA"/>
</linearGradient>
<linearGradient id="paint2_linear_4933_2211" x1="7.71062" y1="11.3013" x2="13.1554" y2="11.3013" gradientUnits="userSpaceOnUse">
<stop stop-color="#B8DEC7"/>
<stop offset="1" stop-color="#21AADA"/>
</linearGradient>
<linearGradient id="paint3_linear_4933_2211" x1="9.02987" y1="31.6988" x2="13.5299" y2="31.6988" gradientUnits="userSpaceOnUse">
<stop stop-color="#B8DEC7"/>
<stop offset="1" stop-color="#21AADA"/>
</linearGradient>
</defs>
<path d="M22.5 45C34.9264 45 45 34.9264 45 22.5C45 10.0736 34.9264 0 22.5 0C10.0736 0 0 10.0736 0 22.5C0 34.9264 10.0736 45 22.5 45Z" fill="#E1F2F7"/>
<path d="M22.5005 13.9479C19.7204 13.7829 19.2963 10.4963 16.1745 11.6743C13.0528 12.8523 9.01225 17.8235 13.3944 27.1062C17.7766 36.389 18.4481 35.7882 19.4612 34.0212C20.4743 32.2541 24.5149 32.2541 25.528 34.0212C26.541 35.7882 27.2125 36.3772 31.5947 27.1062C35.9769 17.8353 31.9363 12.8641 28.8146 11.6743C25.6929 10.4845 25.2806 13.7829 22.5005 13.9479Z" fill="url(#paint0_linear_4933_2211)"/>
<path d="M35.2109 11.4265C35.2109 11.4265 35.7999 17.0339 39.5695 18.2354C39.5695 18.2354 35.7999 19.708 35.2462 24.9501H35.2227C34.669 19.708 30.8994 18.2354 30.8994 18.2354C34.669 17.0457 35.2109 11.4265 35.2109 11.4265Z" fill="white"/>
<path d="M35.2227 14.0535C35.7292 15.5378 36.648 17.3048 38.2855 18.2943C37.3431 18.9423 36.0237 20.1909 35.2462 22.3349C34.4687 20.1909 33.1376 18.9423 32.2069 18.2943C33.8208 17.3048 34.7161 15.5496 35.2227 14.0535ZM35.2109 11.4265C35.2109 11.4265 34.6808 17.0339 30.8994 18.2354C30.8994 18.2354 34.669 19.708 35.2227 24.9501H35.2344C35.7881 19.708 39.5577 18.2354 39.5577 18.2354C35.7881 17.0457 35.2109 11.4265 35.2109 11.4265Z" fill="url(#paint1_linear_4933_2211)"/>
<path d="M10.4137 7.05632C10.4137 7.05632 10.7789 10.5786 13.1584 11.3325C13.1584 11.3325 10.7906 12.2631 10.4372 15.5498H10.4255C10.0838 12.2513 7.70425 11.3325 7.70425 11.3325C10.0838 10.5786 10.4137 7.05632 10.4137 7.05632Z" fill="url(#paint2_linear_4933_2211)"/>
<path d="M11.262 28.1898C11.262 28.1898 11.5682 31.0995 13.5237 31.7238C13.5237 31.7238 11.5682 32.4895 11.2737 35.2107C10.991 32.4895 9.02374 31.7238 9.02374 31.7238C10.991 31.0995 11.262 28.1898 11.262 28.1898Z" fill="url(#paint3_linear_4933_2211)"/>
<path d="M17.6698 14.525C16.8334 15.703 16.4565 16.6218 16.1737 17.6585C16.0324 18.1768 15.9499 18.7187 15.8203 19.2959C15.7732 19.5904 15.7261 19.8967 15.6554 20.2148C15.5965 20.5328 15.5494 20.8627 15.4316 21.2278C15.1724 20.9687 14.9957 20.6624 14.7955 20.3561C14.6541 20.0381 14.5127 19.7082 14.4303 19.3666C14.2654 18.6716 14.2536 17.9176 14.4538 17.1991C14.6541 16.4805 15.0546 15.7854 15.6319 15.2907C16.2091 14.7841 16.9277 14.4543 17.6698 14.525Z" fill="white"/>

</svg>
