<svg width="45" height="45" viewBox="0 0 45 45" fill="none" xmlns="http://www.w3.org/2000/svg">
<path d="M22.5 45C34.9264 45 45 34.9264 45 22.5C45 10.0736 34.9264 0 22.5 0C10.0736 0 0 10.0736 0 22.5C0 34.9264 10.0736 45 22.5 45Z" fill="#D2E9DB"/>
<path d="M33.1376 9.25916H11.8509V35.034H33.1376V9.25916Z" fill="white"/>
<path d="M33.1493 35.6231H11.8509C11.5211 35.6231 11.2619 35.3639 11.2619 35.0341V9.2592C11.2619 8.92936 11.5211 8.6702 11.8509 8.6702H33.1376C33.4674 8.6702 33.7266 8.92936 33.7266 9.2592V35.0341C33.7383 35.3521 33.4674 35.6231 33.1493 35.6231ZM12.4399 34.4451H32.5485V9.84821H12.4399V34.4451Z" fill="url(#paint0_linear_4933_2238)"/>
<path d="M16.1626 11.6623C15.8327 11.6623 15.5735 11.4031 15.5735 11.0733V7.43323C15.5735 7.10339 15.8327 6.84422 16.1626 6.84422C16.4924 6.84422 16.7516 7.10339 16.7516 7.43323V11.0733C16.7516 11.4031 16.4924 11.6623 16.1626 11.6623Z" fill="url(#paint1_linear_4933_2238)"/>
<path d="M19.6729 11.6623C19.3431 11.6623 19.0839 11.4031 19.0839 11.0733V7.43323C19.0839 7.10339 19.3431 6.84422 19.6729 6.84422C20.0028 6.84422 20.2619 7.10339 20.2619 7.43323V11.0733C20.2619 11.4031 19.991 11.6623 19.6729 11.6623Z" fill="url(#paint2_linear_4933_2238)"/>
<path d="M23.1714 11.6623C22.8416 11.6623 22.5824 11.4031 22.5824 11.0733V7.43323C22.5824 7.10339 22.8416 6.84422 23.1714 6.84422C23.5013 6.84422 23.7604 7.10339 23.7604 7.43323V11.0733C23.7604 11.4031 23.5013 11.6623 23.1714 11.6623Z" fill="url(#paint3_linear_4933_2238)"/>
<path d="M26.6703 11.6623C26.3405 11.6623 26.0813 11.4031 26.0813 11.0733V7.43323C26.0813 7.10339 26.3405 6.84422 26.6703 6.84422C27.0002 6.84422 27.2593 7.10339 27.2593 7.43323V11.0733C27.2593 11.4031 27.0002 11.6623 26.6703 11.6623Z" fill="url(#paint4_linear_4933_2238)"/>
<path d="M30.1687 11.6623C29.8388 11.6623 29.5797 11.4031 29.5797 11.0733V7.43323C29.5797 7.10339 29.8388 6.84422 30.1687 6.84422C30.4985 6.84422 30.7577 7.10339 30.7577 7.43323V11.0733C30.7577 11.4031 30.4985 11.6623 30.1687 11.6623Z" fill="url(#paint5_linear_4933_2238)"/>
<path d="M30.0743 18.8127H21.5338C21.2039 18.8127 20.9448 18.5536 20.9448 18.2237C20.9448 17.8939 21.2039 17.6347 21.5338 17.6347H30.0743C30.4042 17.6347 30.6633 17.8939 30.6633 18.2237C30.6633 18.5536 30.3924 18.8127 30.0743 18.8127Z" fill="url(#paint6_linear_4933_2238)"/>
<path d="M30.0743 24.2671H21.5338C21.2039 24.2671 20.9448 24.008 20.9448 23.6781C20.9448 23.3483 21.2039 23.0891 21.5338 23.0891H30.0743C30.4042 23.0891 30.6633 23.3483 30.6633 23.6781C30.6633 24.008 30.3924 24.2671 30.0743 24.2671Z" fill="url(#paint7_linear_4933_2238)"/>
<path d="M30.0743 29.733H21.5338C21.2039 29.733 20.9448 29.4739 20.9448 29.144C20.9448 28.8142 21.2039 28.555 21.5338 28.555H30.0743C30.4042 28.555 30.6633 28.8142 30.6633 29.144C30.6633 29.4739 30.3924 29.733 30.0743 29.733Z" fill="url(#paint8_linear_4933_2238)"/>
<path d="M15.5025 17.6114C15.8795 17.6585 16.2094 17.7645 16.4921 17.9177C16.7748 18.0708 17.0575 18.2357 17.2578 18.4713L16.4332 18.4949C16.6688 18.3064 16.9279 18.1415 17.1635 17.9648L17.8704 17.4111C18.3416 17.0342 18.8481 16.7043 19.3311 16.3509C19.3546 16.3274 19.39 16.3391 19.4135 16.3627C19.4253 16.3863 19.4253 16.4098 19.4135 16.4334C19.0601 16.9164 18.7303 17.4347 18.3533 17.8941L17.7997 18.6009C17.6112 18.8365 17.458 19.0957 17.2696 19.3313C17.0929 19.5433 16.7866 19.5904 16.5628 19.4373L16.445 19.3548C16.1858 19.1781 15.9973 18.919 15.8088 18.648C15.6321 18.3771 15.4908 18.0708 15.3965 17.6938C15.3847 17.6585 15.4083 17.6114 15.4554 17.6114C15.4908 17.6114 15.5025 17.6114 15.5025 17.6114Z" fill="url(#paint9_linear_4933_2238)"/>
<path d="M15.5025 23.6425C15.8795 23.6896 16.2094 23.7956 16.4921 23.9488C16.7748 24.1019 17.0575 24.2668 17.2578 24.5024L16.4332 24.526C16.6688 24.3375 16.9279 24.1726 17.1635 23.9959L17.8704 23.4422C18.3416 23.0653 18.8481 22.7354 19.3311 22.382C19.3546 22.3585 19.39 22.3702 19.4135 22.3938C19.4253 22.4174 19.4253 22.4409 19.4135 22.4645C19.0601 22.9475 18.7303 23.4658 18.3533 23.9252L17.7997 24.632C17.6112 24.8676 17.458 25.1268 17.2696 25.3624C17.0929 25.5744 16.7866 25.6215 16.5628 25.4684L16.445 25.3859C16.1858 25.2092 15.9973 24.9501 15.8088 24.6791C15.6321 24.4082 15.4908 24.1019 15.3965 23.7249C15.3847 23.6896 15.4083 23.6425 15.4554 23.6425C15.4908 23.6425 15.5025 23.6425 15.5025 23.6425Z" fill="url(#paint10_linear_4933_2238)"/>
<path d="M15.5025 29.6623C15.8795 29.7094 16.2094 29.8155 16.4921 29.9686C16.7748 30.1217 17.0575 30.2867 17.2578 30.5223L16.4332 30.5458C16.6688 30.3573 16.9279 30.1924 17.1635 30.0157L17.8704 29.4621C18.3416 29.0851 18.8481 28.7553 19.3311 28.4018C19.3546 28.3783 19.39 28.3901 19.4135 28.4136C19.4253 28.4372 19.4253 28.4608 19.4135 28.4843C19.0601 28.9673 18.7303 29.4856 18.3533 29.945L17.7997 30.6519C17.6112 30.8875 17.458 31.1466 17.2696 31.3822C17.0929 31.5943 16.7866 31.6414 16.5628 31.4882L16.445 31.4058C16.1858 31.2291 15.9973 30.9699 15.8088 30.699C15.6321 30.428 15.4908 30.1217 15.3965 29.7448C15.3847 29.7094 15.4083 29.6623 15.4554 29.6623C15.4908 29.6623 15.5025 29.6623 15.5025 29.6623Z" fill="url(#paint11_linear_4933_2238)"/>
<defs>
<linearGradient id="paint0_linear_4933_2238" x1="11.2628" y1="22.1432" x2="33.7324" y2="22.1432" gradientUnits="userSpaceOnUse">
<stop stop-color="#A1D4BA"/>
<stop offset="0.9963" stop-color="#00AB9C"/>
</linearGradient>
<linearGradient id="paint1_linear_4933_2238" x1="14.84" y1="7.92917" x2="17.4943" y2="10.5835" gradientUnits="userSpaceOnUse">
<stop stop-color="#A1D4BA"/>
<stop offset="0.9963" stop-color="#00AB9C"/>
</linearGradient>
<linearGradient id="paint2_linear_4933_2238" x1="18.3417" y1="7.92917" x2="20.996" y2="10.5835" gradientUnits="userSpaceOnUse">
<stop stop-color="#A1D4BA"/>
<stop offset="0.9963" stop-color="#00AB9C"/>
</linearGradient>
<linearGradient id="paint3_linear_4933_2238" x1="21.8433" y1="7.92917" x2="24.4976" y2="10.5835" gradientUnits="userSpaceOnUse">
<stop stop-color="#A1D4BA"/>
<stop offset="0.9963" stop-color="#00AB9C"/>
</linearGradient>
<linearGradient id="paint4_linear_4933_2238" x1="25.3454" y1="7.92917" x2="27.9996" y2="10.5834" gradientUnits="userSpaceOnUse">
<stop stop-color="#A1D4BA"/>
<stop offset="0.9963" stop-color="#00AB9C"/>
</linearGradient>
<linearGradient id="paint5_linear_4933_2238" x1="28.8468" y1="7.92917" x2="31.5011" y2="10.5835" gradientUnits="userSpaceOnUse">
<stop stop-color="#A1D4BA"/>
<stop offset="0.9963" stop-color="#00AB9C"/>
</linearGradient>
<linearGradient id="paint6_linear_4933_2238" x1="23.2472" y1="15.6685" x2="28.3529" y2="20.7742" gradientUnits="userSpaceOnUse">
<stop stop-color="#A1D4BA"/>
<stop offset="0.9963" stop-color="#00AB9C"/>
</linearGradient>
<linearGradient id="paint7_linear_4933_2238" x1="23.2472" y1="21.1308" x2="28.353" y2="26.2365" gradientUnits="userSpaceOnUse">
<stop stop-color="#A1D4BA"/>
<stop offset="0.9963" stop-color="#00AB9C"/>
</linearGradient>
<linearGradient id="paint8_linear_4933_2238" x1="23.2472" y1="26.594" x2="28.3529" y2="31.6997" gradientUnits="userSpaceOnUse">
<stop stop-color="#A1D4BA"/>
<stop offset="0.9963" stop-color="#00AB9C"/>
</linearGradient>
<linearGradient id="paint9_linear_4933_2238" x1="14.8771" y1="17.9423" x2="19.9771" y2="17.9423" gradientUnits="userSpaceOnUse">
<stop stop-color="#A1D4BA"/>
<stop offset="0.9963" stop-color="#00AB9C"/>
</linearGradient>
<linearGradient id="paint10_linear_4933_2238" x1="14.8771" y1="23.9651" x2="19.9771" y2="23.9651" gradientUnits="userSpaceOnUse">
<stop stop-color="#A1D4BA"/>
<stop offset="0.9963" stop-color="#00AB9C"/>
</linearGradient>
<linearGradient id="paint11_linear_4933_2238" x1="14.8771" y1="29.9884" x2="19.9771" y2="29.9884" gradientUnits="userSpaceOnUse">
<stop stop-color="#A1D4BA"/>
<stop offset="0.9963" stop-color="#00AB9C"/>
</linearGradient>
</defs>
</svg>
