<svg width="13" height="12" viewBox="0 0 13 12" fill="none" xmlns="http://www.w3.org/2000/svg">
<path d="M12.2951 2.66152C12.1496 2.48574 11.9657 2.35979 11.7705 2.25675L11.7547 2.24799L11.7377 2.24126C11.7281 2.23744 11.4155 2.10835 10.9624 1.97814C10.5083 1.84861 9.91609 1.71548 9.32554 1.71436C7.90773 1.7166 6.84827 2.17997 6.49912 2.35306C6.15021 2.17974 5.09051 1.71638 3.67247 1.71436C3.08238 1.71548 2.48994 1.84861 2.03612 1.97814C1.58301 2.10835 1.26993 2.23744 1.26074 2.24126L1.24353 2.24799L1.22726 2.25675C1.03277 2.35979 0.848883 2.48574 0.703424 2.66152C0.557495 2.83574 0.46178 3.06922 0.463902 3.31886V9.28249C0.463902 9.55616 0.60158 9.81276 0.833795 9.97328C0.989154 10.0806 1.17351 10.136 1.36046 10.136C1.45358 10.136 1.54765 10.1221 1.63794 10.0943L1.6568 10.0882L1.67495 10.0806L1.67613 10.0801C1.69829 10.0707 1.96634 9.96048 2.34614 9.85452C2.72522 9.74833 3.21723 9.64798 3.6727 9.64865C4.37736 9.6482 5.0113 9.79637 5.46559 9.94499C5.69238 10.0193 5.87438 10.0936 5.99791 10.1484C6.05897 10.1758 6.10612 10.1982 6.13654 10.2133L6.16978 10.2297L6.17708 10.2335H6.17779V10.2339L6.21315 10.2528L6.25135 10.2645C6.2992 10.2788 6.34848 10.2858 6.3968 10.2858C6.4317 10.2858 6.46564 10.2808 6.49959 10.2739C6.53307 10.2808 6.56749 10.2858 6.60191 10.2858C6.65047 10.2858 6.69998 10.2788 6.74736 10.2645L6.78603 10.2528L6.82068 10.2341C6.8254 10.2292 7.93909 9.64528 9.32601 9.64843C9.79633 9.64775 10.3056 9.75462 10.6894 9.8644C10.8817 9.91918 11.043 9.97418 11.155 10.0153C11.2111 10.0352 11.2544 10.0521 11.2832 10.0638L11.3157 10.0768L11.3231 10.0799L11.3238 10.0804L11.3421 10.088L11.361 10.0941C11.4515 10.1217 11.5456 10.1358 11.6385 10.1358C11.825 10.1358 12.0098 10.0804 12.1649 9.97305H12.1654C12.3971 9.81276 12.5353 9.55593 12.5353 9.28227V3.31886C12.5367 3.06922 12.4407 2.83574 12.2951 2.66152ZM6.11673 9.40305C5.61788 9.20279 4.73476 8.92239 3.67223 8.92037C3.08569 8.92105 2.51823 9.04564 2.08964 9.16687C1.73389 9.26857 1.47787 9.36847 1.39488 9.40193L1.36023 9.40754C1.33217 9.40754 1.30577 9.39901 1.2829 9.38374C1.24824 9.35994 1.22844 9.32268 1.22844 9.28227V3.31886C1.23056 3.23018 1.25131 3.17989 1.30577 3.11052C1.3581 3.04564 1.45311 2.97201 1.58419 2.90151C1.65491 2.87345 1.92933 2.76749 2.29521 2.66467C2.70118 2.54972 3.22053 2.44196 3.67223 2.44263C4.42381 2.44263 5.07118 2.5953 5.52736 2.74773C5.7558 2.82429 5.93544 2.90039 6.05638 2.95607C6.07948 2.96662 6.09811 2.97582 6.11673 2.98458V9.40305ZM11.7696 9.28249C11.7696 9.32245 11.7498 9.35994 11.7151 9.38397C11.6922 9.39968 11.6658 9.40776 11.6378 9.40776L11.6031 9.40215C11.5201 9.36892 11.2641 9.2688 10.9084 9.1671C10.4795 9.04564 9.91232 8.92127 9.32554 8.9206C8.26348 8.92262 7.38012 9.20302 6.88151 9.40327V2.98413C7.19529 2.83304 8.1291 2.44084 9.32554 2.44263C9.79232 2.44151 10.3301 2.55668 10.7419 2.67567C10.9477 2.73493 11.1236 2.7942 11.246 2.83843C11.307 2.86043 11.3549 2.87884 11.3874 2.89096L11.4136 2.90151C11.5451 2.97156 11.6401 3.04564 11.6927 3.11052C11.7469 3.17989 11.7674 3.23018 11.7698 3.31886L11.7696 9.28249Z" fill="#333333"/>
</svg>
