<svg width="45" height="45" viewBox="0 0 45 45" fill="none" xmlns="http://www.w3.org/2000/svg">
<path d="M22.5 45C34.9264 45 45 34.9264 45 22.5C45 10.0736 34.9264 0 22.5 0C10.0736 0 0 10.0736 0 22.5C0 34.9264 10.0736 45 22.5 45Z" fill="#EBE4F1"/>
<path d="M31.3469 27.4005C31.0524 23.3128 25.987 20.7683 28.237 15.373L29.1323 13.4057L31.1938 8.69367C31.1938 8.69367 27.1768 3.5222 22.5001 8.49341C17.8116 3.5222 13.8064 8.69367 13.8064 8.69367L15.8679 13.4057L16.7632 15.373C19.0132 20.7801 13.9359 23.3128 13.6532 27.4005C13.3587 34.2801 16.2566 38.1204 16.2566 38.1204L22.5001 38.085L28.7435 38.1204C28.7435 38.1204 31.6414 34.2683 31.3469 27.4005Z" fill="white"/>
<path d="M28.7904 38.1203C29.4265 36.9658 29.8977 35.7525 30.2158 34.492C30.5574 33.2433 30.7812 31.971 30.8637 30.6988C30.9343 29.4383 30.9815 28.0836 30.793 26.9292C30.5809 25.7747 29.9095 24.6792 29.2262 23.5836C28.5548 22.4763 27.8126 21.2983 27.4121 19.9436C27.0233 18.5771 27.1176 17.0574 27.6477 15.7734C28.7904 13.3349 29.933 11.0378 31.1699 8.69356C30.7812 9.95403 30.3218 11.1792 29.8977 12.4279C29.4854 13.6648 28.861 14.8781 28.4959 16.0679C28.1542 17.2459 28.0953 18.471 28.4723 19.6255C28.8375 20.7799 29.5207 21.8519 30.2158 22.971C30.8872 24.1019 31.6412 25.2917 31.8768 26.7407C32.0299 28.1778 31.9474 29.4737 31.7472 30.8166C31.3584 33.4436 30.4749 36.0587 28.7904 38.1203Z" fill="url(#paint0_linear_4933_2603)"/>
<path d="M31.2526 38.1203L31.5471 37.6138L31.606 37.6491L31.2526 38.1203Z" fill="url(#paint1_linear_4933_2603)"/>
<path d="M31.7944 37.0951L32.0418 36.5532L32.2302 36.6475L31.9357 37.1658L31.7944 37.0951Z" fill="url(#paint2_linear_4933_2603)"/>
<path d="M32.2539 36.0233L32.4542 35.4697L32.7604 35.5992L32.5131 36.1294L32.2539 36.0233Z" fill="url(#paint3_linear_4933_2603)"/>
<path d="M32.6307 34.916L32.7957 34.3623L33.2197 34.5037L32.9959 35.0573L32.6307 34.916Z" fill="url(#paint4_linear_4933_2603)"/>
<path d="M32.9372 33.8087L33.0786 33.2432L33.5733 33.3728L33.4084 33.9383L32.9372 33.8087Z" fill="url(#paint5_linear_4933_2603)"/>
<path d="M33.1846 32.6778L33.2906 32.1006L33.8678 32.2066L33.7265 32.7956L33.1846 32.6778Z" fill="url(#paint6_linear_4933_2603)"/>
<path d="M33.3611 31.5233L33.4318 30.9579L34.0914 31.0403L33.9854 31.6293L33.3611 31.5233Z" fill="url(#paint7_linear_4933_2603)"/>
<path d="M33.4791 30.3805L33.5026 29.8033L34.233 29.8504L34.1741 30.4512L33.4791 30.3805Z" fill="url(#paint8_linear_4933_2603)"/>
<path d="M33.5263 29.2261L33.5381 28.6489L34.3038 28.6606L34.2802 29.2614L33.5263 29.2261Z" fill="url(#paint9_linear_4933_2603)"/>
<path d="M33.5261 28.0717L33.5026 27.4945L34.2918 27.4592L34.3036 28.06L33.5261 28.0717Z" fill="url(#paint10_linear_4933_2603)"/>
<path d="M33.4436 26.9646L33.314 26.4345L34.1033 26.2107L34.2329 26.8232L33.4436 26.9646Z" fill="url(#paint11_linear_4933_2603)"/>
<path d="M33.1372 25.9162L32.9252 25.4097L33.6791 25.0563L33.9147 25.6217L33.1372 25.9162Z" fill="url(#paint12_linear_4933_2603)"/>
<path d="M32.666 24.9028L32.3833 24.408L33.1372 23.9722L33.4199 24.5023L32.666 24.9028Z" fill="url(#paint13_linear_4933_2603)"/>
<path d="M32.0891 23.9134L31.7828 23.4186L32.525 22.9592L32.8313 23.4658L32.0891 23.9134Z" fill="url(#paint14_linear_4933_2603)"/>
<path d="M31.4765 22.9239L31.1702 22.4056L31.9005 21.9697L32.2068 22.4645L31.4765 22.9239Z" fill="url(#paint15_linear_4933_2603)"/>
<path d="M30.8757 21.8872L30.6048 21.3453L31.3469 20.9801L31.6179 21.4749L30.8757 21.8872Z" fill="url(#paint16_linear_4933_2603)"/>
<path d="M30.3453 20.7918L30.1332 20.2146L30.8989 19.9554L31.111 20.4737L30.3453 20.7918Z" fill="url(#paint17_linear_4933_2603)"/>
<path d="M29.9564 19.6253L29.8386 19.001L30.616 18.8832L30.7338 19.4251L29.9564 19.6253Z" fill="url(#paint18_linear_4933_2603)"/>
<path d="M29.78 18.3885V17.7523L30.5457 17.7877L30.5575 18.3413L29.78 18.3885Z" fill="url(#paint19_linear_4933_2603)"/>
<path d="M29.8508 17.1396L29.9804 16.5271L30.6754 16.692L30.593 17.2457L29.8508 17.1396Z" fill="url(#paint20_linear_4933_2603)"/>
<path d="M30.1568 15.9382L30.3806 15.3728L30.9814 15.6202L30.8047 16.1503L30.1568 15.9382Z" fill="url(#paint21_linear_4933_2603)"/>
<path d="M30.6519 14.831L30.911 14.3009L31.4293 14.5483L31.2055 15.0902L30.6519 14.831Z" fill="url(#paint22_linear_4933_2603)"/>
<path d="M31.1702 13.7827L31.4293 13.2644L31.9005 13.4529L31.6649 14.0065L31.1702 13.7827Z" fill="url(#paint23_linear_4933_2603)"/>
<path d="M31.6764 12.7222L31.9356 12.1921L32.3125 12.357L32.1123 12.8989L31.6764 12.7222Z" fill="url(#paint24_linear_4933_2603)"/>
<path d="M32.1832 11.6621L32.4424 11.132L32.7251 11.2498L32.5131 11.8035L32.1832 11.6621Z" fill="url(#paint25_linear_4933_2603)"/>
<path d="M32.7013 10.6017L32.9605 10.0716L33.1254 10.1305L32.9251 10.696L32.7013 10.6017Z" fill="url(#paint26_linear_4933_2603)"/>
<path d="M33.2197 9.54169L33.4788 9.01158L33.5142 9.02336L33.3257 9.57703L33.2197 9.54169Z" fill="url(#paint27_linear_4933_2603)"/>
<path d="M13.7359 8.68207C14.9728 11.0263 16.1155 13.3234 17.2582 15.7619C17.7883 17.0459 17.8825 18.5656 17.4938 19.9321C17.0933 21.2986 16.3511 22.4648 15.6796 23.5839C14.9964 24.6795 14.3249 25.775 14.1129 26.9295C13.9244 28.0839 13.9715 29.4504 14.054 30.6991C14.1482 31.9831 14.3603 33.2554 14.7019 34.4923C15.02 35.741 15.4912 36.9661 16.1273 38.1206C14.4427 36.0708 13.5474 33.4439 13.1469 30.8051C12.9467 29.4622 12.8642 28.1781 13.0173 26.7292C13.2529 25.2802 14.0069 24.0787 14.6783 22.9596C15.3851 21.8522 16.0566 20.7685 16.4218 19.614C16.7988 18.4596 16.7399 17.2344 16.3982 16.0564C16.033 14.8666 15.4087 13.6533 14.9964 12.4164C14.5841 11.1677 14.1247 9.94254 13.7359 8.68207Z" fill="url(#paint28_linear_4933_2603)"/>
<path d="M11.1675 8.68207L11.4385 9.21218L11.3678 9.23574L11.1675 8.68207Z" fill="url(#paint29_linear_4933_2603)"/>
<path d="M11.6977 9.74213L11.9569 10.2722L11.7566 10.3547L11.5563 9.80103L11.6977 9.74213Z" fill="url(#paint30_linear_4933_2603)"/>
<path d="M12.2164 10.8025L12.4638 11.3326L12.1693 11.4622L11.9573 10.9085L12.2164 10.8025Z" fill="url(#paint31_linear_4933_2603)"/>
<path d="M12.7225 11.8626L12.9817 12.3927L12.5694 12.5694L12.3691 12.0157L12.7225 11.8626Z" fill="url(#paint32_linear_4933_2603)"/>
<path d="M13.2291 12.9349C13.3116 13.1116 13.3941 13.2883 13.4765 13.465L13.0053 13.677C12.9229 13.4885 12.8522 13.3118 12.7815 13.1234L13.2291 12.9349Z" fill="url(#paint33_linear_4933_2603)"/>
<path d="M13.7355 13.983L14.0065 14.5131L13.4646 14.7605L13.229 14.2186L13.7355 13.983Z" fill="url(#paint34_linear_4933_2603)"/>
<path d="M14.2659 15.0314C14.3602 15.2081 14.4426 15.3966 14.5251 15.5968L13.9008 15.8325C13.8419 15.6557 13.783 15.479 13.7005 15.3023L14.2659 15.0314Z" fill="url(#paint35_linear_4933_2603)"/>
<path d="M14.737 16.1742L14.9019 16.775L14.1716 16.9282L14.0538 16.3745L14.737 16.1742Z" fill="url(#paint36_linear_4933_2603)"/>
<path d="M14.9963 17.3992L15.0316 18.0235H14.2659L14.2424 17.4699L14.9963 17.3992Z" fill="url(#paint37_linear_4933_2603)"/>
<path d="M15.0081 18.648L14.9257 19.2724L14.1482 19.1192L14.2424 18.5774L15.0081 18.648Z" fill="url(#paint38_linear_4933_2603)"/>
<path d="M14.7841 19.8849L14.5839 20.4739L13.83 20.1794L14.0067 19.6611L14.7841 19.8849Z" fill="url(#paint39_linear_4933_2603)"/>
<path d="M14.3483 21.0395L14.0891 21.5931L13.347 21.2044L13.6061 20.6978L14.3483 21.0395Z" fill="url(#paint40_linear_4933_2603)"/>
<path d="M13.8067 22.1232L13.5004 22.6416L12.77 22.1939L13.0645 21.6992L13.8067 22.1232Z" fill="url(#paint41_linear_4933_2603)"/>
<path d="M13.194 23.1479L12.8877 23.6544L12.1338 23.195L12.4519 22.6885L13.194 23.1479Z" fill="url(#paint42_linear_4933_2603)"/>
<path d="M12.5813 24.1493L12.2868 24.6441L11.5328 24.2318L11.8391 23.7017L12.5813 24.1493Z" fill="url(#paint43_linear_4933_2603)"/>
<path d="M12.0161 25.1506L11.7805 25.6572L11.0031 25.3391L11.2622 24.7737L12.0161 25.1506Z" fill="url(#paint44_linear_4933_2603)"/>
<path d="M11.5801 26.1755L11.427 26.6938L10.6377 26.5171L10.7908 25.9163L11.5801 26.1755Z" fill="url(#paint45_linear_4933_2603)"/>
<path d="M11.3208 27.2358C11.2973 27.4007 11.2973 27.6009 11.2855 27.7894L10.4962 27.7659C10.4962 27.5656 10.4962 27.3653 10.5198 27.1415L11.3208 27.2358Z" fill="url(#paint46_linear_4933_2603)"/>
<path d="M11.2735 28.3665V28.9438L10.5195 28.9673L10.5078 28.3665H11.2735Z" fill="url(#paint47_linear_4933_2603)"/>
<path d="M11.2973 29.5209L11.3208 30.0982L10.6022 30.1571L10.5433 29.5681L11.2973 29.5209Z" fill="url(#paint48_linear_4933_2603)"/>
<path d="M11.3562 30.6874L11.4151 31.2646L10.779 31.347L10.6848 30.758L11.3562 30.6874Z" fill="url(#paint49_linear_4933_2603)"/>
<path d="M11.4859 31.83L11.5801 32.4072L11.0147 32.525L10.8851 31.936L11.4859 31.83Z" fill="url(#paint50_linear_4933_2603)"/>
<path d="M11.6861 32.9844L11.8039 33.5498L11.3209 33.6794L11.156 33.1022L11.6861 32.9844Z" fill="url(#paint51_linear_4933_2603)"/>
<path d="M11.945 34.1153L12.1099 34.669L11.7094 34.8104L11.5091 34.2449L11.945 34.1153Z" fill="url(#paint52_linear_4933_2603)"/>
<path d="M12.2751 35.2344L12.4636 35.7881L12.1926 35.8941L11.9453 35.3522L12.2751 35.2344Z" fill="url(#paint53_linear_4933_2603)"/>
<path d="M12.6754 36.33L12.911 36.8719L12.746 36.9543L12.4633 36.436L12.6754 36.33Z" fill="url(#paint54_linear_4933_2603)"/>
<path d="M13.1587 37.4018L13.4414 37.9201L13.4061 37.9437L13.0645 37.4607L13.1587 37.4018Z" fill="url(#paint55_linear_4933_2603)"/>
<path d="M30.8874 9.35339C30.6871 10.4725 30.4751 11.5445 30.0745 12.6283C29.8743 13.1701 29.6033 13.712 29.191 14.2068C28.7787 14.7016 28.1779 15.0785 27.5418 15.2552C26.8939 15.4084 26.3167 15.4437 25.657 15.3377C25.0209 15.1963 24.4201 14.89 23.9725 14.4542C23.0772 13.5825 22.6413 12.4398 22.5588 11.3089C23.1007 12.2866 23.7486 13.1819 24.5497 13.7474C24.962 14.0183 25.3861 14.195 25.8337 14.2421C26.2696 14.2893 26.8115 14.2421 27.2355 14.1243C28.119 13.9241 28.7198 13.1701 29.2499 12.2395C29.7565 11.3089 30.2395 10.284 30.8874 9.35339Z" fill="url(#paint56_linear_4933_2603)"/>
<path d="M14.0067 9.35339C14.6546 10.2958 15.1612 11.3207 15.7148 12.2277C16.2803 13.1466 16.9164 13.8887 17.8117 14.1008C18.2358 14.2304 18.7894 14.2893 19.2253 14.2304C19.6847 14.195 20.1088 14.0065 20.5211 13.7474C21.3339 13.1937 21.9936 12.2866 22.5355 11.2971C22.4531 12.428 22.0054 13.5942 21.0983 14.466C20.6507 14.9018 20.0264 15.2081 19.3784 15.3377C18.707 15.4437 18.1298 15.3848 17.4818 15.2317C16.8575 15.055 16.2567 14.678 15.8326 14.195C15.4085 13.712 15.114 13.1819 14.8902 12.6283C14.4544 11.5681 14.207 10.4725 14.0067 9.35339Z" fill="url(#paint57_linear_4933_2603)"/>
<path d="M23.0891 28.8731L22.5001 38.0852L21.9111 28.8731H23.0891Z" fill="url(#paint58_linear_4933_2603)"/>
<path d="M30.3808 23.2304C25.4096 25.3626 22.4882 25.1505 22.4882 25.1505C22.4882 25.1505 19.4725 25.3508 14.5013 23.2304C13.4528 24.8325 13.4528 25.1152 13.229 25.8102C13.229 25.8102 18.9659 26.1165 22.4882 31.8416C26.0104 26.1165 31.6413 25.8102 31.6413 25.8102C31.2054 24.5144 30.7578 24.0079 30.3808 23.2304Z" fill="url(#paint59_linear_4933_2603)"/>
<defs>
<linearGradient id="paint0_linear_4933_2603" x1="27.1045" y1="23.4015" x2="32.0449" y2="23.4015" gradientUnits="userSpaceOnUse">
<stop stop-color="#E2BCD8"/>
<stop offset="1" stop-color="#9D68A9"/>
</linearGradient>
<linearGradient id="paint1_linear_4933_2603" x1="29.7154" y1="37.8668" x2="34.3613" y2="37.8668" gradientUnits="userSpaceOnUse">
<stop stop-color="#E2BCD8"/>
<stop offset="1" stop-color="#9D68A9"/>
</linearGradient>
<linearGradient id="paint2_linear_4933_2603" x1="29.7153" y1="36.8607" x2="34.3612" y2="36.8607" gradientUnits="userSpaceOnUse">
<stop stop-color="#E2BCD8"/>
<stop offset="1" stop-color="#9D68A9"/>
</linearGradient>
<linearGradient id="paint3_linear_4933_2603" x1="29.7154" y1="35.801" x2="34.3613" y2="35.801" gradientUnits="userSpaceOnUse">
<stop stop-color="#E2BCD8"/>
<stop offset="1" stop-color="#9D68A9"/>
</linearGradient>
<linearGradient id="paint4_linear_4933_2603" x1="29.7153" y1="34.7069" x2="34.3612" y2="34.7069" gradientUnits="userSpaceOnUse">
<stop stop-color="#E2BCD8"/>
<stop offset="1" stop-color="#9D68A9"/>
</linearGradient>
<linearGradient id="paint5_linear_4933_2603" x1="29.7154" y1="33.5889" x2="34.3614" y2="33.5889" gradientUnits="userSpaceOnUse">
<stop stop-color="#E2BCD8"/>
<stop offset="1" stop-color="#9D68A9"/>
</linearGradient>
<linearGradient id="paint6_linear_4933_2603" x1="29.7154" y1="32.447" x2="34.3614" y2="32.447" gradientUnits="userSpaceOnUse">
<stop stop-color="#E2BCD8"/>
<stop offset="1" stop-color="#9D68A9"/>
</linearGradient>
<linearGradient id="paint7_linear_4933_2603" x1="29.7153" y1="31.2908" x2="34.3612" y2="31.2908" gradientUnits="userSpaceOnUse">
<stop stop-color="#E2BCD8"/>
<stop offset="1" stop-color="#9D68A9"/>
</linearGradient>
<linearGradient id="paint8_linear_4933_2603" x1="29.7154" y1="30.1276" x2="34.3614" y2="30.1276" gradientUnits="userSpaceOnUse">
<stop stop-color="#E2BCD8"/>
<stop offset="1" stop-color="#9D68A9"/>
</linearGradient>
<linearGradient id="paint9_linear_4933_2603" x1="29.7155" y1="28.9547" x2="34.3615" y2="28.9547" gradientUnits="userSpaceOnUse">
<stop stop-color="#E2BCD8"/>
<stop offset="1" stop-color="#9D68A9"/>
</linearGradient>
<linearGradient id="paint10_linear_4933_2603" x1="29.7154" y1="27.7677" x2="34.3613" y2="27.7677" gradientUnits="userSpaceOnUse">
<stop stop-color="#E2BCD8"/>
<stop offset="1" stop-color="#9D68A9"/>
</linearGradient>
<linearGradient id="paint11_linear_4933_2603" x1="29.7153" y1="26.5895" x2="34.3613" y2="26.5895" gradientUnits="userSpaceOnUse">
<stop stop-color="#E2BCD8"/>
<stop offset="1" stop-color="#9D68A9"/>
</linearGradient>
<linearGradient id="paint12_linear_4933_2603" x1="29.7152" y1="25.4842" x2="34.3612" y2="25.4842" gradientUnits="userSpaceOnUse">
<stop stop-color="#E2BCD8"/>
<stop offset="1" stop-color="#9D68A9"/>
</linearGradient>
<linearGradient id="paint13_linear_4933_2603" x1="29.7152" y1="24.4389" x2="34.3612" y2="24.4389" gradientUnits="userSpaceOnUse">
<stop stop-color="#E2BCD8"/>
<stop offset="1" stop-color="#9D68A9"/>
</linearGradient>
<linearGradient id="paint14_linear_4933_2603" x1="29.7156" y1="23.435" x2="34.3615" y2="23.435" gradientUnits="userSpaceOnUse">
<stop stop-color="#E2BCD8"/>
<stop offset="1" stop-color="#9D68A9"/>
</linearGradient>
<linearGradient id="paint15_linear_4933_2603" x1="29.7154" y1="22.4441" x2="34.3614" y2="22.4441" gradientUnits="userSpaceOnUse">
<stop stop-color="#E2BCD8"/>
<stop offset="1" stop-color="#9D68A9"/>
</linearGradient>
<linearGradient id="paint16_linear_4933_2603" x1="29.7155" y1="21.4318" x2="34.3614" y2="21.4318" gradientUnits="userSpaceOnUse">
<stop stop-color="#E2BCD8"/>
<stop offset="1" stop-color="#9D68A9"/>
</linearGradient>
<linearGradient id="paint17_linear_4933_2603" x1="29.7152" y1="20.3743" x2="34.3611" y2="20.3743" gradientUnits="userSpaceOnUse">
<stop stop-color="#E2BCD8"/>
<stop offset="1" stop-color="#9D68A9"/>
</linearGradient>
<linearGradient id="paint18_linear_4933_2603" x1="29.715" y1="19.2525" x2="34.3609" y2="19.2525" gradientUnits="userSpaceOnUse">
<stop stop-color="#E2BCD8"/>
<stop offset="1" stop-color="#9D68A9"/>
</linearGradient>
<linearGradient id="paint19_linear_4933_2603" x1="29.7153" y1="18.0692" x2="34.3612" y2="18.0692" gradientUnits="userSpaceOnUse">
<stop stop-color="#E2BCD8"/>
<stop offset="1" stop-color="#9D68A9"/>
</linearGradient>
<linearGradient id="paint20_linear_4933_2603" x1="29.7155" y1="16.8877" x2="34.3614" y2="16.8877" gradientUnits="userSpaceOnUse">
<stop stop-color="#E2BCD8"/>
<stop offset="1" stop-color="#9D68A9"/>
</linearGradient>
<linearGradient id="paint21_linear_4933_2603" x1="29.7152" y1="15.7648" x2="34.3611" y2="15.7648" gradientUnits="userSpaceOnUse">
<stop stop-color="#E2BCD8"/>
<stop offset="1" stop-color="#9D68A9"/>
</linearGradient>
<linearGradient id="paint22_linear_4933_2603" x1="29.7155" y1="14.6978" x2="34.3614" y2="14.6978" gradientUnits="userSpaceOnUse">
<stop stop-color="#E2BCD8"/>
<stop offset="1" stop-color="#9D68A9"/>
</linearGradient>
<linearGradient id="paint23_linear_4933_2603" x1="29.7154" y1="13.6323" x2="34.3614" y2="13.6323" gradientUnits="userSpaceOnUse">
<stop stop-color="#E2BCD8"/>
<stop offset="1" stop-color="#9D68A9"/>
</linearGradient>
<linearGradient id="paint24_linear_4933_2603" x1="29.7151" y1="12.5474" x2="34.3611" y2="12.5474" gradientUnits="userSpaceOnUse">
<stop stop-color="#E2BCD8"/>
<stop offset="1" stop-color="#9D68A9"/>
</linearGradient>
<linearGradient id="paint25_linear_4933_2603" x1="29.7154" y1="11.4638" x2="34.3614" y2="11.4638" gradientUnits="userSpaceOnUse">
<stop stop-color="#E2BCD8"/>
<stop offset="1" stop-color="#9D68A9"/>
</linearGradient>
<linearGradient id="paint26_linear_4933_2603" x1="29.7152" y1="10.3784" x2="34.3611" y2="10.3784" gradientUnits="userSpaceOnUse">
<stop stop-color="#E2BCD8"/>
<stop offset="1" stop-color="#9D68A9"/>
</linearGradient>
<linearGradient id="paint27_linear_4933_2603" x1="29.7152" y1="9.29536" x2="34.3612" y2="9.29536" gradientUnits="userSpaceOnUse">
<stop stop-color="#E2BCD8"/>
<stop offset="1" stop-color="#9D68A9"/>
</linearGradient>
<linearGradient id="paint28_linear_4933_2603" x1="12.8636" y1="23.4018" x2="17.8041" y2="23.4018" gradientUnits="userSpaceOnUse">
<stop stop-color="#E2BCD8"/>
<stop offset="1" stop-color="#9D68A9"/>
</linearGradient>
<linearGradient id="paint29_linear_4933_2603" x1="10.4485" y1="8.96161" x2="15.0945" y2="8.96161" gradientUnits="userSpaceOnUse">
<stop stop-color="#E2BCD8"/>
<stop offset="1" stop-color="#9D68A9"/>
</linearGradient>
<linearGradient id="paint30_linear_4933_2603" x1="10.4485" y1="10.0445" x2="15.0945" y2="10.0445" gradientUnits="userSpaceOnUse">
<stop stop-color="#E2BCD8"/>
<stop offset="1" stop-color="#9D68A9"/>
</linearGradient>
<linearGradient id="paint31_linear_4933_2603" x1="10.449" y1="11.1299" x2="15.0949" y2="11.1299" gradientUnits="userSpaceOnUse">
<stop stop-color="#E2BCD8"/>
<stop offset="1" stop-color="#9D68A9"/>
</linearGradient>
<linearGradient id="paint32_linear_4933_2603" x1="10.4485" y1="12.2146" x2="15.0945" y2="12.2146" gradientUnits="userSpaceOnUse">
<stop stop-color="#E2BCD8"/>
<stop offset="1" stop-color="#9D68A9"/>
</linearGradient>
<linearGradient id="paint33_linear_4933_2603" x1="10.4486" y1="13.3008" x2="15.0945" y2="13.3008" gradientUnits="userSpaceOnUse">
<stop stop-color="#E2BCD8"/>
<stop offset="1" stop-color="#9D68A9"/>
</linearGradient>
<linearGradient id="paint34_linear_4933_2603" x1="10.4484" y1="14.3687" x2="15.0944" y2="14.3687" gradientUnits="userSpaceOnUse">
<stop stop-color="#E2BCD8"/>
<stop offset="1" stop-color="#9D68A9"/>
</linearGradient>
<linearGradient id="paint35_linear_4933_2603" x1="10.4487" y1="15.4311" x2="15.0947" y2="15.4311" gradientUnits="userSpaceOnUse">
<stop stop-color="#E2BCD8"/>
<stop offset="1" stop-color="#9D68A9"/>
</linearGradient>
<linearGradient id="paint36_linear_4933_2603" x1="10.4486" y1="16.5508" x2="15.0945" y2="16.5508" gradientUnits="userSpaceOnUse">
<stop stop-color="#E2BCD8"/>
<stop offset="1" stop-color="#9D68A9"/>
</linearGradient>
<linearGradient id="paint37_linear_4933_2603" x1="10.4487" y1="17.7123" x2="15.0947" y2="17.7123" gradientUnits="userSpaceOnUse">
<stop stop-color="#E2BCD8"/>
<stop offset="1" stop-color="#9D68A9"/>
</linearGradient>
<linearGradient id="paint38_linear_4933_2603" x1="10.4488" y1="18.9256" x2="15.0947" y2="18.9256" gradientUnits="userSpaceOnUse">
<stop stop-color="#E2BCD8"/>
<stop offset="1" stop-color="#9D68A9"/>
</linearGradient>
<linearGradient id="paint39_linear_4933_2603" x1="10.4486" y1="20.0645" x2="15.0945" y2="20.0645" gradientUnits="userSpaceOnUse">
<stop stop-color="#E2BCD8"/>
<stop offset="1" stop-color="#9D68A9"/>
</linearGradient>
<linearGradient id="paint40_linear_4933_2603" x1="10.4486" y1="21.1452" x2="15.0946" y2="21.1452" gradientUnits="userSpaceOnUse">
<stop stop-color="#E2BCD8"/>
<stop offset="1" stop-color="#9D68A9"/>
</linearGradient>
<linearGradient id="paint41_linear_4933_2603" x1="10.4489" y1="22.1739" x2="15.0948" y2="22.1739" gradientUnits="userSpaceOnUse">
<stop stop-color="#E2BCD8"/>
<stop offset="1" stop-color="#9D68A9"/>
</linearGradient>
<linearGradient id="paint42_linear_4933_2603" x1="10.4488" y1="23.1735" x2="15.0947" y2="23.1735" gradientUnits="userSpaceOnUse">
<stop stop-color="#E2BCD8"/>
<stop offset="1" stop-color="#9D68A9"/>
</linearGradient>
<linearGradient id="paint43_linear_4933_2603" x1="10.4486" y1="24.1742" x2="15.0946" y2="24.1742" gradientUnits="userSpaceOnUse">
<stop stop-color="#E2BCD8"/>
<stop offset="1" stop-color="#9D68A9"/>
</linearGradient>
<linearGradient id="paint44_linear_4933_2603" x1="10.4489" y1="25.2132" x2="15.0949" y2="25.2132" gradientUnits="userSpaceOnUse">
<stop stop-color="#E2BCD8"/>
<stop offset="1" stop-color="#9D68A9"/>
</linearGradient>
<linearGradient id="paint45_linear_4933_2603" x1="10.4487" y1="26.3075" x2="15.0947" y2="26.3075" gradientUnits="userSpaceOnUse">
<stop stop-color="#E2BCD8"/>
<stop offset="1" stop-color="#9D68A9"/>
</linearGradient>
<linearGradient id="paint46_linear_4933_2603" x1="10.4486" y1="27.4661" x2="15.0946" y2="27.4661" gradientUnits="userSpaceOnUse">
<stop stop-color="#E2BCD8"/>
<stop offset="1" stop-color="#9D68A9"/>
</linearGradient>
<linearGradient id="paint47_linear_4933_2603" x1="10.4484" y1="28.6672" x2="15.0943" y2="28.6672" gradientUnits="userSpaceOnUse">
<stop stop-color="#E2BCD8"/>
<stop offset="1" stop-color="#9D68A9"/>
</linearGradient>
<linearGradient id="paint48_linear_4933_2603" x1="10.4486" y1="29.8436" x2="15.0946" y2="29.8436" gradientUnits="userSpaceOnUse">
<stop stop-color="#E2BCD8"/>
<stop offset="1" stop-color="#9D68A9"/>
</linearGradient>
<linearGradient id="paint49_linear_4933_2603" x1="10.4487" y1="31.0153" x2="15.0946" y2="31.0153" gradientUnits="userSpaceOnUse">
<stop stop-color="#E2BCD8"/>
<stop offset="1" stop-color="#9D68A9"/>
</linearGradient>
<linearGradient id="paint50_linear_4933_2603" x1="10.4487" y1="32.1782" x2="15.0947" y2="32.1782" gradientUnits="userSpaceOnUse">
<stop stop-color="#E2BCD8"/>
<stop offset="1" stop-color="#9D68A9"/>
</linearGradient>
<linearGradient id="paint51_linear_4933_2603" x1="10.4487" y1="33.328" x2="15.0947" y2="33.328" gradientUnits="userSpaceOnUse">
<stop stop-color="#E2BCD8"/>
<stop offset="1" stop-color="#9D68A9"/>
</linearGradient>
<linearGradient id="paint52_linear_4933_2603" x1="10.4484" y1="34.4591" x2="15.0944" y2="34.4591" gradientUnits="userSpaceOnUse">
<stop stop-color="#E2BCD8"/>
<stop offset="1" stop-color="#9D68A9"/>
</linearGradient>
<linearGradient id="paint53_linear_4933_2603" x1="10.4487" y1="35.5652" x2="15.0946" y2="35.5652" gradientUnits="userSpaceOnUse">
<stop stop-color="#E2BCD8"/>
<stop offset="1" stop-color="#9D68A9"/>
</linearGradient>
<linearGradient id="paint54_linear_4933_2603" x1="10.4484" y1="36.6421" x2="15.0944" y2="36.6421" gradientUnits="userSpaceOnUse">
<stop stop-color="#E2BCD8"/>
<stop offset="1" stop-color="#9D68A9"/>
</linearGradient>
<linearGradient id="paint55_linear_4933_2603" x1="10.4488" y1="37.6704" x2="15.0948" y2="37.6704" gradientUnits="userSpaceOnUse">
<stop stop-color="#E2BCD8"/>
<stop offset="1" stop-color="#9D68A9"/>
</linearGradient>
<linearGradient id="paint56_linear_4933_2603" x1="21.9712" y1="12.3752" x2="31.4268" y2="12.3752" gradientUnits="userSpaceOnUse">
<stop stop-color="#E2BCD8"/>
<stop offset="1" stop-color="#9D68A9"/>
</linearGradient>
<linearGradient id="paint57_linear_4933_2603" x1="13.4574" y1="12.3765" x2="23.1132" y2="12.3765" gradientUnits="userSpaceOnUse">
<stop stop-color="#E2BCD8"/>
<stop offset="1" stop-color="#9D68A9"/>
</linearGradient>
<linearGradient id="paint58_linear_4933_2603" x1="21.9088" y1="33.4739" x2="23.0868" y2="33.4739" gradientUnits="userSpaceOnUse">
<stop stop-color="#E2BCD8"/>
<stop offset="1" stop-color="#9D68A9"/>
</linearGradient>
<linearGradient id="paint59_linear_4933_2603" x1="13.2408" y1="27.5375" x2="31.6543" y2="27.5375" gradientUnits="userSpaceOnUse">
<stop stop-color="#E2BCD8"/>
<stop offset="1" stop-color="#9D68A9"/>
</linearGradient>
</defs>
</svg>
