<svg width="45" height="45" viewBox="0 0 45 45" fill="none" xmlns="http://www.w3.org/2000/svg">
<defs>
<linearGradient id="paint0_linear_4933_2670" x1="25.4563" y1="19.6673" x2="36.1865" y2="19.6673" gradientUnits="userSpaceOnUse">
<stop stop-color="#F39A21"/>
<stop offset="1" stop-color="#E969A3"/>
</linearGradient>
<linearGradient id="paint1_linear_4933_2670" x1="9.02137" y1="19.6673" x2="19.7517" y2="19.6673" gradientUnits="userSpaceOnUse">
<stop stop-color="#F39A21"/>
<stop offset="1" stop-color="#E969A3"/>
</linearGradient>
<linearGradient id="paint2_linear_4933_2670" x1="30.6062" y1="21.491" x2="32.2983" y2="21.491" gradientUnits="userSpaceOnUse">
<stop stop-color="#F39A21"/>
<stop offset="1" stop-color="#E969A3"/>
</linearGradient>
<linearGradient id="paint3_linear_4933_2670" x1="12.9158" y1="21.4411" x2="14.6079" y2="21.4411" gradientUnits="userSpaceOnUse">
<stop stop-color="#F39A21"/>
<stop offset="1" stop-color="#E969A3"/>
</linearGradient>
<linearGradient id="paint4_linear_4933_2670" x1="22.3441" y1="22.7444" x2="25.0334" y2="22.7444" gradientUnits="userSpaceOnUse">
<stop stop-color="#F39A21"/>
<stop offset="1" stop-color="#E969A3"/>
</linearGradient>
<linearGradient id="paint5_linear_4933_2670" x1="22.9328" y1="22.7444" x2="20.2435" y2="22.7444" gradientUnits="userSpaceOnUse">
<stop stop-color="#F39A21"/>
<stop offset="1" stop-color="#E969A3"/>
</linearGradient>
<linearGradient id="paint6_linear_4933_2670" x1="12.7278" y1="27.8937" x2="32.3425" y2="27.8937" gradientUnits="userSpaceOnUse">
<stop stop-color="#F39A21"/>
<stop offset="1" stop-color="#E969A3"/>
</linearGradient>
</defs>
<path d="M22.5 45C34.9264 45 45 34.9264 45 22.5C45 10.0736 34.9264 0 22.5 0C10.0736 0 0 10.0736 0 22.5C0 34.9264 10.0736 45 22.5 45Z" fill="#FCE4DF"/>
<path d="M35.8586 19.1073C35.6701 15.1727 32.301 14.9843 28.9319 14.3363C25.5628 13.6884 25.7512 10.5903 25.7512 10.5903H22.606H19.4607C19.4607 10.5903 19.6491 13.6767 16.28 14.3363C12.9109 14.996 9.54183 15.1845 9.35334 19.1073C9.16486 23.0418 9.91879 27.1531 9.35334 28.7434C9.35334 28.7434 15.373 34.7159 22.606 34.6217C29.8507 34.7159 35.8586 28.7434 35.8586 28.7434C35.3049 27.1531 36.047 23.0418 35.8586 19.1073Z" fill="white"/>
<path d="M35.8586 28.7434C35.5052 27.7774 35.5523 26.7172 35.5287 25.7159L35.5994 22.6649C35.6112 21.6518 35.6465 20.6387 35.5994 19.6374C35.5759 18.6361 35.4345 17.6583 34.869 16.9044C34.3389 16.1387 33.4554 15.6675 32.513 15.373C31.5706 15.0667 30.5693 14.9136 29.5798 14.6897C28.602 14.513 27.4947 14.2068 26.7526 13.4411C26.0104 12.6753 25.657 11.6034 25.7395 10.5903C25.7984 11.6034 26.2107 12.5929 26.9528 13.229C27.695 13.9005 28.6609 14.1125 29.6622 14.2421C30.6635 14.3952 31.6766 14.5602 32.6779 14.8547C33.6675 15.1492 34.6923 15.6439 35.352 16.5628C35.9999 17.4699 36.1295 18.6125 36.1295 19.6256C36.1413 20.6505 36.1295 21.6753 36.0471 22.6884L35.8115 25.7277C35.7526 26.729 35.6348 27.7539 35.8586 28.7434Z" fill="url(#paint0_linear_4933_2670)"/>
<path d="M19.4607 10.5903C19.5431 11.6034 19.1897 12.6753 18.4476 13.4411C17.7054 14.2185 16.5863 14.513 15.6203 14.6897C14.6308 14.9136 13.6295 15.0667 12.6871 15.373C11.7565 15.6793 10.8612 16.1387 10.3311 16.9044C9.76564 17.6701 9.62427 18.6361 9.60071 19.6374C9.55359 20.6387 9.58893 21.6518 9.60071 22.6649L9.6714 25.7159C9.64784 26.729 9.69496 27.7774 9.34155 28.7434C9.56537 27.7539 9.44757 26.729 9.37689 25.7277L9.14129 22.6884C9.05883 21.6753 9.03527 20.6505 9.05883 19.6256C9.07061 18.6125 9.18841 17.4699 9.83632 16.5628C10.496 15.6557 11.5209 15.161 12.5104 14.8547C13.5117 14.5602 14.5248 14.3835 15.5261 14.2421C16.5392 14.1125 17.5052 13.9005 18.2355 13.229C18.9895 12.5929 19.4018 11.6034 19.4607 10.5903Z" fill="url(#paint1_linear_4933_2670)"/>
<path d="M30.8998 23.6426C30.8998 23.6426 31.2061 21.428 32.0307 19.3429L30.8998 23.6426Z" fill="white"/>
<path d="M30.8995 23.6426C30.7817 22.8769 30.8878 22.123 31.0645 21.3926C31.2647 20.6623 31.5357 19.9555 32.0304 19.3429C32.0187 19.7316 31.9362 20.0968 31.8773 20.462C31.8184 20.8272 31.7242 21.1806 31.6417 21.534C31.4414 22.2408 31.2412 22.9476 30.8995 23.6426Z" fill="url(#paint2_linear_4933_2670)"/>
<path d="M13.2054 19.2842C13.2054 19.2842 13.5117 21.4989 14.3363 23.584L13.2054 19.2842Z" fill="white"/>
<path d="M13.2055 19.2842C13.5471 19.9793 13.7474 20.6861 13.9359 21.3929C14.0183 21.7463 14.1126 22.0997 14.1715 22.4649C14.2304 22.8301 14.3011 23.1952 14.3246 23.584C13.8416 22.9714 13.5589 22.2646 13.3587 21.5342C13.1937 20.8157 13.0877 20.0617 13.2055 19.2842Z" fill="url(#paint3_linear_4933_2670)"/>
<path d="M22.6415 25.0447C22.6415 25.0447 22.7711 21.7227 24.8798 20.4504L22.6415 25.0447Z" fill="white"/>
<path d="M22.6414 25.0447C22.4765 24.1494 22.6296 23.2187 22.9713 22.3588C23.3364 21.5224 23.9961 20.7214 24.8914 20.4504C24.5851 20.792 24.3142 21.1101 24.0904 21.4753C23.8783 21.8405 23.6781 22.2056 23.5131 22.5944C23.1715 23.3601 22.9241 24.1729 22.6414 25.0447Z" fill="url(#paint4_linear_4933_2670)"/>
<path d="M22.6412 25.0447C22.6412 25.0447 22.5116 21.7227 20.403 20.4504L22.6412 25.0447Z" fill="white"/>
<path d="M22.6415 25.0447C22.347 24.1847 22.1114 23.3719 21.7697 22.5944C21.6048 22.2056 21.4046 21.8405 21.1925 21.4753C20.9687 21.1219 20.6978 20.792 20.3915 20.4504C21.2868 20.7214 21.9465 21.5224 22.3116 22.3588C22.6533 23.207 22.8064 24.1376 22.6415 25.0447Z" fill="url(#paint5_linear_4933_2670)"/>
<path d="M29.2146 21.1217C24.7028 20.8272 22.6059 24.4437 22.6059 24.4437C22.6059 24.4437 20.7093 20.6034 15.9973 21.1217C14.5955 21.2748 10.0955 25.5628 14.8782 29.7683L14.7839 32.0183V33.1374C14.7839 33.1374 16.9633 33.8089 19.2957 34.3272C21.475 34.822 23.7486 34.822 25.9397 34.3272C28.2604 33.7971 30.4515 33.1374 30.4515 33.1374V32.0183L30.3572 29.7683C34.5156 25.5628 31.1818 21.2513 29.2146 21.1217Z" fill="url(#paint6_linear_4933_2670)"/>
<path opacity="0.33" d="M23.2894 29.6268C23.7488 29.8977 24.2436 30.0391 24.7383 30.1333C25.2331 30.2158 25.7396 30.2393 26.2344 30.2276C26.7409 30.2276 27.2475 30.1451 27.754 30.098C28.2606 30.0273 28.7789 29.9213 29.309 29.8506C29.0852 30.0037 28.8378 30.1098 28.6022 30.2511L27.8483 30.5456C27.33 30.7105 26.7881 30.8166 26.2462 30.8283C25.6925 30.8401 25.1388 30.7812 24.6087 30.581C24.1022 30.3807 23.5957 30.0862 23.2894 29.6268Z" fill="white"/>
<path opacity="0.33" d="M22.0052 29.6268C21.6989 30.0862 21.1924 30.3689 20.6741 30.5692C20.1558 30.7694 19.5903 30.8166 19.0366 30.8166C18.483 30.8048 17.9411 30.6988 17.4345 30.5338L16.6806 30.2393C16.445 30.1098 16.1976 29.992 15.9738 29.8388C16.5157 29.9095 17.0222 30.0155 17.5288 30.0862C18.0471 30.1333 18.5419 30.2158 19.0484 30.2158C19.555 30.2393 20.0497 30.204 20.5445 30.1215C21.051 30.0391 21.534 29.8977 22.0052 29.6268Z" fill="white"/>

</svg>
