<svg width="50" height="50" viewBox="0 0 50 50" fill="none" xmlns="http://www.w3.org/2000/svg">
<rect width="50" height="50" fill="white"/>
<circle cx="25" cy="25" r="25" fill="#F2F2F2"/>
<path d="M35.9091 36.7205H14.0909C13.6382 36.7205 13.2728 36.3466 13.2728 35.8833V22.488C13.2728 22.0247 13.6382 21.6507 14.0909 21.6507H18.1819V14.1159C18.1819 13.6526 18.5473 13.2787 19 13.2787H31C31.4528 13.2787 31.8182 13.6526 31.8182 14.1159V21.6507H35.9091C36.3619 21.6507 36.7273 22.0247 36.7273 22.488V35.8833C36.7273 36.3466 36.3619 36.7205 35.9091 36.7205ZM14.9091 35.0461H35.091V23.3252H31C30.5473 23.3252 30.1819 22.9512 30.1819 22.488V14.9531H19.8182V22.488C19.8182 22.9512 19.4528 23.3252 19 23.3252H14.9091V35.0461Z" fill="#C2C2C2"/>
<path d="M18.4546 28.0695C19.0571 28.0695 19.5456 27.5698 19.5456 26.9533C19.5456 26.3367 19.0571 25.837 18.4546 25.837C17.8522 25.837 17.3637 26.3367 17.3637 26.9533C17.3637 27.5698 17.8522 28.0695 18.4546 28.0695Z" fill="#C2C2C2"/>
<path d="M22.8185 28.0695C23.421 28.0695 23.9094 27.5698 23.9094 26.9533C23.9094 26.3367 23.421 25.837 22.8185 25.837C22.216 25.837 21.7276 26.3367 21.7276 26.9533C21.7276 27.5698 22.216 28.0695 22.8185 28.0695Z" fill="#C2C2C2"/>
<path d="M27.182 28.0695C27.7845 28.0695 28.2729 27.5698 28.2729 26.9533C28.2729 26.3367 27.7845 25.837 27.182 25.837C26.5795 25.837 26.0911 26.3367 26.0911 26.9533C26.0911 27.5698 26.5795 28.0695 27.182 28.0695Z" fill="#C2C2C2"/>
<path d="M31.5454 28.0695C32.1479 28.0695 32.6363 27.5698 32.6363 26.9533C32.6363 26.3367 32.1479 25.837 31.5454 25.837C30.9429 25.837 30.4545 26.3367 30.4545 26.9533C30.4545 27.5698 30.9429 28.0695 31.5454 28.0695Z" fill="#C2C2C2"/>
<path d="M18.4546 32.535C19.0571 32.535 19.5456 32.0352 19.5456 31.4187C19.5456 30.8022 19.0571 30.3024 18.4546 30.3024C17.8522 30.3024 17.3637 30.8022 17.3637 31.4187C17.3637 32.0352 17.8522 32.535 18.4546 32.535Z" fill="#C2C2C2"/>
<path d="M31.5454 32.535C32.1479 32.535 32.6363 32.0352 32.6363 31.4187C32.6363 30.8022 32.1479 30.3024 31.5454 30.3024C30.9429 30.3024 30.4545 30.8022 30.4545 31.4187C30.4545 32.0352 30.9429 32.535 31.5454 32.535Z" fill="#C2C2C2"/>
<path d="M27.1818 21.0924H22.8182C22.3655 21.0924 22 20.7184 22 20.2552C22 19.7919 22.3655 19.418 22.8182 19.418H27.1818C27.6345 19.418 28 19.7919 28 20.2552C28 20.7184 27.6345 21.0924 27.1818 21.0924Z" fill="#C2C2C2"/>
<path d="M25 23.3253C24.5472 23.3253 24.1818 22.9513 24.1818 22.4881V18.023C24.1818 17.5597 24.5472 17.1858 25 17.1858C25.4527 17.1858 25.8182 17.5597 25.8182 18.023V22.4881C25.8182 22.9513 25.4527 23.3253 25 23.3253Z" fill="#C2C2C2"/>
<path d="M27.1818 36.7204C26.7291 36.7204 26.3636 36.3465 26.3636 35.8832V32.0097H23.6364V35.8832C23.6364 36.3465 23.2709 36.7204 22.8182 36.7204C22.3655 36.7204 22 36.3465 22 35.8832V31.1725C22 30.7093 22.3655 30.3353 22.8182 30.3353H27.1818C27.6345 30.3353 28 30.7093 28 31.1725V35.8832C28 36.3465 27.6345 36.7204 27.1818 36.7204Z" fill="#C2C2C2"/>
</svg>
