<svg width="12" height="12" viewBox="0 0 12 12" fill="none" xmlns="http://www.w3.org/2000/svg">
<path d="M11.4547 11.8602H0.545566C0.319202 11.8602 0.136475 11.6733 0.136475 11.4416V4.74396C0.136475 4.51234 0.319202 4.32536 0.545566 4.32536H2.59102V0.557917C2.59102 0.326289 2.77375 0.139313 3.00011 0.139313H9.00011C9.22647 0.139313 9.4092 0.326289 9.4092 0.557917V4.32536H11.4547C11.681 4.32536 11.8637 4.51234 11.8637 4.74396V11.4416C11.8637 11.6733 11.681 11.8602 11.4547 11.8602ZM0.954656 11.023H11.0456V5.16257H9.00011C8.77375 5.16257 8.59102 4.97559 8.59102 4.74396V0.976522H3.4092V4.74396C3.4092 4.97559 3.22647 5.16257 3.00011 5.16257H0.954656V11.023Z" fill="#666E6E"/>
<path d="M2.72746 7.53475C3.02871 7.53475 3.27292 7.28486 3.27292 6.97661C3.27292 6.66836 3.02871 6.41847 2.72746 6.41847C2.42622 6.41847 2.18201 6.66836 2.18201 6.97661C2.18201 7.28486 2.42622 7.53475 2.72746 7.53475Z" fill="#666E6E"/>
<path d="M4.90922 7.53475C5.21047 7.53475 5.45468 7.28486 5.45468 6.97661C5.45468 6.66836 5.21047 6.41847 4.90922 6.41847C4.60798 6.41847 4.36377 6.66836 4.36377 6.97661C4.36377 7.28486 4.60798 7.53475 4.90922 7.53475Z" fill="#666E6E"/>
<path d="M7.09099 7.53475C7.39223 7.53475 7.63644 7.28486 7.63644 6.97661C7.63644 6.66836 7.39223 6.41847 7.09099 6.41847C6.78974 6.41847 6.54553 6.66836 6.54553 6.97661C6.54553 7.28486 6.78974 7.53475 7.09099 7.53475Z" fill="#666E6E"/>
<path d="M9.27287 7.53475C9.57412 7.53475 9.81833 7.28486 9.81833 6.97661C9.81833 6.66836 9.57412 6.41847 9.27287 6.41847C8.97163 6.41847 8.72742 6.66836 8.72742 6.97661C8.72742 7.28486 8.97163 7.53475 9.27287 7.53475Z" fill="#666E6E"/>
<path d="M2.72746 9.76746C3.02871 9.76746 3.27292 9.51758 3.27292 9.20932C3.27292 8.90107 3.02871 8.65118 2.72746 8.65118C2.42622 8.65118 2.18201 8.90107 2.18201 9.20932C2.18201 9.51758 2.42622 9.76746 2.72746 9.76746Z" fill="#666E6E"/>
<path d="M9.27287 9.76746C9.57412 9.76746 9.81833 9.51758 9.81833 9.20932C9.81833 8.90107 9.57412 8.65118 9.27287 8.65118C8.97163 8.65118 8.72742 8.90107 8.72742 9.20932C8.72742 9.51758 8.97163 9.76746 9.27287 9.76746Z" fill="#666E6E"/>
<path d="M7.09091 4.04619H4.90909C4.68273 4.04619 4.5 3.85922 4.5 3.62759C4.5 3.39596 4.68273 3.20898 4.90909 3.20898H7.09091C7.31727 3.20898 7.5 3.39596 7.5 3.62759C7.5 3.85922 7.31727 4.04619 7.09091 4.04619Z" fill="#666E6E"/>
<path d="M6.00003 5.16263C5.77367 5.16263 5.59094 4.97566 5.59094 4.74403V2.51147C5.59094 2.27984 5.77367 2.09286 6.00003 2.09286C6.2264 2.09286 6.40912 2.27984 6.40912 2.51147V4.74403C6.40912 4.97566 6.2264 5.16263 6.00003 5.16263Z" fill="#666E6E"/>
<path d="M7.09091 11.8602C6.86455 11.8602 6.68182 11.6732 6.68182 11.4416V9.50486H5.31818V11.4416C5.31818 11.6732 5.13545 11.8602 4.90909 11.8602C4.68273 11.8602 4.5 11.6732 4.5 11.4416V9.08625C4.5 8.85463 4.68273 8.66765 4.90909 8.66765H7.09091C7.31727 8.66765 7.5 8.85463 7.5 9.08625V11.4416C7.5 11.6732 7.31727 11.8602 7.09091 11.8602Z" fill="#666E6E"/>
</svg>
