<svg width="16" height="13" viewBox="0 0 16 13" fill="none" xmlns="http://www.w3.org/2000/svg">
<path d="M1.33308 13L1.41537 12.9589L3.49611 12.0649L3.66303 11.9828C3.80175 11.9281 3.88404 11.9007 3.91225 11.9007L4.011 11.8711C4.14501 11.8368 4.27668 11.8186 4.41069 11.8186C4.52119 11.8186 4.65991 11.846 4.82684 11.9007H4.91383C5.80255 12.1995 6.84174 12.3477 8.03611 12.3477C10.2556 12.3477 12.1364 11.7593 13.6764 10.5802C15.2164 9.40105 15.9876 7.96193 15.9876 6.25596C15.9876 4.52263 15.2023 3.04702 13.6341 1.82684C12.0659 0.606667 10.1874 0 7.99378 0C5.8002 0 3.9146 0.608947 2.3323 1.82912C0.778218 3.04702 0 4.52263 0 6.25596C0 7.50123 0.416147 8.6393 1.24844 9.66789L1.37305 9.78877C1.45534 9.92333 1.49766 10.0739 1.49766 10.2358C1.49766 10.2632 1.26255 11.0477 0.789974 12.5918C0.733547 12.8084 0.832294 12.943 1.08151 12.9977H1.33308V13ZM1.86208 11.8596C2.21005 10.8014 2.38403 10.197 2.38403 10.0419C2.38403 9.75912 2.30409 9.5014 2.14422 9.26877L2.06428 9.19123C2.03842 9.16614 2.02431 9.12737 2.02431 9.07491C1.30017 8.17175 0.940445 7.22982 0.940445 6.2514C0.940445 4.78035 1.62932 3.52368 3.00472 2.47912C4.38012 1.43456 6.04236 0.912281 7.99378 0.912281C9.94521 0.912281 11.6004 1.4414 12.964 2.49737C14.3535 3.53053 15.0471 4.78035 15.0471 6.2514C15.0471 7.67 14.3794 8.88105 13.044 9.88684C11.6286 10.9177 9.95932 11.4332 8.03375 11.4332C7.01807 11.4332 6.08233 11.3032 5.22888 11.0454H5.14894L5.10897 11.0067C4.84094 10.9542 4.6552 10.9291 4.54705 10.9291C4.3331 10.9291 4.11915 10.9679 3.9052 11.0454H3.86523C3.78529 11.0454 3.63717 11.0979 3.42322 11.2005L1.86208 11.8596Z" fill="#666E6E"/>
<path d="M5.76051 7.07022C6.08513 7.07022 6.34828 6.81495 6.34828 6.50005C6.34828 6.18515 6.08513 5.92987 5.76051 5.92987C5.43589 5.92987 5.17273 6.18515 5.17273 6.50005C5.17273 6.81495 5.43589 7.07022 5.76051 7.07022Z" fill="#666E6E"/>
<path d="M8.11146 7.07022C8.43608 7.07022 8.69924 6.81495 8.69924 6.50005C8.69924 6.18515 8.43608 5.92987 8.11146 5.92987C7.78684 5.92987 7.52368 6.18515 7.52368 6.50005C7.52368 6.81495 7.78684 7.07022 8.11146 7.07022Z" fill="#666E6E"/>
<path d="M10.4624 7.07022C10.787 7.07022 11.0502 6.81495 11.0502 6.50005C11.0502 6.18515 10.787 5.92987 10.4624 5.92987C10.1378 5.92987 9.87463 6.18515 9.87463 6.50005C9.87463 6.81495 10.1378 7.07022 10.4624 7.07022Z" fill="#666E6E"/>
</svg>
