<svg width="45" height="45" viewBox="0 0 45 45" fill="none" xmlns="http://www.w3.org/2000/svg">
	<defs>
<linearGradient id="paint0_linear_8896_38927" x1="22.4973" y1="-35.7759" x2="22.4973" y2="35.0072" gradientUnits="userSpaceOnUse">
<stop offset="0.3425" stop-color="#B8DEC7"/>
<stop offset="1" stop-color="#21AADA"/>
</linearGradient>
<linearGradient id="paint1_linear_8896_38927" x1="12.8103" y1="25.2443" x2="12.8103" y2="31.0231" gradientUnits="userSpaceOnUse">
<stop offset="0.3425" stop-color="#B8DEC7"/>
<stop offset="1" stop-color="#21AADA"/>
</linearGradient>
<linearGradient id="paint2_linear_8896_38927" x1="32.5306" y1="25.2457" x2="32.5306" y2="31.0231" gradientUnits="userSpaceOnUse">
<stop offset="0.3425" stop-color="#B8DEC7"/>
<stop offset="1" stop-color="#21AADA"/>
</linearGradient>
<linearGradient id="paint3_linear_8896_38927" x1="22.499" y1="15.2155" x2="22.499" y2="38.5469" gradientUnits="userSpaceOnUse">
<stop offset="0.3425" stop-color="#B8DEC7"/>
<stop offset="1" stop-color="#21AADA"/>
</linearGradient>
<linearGradient id="paint4_linear_8896_38927" x1="25.2555" y1="25.0721" x2="27.8035" y2="27.62" gradientUnits="userSpaceOnUse">
<stop stop-color="#B8DEC7"/>
<stop offset="0.7108" stop-color="#21AADA"/>
</linearGradient>
<linearGradient id="paint5_linear_8896_38927" x1="25.3095" y1="23.0751" x2="28.4649" y2="26.2306" gradientUnits="userSpaceOnUse">
<stop stop-color="#B8DEC7"/>
<stop offset="0.7108" stop-color="#21AADA"/>
</linearGradient>
<linearGradient id="paint6_linear_8896_38927" x1="19.6787" y1="25.0721" x2="17.1307" y2="27.62" gradientUnits="userSpaceOnUse">
<stop stop-color="#B8DEC7"/>
<stop offset="0.7108" stop-color="#21AADA"/>
</linearGradient>
<linearGradient id="paint7_linear_8896_38927" x1="19.6249" y1="23.0751" x2="16.4694" y2="26.2306" gradientUnits="userSpaceOnUse">
<stop stop-color="#B8DEC7"/>
<stop offset="0.7108" stop-color="#21AADA"/>
</linearGradient>
<linearGradient id="paint8_linear_8896_38927" x1="25.4703" y1="-18.7988" x2="25.4703" y2="28.5335" gradientUnits="userSpaceOnUse">
<stop offset="0.3425" stop-color="#B8DEC7"/>
<stop offset="1" stop-color="#21AADA"/>
</linearGradient>
<linearGradient id="paint9_linear_8896_38927" x1="15.6829" y1="28.6085" x2="16.3196" y2="37.0362" gradientUnits="userSpaceOnUse">
<stop stop-color="#B8DEC7"/>
<stop offset="0.654" stop-color="#21AADA"/>
</linearGradient>
<linearGradient id="paint10_linear_8896_38927" x1="16.0576" y1="28.5804" x2="16.6945" y2="37.0081" gradientUnits="userSpaceOnUse">
<stop stop-color="#B8DEC7"/>
<stop offset="0.654" stop-color="#21AADA"/>
</linearGradient>
<linearGradient id="paint11_linear_8896_38927" x1="16.5398" y1="28.5437" x2="17.1766" y2="36.9714" gradientUnits="userSpaceOnUse">
<stop stop-color="#B8DEC7"/>
<stop offset="0.654" stop-color="#21AADA"/>
</linearGradient>
<linearGradient id="paint12_linear_8896_38927" x1="17.1089" y1="28.5007" x2="17.7457" y2="36.9285" gradientUnits="userSpaceOnUse">
<stop stop-color="#B8DEC7"/>
<stop offset="0.654" stop-color="#21AADA"/>
</linearGradient>
<linearGradient id="paint13_linear_8896_38927" x1="17.7639" y1="28.4513" x2="18.4008" y2="36.879" gradientUnits="userSpaceOnUse">
<stop stop-color="#B8DEC7"/>
<stop offset="0.654" stop-color="#21AADA"/>
</linearGradient>
<linearGradient id="paint14_linear_8896_38927" x1="18.4989" y1="28.3956" x2="19.1357" y2="36.8233" gradientUnits="userSpaceOnUse">
<stop stop-color="#B8DEC7"/>
<stop offset="0.654" stop-color="#21AADA"/>
</linearGradient>
<linearGradient id="paint15_linear_8896_38927" x1="19.3062" y1="28.3348" x2="19.9429" y2="36.7625" gradientUnits="userSpaceOnUse">
<stop stop-color="#B8DEC7"/>
<stop offset="0.654" stop-color="#21AADA"/>
</linearGradient>
<linearGradient id="paint16_linear_8896_38927" x1="20.1877" y1="28.2682" x2="20.8244" y2="36.6959" gradientUnits="userSpaceOnUse">
<stop stop-color="#B8DEC7"/>
<stop offset="0.654" stop-color="#21AADA"/>
</linearGradient>
<linearGradient id="paint17_linear_8896_38927" x1="21.1364" y1="28.1965" x2="21.7732" y2="36.6242" gradientUnits="userSpaceOnUse">
<stop stop-color="#B8DEC7"/>
<stop offset="0.654" stop-color="#21AADA"/>
</linearGradient>
</defs>
<path d="M22.5 45C34.9264 45 45 34.9264 45 22.5C45 10.0736 34.9264 0 22.5 0C10.0736 0 0 10.0736 0 22.5C0 34.9264 10.0736 45 22.5 45Z" fill="#E1F2F7"/>
<path d="M35.3282 20.8391C37.0245 13.2763 31.535 9.44776 29.0611 7.83388C26.658 6.27891 20.3674 6.03153 16.5507 7.83388C13.8766 9.09435 7.97476 13.2763 9.68287 20.8391C11.3792 28.4019 14.925 34.775 9.25879 33.4438C9.25879 33.4438 14.5009 37.025 16.2091 33.3142C17.4224 30.6637 20.7208 25.4923 22.5114 22.7593C24.302 25.504 27.6004 30.6637 28.8138 33.3142C30.5101 37.025 35.764 33.4438 35.764 33.4438C30.086 34.775 33.62 28.4137 35.3282 20.8391Z" fill="url(#paint0_linear_8896_38927)"/>
<path d="M13.9 26.9054C13.9 26.9054 12.2508 25.0206 11.4026 25.6685C10.5545 26.3164 11.5675 29.6973 14.6893 30.734" fill="white"/>
<path d="M14.607 31.0286C12.3806 30.2864 11.1083 28.3898 10.8727 26.9409C10.7549 26.2576 10.8845 25.7157 11.2379 25.4448C12.2745 24.6437 13.9473 26.505 14.1358 26.717L13.6882 27.1058C13.2052 26.5639 12.0743 25.5508 11.5913 25.916C11.4735 26.0102 11.3675 26.3047 11.4499 26.8466C11.662 28.1307 12.8047 29.8152 14.7955 30.4749L14.607 31.0286Z" fill="url(#paint1_linear_8896_38927)"/>
<path d="M31.441 26.9054C31.441 26.9054 33.0902 25.0206 33.9384 25.6685C34.7866 26.3164 33.7735 29.6973 30.6517 30.734" fill="white"/>
<path d="M30.7344 31.0286L30.5459 30.4749C32.5367 29.8152 33.6794 28.1307 33.8914 26.8466C33.9857 26.3047 33.8679 26.0102 33.7501 25.916C33.2789 25.5508 32.1362 26.5639 31.6532 27.1058L31.2056 26.717C31.3941 26.505 33.0668 24.6437 34.1035 25.4448C34.4451 25.7039 34.5865 26.2576 34.4687 26.9409C34.2331 28.3898 32.9608 30.2864 30.7344 31.0286Z" fill="url(#paint2_linear_8896_38927)"/>
<path d="M19.3549 15.5262C16.3745 18.2356 13.0879 25.6924 13.0879 25.6924C14.8431 35.8822 22.5002 38.2382 22.5002 38.2382C22.5002 38.2382 30.1573 35.8822 31.9125 25.6924C29.368 21.2513 30.063 16.8809 19.3549 15.5262Z" fill="white"/>
<path d="M22.5 38.5444L22.4176 38.5208C22.3351 38.4973 20.4149 37.8965 18.2592 36.0117C16.2801 34.28 13.7238 31.0994 12.805 25.7512L12.7932 25.6687L12.8286 25.5863C12.9581 25.28 16.1859 18.0352 19.1663 15.314L19.2723 15.2198L19.4019 15.2316C28.1191 16.3389 29.4856 19.5313 30.9228 22.924C31.288 23.7839 31.6649 24.6674 32.1715 25.5509L32.2186 25.6452L32.1951 25.7512C31.2762 31.0994 28.7199 34.2918 26.7409 36.0117C24.5851 37.8965 22.6649 38.4973 22.5825 38.5208L22.5 38.5444ZM13.394 25.7394C15.0197 34.975 21.6636 37.6373 22.5 37.9318C23.3364 37.6373 29.9804 34.975 31.606 25.7512C31.1113 24.8677 30.7343 23.996 30.3809 23.1478C28.9555 19.8022 27.7186 16.9043 19.4608 15.8324C16.7513 18.3886 13.7474 24.9266 13.394 25.7394Z" fill="url(#paint3_linear_8896_38927)"/>
<path d="M24.1139 26.2342C24.9149 26.5758 25.6806 26.8232 26.4464 26.8232C26.8351 26.835 27.2121 26.7761 27.6008 26.6701C27.9895 26.5758 28.3547 26.3874 28.767 26.2224C28.5079 26.5758 28.178 26.8821 27.7657 27.0942C27.3652 27.318 26.894 27.4122 26.4346 27.4122C25.5157 27.4005 24.6322 26.9528 24.1139 26.2342Z" fill="url(#paint4_linear_8896_38927)"/>
<path d="M23.9843 24.8442C24.2434 24.3376 24.6793 23.9253 25.1976 23.6544C25.7159 23.3599 26.3167 23.2421 26.9057 23.2421C27.4947 23.2656 28.072 23.4188 28.5903 23.6661C28.8494 23.7957 29.085 23.9489 29.3324 24.102C29.5445 24.2905 29.7683 24.4554 29.9686 24.6557C29.4384 24.4554 28.9437 24.2434 28.4254 24.0902C27.907 23.9607 27.4005 23.8311 26.8939 23.8311C25.8809 23.7957 24.8678 24.1374 23.9843 24.8442Z" fill="url(#paint5_linear_8896_38927)"/>
<path d="M20.8154 26.2342C20.2971 26.941 19.4136 27.4005 18.483 27.4122C18.0236 27.4122 17.5523 27.3298 17.1518 27.0942C16.7395 26.8939 16.4097 26.5758 16.1505 26.2224C16.5628 26.3874 16.928 26.5758 17.3167 26.6701C17.6937 26.7761 18.0825 26.835 18.4712 26.8232C19.2605 26.835 20.0144 26.5876 20.8154 26.2342Z" fill="url(#paint6_linear_8896_38927)"/>
<path d="M20.9452 24.8442C20.0617 24.1374 19.0604 23.7957 18.0355 23.8311C17.5172 23.8429 17.0107 23.9607 16.5041 24.0902C15.9858 24.2434 15.491 24.4554 14.9609 24.6557C15.1612 24.4554 15.385 24.2905 15.5971 24.102C15.8444 23.9607 16.08 23.7957 16.3392 23.6661C16.8575 23.4188 17.4348 23.2538 18.0238 23.2421C18.6128 23.2421 19.2136 23.3599 19.7319 23.6544C20.2502 23.9253 20.6861 24.3258 20.9452 24.8442Z" fill="url(#paint7_linear_8896_38927)"/>
<path d="M16.8808 12.3925C16.8808 12.3925 16.1268 19.1425 22.4645 21.6281C22.4645 21.6281 20.3441 18.7302 21.4986 16.9986C21.4986 16.9986 22.0758 19.013 27.0705 22.0876C27.0705 22.0876 25.1504 18.7302 26.4933 18.047C26.4933 18.047 26.5876 19.013 29.4737 22.653C32.3598 26.2931 31.3938 28.5077 31.3938 28.5077C31.3938 28.5077 33.797 27.3533 34.0797 21.5928C34.0797 21.5928 34.174 12.2747 25.8219 10.1543C17.4698 8.0339 17.6582 11.6268 16.8808 12.3925Z" fill="url(#paint8_linear_8896_38927)"/>
<path d="M15.5616 28.7197C15.6677 28.8846 15.7737 29.0495 15.8679 29.2262L15.6677 29.3087C15.6205 29.1084 15.5852 28.9082 15.5616 28.7197Z" fill="url(#paint9_linear_8896_38927)"/>
<path d="M16.1859 29.7094C16.3037 29.8626 16.398 30.0275 16.5158 30.1924L16.0446 30.4516C15.9739 30.2631 15.8914 30.0746 15.8325 29.8861L16.1859 29.7094Z" fill="url(#paint10_linear_8896_38927)"/>
<path d="M16.8338 30.6633L17.1754 31.1227L16.5511 31.5232L16.2802 30.9931L16.8338 30.6633Z" fill="url(#paint11_linear_8896_38927)"/>
<path d="M17.5288 31.5822L17.8822 32.018L17.2108 32.5364L16.8691 32.0416L17.5288 31.5822Z" fill="url(#paint12_linear_8896_38927)"/>
<path d="M18.2475 32.4539L18.6245 32.878L17.9766 33.4788L17.576 33.0194L18.2475 32.4539Z" fill="url(#paint13_linear_8896_38927)"/>
<path d="M19.0134 33.302L19.414 33.7025L18.8485 34.3151L18.4009 33.9028L19.0134 33.302Z" fill="url(#paint14_linear_8896_38927)"/>
<path d="M19.8143 34.1033C19.9556 34.2329 20.097 34.3507 20.2384 34.492L19.8025 35.0457C19.6376 34.9397 19.4727 34.8101 19.3077 34.6923L19.8143 34.1033Z" fill="url(#paint15_linear_8896_38927)"/>
<path d="M20.6741 34.869L21.1217 35.2341L20.8508 35.6464L20.3207 35.3637L20.6741 34.869Z" fill="url(#paint16_linear_8896_38927)"/>
<path d="M21.5692 35.6111L22.0286 35.9763L21.9697 36.0941L21.4043 35.8821L21.5692 35.6111Z" fill="url(#paint17_linear_8896_38927)"/>

</svg>
