<svg width="52" height="52" viewBox="0 0 52 52" fill="none" xmlns="http://www.w3.org/2000/svg">
<circle cx="26" cy="26" r="26" fill="#F2F2F2"/>
<path opacity="0.3" d="M35.5538 28.0587C34.9256 26.8584 34.2027 25.7769 33.4913 25.0099C34.3729 23.6843 34.8898 22.0954 34.8898 20.3812C34.8885 15.7537 31.1333 12.0019 26.5016 12.0006C21.8699 12.0019 18.1147 15.7537 18.1147 20.3812C18.1147 22.0928 18.6316 23.6843 19.5131 25.0099C18.8004 25.7769 18.0788 26.8596 17.4506 28.0587C16.8198 29.2744 16.2965 30.5769 16.0982 31.8028C16.033 32.2106 16.0022 32.6082 16.0022 32.9929C15.9971 34.2738 16.3669 35.4307 17.0156 36.3638C17.988 37.7725 19.4901 38.6622 21.1483 39.217C22.8129 39.7692 24.6707 39.9993 26.5016 40.0006C28.9441 39.9942 31.4314 39.6005 33.4465 38.5433C34.4522 38.0128 35.344 37.3021 35.9888 36.3638C36.635 35.4307 37.0047 34.2751 37.0022 32.9929C37.0022 32.6069 36.9715 32.2106 36.9049 31.8028C36.7079 30.5769 36.1846 29.2756 35.5538 28.0587ZM22.2013 16.0848C23.3055 14.9816 24.8178 14.3041 26.5016 14.3041C28.1841 14.3041 29.699 14.9816 30.8019 16.0848C31.9035 17.188 32.5842 18.7002 32.5842 20.3812C32.5829 22.0622 31.9048 23.5731 30.8019 24.6776C29.6977 25.7782 28.1841 26.457 26.5003 26.457C24.8178 26.4557 23.3042 25.7782 22.2 24.6776C21.0971 23.5744 20.4177 22.0634 20.4177 20.3812C20.419 18.7002 21.0984 17.188 22.2013 16.0848ZM34.0875 35.0638C33.5143 35.9036 32.4818 36.5824 31.1243 37.0337C29.7732 37.4849 28.1367 37.6997 26.5003 37.6971C24.3214 37.7035 22.1373 37.3098 20.6326 36.507C19.879 36.1107 19.3007 35.6237 18.9156 35.0612C18.5318 34.4962 18.3104 33.852 18.3066 32.9942C18.3066 32.7386 18.3283 32.4599 18.3744 32.162C18.5011 31.3388 18.9399 30.1807 19.4939 29.1248C19.9891 28.1712 20.5815 27.2943 21.0574 26.7484C22.5224 28.0012 24.4224 28.7618 26.5016 28.7618C28.582 28.7618 30.4807 28.0012 31.947 26.7497C32.4217 27.2955 33.0154 28.1712 33.5105 29.1261C34.0645 30.1819 34.5034 31.3401 34.6288 32.1633C34.6761 32.4612 34.6979 32.7373 34.6979 32.9955C34.6927 33.852 34.4727 34.4962 34.0875 35.0638Z" fill="#666E6E"/>
</svg>
