<svg width="45" height="45" viewBox="0 0 45 45" fill="none" xmlns="http://www.w3.org/2000/svg">
<path d="M22.5 45C34.9264 45 45 34.9264 45 22.5C45 10.0736 34.9264 0 22.5 0C10.0736 0 0 10.0736 0 22.5C0 34.9264 10.0736 45 22.5 45Z" fill="#FCE4DF"/>
<path d="M11.097 28.3781C10.1075 27.2826 9.15333 26.1517 8.2227 25.009C8.1049 24.8559 8.09312 24.6556 8.19914 24.5025L8.23448 24.4436C9.77767 22.0405 11.8745 20.0967 14.3366 18.6242C15.5617 17.8821 16.9046 17.3402 18.2947 16.9043C19.0015 16.7394 19.6965 16.5391 20.4269 16.4567C21.1455 16.3271 21.8641 16.28 22.5944 16.2682C25.4806 16.1975 28.4256 16.9043 30.9347 18.3415C33.4439 19.8022 35.5172 21.8755 36.8366 24.4554L36.8601 24.5143C36.9426 24.6792 36.919 24.8677 36.8248 25.009C35.8588 26.3166 34.8811 27.636 33.8209 28.8965C34.457 27.3768 35.1638 25.9043 35.8824 24.4436L35.8706 24.9855C34.3392 22.9357 32.2188 21.2747 29.957 20.1674C27.6717 19.0954 25.1507 18.53 22.618 18.6124C20.097 18.636 17.5879 19.2603 15.2908 20.3912C12.9936 21.5103 10.8261 23.1124 9.04731 24.9973L9.05909 24.4318C9.76589 25.7394 10.4609 27.047 11.097 28.3781Z" fill="url(#paint0_linear_4933_2492)"/>
<path d="M22.4996 30.9346C26.2991 30.9346 29.3792 27.8545 29.3792 24.055C29.3792 20.2555 26.2991 17.1754 22.4996 17.1754C18.7001 17.1754 15.62 20.2555 15.62 24.055C15.62 27.8545 18.7001 30.9346 22.4996 30.9346Z" fill="url(#paint1_linear_4933_2492)"/>
<path d="M20.4267 23.7724C21.5848 23.7724 22.5236 22.8336 22.5236 21.6756C22.5236 20.5175 21.5848 19.5787 20.4267 19.5787C19.2686 19.5787 18.3298 20.5175 18.3298 21.6756C18.3298 22.8336 19.2686 23.7724 20.4267 23.7724Z" fill="white"/>
<path d="M8.81152 20.3441L9.41231 19.331L9.56545 19.4488L8.81152 20.3441Z" fill="url(#paint2_linear_4933_2492)"/>
<path d="M10.1189 18.3768L10.9199 17.4933L11.2616 17.8702L10.3781 18.6242L10.1189 18.3768Z" fill="url(#paint3_linear_4933_2492)"/>
<path d="M11.8037 16.6806L12.7461 15.9384L13.1584 16.5392L12.1925 17.1753L11.8037 16.6806Z" fill="url(#paint4_linear_4933_2492)"/>
<path d="M13.7476 15.267L14.7842 14.6544L15.1965 15.4791L14.1599 15.9738L13.7476 15.267Z" fill="url(#paint5_linear_4933_2492)"/>
<path d="M15.8682 14.1243L16.9991 13.6648L17.3407 14.6661L16.2569 15.0431L15.8682 14.1243Z" fill="url(#paint6_linear_4933_2492)"/>
<path d="M18.1414 13.288L19.3194 12.9817L19.5432 14.1008L18.4359 14.3482L18.1414 13.288Z" fill="url(#paint7_linear_4933_2492)"/>
<path d="M20.5093 12.7695L21.7226 12.6281L21.8051 13.7943L20.6742 13.9121L20.5093 12.7695Z" fill="url(#paint8_linear_4933_2492)"/>
<path d="M22.936 12.5811L24.1612 12.6282L24.0787 13.7826L22.936 13.7591V12.5811Z" fill="url(#paint9_linear_4933_2492)"/>
<path d="M25.3624 12.7694L26.5639 12.9932L26.3166 14.0888L25.2092 13.9003L25.3624 12.7694Z" fill="url(#paint10_linear_4933_2492)"/>
<path d="M27.7418 13.335L28.8844 13.759L28.5075 14.7132L27.4237 14.3598L27.7418 13.335Z" fill="url(#paint11_linear_4933_2492)"/>
<path d="M29.9801 14.289L31.0285 14.9016L30.5809 15.6555L29.556 15.1489L29.9801 14.289Z" fill="url(#paint12_linear_4933_2492)"/>
<path d="M32.0067 15.6085L32.9373 16.3742L32.5015 16.9043L31.5591 16.2446L32.0067 15.6085Z" fill="url(#paint13_linear_4933_2492)"/>
<path d="M33.7852 17.2105L34.5627 18.1294L34.2446 18.4121L33.3846 17.6346L33.7852 17.2105Z" fill="url(#paint14_linear_4933_2492)"/>
<path d="M35.2696 19.0956C35.4816 19.4254 35.6937 19.7671 35.8939 20.0969L35.8115 20.1558C35.5523 19.8613 35.2932 19.5668 35.0458 19.2605L35.2696 19.0956Z" fill="url(#paint15_linear_4933_2492)"/>
<defs>
<linearGradient id="paint0_linear_4933_2492" x1="7.46548" y1="22.5866" x2="37.5303" y2="22.5866" gradientUnits="userSpaceOnUse">
<stop stop-color="#F39A21"/>
<stop offset="1" stop-color="#E969A3"/>
</linearGradient>
<linearGradient id="paint1_linear_4933_2492" x1="17.6353" y1="19.1887" x2="27.3592" y2="28.9127" gradientUnits="userSpaceOnUse">
<stop stop-color="#F39A21"/>
<stop offset="1" stop-color="#E969A3"/>
</linearGradient>
<linearGradient id="paint2_linear_4933_2492" x1="8.30887" y1="19.8365" x2="36.6839" y2="19.8365" gradientUnits="userSpaceOnUse">
<stop stop-color="#F39A21"/>
<stop offset="1" stop-color="#D64B96"/>
</linearGradient>
<linearGradient id="paint3_linear_4933_2492" x1="8.30864" y1="18.056" x2="36.6839" y2="18.056" gradientUnits="userSpaceOnUse">
<stop stop-color="#F39A21"/>
<stop offset="1" stop-color="#D64B96"/>
</linearGradient>
<linearGradient id="paint4_linear_4933_2492" x1="8.30891" y1="16.5584" x2="36.684" y2="16.5584" gradientUnits="userSpaceOnUse">
<stop stop-color="#F39A21"/>
<stop offset="1" stop-color="#D64B96"/>
</linearGradient>
<linearGradient id="paint5_linear_4933_2492" x1="8.30902" y1="15.3185" x2="36.6842" y2="15.3185" gradientUnits="userSpaceOnUse">
<stop stop-color="#F39A21"/>
<stop offset="1" stop-color="#D64B96"/>
</linearGradient>
<linearGradient id="paint6_linear_4933_2492" x1="8.30922" y1="14.3575" x2="36.6843" y2="14.3575" gradientUnits="userSpaceOnUse">
<stop stop-color="#F39A21"/>
<stop offset="1" stop-color="#D64B96"/>
</linearGradient>
<linearGradient id="paint7_linear_4933_2492" x1="8.30884" y1="13.6668" x2="36.684" y2="13.6668" gradientUnits="userSpaceOnUse">
<stop stop-color="#F39A21"/>
<stop offset="1" stop-color="#D64B96"/>
</linearGradient>
<linearGradient id="paint8_linear_4933_2492" x1="8.309" y1="13.2713" x2="36.684" y2="13.2713" gradientUnits="userSpaceOnUse">
<stop stop-color="#F39A21"/>
<stop offset="1" stop-color="#D64B96"/>
</linearGradient>
<linearGradient id="paint9_linear_4933_2492" x1="8.30902" y1="13.1849" x2="36.6841" y2="13.1849" gradientUnits="userSpaceOnUse">
<stop stop-color="#F39A21"/>
<stop offset="1" stop-color="#D64B96"/>
</linearGradient>
<linearGradient id="paint10_linear_4933_2492" x1="8.30869" y1="13.4305" x2="36.6837" y2="13.4305" gradientUnits="userSpaceOnUse">
<stop stop-color="#F39A21"/>
<stop offset="1" stop-color="#D64B96"/>
</linearGradient>
<linearGradient id="paint11_linear_4933_2492" x1="8.30845" y1="14.0235" x2="36.6836" y2="14.0235" gradientUnits="userSpaceOnUse">
<stop stop-color="#F39A21"/>
<stop offset="1" stop-color="#D64B96"/>
</linearGradient>
<linearGradient id="paint12_linear_4933_2492" x1="8.30861" y1="14.968" x2="36.6837" y2="14.968" gradientUnits="userSpaceOnUse">
<stop stop-color="#F39A21"/>
<stop offset="1" stop-color="#D64B96"/>
</linearGradient>
<linearGradient id="paint13_linear_4933_2492" x1="8.30913" y1="16.2549" x2="36.6841" y2="16.2549" gradientUnits="userSpaceOnUse">
<stop stop-color="#F39A21"/>
<stop offset="1" stop-color="#D64B96"/>
</linearGradient>
<linearGradient id="paint14_linear_4933_2492" x1="8.30872" y1="17.8157" x2="36.6838" y2="17.8157" gradientUnits="userSpaceOnUse">
<stop stop-color="#F39A21"/>
<stop offset="1" stop-color="#D64B96"/>
</linearGradient>
<linearGradient id="paint15_linear_4933_2492" x1="8.30907" y1="19.6213" x2="36.6839" y2="19.6213" gradientUnits="userSpaceOnUse">
<stop stop-color="#F39A21"/>
<stop offset="1" stop-color="#D64B96"/>
</linearGradient>
</defs>
</svg>
