<svg width="45" height="45" viewBox="0 0 45 45" fill="none" xmlns="http://www.w3.org/2000/svg">
<path d="M22.5 45C34.9264 45 45 34.9264 45 22.5C45 10.0736 34.9264 0 22.5 0C10.0736 0 0 10.0736 0 22.5C0 34.9264 10.0736 45 22.5 45Z" fill="#D2E9DB"/>
<path d="M9.63584 28.8376C8.55207 27.8245 7.50364 26.7878 6.47877 25.7276C6.34919 25.5863 6.32563 25.386 6.40809 25.2211L6.44343 25.1622C7.84526 22.5117 9.88322 20.2852 12.3806 18.5771C14.878 16.869 17.8701 15.8441 20.933 15.691C22.4762 15.6203 24.0429 15.797 25.5272 16.2211C27.0115 16.6452 28.4015 17.3284 29.6738 18.153C32.1947 19.8376 34.2327 22.064 35.6699 24.6792L35.6934 24.7263C35.8112 24.9266 35.7523 25.1857 35.5638 25.3271C33.9618 26.4933 32.3008 27.4946 30.5102 28.3075C28.7432 29.1085 26.823 29.7093 24.8793 29.6504C26.8112 29.509 28.6018 28.7198 30.2628 27.8127C31.9238 26.8821 33.5023 25.7747 34.9395 24.5614L34.8335 25.1975C33.9853 24.1373 33.0076 23.1124 31.9591 22.2289C30.9343 21.3219 29.8034 20.5326 28.6371 19.8847C26.2929 18.5771 23.6777 17.8703 21.0625 18.047C18.412 18.1648 15.8204 18.9894 13.4762 20.3323C11.1555 21.6753 8.99971 23.5365 7.31516 25.6923L7.26804 25.1268C8.08086 26.3166 8.87013 27.5653 9.63584 28.8376Z" fill="url(#paint0_linear_4933_2582)"/>
<path d="M20.6033 30.3928C24.4028 30.3928 27.4829 27.3127 27.4829 23.5132C27.4829 19.7137 24.4028 16.6336 20.6033 16.6336C16.8038 16.6336 13.7238 19.7137 13.7238 23.5132C13.7238 27.3127 16.8038 30.3928 20.6033 30.3928Z" fill="url(#paint1_linear_4933_2582)"/>
<path d="M18.1293 23.4542C19.2874 23.4542 20.2262 22.5154 20.2262 21.3574C20.2262 20.1993 19.2874 19.2605 18.1293 19.2605C16.9713 19.2605 16.0325 20.1993 16.0325 21.3574C16.0325 22.5154 16.9713 23.4542 18.1293 23.4542Z" fill="white"/>
<path d="M8.92932 20.0499C10.3194 17.7057 12.5694 15.9151 15.0314 14.7017C17.5052 13.4766 20.2971 12.8523 23.0772 12.8994C25.8573 12.9701 28.661 13.7593 30.9699 15.3261C31.2526 15.5263 31.5589 15.6913 31.8298 15.9151L32.6073 16.6101L33.3848 17.2934C33.6322 17.5407 33.8325 17.8117 34.0563 18.0708C34.9751 19.1075 35.6348 20.3091 36.2827 21.4871C34.6689 19.3195 32.784 17.3876 30.4987 16.1036C28.2251 14.8195 25.6571 14.1245 23.0537 14.0892C20.4503 14.0185 17.8351 14.5604 15.4084 15.5381L14.4895 15.9033L13.6178 16.3627C13.017 16.6455 12.4751 17.0224 11.9332 17.3994C10.7906 18.1062 9.85995 19.0604 8.92932 20.0499Z" fill="url(#paint2_linear_4933_2582)"/>
<path d="M25.2329 30.6518C25.4332 30.6165 25.6217 30.5811 25.8219 30.5576V30.7343C25.6334 30.7107 25.4332 30.6754 25.2329 30.6518Z" fill="url(#paint3_linear_4933_2582)"/>
<path d="M26.3993 30.4634L26.9765 30.3691L27.0119 30.8168L26.4111 30.7814L26.3993 30.4634Z" fill="url(#paint4_linear_4933_2582)"/>
<path d="M27.5653 30.2746L28.1308 30.1804L28.2014 30.8047L27.6006 30.8165L27.5653 30.2746Z" fill="url(#paint5_linear_4933_2582)"/>
<path d="M28.7083 30.0864L29.2855 29.9804L29.3915 30.7343L28.7907 30.7814L28.7083 30.0864Z" fill="url(#paint6_linear_4933_2582)"/>
<path d="M29.8506 29.8744L30.416 29.7566L30.5692 30.5812L29.9802 30.6637L29.8506 29.8744Z" fill="url(#paint7_linear_4933_2582)"/>
<path d="M30.9814 29.627L31.5469 29.4974L31.7472 30.3456L31.1581 30.4752L30.9814 29.627Z" fill="url(#paint8_linear_4933_2582)"/>
<path d="M32.1008 29.3442L32.6545 29.191L32.9137 30.0157L32.3364 30.1924L32.1008 29.3442Z" fill="url(#paint9_linear_4933_2582)"/>
<path d="M33.196 29.0142L33.7261 28.814L34.0442 29.5679L33.4905 29.8035L33.196 29.0142Z" fill="url(#paint10_linear_4933_2582)"/>
<path d="M34.2445 28.6021L34.7511 28.3429L35.128 28.9555L34.5979 29.2853L34.2445 28.6021Z" fill="url(#paint11_linear_4933_2582)"/>
<path d="M35.2345 28.0601L35.6821 27.742L36.0709 28.1426L35.6232 28.5784L35.2345 28.0601Z" fill="url(#paint12_linear_4933_2582)"/>
<path d="M36.0945 27.365L36.283 27.153L36.2594 27.3297L36.2005 27.047L36.5186 26.9292L36.6364 27.1883C36.6599 27.2355 36.6599 27.2944 36.6364 27.3297L36.6246 27.3533L36.4597 27.636L36.0945 27.365Z" fill="url(#paint13_linear_4933_2582)"/>
<path d="M36.0825 26.458C36.0353 26.2695 36.0118 26.0693 35.9764 25.869L36.0118 25.8572C36.106 26.0339 36.1885 26.2106 36.2709 26.3873L36.0825 26.458Z" fill="url(#paint14_linear_4933_2582)"/>
<defs>
<linearGradient id="paint0_linear_4933_2582" x1="5.57653" y1="24.2033" x2="36.1241" y2="21.5116" gradientUnits="userSpaceOnUse">
<stop stop-color="#A1D4BA"/>
<stop offset="0.9963" stop-color="#00AB9C"/>
</linearGradient>
<linearGradient id="paint1_linear_4933_2582" x1="15.744" y1="18.6557" x2="25.4681" y2="28.3792" gradientUnits="userSpaceOnUse">
<stop stop-color="#A1D4BA"/>
<stop offset="0.9963" stop-color="#00AB9C"/>
</linearGradient>
<linearGradient id="paint2_linear_4933_2582" x1="8.59064" y1="16.3008" x2="36.9403" y2="17.506" gradientUnits="userSpaceOnUse">
<stop stop-color="#A1D4BA"/>
<stop offset="0.9963" stop-color="#00AB9C"/>
</linearGradient>
<linearGradient id="paint3_linear_4933_2582" x1="25.1992" y1="30.6989" x2="37.1064" y2="29.6498" gradientUnits="userSpaceOnUse">
<stop stop-color="#A1D4BA"/>
<stop offset="0.9963" stop-color="#00AB9C"/>
</linearGradient>
<linearGradient id="paint4_linear_4933_2582" x1="25.2037" y1="30.7481" x2="37.1111" y2="29.6988" gradientUnits="userSpaceOnUse">
<stop stop-color="#A1D4BA"/>
<stop offset="0.9963" stop-color="#00AB9C"/>
</linearGradient>
<linearGradient id="paint5_linear_4933_2582" x1="25.2042" y1="30.7552" x2="37.1114" y2="29.7061" gradientUnits="userSpaceOnUse">
<stop stop-color="#A1D4BA"/>
<stop offset="0.9963" stop-color="#00AB9C"/>
</linearGradient>
<linearGradient id="paint6_linear_4933_2582" x1="25.2013" y1="30.7198" x2="37.1086" y2="29.6705" gradientUnits="userSpaceOnUse">
<stop stop-color="#A1D4BA"/>
<stop offset="0.9963" stop-color="#00AB9C"/>
</linearGradient>
<linearGradient id="paint7_linear_4933_2582" x1="25.1949" y1="30.6495" x2="37.1019" y2="29.6004" gradientUnits="userSpaceOnUse">
<stop stop-color="#A1D4BA"/>
<stop offset="0.9963" stop-color="#00AB9C"/>
</linearGradient>
<linearGradient id="paint8_linear_4933_2582" x1="25.1841" y1="30.5289" x2="37.0914" y2="29.4796" gradientUnits="userSpaceOnUse">
<stop stop-color="#A1D4BA"/>
<stop offset="0.9963" stop-color="#00AB9C"/>
</linearGradient>
<linearGradient id="paint9_linear_4933_2582" x1="25.1678" y1="30.3395" x2="37.0748" y2="29.2903" gradientUnits="userSpaceOnUse">
<stop stop-color="#A1D4BA"/>
<stop offset="0.9963" stop-color="#00AB9C"/>
</linearGradient>
<linearGradient id="paint10_linear_4933_2582" x1="25.1428" y1="30.0591" x2="37.0499" y2="29.01" gradientUnits="userSpaceOnUse">
<stop stop-color="#A1D4BA"/>
<stop offset="0.9963" stop-color="#00AB9C"/>
</linearGradient>
<linearGradient id="paint11_linear_4933_2582" x1="25.1075" y1="29.6591" x2="37.0146" y2="28.61" gradientUnits="userSpaceOnUse">
<stop stop-color="#A1D4BA"/>
<stop offset="0.9963" stop-color="#00AB9C"/>
</linearGradient>
<linearGradient id="paint12_linear_4933_2582" x1="25.0581" y1="29.0939" x2="36.9653" y2="28.0448" gradientUnits="userSpaceOnUse">
<stop stop-color="#A1D4BA"/>
<stop offset="0.9963" stop-color="#00AB9C"/>
</linearGradient>
<linearGradient id="paint13_linear_4933_2582" x1="24.9885" y1="28.3026" x2="36.8956" y2="27.2535" gradientUnits="userSpaceOnUse">
<stop stop-color="#A1D4BA"/>
<stop offset="0.9963" stop-color="#00AB9C"/>
</linearGradient>
<linearGradient id="paint14_linear_4933_2582" x1="24.8861" y1="27.1423" x2="36.7931" y2="26.0932" gradientUnits="userSpaceOnUse">
<stop stop-color="#A1D4BA"/>
<stop offset="0.9963" stop-color="#00AB9C"/>
</linearGradient>
</defs>
</svg>
