<svg width="13" height="13" viewBox="0 0 13 13" fill="none" xmlns="http://www.w3.org/2000/svg">
<path d="M1.14873 6.21167C2.16869 4.12211 4.1879 2.70833 6.49996 2.70833C8.81202 2.70833 10.8318 4.12309 11.8512 6.21187C11.8942 6.30123 11.9166 6.39996 11.9166 6.50009C11.9166 6.60023 11.8942 6.69896 11.8512 6.78832C10.8312 8.87788 8.81202 10.2917 6.49996 10.2917C4.1879 10.2917 2.16812 8.8769 1.14873 6.78812C1.10571 6.69876 1.08329 6.60003 1.08329 6.4999C1.08329 6.39976 1.10571 6.30103 1.14873 6.21167ZM6.49996 9.34375C7.03562 9.34375 7.55925 9.17696 8.00463 8.86449C8.45002 8.55201 8.79715 8.10788 9.00214 7.58825C9.20713 7.06862 9.26076 6.49684 9.15626 5.94521C9.05176 5.39357 8.79381 4.88687 8.41504 4.48916C8.03628 4.09145 7.5537 3.82061 7.02833 3.71089C6.50296 3.60116 5.95841 3.65748 5.46352 3.87271C4.96864 4.08795 4.54565 4.45244 4.24806 4.92009C3.95046 5.38774 3.79162 5.93755 3.79162 6.5C3.79145 6.87349 3.86138 7.24336 3.99743 7.58847C4.13347 7.93357 4.33296 8.24713 4.58449 8.51124C4.83602 8.77534 5.13465 8.9848 5.46332 9.12765C5.79199 9.2705 6.14425 9.34393 6.49996 9.34375ZM6.49996 4.60416C6.66112 4.60653 6.82124 4.6317 6.97599 4.67901C6.84843 4.86102 6.78722 5.08501 6.80345 5.31035C6.81969 5.53569 6.91229 5.74746 7.06448 5.90725C7.21666 6.06704 7.41835 6.16428 7.63296 6.18133C7.84757 6.19838 8.06089 6.1341 8.23424 6.00017C8.33295 6.38202 8.31513 6.78676 8.18329 7.15741C8.05145 7.52807 7.81223 7.84599 7.4993 8.06642C7.18636 8.28685 6.81548 8.39868 6.43884 8.38619C6.0622 8.3737 5.69878 8.2375 5.39972 7.99678C5.10066 7.75605 4.88103 7.42291 4.77173 7.04425C4.66244 6.6656 4.66898 6.26048 4.79045 5.88594C4.91192 5.51139 5.14219 5.18627 5.44885 4.95633C5.75552 4.7264 6.12313 4.60323 6.49996 4.60416Z" fill="#666E6E"/>
</svg>
