<svg width="45" height="45" viewBox="0 0 45 45" fill="none" xmlns="http://www.w3.org/2000/svg">
	<defs>
<linearGradient id="paint0_linear_4933_2223" x1="29.4215" y1="10.7445" x2="30.7971" y2="16.9376" gradientUnits="userSpaceOnUse">
<stop stop-color="#EFCCE0"/>
<stop offset="0.7207" stop-color="#DC5B99"/>
<stop offset="1" stop-color="#DB5697"/>
</linearGradient>
<linearGradient id="paint1_linear_4933_2223" x1="34.2167" y1="12.8875" x2="34.2167" y2="19.6799" gradientUnits="userSpaceOnUse">
<stop stop-color="#EFCCE0"/>
<stop offset="0.7207" stop-color="#DC5B99"/>
<stop offset="1" stop-color="#DB5697"/>
</linearGradient>
<linearGradient id="paint2_linear_4933_2223" x1="37.5396" y1="16.061" x2="37.5396" y2="22.066" gradientUnits="userSpaceOnUse">
<stop stop-color="#EFCCE0"/>
<stop offset="0.7207" stop-color="#DC5B99"/>
<stop offset="1" stop-color="#DB5697"/>
</linearGradient>
<linearGradient id="paint3_linear_4933_2223" x1="7.29313" y1="21.717" x2="37.358" y2="21.717" gradientUnits="userSpaceOnUse">
<stop stop-color="#EFCCE0"/>
<stop offset="0.7207" stop-color="#DC5B99"/>
<stop offset="1" stop-color="#DB5697"/>
</linearGradient>
<linearGradient id="paint4_linear_4933_2223" x1="17.4635" y1="18.3244" x2="27.1874" y2="28.0484" gradientUnits="userSpaceOnUse">
<stop stop-color="#EFCCE0"/>
<stop offset="0.7207" stop-color="#DC5B99"/>
<stop offset="1" stop-color="#DB5697"/>
</linearGradient>
<linearGradient id="paint5_linear_4933_2223" x1="8.13683" y1="15.0514" x2="36.512" y2="15.0514" gradientUnits="userSpaceOnUse">
<stop stop-color="#EFCCE0"/>
<stop offset="0.7207" stop-color="#DC5B99"/>
<stop offset="1" stop-color="#DB5697"/>
</linearGradient>
<linearGradient id="paint6_linear_4933_2223" x1="29.0506" y1="30.5983" x2="34.7411" y2="30.5983" gradientUnits="userSpaceOnUse">
<stop stop-color="#EFCCE0"/>
<stop offset="1" stop-color="#CB659F"/>
</linearGradient>
<linearGradient id="paint7_linear_4933_2223" x1="26.3014" y1="33.6191" x2="29.3753" y2="33.6191" gradientUnits="userSpaceOnUse">
<stop stop-color="#EFCCE0"/>
<stop offset="0.527" stop-color="#DC5A99"/>
<stop offset="1" stop-color="#DB5697"/>
</linearGradient>
</defs>
<path d="M22.5 45C34.9264 45 45 34.9264 45 22.5C45 10.0736 34.9264 0 22.5 0C10.0736 0 0 10.0736 0 22.5C0 34.9264 10.0736 45 22.5 45Z" fill="#FBE7F0"/>
<path d="M27.6832 16.4216C28.3311 16.3509 29.0615 16.1271 29.6976 15.809C30.3337 15.4792 30.911 15.0197 31.3468 14.4425C31.7709 13.8535 32.1243 13.182 32.2539 12.4281C32.3599 12.0629 32.3481 11.6742 32.407 11.2972C32.4188 10.9085 32.3953 10.5315 32.3835 10.1428C32.4424 10.5197 32.5131 10.9085 32.5484 11.2972C32.5366 11.686 32.6073 12.0865 32.5366 12.4752C32.5013 13.2763 32.2303 14.0538 31.8298 14.7723C31.4175 15.4909 30.8285 16.1035 30.1453 16.5747C29.4385 17.0459 28.7199 17.3875 27.8364 17.5996L27.6832 16.4216Z" fill="url(#paint0_linear_4933_2223)"/>
<path d="M31.5825 18.5537C32.1597 18.4123 32.8076 18.1296 33.3848 17.7998C33.962 17.4699 34.5039 17.0576 34.9751 16.5746C35.4581 16.0917 35.8704 15.538 36.1767 14.9254C36.5183 14.3246 36.7068 13.6414 36.8717 12.9581C36.801 13.6532 36.7068 14.3718 36.4476 15.0432C36.2238 15.7265 35.8704 16.3744 35.4228 16.9516C34.9869 17.5406 34.4686 18.0707 33.8796 18.5301C33.2788 18.9896 32.678 19.3665 31.9241 19.6728L31.5825 18.5537Z" fill="url(#paint1_linear_4933_2223)"/>
<path d="M35.4698 20.8978C35.941 20.8507 36.5182 20.674 37.0012 20.4148C37.496 20.1438 37.9554 19.8022 38.3206 19.3546C38.6858 18.9069 39.0038 18.4004 39.2041 17.8349C39.4279 17.2813 39.5339 16.6805 39.6282 16.0679C39.6399 16.6805 39.6282 17.3048 39.4868 17.9174C39.369 18.5418 39.1216 19.1308 38.8036 19.6962C38.4737 20.2616 38.0143 20.7446 37.4842 21.1452C36.9423 21.5457 36.3886 21.8637 35.6583 22.0522L35.4698 20.8978Z" fill="url(#paint2_linear_4933_2223)"/>
<path d="M10.9319 27.5184C9.94236 26.4229 8.98817 25.292 8.05754 24.1493C7.93974 23.9962 7.92796 23.7959 8.03398 23.6428L8.06932 23.5839C9.61251 21.1807 11.6976 19.237 14.1714 17.7645C16.6335 16.3038 19.5196 15.4556 22.4175 15.4085C25.3036 15.3614 28.2486 16.0328 30.7696 17.4936C33.2787 18.9543 35.3403 21.0276 36.6714 23.6074L36.695 23.6663C36.7774 23.8195 36.7539 23.9962 36.6714 24.1258C36.3416 24.6323 35.9999 25.0211 35.6112 25.4216C35.2342 25.8103 34.8337 26.1637 34.3978 26.4936C33.5497 27.1415 32.6073 27.6598 31.6413 28.0485C32.5013 27.4595 33.2905 26.7763 33.9855 26.0342C34.3272 25.6572 34.6452 25.2684 34.9515 24.8679C35.2342 24.4674 35.517 24.0197 35.7054 23.631L35.7172 24.1493C34.1858 22.0996 32.0654 20.4268 29.8036 19.3313C27.5183 18.2357 24.9973 17.7056 22.4646 17.7763C19.9437 17.7881 17.4463 18.4478 15.1374 19.5669C12.8403 20.686 10.6727 22.2881 8.89393 24.1847L8.90571 23.6192C9.60073 24.8797 10.284 26.1873 10.9319 27.5184Z" fill="url(#paint3_linear_4933_2223)"/>
<path d="M22.3231 30.0629C26.1226 30.0629 29.2027 26.9828 29.2027 23.1833C29.2027 19.3838 26.1226 16.3037 22.3231 16.3037C18.5236 16.3037 15.4435 19.3838 15.4435 23.1833C15.4435 26.9828 18.5236 30.0629 22.3231 30.0629Z" fill="url(#paint4_linear_4933_2223)"/>
<path d="M20.038 22.9122C21.1961 22.9122 22.1349 21.9734 22.1349 20.8154C22.1349 19.6573 21.1961 18.7185 20.038 18.7185C18.88 18.7185 17.9412 19.6573 17.9412 20.8154C17.9412 21.9734 18.88 22.9122 20.038 22.9122Z" fill="white"/>
<path d="M8.63489 18.7774C9.91892 16.3743 12.0865 14.5012 14.5014 13.1818C16.9281 11.8507 19.6846 11.1203 22.4647 11.0496C25.2448 11.0025 28.0838 11.674 30.4516 13.1347C30.7461 13.3232 31.0524 13.4764 31.3351 13.6766L32.1362 14.3363L32.9372 14.996C33.1846 15.2316 33.4084 15.4907 33.644 15.7499C34.5982 16.7394 35.3168 17.9175 36.0118 19.0719C34.3037 16.975 32.3365 15.1256 30.004 13.9358C27.6833 12.746 25.0799 12.1688 22.4883 12.2394C19.8849 12.2748 17.305 12.9345 14.9019 14.0065L14.0066 14.4188L13.1584 14.9135C12.5694 15.2316 12.0393 15.6203 11.521 16.0209C10.4137 16.763 9.5184 17.7525 8.63489 18.7774Z" fill="url(#paint5_linear_4933_2223)"/>
<path d="M31.8771 26.1518C31.8771 26.1518 32.2659 29.839 34.7397 30.6283C34.7397 30.6283 32.2659 31.5942 31.9007 35.034H31.8889C31.5237 31.5942 29.0499 30.6283 29.0499 30.6283C31.5237 29.839 31.8771 26.1518 31.8771 26.1518Z" fill="white"/>
<path d="M31.8889 28.4489C32.2305 29.25 32.7489 30.0982 33.5381 30.6754C33.008 31.0995 32.3601 31.7709 31.8889 32.784C31.4177 31.7591 30.7816 31.0877 30.2397 30.6754C31.0408 30.0982 31.5591 29.25 31.8889 28.4489ZM31.8771 26.1518C31.8771 26.1518 31.5237 29.839 29.0499 30.6283C29.0499 30.6283 31.5237 31.5942 31.8889 35.034H31.9007C32.2659 31.5942 34.7397 30.6283 34.7397 30.6283C32.2659 29.839 31.8771 26.1518 31.8771 26.1518Z" fill="url(#paint6_linear_4933_2223)"/>
<path d="M27.8247 31.2174C27.8247 31.2174 28.0367 33.2082 29.3679 33.6323C29.3679 33.6323 28.0249 34.1506 27.8365 36.0119C27.6362 34.1506 26.3051 33.6323 26.3051 33.6323C27.6362 33.2082 27.8247 31.2174 27.8247 31.2174Z" fill="url(#paint7_linear_4933_2223)"/>

</svg>
