<svg width="45" height="45" viewBox="0 0 45 45" fill="none" xmlns="http://www.w3.org/2000/svg">
<path d="M22.5 45C34.9264 45 45 34.9264 45 22.5C45 10.0736 34.9264 0 22.5 0C10.0736 0 0 10.0736 0 22.5C0 34.9264 10.0736 45 22.5 45Z" fill="#FBE7F0"/>
<path d="M16.9749 5.08908C16.9749 5.08908 17.5757 10.8024 21.416 12.0276C21.416 12.0276 17.5757 13.5236 17.0103 18.8718H16.9985C16.433 13.5354 12.5927 12.0276 12.5927 12.0276C16.4212 10.8142 16.9749 5.08908 16.9749 5.08908Z" fill="white"/>
<path d="M16.9749 7.7396C17.4932 9.25924 18.4356 11.0852 20.1084 12.0865C19.1542 12.7461 17.7877 14.0184 16.9867 16.2331C16.1856 14.0184 14.8309 12.7461 13.865 12.0865C15.5495 11.0852 16.4801 9.25924 16.9749 7.7396ZM16.9749 5.08908C16.9749 5.08908 16.433 10.8024 12.5927 12.0276C12.5927 12.0276 16.433 13.5236 16.9985 18.8718H17.0103C17.5757 13.5354 21.416 12.0276 21.416 12.0276C17.5639 10.8142 16.9749 5.08908 16.9749 5.08908Z" fill="url(#paint0_linear_4933_2710)"/>
<path d="M11.4029 14.4306C11.4029 14.4306 11.7092 17.3403 13.6647 17.9646C13.6647 17.9646 11.7092 18.7303 11.4147 21.4515C11.132 18.7303 9.16467 17.9646 9.16467 17.9646C11.132 17.352 11.4029 14.4306 11.4029 14.4306Z" fill="url(#paint1_linear_4933_2710)"/>
<path d="M26.8822 10.8731C26.3403 12.2867 25.928 13.7592 25.5393 15.915C25.1505 18.0825 23.5366 23.4071 23.089 25.3391C22.6531 27.271 22.1348 29.3796 21.8756 29.8155C21.6165 30.2514 20.3796 31.9006 20.2029 32.6663C20.0262 33.4438 19.8966 34.7514 18.9895 35.3993C18.0825 36.0472 17.2107 36.6362 17.5995 37.0956C17.9882 37.555 19.2958 37.6375 20.7919 36.6362C22.2879 35.6349 22.7002 35.0459 23.5249 33.7029C23.9372 33.2082 24.2434 33.2906 25.2448 32.6781C26.2461 32.0655 27.2238 31.8063 26.7644 30.3574C26.305 28.9084 25.7631 28.1427 26.2696 26.6231C26.7879 25.1035 27.6361 22.7592 28.8141 21.6283C29.9921 20.4974 30.4633 17.5642 29.8743 14.3718C29.7919 13.7592 29.7919 13.1113 29.7919 13.1113C29.7919 13.1113 31.2526 17.0812 32.1597 19.0838C33.0667 21.0864 35.9646 25.4215 38.2618 26.7762C41.2657 28.555 41.4306 19.7788 40.4529 18.2357C39.4751 16.6925 33.6793 10.1545 31.9123 8.76445C30.1453 7.37439 28.1191 8.16366 26.8822 10.8731Z" fill="url(#paint2_linear_4933_2710)"/>
<path d="M25.1625 14.796C25.1625 14.796 23.7018 19.5551 23.2424 22.4648C23.2424 22.4648 20.1913 24.2907 18.1416 25.0682C16.0918 25.8457 15.6678 27.1533 15.4911 28.0839C15.3143 29.0145 15.0316 31.1939 13.6769 31.4766C12.3104 31.7593 11.8039 30.8051 10.8732 30.864C9.94262 30.9111 8.04603 31.7357 7.18608 31.7593C6.32613 31.7829 4.73582 31.559 3.95833 30.8876C3.18084 30.2161 4.13503 30.0394 5.12456 29.957C6.05519 29.8745 7.39812 29.5682 8.28163 28.614C9.16514 27.6598 11.6154 26.8117 12.4989 26.1991C13.3824 25.5865 18.224 20.792 18.8837 19.8378C19.5316 18.8954 22.9714 14.419 25.1625 14.796Z" fill="url(#paint3_linear_4933_2710)"/>
<path d="M30.5695 16.3391C30.5695 16.3391 32.9374 24.0904 35.8706 25.8927C35.8706 25.8927 31.7947 25.2684 29.4976 21.9464C29.4976 21.9464 31.1114 20.4268 30.5695 16.3391Z" fill="url(#paint4_linear_4933_2710)"/>
<path d="M28.6844 10.1311C28.543 10.3313 28.543 10.6847 28.5077 10.9675L28.3781 11.851C28.2838 12.44 28.166 13.0172 28.0247 13.6062C27.7302 14.7607 27.4003 15.9151 26.7995 17.0107C26.7053 15.762 26.8938 14.5722 27.1647 13.4059C27.3179 12.8287 27.4828 12.2397 27.7066 11.6743C27.8126 11.3915 27.9422 11.1088 28.0954 10.8379L28.3427 10.4374C28.4252 10.3313 28.5077 10.1311 28.6844 10.1311Z" fill="white"/>
<defs>
<linearGradient id="paint0_linear_4933_2710" x1="12.5834" y1="11.9824" x2="21.4098" y2="11.9824" gradientUnits="userSpaceOnUse">
<stop stop-color="#EFCCE0"/>
<stop offset="1" stop-color="#CB659F"/>
</linearGradient>
<linearGradient id="paint1_linear_4933_2710" x1="9.17174" y1="17.9476" x2="13.6716" y2="17.9476" gradientUnits="userSpaceOnUse">
<stop stop-color="#EFCCE0"/>
<stop offset="1" stop-color="#DB5697"/>
</linearGradient>
<linearGradient id="paint2_linear_4933_2710" x1="19.5162" y1="17.6213" x2="34.1867" y2="32.2918" gradientUnits="userSpaceOnUse">
<stop stop-color="#EFCCE0"/>
<stop offset="1" stop-color="#DB5697"/>
</linearGradient>
<linearGradient id="paint3_linear_4933_2710" x1="12.8827" y1="21.1643" x2="18.7179" y2="26.9994" gradientUnits="userSpaceOnUse">
<stop stop-color="#EFCCE0"/>
<stop offset="1" stop-color="#DB5697"/>
</linearGradient>
<linearGradient id="paint4_linear_4933_2710" x1="28.8545" y1="18.056" x2="36.2802" y2="25.4817" gradientUnits="userSpaceOnUse">
<stop stop-color="#EFCCE0"/>
<stop offset="1" stop-color="#DB5697"/>
</linearGradient>
</defs>
</svg>
