<svg width="13" height="13" viewBox="0 0 13 13" fill="none" xmlns="http://www.w3.org/2000/svg">
<path d="M6.50039 12.4487C6.60738 12.4487 6.7033 12.4117 6.78815 12.3397C7.04271 12.0965 7.73814 11.427 8.87443 10.3334C10.0882 9.1658 10.8426 8.43995 11.1341 8.15584C11.5344 7.80751 11.8443 7.38134 12.0675 6.87928C12.2907 6.37721 12.4032 5.84012 12.4032 5.2719C12.4032 4.75232 12.311 4.25804 12.1265 3.78906C11.9494 3.33564 11.6967 2.93282 11.3665 2.58449C10.7209 1.89562 9.948 1.55118 9.04782 1.55118C8.55531 1.55118 8.08862 1.66404 7.64775 1.89172C7.20688 2.1194 6.8232 2.43855 6.50039 2.85304C6.17758 2.44049 5.79574 2.1194 5.35303 1.89172C4.91032 1.66404 4.44547 1.55118 3.95296 1.55118C3.05278 1.55118 2.28172 1.89951 1.6361 2.59812C1.30592 2.94645 1.05136 3.34732 0.874272 3.80073C0.682431 4.27944 0.590199 4.77372 0.597578 5.28357C0.604956 5.84401 0.717479 6.37137 0.931456 6.87149C1.14728 7.36966 1.4498 7.79389 1.8427 8.14222C1.88144 8.1753 1.91649 8.20644 1.946 8.23952C2.05299 8.33682 2.48832 8.74936 3.24831 9.48105C4.8476 11.0301 5.83448 11.9816 6.21078 12.3397C6.29748 12.4117 6.3934 12.4487 6.50039 12.4487ZM6.50039 11.355C6.05399 10.925 5.27924 10.1797 4.17247 9.11716L3.61908 8.58201C3.03433 8.02157 2.67463 7.67713 2.53628 7.54869C2.5289 7.53313 2.52153 7.5195 2.51415 7.51172C2.46803 7.47864 2.43667 7.45139 2.42192 7.4261C2.1194 7.16534 1.88882 6.84814 1.72834 6.47062C1.56785 6.0931 1.48669 5.69806 1.48669 5.28552C1.47931 4.88854 1.54756 4.51102 1.69329 4.1549C1.82426 3.81241 2.01241 3.51273 2.25774 3.25391C2.73366 2.74406 3.29996 2.4872 3.95296 2.4872C4.32188 2.4872 4.67421 2.57671 5.00808 2.75574C5.34196 2.93477 5.62419 3.18191 5.85477 3.49716C6.0171 3.72484 6.23107 3.83771 6.50039 3.83771C6.76971 3.83771 6.98368 3.72484 7.14601 3.49716C7.37659 3.17218 7.65882 2.92309 7.99269 2.7499C8.32657 2.57671 8.6789 2.48914 9.04782 2.48914C9.70082 2.48914 10.2653 2.74017 10.743 3.24418C10.9884 3.503 11.1765 3.80462 11.3075 4.14323C11.4458 4.49934 11.5141 4.87686 11.5141 5.27384C11.5141 5.7039 11.4292 6.11256 11.2595 6.50176C11.0898 6.87538 10.8592 7.18674 10.5678 7.43777L10.5457 7.46112C10.0697 7.90675 9.3116 8.6365 8.27492 9.65035C7.44668 10.4463 6.85456 11.0125 6.50039 11.355Z" fill="#666E6E"/>
</svg>
