<svg width="45" height="45" viewBox="0 0 45 45" fill="none" xmlns="http://www.w3.org/2000/svg">
	<defs>
<linearGradient id="paint0_linear_4933_2282" x1="23.0331" y1="15.6227" x2="23.0331" y2="29.7583" gradientUnits="userSpaceOnUse">
<stop stop-color="#E2BCD8"/>
<stop offset="1" stop-color="#9D68A9"/>
</linearGradient>
<linearGradient id="paint1_linear_4933_2282" x1="11.2495" y1="23.6773" x2="10.9453" y2="29.6354" gradientUnits="userSpaceOnUse">
<stop stop-color="#E2BCD8"/>
<stop offset="1" stop-color="#9D68A9"/>
</linearGradient>
<linearGradient id="paint2_linear_4933_2282" x1="10.2318" y1="23.625" x2="9.92756" y2="29.5836" gradientUnits="userSpaceOnUse">
<stop stop-color="#E2BCD8"/>
<stop offset="1" stop-color="#9D68A9"/>
</linearGradient>
<linearGradient id="paint3_linear_4933_2282" x1="9.07181" y1="23.5654" x2="8.76741" y2="29.5242" gradientUnits="userSpaceOnUse">
<stop stop-color="#E2BCD8"/>
<stop offset="1" stop-color="#9D68A9"/>
</linearGradient>
<linearGradient id="paint4_linear_4933_2282" x1="7.91132" y1="23.5064" x2="7.60693" y2="29.465" gradientUnits="userSpaceOnUse">
<stop stop-color="#E2BCD8"/>
<stop offset="1" stop-color="#9D68A9"/>
</linearGradient>
<linearGradient id="paint5_linear_4933_2282" x1="6.6896" y1="23.4438" x2="6.3852" y2="29.4025" gradientUnits="userSpaceOnUse">
<stop stop-color="#E2BCD8"/>
<stop offset="1" stop-color="#9D68A9"/>
</linearGradient>
<linearGradient id="paint6_linear_4933_2282" x1="5.86571" y1="23.4019" x2="5.56132" y2="29.3604" gradientUnits="userSpaceOnUse">
<stop stop-color="#E2BCD8"/>
<stop offset="1" stop-color="#9D68A9"/>
</linearGradient>
<linearGradient id="paint7_linear_4933_2282" x1="5.88102" y1="23.4026" x2="5.57662" y2="29.3612" gradientUnits="userSpaceOnUse">
<stop stop-color="#E2BCD8"/>
<stop offset="1" stop-color="#9D68A9"/>
</linearGradient>
<linearGradient id="paint8_linear_4933_2282" x1="6.65873" y1="23.4422" x2="6.35434" y2="29.4008" gradientUnits="userSpaceOnUse">
<stop stop-color="#E2BCD8"/>
<stop offset="1" stop-color="#9D68A9"/>
</linearGradient>
<linearGradient id="paint9_linear_4933_2282" x1="7.58184" y1="23.4894" x2="7.27745" y2="29.4481" gradientUnits="userSpaceOnUse">
<stop stop-color="#E2BCD8"/>
<stop offset="1" stop-color="#9D68A9"/>
</linearGradient>
<linearGradient id="paint10_linear_4933_2282" x1="8.3407" y1="23.5283" x2="8.03631" y2="29.487" gradientUnits="userSpaceOnUse">
<stop stop-color="#E2BCD8"/>
<stop offset="1" stop-color="#9D68A9"/>
</linearGradient>
<linearGradient id="paint11_linear_4933_2282" x1="8.91579" y1="23.5576" x2="8.6115" y2="29.5163" gradientUnits="userSpaceOnUse">
<stop stop-color="#E2BCD8"/>
<stop offset="1" stop-color="#9D68A9"/>
</linearGradient>
<linearGradient id="paint12_linear_4933_2282" x1="17.2622" y1="23.1498" x2="31.014" y2="23.1498" gradientUnits="userSpaceOnUse">
<stop stop-color="#E2BCD8"/>
<stop offset="1" stop-color="#9D68A9"/>
</linearGradient>
<linearGradient id="paint13_linear_4933_2282" x1="9.43759" y1="18.6765" x2="37.6373" y2="15.5251" gradientUnits="userSpaceOnUse">
<stop stop-color="#E2BCD8"/>
<stop offset="1" stop-color="#9D68A9"/>
</linearGradient>
</defs>
<path d="M22.5 45C34.9264 45 45 34.9264 45 22.5C45 10.0736 34.9264 0 22.5 0C10.0736 0 0 10.0736 0 22.5C0 34.9264 10.0736 45 22.5 45Z" fill="#EBE4F1"/>
<path d="M13.6886 28.6255C12.7109 28.5313 11.7449 28.4135 10.7789 28.2721C10.3548 28.2015 9.9072 28.2486 9.34176 28.2015C9.20039 28.1897 9.03547 28.1543 8.84699 28.0837C8.65851 28.0012 8.42291 27.8363 8.30511 27.5771C8.18731 27.3415 8.16375 27.0941 8.17553 26.9174C8.15197 26.7761 8.26977 26.4109 8.37579 26.2813C8.76453 25.7158 9.10615 25.4331 9.47134 25.0679L10.5315 24.0666L12.6402 22.0876L12.5577 22.17C13.9949 20.2263 15.8679 18.4711 18.1179 17.2931C20.3797 16.1268 22.936 15.6085 25.4334 15.6674C27.9543 15.691 30.4753 16.4213 32.6192 17.6936C34.7632 18.9894 36.5538 20.7211 37.8143 22.8886L37.8496 22.9357C37.9321 23.0771 37.9321 23.2538 37.8496 23.3834C37.025 24.7734 36.1886 26.1517 35.2933 27.5064C35.7881 25.9632 36.3418 24.4436 36.9072 22.9357L36.9308 23.4305C35.5171 21.746 33.6677 20.3206 31.7004 19.3782C29.7331 18.4004 27.5656 17.9645 25.398 17.9528C23.2187 17.9881 21.0512 18.3886 19.1075 19.3192C17.1402 20.2263 15.4321 21.6399 13.8771 23.2891L13.8064 23.3598L13.7829 23.3834C13.0289 24.0077 12.2868 24.6321 11.5211 25.2329L10.3902 26.1282C10.0368 26.4109 9.62448 26.7525 9.436 26.9763C9.42422 27.0352 9.44778 26.9056 9.42422 27.0117C9.40066 27.0706 9.41244 27.0706 9.38888 27.0588C9.36532 27.0234 9.32998 27.0234 9.35354 27.047C9.38888 27.0706 9.44778 27.1059 9.5538 27.1412C9.93076 27.259 10.4726 27.3062 10.991 27.4829C11.8863 27.8363 12.7933 28.2132 13.6886 28.6255Z" fill="url(#paint0_linear_4933_2282)"/>
<path d="M11.1203 29.0496L10.8258 29.0968V28.9908L11.1203 29.0496Z" fill="url(#paint1_linear_4933_2282)"/>
<path d="M10.2488 29.1676L9.65979 29.2383L9.67157 28.8142L10.2488 28.8966V29.1676Z" fill="url(#paint2_linear_4933_2282)"/>
<path d="M9.08254 29.297L8.50531 29.3323V28.6844L9.09432 28.7433L9.08254 29.297Z" fill="url(#paint3_linear_4933_2282)"/>
<path d="M7.91615 29.3678L7.33893 29.3913L7.35071 28.6021L7.92793 28.6374L7.91615 29.3678Z" fill="url(#paint4_linear_4933_2282)"/>
<path d="M6.69136 29.3794C6.45576 29.3441 6.22016 29.2616 5.99634 29.1438L6.4322 28.4017C6.55 28.4724 6.69136 28.5195 6.83272 28.5548L6.69136 29.3794Z" fill="url(#paint5_linear_4933_2282)"/>
<path d="M5.43067 28.6374C5.27753 28.4371 5.17151 28.1897 5.12439 27.9188L5.98434 27.7657C6.0079 27.8835 6.05502 28.0013 6.13748 28.1073L5.43067 28.6374Z" fill="url(#paint6_linear_4933_2282)"/>
<path d="M5.18317 27.1413C5.30097 26.9292 5.40699 26.6818 5.54835 26.5051L6.19626 27.0352C6.1138 27.1648 6.07845 27.2826 6.00777 27.4004L5.18317 27.1413Z" fill="url(#paint7_linear_4933_2282)"/>
<path d="M6.05511 26.0574L6.57344 25.7511L6.97396 26.3637L6.5381 26.6935L6.05511 26.0574Z" fill="url(#paint8_linear_4933_2282)"/>
<path d="M7.06799 25.4684C7.22113 25.3624 7.3625 25.2682 7.52742 25.1621L7.8926 25.5744C7.75124 25.7158 7.5981 25.8572 7.44496 25.9867L7.06799 25.4684Z" fill="url(#paint9_linear_4933_2282)"/>
<path d="M7.9635 24.8207L8.38758 24.432L8.59963 24.5969L8.28156 25.1152L7.9635 24.8207Z" fill="url(#paint10_linear_4933_2282)"/>
<path d="M8.79999 23.996L9.00025 23.7722L8.88245 24.0549L8.79999 23.996Z" fill="url(#paint11_linear_4933_2282)"/>
<path d="M24.1375 30.0275C27.937 30.0275 31.017 26.9474 31.017 23.1479C31.017 19.3484 27.937 16.2683 24.1375 16.2683C20.338 16.2683 17.2579 19.3484 17.2579 23.1479C17.2579 26.9474 20.338 30.0275 24.1375 30.0275Z" fill="url(#paint12_linear_4933_2282)"/>
<path d="M21.852 22.8653C23.0101 22.8653 23.9489 21.9266 23.9489 20.7685C23.9489 19.6104 23.0101 18.6716 21.852 18.6716C20.694 18.6716 19.7552 19.6104 19.7552 20.7685C19.7552 21.9266 20.694 22.8653 21.852 22.8653Z" fill="white"/>
<path d="M10.3428 22.3233C11.3559 19.7906 13.2996 17.6819 15.5496 16.1034C17.8114 14.5131 20.4619 13.4764 23.2302 13.0995C25.9868 12.7343 28.8847 13.0995 31.3938 14.2893C31.7119 14.4424 32.0299 14.5602 32.3362 14.7369L33.208 15.3023L34.0797 15.8678C34.3624 16.0681 34.6098 16.3154 34.869 16.5393C35.9292 17.4228 36.7655 18.5065 37.5902 19.5785C35.6582 17.6819 33.5025 16.0681 31.0522 15.1374C28.6137 14.2186 25.9632 13.9241 23.3834 14.2775C20.8035 14.6073 18.3061 15.5379 16.0443 16.8809L15.1962 17.3874L14.4069 17.9764C13.865 18.3534 13.382 18.801 12.8991 19.2605C11.8977 20.1322 11.1085 21.2042 10.3428 22.3233Z" fill="url(#paint13_linear_4933_2282)"/>

</svg>
