<svg width="12" height="12" viewBox="0 0 12 12" fill="none" xmlns="http://www.w3.org/2000/svg">
<path d="M10.5443 2.0614C10.4561 1.85266 10.3092 1.67613 10.1243 1.55091C9.93933 1.42603 9.71412 1.35241 9.47461 1.35241H8.47486V1.17994H7.02577C7.03235 1.13306 7.03603 1.08471 7.03603 1.03601C7.03601 0.464719 6.57129 0 6 0C5.42871 0 4.96399 0.464719 4.96399 1.03601C4.96399 1.08471 4.96765 1.13306 4.97426 1.17994H3.52517V1.35241H2.52539C2.36609 1.35241 2.21229 1.38502 2.0735 1.44396C1.86439 1.53223 1.68788 1.67906 1.56263 1.86401C1.43775 2.0493 1.36414 2.27416 1.36414 2.51367V10.8391C1.36414 10.9984 1.39674 11.1519 1.45533 11.291C1.54395 11.4998 1.69081 11.6763 1.87575 11.8015C2.0607 11.9267 2.28589 12 2.52539 12H9.47461C9.63392 12 9.78771 11.9678 9.92689 11.9085C10.1356 11.8206 10.3122 11.6734 10.4374 11.4884C10.5623 11.3035 10.6359 11.0782 10.6359 10.8391V2.51367C10.6359 2.35402 10.6033 2.20057 10.5443 2.0614ZM6 0.651492C6.21204 0.651492 6.38452 0.823969 6.38452 1.03601C6.38452 1.08691 6.37425 1.13524 6.35595 1.17994H5.64366C5.62571 1.13527 5.61546 1.08691 5.61546 1.03601C5.61549 0.823969 5.78834 0.651492 6 0.651492ZM9.94519 10.8391C9.94519 10.905 9.932 10.9658 9.90821 11.0219C9.87305 11.1057 9.81263 11.1782 9.73756 11.2295C9.66211 11.28 9.57349 11.3093 9.47461 11.3093H2.52539C2.45946 11.3093 2.39832 11.2961 2.34228 11.2727C2.25842 11.2372 2.1859 11.1767 2.135 11.1017C2.08409 11.0262 2.05479 10.9376 2.05479 10.8391V2.51367C2.05479 2.44774 2.06799 2.38659 2.09178 2.33055C2.12731 2.24632 2.187 2.17418 2.26242 2.12327C2.33787 2.07274 2.42649 2.04345 2.52537 2.04307H3.52512V2.187C3.52512 2.45726 3.74412 2.67626 4.01475 2.67626H7.98521C8.25584 2.67626 8.47484 2.45726 8.47484 2.187V2.04307H9.47459C9.54052 2.04307 9.60167 2.05627 9.65771 2.08005C9.74157 2.11559 9.81408 2.17528 9.86499 2.2507C9.91552 2.3265 9.94482 2.41477 9.94519 2.51365V10.8391Z" fill="#9B9B9B"/>
<path d="M8.50342 4.05762H3.49622V4.63294H8.50342V4.05762Z" fill="#9B9B9B"/>
<path d="M8.50342 5.64062H3.49622V6.21595H8.50342V5.64062Z" fill="#9B9B9B"/>
<path d="M8.50342 7.22314H3.49622V7.79846H8.50342V7.22314Z" fill="#9B9B9B"/>
<path d="M8.50343 9.2373H6V9.813H8.50343V9.2373Z" fill="#9B9B9B"/>
</svg>
