<svg width="45" height="45" viewBox="0 0 45 45" fill="none" xmlns="http://www.w3.org/2000/svg">
	<defs>
<linearGradient id="paint0_linear_4933_2366" x1="14.3604" y1="9.18685" x2="38.81" y2="33.6365" gradientUnits="userSpaceOnUse">
<stop stop-color="#A1D4BA"/>
<stop offset="0.9963" stop-color="#00AB9C"/>
</linearGradient>
<linearGradient id="paint1_linear_4933_2366" x1="22.8914" y1="30.6173" x2="24.1755" y2="31.9013" gradientUnits="userSpaceOnUse">
<stop stop-color="#A1D4BA"/>
<stop offset="0.9963" stop-color="#00AB9C"/>
</linearGradient>
<linearGradient id="paint2_linear_4933_2366" x1="21.2563" y1="31.7376" x2="21.7379" y2="32.2192" gradientUnits="userSpaceOnUse">
<stop stop-color="#A1D4BA"/>
<stop offset="0.9963" stop-color="#00AB9C"/>
</linearGradient>
<linearGradient id="paint3_linear_4933_2366" x1="25.6496" y1="23.1889" x2="26.1311" y2="23.6705" gradientUnits="userSpaceOnUse">
<stop stop-color="#A1D4BA"/>
<stop offset="0.9963" stop-color="#00AB9C"/>
</linearGradient>
</defs>
<path d="M22.5 45C34.9264 45 45 34.9264 45 22.5C45 10.0736 34.9264 0 22.5 0C10.0736 0 0 10.0736 0 22.5C0 34.9264 10.0736 45 22.5 45Z" fill="#D2E9DB"/>
<path d="M31.0401 37.5315C30.4276 35.7173 29.5676 33.9385 28.6723 33.4909C27.2352 32.7723 25.3032 33.9974 21.7221 34.822C18.1409 35.6349 18.2469 33.9032 18.353 32.5721C18.459 31.2409 18.5532 30.5223 17.4341 29.6035C16.315 28.6846 17.4341 28.0721 17.4341 28.0721C17.2338 27.7658 15.455 27.1179 15.8438 26.1048C16.6684 23.9844 15.9616 24.2553 15.2077 23.8194C14.442 23.3836 12.1448 22.7946 14.1828 21.0629C16.2208 19.3312 18.459 15.809 18.353 14.1715C17.2338 8.14011 19.0715 6.44377 19.6841 4.70032C19.6841 4.70032 25.9511 0.918905 33.2077 7.35084C42.2194 15.3378 38.1907 20.9804 38.1671 25.233C38.1435 31.4412 34.8687 31.3469 35.7875 34.822C35.8817 35.1754 35.9878 35.5524 36.1056 35.9412" fill="white"/>
<path d="M31.0401 37.5314C30.7103 36.6597 30.3451 35.7998 29.8621 34.9987C29.4027 34.2094 28.7901 33.4084 27.8595 33.432C26.976 33.4084 26.0807 33.7618 25.209 34.0445C24.3255 34.3508 23.442 34.6571 22.5349 34.9045C21.6396 35.1519 20.6972 35.411 19.6605 35.3286C19.154 35.2932 18.5414 35.0458 18.2351 34.5157C17.9406 33.9974 17.9289 33.4437 17.9406 32.9608C17.9642 31.9948 18.1645 31.0642 17.6933 30.4869C17.4812 30.1453 17.1278 30.0039 16.7155 29.4856C16.527 29.25 16.3974 28.8142 16.5388 28.4372C16.6802 28.072 16.904 27.8717 17.1985 27.6833L17.0454 28.3194C17.0807 28.3665 16.8687 28.1898 16.7273 28.1191C16.5742 28.0249 16.3974 27.9189 16.2325 27.7893C15.9145 27.5419 15.5257 27.271 15.349 26.6937C15.2548 26.4228 15.3372 26.0576 15.4079 25.8691C15.4668 25.7042 15.5257 25.5275 15.5846 25.3626C15.6906 25.0563 15.7495 24.644 15.7024 24.5969C15.7849 24.6087 15.4079 24.4555 14.9838 24.2553C14.7011 24.1021 14.3359 23.9608 13.9825 23.7723C13.6291 23.572 13.205 23.36 12.9459 22.7945C12.8163 22.5118 12.8163 22.1584 12.9105 21.8992C12.993 21.6283 13.1344 21.428 13.2639 21.2513C13.5349 20.8979 13.8765 20.6388 14.1239 20.4149C14.3831 20.1793 14.6304 19.9202 14.8778 19.6492C15.3608 19.1191 15.8084 18.5419 16.209 17.9411C16.6095 17.3403 16.9865 16.716 17.281 16.0799C17.5755 15.4555 17.8346 14.7487 17.8111 14.195L17.8228 14.2539C17.5283 12.6165 17.3281 10.932 17.5283 9.22384C17.6226 8.37567 17.8346 7.51573 18.1527 6.71468C18.459 5.91363 18.9066 5.17148 19.1422 4.50001L19.154 4.46467C19.2011 4.34687 19.2836 4.25263 19.3896 4.20551C21.2509 3.21598 23.2653 2.88614 25.2796 3.03928C27.2823 3.21598 29.2142 3.91101 30.8988 4.94766C32.5951 5.98431 34.0558 7.30368 35.387 8.71729C36.7181 10.1427 37.8961 11.7566 38.6618 13.5943C39.4276 15.432 39.6632 17.4817 39.4276 19.4254C39.2391 21.3809 38.5912 23.2186 38.4851 25.0563C38.4616 26.9647 38.0728 28.9791 37.048 30.6401C36.565 31.4765 35.9524 32.2304 35.7639 33.1375C35.5755 34.0563 35.87 35.0105 36.1173 35.9176C35.8464 35.0105 35.4577 34.0916 35.5872 33.1021C35.7404 32.1126 36.3294 31.2998 36.7535 30.4752C37.6605 28.8024 37.8961 26.9176 37.8608 25.0327C37.9197 23.0419 38.5087 21.2042 38.6147 19.3429C38.7679 17.4935 38.4851 15.644 37.7312 13.9712C37.0009 12.2867 35.8935 10.7788 34.5977 9.4241C33.3019 8.06939 31.8883 6.82069 30.3098 5.89007C28.7312 4.94766 26.976 4.33509 25.1618 4.19373C23.3831 4.05237 21.4747 4.37043 19.955 5.17148L20.1906 4.87698C19.8608 5.73692 19.4485 6.40839 19.1658 7.12698C18.8831 7.84557 18.6946 8.58771 18.6003 9.35342C18.4118 10.8966 18.5768 12.4869 18.8477 14.0655V14.089V14.1244C18.8595 15.0785 18.5296 15.8089 18.1998 16.5157C17.8582 17.2225 17.4694 17.8822 17.0336 18.5183C16.5977 19.1545 16.1265 19.7553 15.6082 20.3325C15.1252 20.9097 14.4066 21.4516 14.0414 21.8757C13.8412 22.1231 13.8058 22.2998 13.8529 22.394C13.9001 22.5236 14.1592 22.7356 14.442 22.8888C14.7365 23.0537 15.0781 23.1833 15.4433 23.3953C15.5728 23.466 15.7142 23.5249 15.9145 23.6073C16.0912 23.678 16.4328 23.8665 16.5742 24.2199C16.7744 24.8914 16.5624 25.2448 16.4681 25.6335C16.4092 25.822 16.3385 26.0105 16.2679 26.1872C16.2207 26.3521 16.209 26.3639 16.2325 26.4581C16.2679 26.6231 16.4799 26.8587 16.7509 27.0589C16.8804 27.1649 17.0336 27.2592 17.1867 27.3534C17.3516 27.483 17.4812 27.483 17.7639 27.8128C17.9053 27.9778 17.8935 28.2252 17.7286 28.3665C17.705 28.3901 17.6815 28.4019 17.6579 28.4136L17.6108 28.4372C17.5048 28.4961 17.3634 28.6375 17.3516 28.7081C17.3281 28.7788 17.3281 28.8495 17.4105 28.9791C17.5519 29.2147 18.0584 29.5327 18.3529 29.9922C18.6828 30.4516 18.7888 31.0524 18.7652 31.5471C18.7535 32.0537 18.6828 32.5131 18.6592 32.9608C18.6239 33.3966 18.6474 33.8325 18.8124 34.127C18.9773 34.4215 19.3071 34.5982 19.7194 34.6453C20.5558 34.7513 21.4629 34.5393 22.37 34.3272C23.2653 34.1152 24.1605 33.856 25.0558 33.5969C25.9511 33.3613 26.87 33.0314 27.8595 33.1021C28.3425 33.1492 28.849 33.3495 29.1789 33.7147C29.5205 34.0681 29.7679 34.4804 29.9799 34.8927C30.4511 35.7526 30.7692 36.6361 31.0401 37.5314Z" fill="url(#paint0_linear_4933_2366)"/>
<path d="M22.4999 44.9882C10.1073 44.9882 0.0117188 34.9045 0.0117188 22.5C0.0117188 10.0955 10.0955 0.0117798 22.4999 0.0117798C34.9044 0.0117798 44.9882 10.0955 44.9882 22.5C44.9882 34.9045 34.8926 44.9882 22.4999 44.9882ZM22.4999 7.07984C13.9947 7.07984 7.07978 13.9948 7.07978 22.5C7.07978 31.0052 13.9947 37.9202 22.4999 37.9202C31.0052 37.9202 37.9201 31.0052 37.9201 22.5C37.9201 13.9948 30.9934 7.07984 22.4999 7.07984Z" fill="#D2E9DB"/>
<path d="M23.537 32.1714C24.0379 32.1714 24.444 31.7653 24.444 31.2644C24.444 30.7634 24.0379 30.3573 23.537 30.3573C23.036 30.3573 22.6299 30.7634 22.6299 31.2644C22.6299 31.7653 23.036 32.1714 23.537 32.1714Z" fill="url(#paint1_linear_4933_2366)"/>
<path d="M21.4988 32.3246C21.6875 32.3246 21.8405 32.1717 21.8405 31.983C21.8405 31.7943 21.6875 31.6414 21.4988 31.6414C21.3102 31.6414 21.1572 31.7943 21.1572 31.983C21.1572 32.1717 21.3102 32.3246 21.4988 32.3246Z" fill="url(#paint2_linear_4933_2366)"/>
<path d="M25.8924 23.7722C26.0811 23.7722 26.234 23.6193 26.234 23.4306C26.234 23.2419 26.0811 23.089 25.8924 23.089C25.7037 23.089 25.5508 23.2419 25.5508 23.4306C25.5508 23.6193 25.7037 23.7722 25.8924 23.7722Z" fill="url(#paint3_linear_4933_2366)"/>

</svg>
