<svg width="12" height="7" viewBox="0 0 12 7" fill="none" xmlns="http://www.w3.org/2000/svg">
<path d="M2.93262 3.50977C3.1106 3.50977 3.25488 3.36548 3.25488 3.1875C3.25488 3.00952 3.1106 2.86523 2.93262 2.86523C2.75463 2.86523 2.61035 3.00952 2.61035 3.1875C2.61035 3.36548 2.75463 3.50977 2.93262 3.50977Z" fill="#666E6E"/>
<path d="M0 0V6.375H12V0H0ZM0.75 4.54249V1.83178C1.28834 1.74096 1.70728 1.29968 1.76222 0.75H4.87795C4.1741 1.22754 3.69874 2.13867 3.69874 3.1875C3.69874 4.23595 4.17408 5.14746 4.87795 5.625H1.76222C1.70728 5.07495 1.28834 4.63331 0.75 4.54249ZM7.19459 2.44263V2.54152V2.84182V2.94105H6.37134L6.28273 3.07837V3.40798H7.19459V3.40945V3.83573V3.90274H6.28273V4.58133H5.71692V3.90274H4.80541V3.83573V3.40945V3.40798H5.71692V3.07913L5.6283 2.94105H4.80544V2.84182V2.54152V2.44263H5.30789L4.8904 1.79334H4.95413H5.37014H5.43387L5.99967 2.67408L6.5662 1.79334H6.62993H7.04595H7.1093L6.69218 2.44263H7.19459ZM8.30128 3.1875C8.30128 2.13867 7.82595 1.22754 7.12207 0.75H10.2371C10.292 1.29933 10.7117 1.74096 11.25 1.83143V4.54249C10.7117 4.63331 10.292 5.07532 10.2371 5.62502H7.12207C7.82592 5.14746 8.30128 4.23595 8.30128 3.1875Z" fill="#666E6E"/>
<path d="M9.06738 3.50977C9.24537 3.50977 9.38965 3.36548 9.38965 3.1875C9.38965 3.00952 9.24537 2.86523 9.06738 2.86523C8.8894 2.86523 8.74512 3.00952 8.74512 3.1875C8.74512 3.36548 8.8894 3.50977 9.06738 3.50977Z" fill="#666E6E"/>
</svg>
