<svg width="45" height="45" viewBox="0 0 45 45" fill="none" xmlns="http://www.w3.org/2000/svg">
<path d="M22.5 45C34.9264 45 45 34.9264 45 22.5C45 10.0736 34.9264 0 22.5 0C10.0736 0 0 10.0736 0 22.5C0 34.9264 10.0736 45 22.5 45Z" fill="#FCE4DF"/>
<path d="M22.5 16.5629C21.7225 16.5629 20.4031 15.1964 19.2487 15.0786C18.106 14.949 16.445 15.3967 9.65968 19.8142C8.30496 20.627 7.06805 20.3797 7.06805 20.5681C7.06805 20.7566 10.4254 22.877 14.5484 20.9215C17.4817 19.5315 18.6479 20.1087 20.3324 20.6153C22.017 21.11 21.6989 21.3221 22.5 21.2985C23.4777 21.2749 22.9712 21.11 24.6675 20.6153C26.3521 20.1205 27.5065 19.5668 30.4516 20.9215C34.8102 22.9359 37.9319 20.7566 37.9319 20.5681C37.9319 20.3797 36.7775 20.627 35.3403 19.8024C28.1427 14.6545 26.894 14.949 25.7513 15.0668C24.5968 15.1964 23.2775 16.5629 22.5 16.5629Z" fill="url(#paint0_linear_4933_2272)"/>
<path d="M22.4997 24.6085C22.4997 24.6085 21.9225 24.7145 20.2733 23.8899C18.6241 23.0653 15.6673 22.2054 10.649 23.2302C9.42383 23.5012 7.15027 22.064 7.15027 22.064C7.15027 22.064 7.97488 24.6321 11.3086 27.5064C14.6424 30.3808 16.3387 32.6072 21.3571 31.759C21.9225 31.6648 21.9814 31.6766 22.4997 31.7001C23.0181 31.6766 23.077 31.6648 23.6424 31.759C28.649 32.6072 30.3571 30.3808 33.6908 27.5064C37.0246 24.6321 37.8492 22.064 37.8492 22.064C37.8492 22.064 35.5757 23.5012 34.3505 23.2302C29.344 22.2054 26.3872 23.0653 24.7262 23.8899C23.077 24.7145 22.4997 24.6085 22.4997 24.6085Z" fill="url(#paint1_linear_4933_2272)"/>
<path d="M30.8287 24.2082C30.8287 24.2082 31.3235 28.9792 34.5277 29.9923C34.5277 29.9923 31.3235 31.2409 30.8523 35.6938H30.8405C30.3693 31.2409 27.1651 29.9923 27.1651 29.9923C30.3811 28.9792 30.8287 24.2082 30.8287 24.2082Z" fill="white"/>
<path d="M30.8402 26.7056C31.2761 27.8954 32.03 29.2383 33.2787 30.0394C32.513 30.593 31.4999 31.5826 30.852 33.2082C30.2041 31.5826 29.191 30.593 28.4253 30.0394C29.674 29.2383 30.4161 27.8954 30.8402 26.7056ZM30.8284 24.2082C30.8284 24.2082 30.3808 28.9792 27.1766 29.9923C27.1766 29.9923 30.3808 31.2409 30.852 35.6938H30.8638C31.335 31.2409 34.5391 29.9923 34.5391 29.9923C31.335 28.9792 30.8284 24.2082 30.8284 24.2082Z" fill="url(#paint2_linear_4933_2272)"/>
<path d="M9.75402 10.178C9.75402 10.178 10.025 12.7343 11.7331 13.2761C11.7331 13.2761 10.0132 13.9476 9.7658 16.3272C9.51842 13.9358 7.79852 13.2761 7.79852 13.2761C9.51842 12.7225 9.75402 10.178 9.75402 10.178Z" fill="url(#paint3_linear_4933_2272)"/>
<defs>
<linearGradient id="paint0_linear_4933_2272" x1="14.7764" y1="12.8436" x2="30.2213" y2="28.2885" gradientUnits="userSpaceOnUse">
<stop stop-color="#F39A21"/>
<stop offset="1" stop-color="#E969A3"/>
</linearGradient>
<linearGradient id="paint1_linear_4933_2272" x1="14.484" y1="14.7341" x2="30.5109" y2="30.761" gradientUnits="userSpaceOnUse">
<stop stop-color="#F39A21"/>
<stop offset="1" stop-color="#E969A3"/>
</linearGradient>
<linearGradient id="paint2_linear_4933_2272" x1="27.1746" y1="29.9516" x2="34.5327" y2="29.9516" gradientUnits="userSpaceOnUse">
<stop stop-color="#F39A21"/>
<stop offset="1" stop-color="#E969A3"/>
</linearGradient>
<linearGradient id="paint3_linear_4933_2272" x1="7.79923" y1="13.2496" x2="11.7419" y2="13.2496" gradientUnits="userSpaceOnUse">
<stop stop-color="#F39A21"/>
<stop offset="0.745" stop-color="#E64994"/>
</linearGradient>
</defs>
</svg>
