<svg width="45" height="45" viewBox="0 0 45 45" fill="none" xmlns="http://www.w3.org/2000/svg">
	<defs>
<linearGradient id="paint0_linear_4933_2514" x1="10.1091" y1="28.5263" x2="17.3969" y2="35.8136" gradientUnits="userSpaceOnUse">
<stop stop-color="#C988B9"/>
<stop offset="1" stop-color="#6857A3"/>
</linearGradient>
<linearGradient id="paint1_linear_4933_2514" x1="9.6366" y1="28.9987" x2="16.924" y2="36.2861" gradientUnits="userSpaceOnUse">
<stop stop-color="#C988B9"/>
<stop offset="1" stop-color="#6857A3"/>
</linearGradient>
<linearGradient id="paint2_linear_4933_2514" x1="9.1767" y1="29.4589" x2="16.4642" y2="36.7463" gradientUnits="userSpaceOnUse">
<stop stop-color="#C988B9"/>
<stop offset="1" stop-color="#6857A3"/>
</linearGradient>
<linearGradient id="paint3_linear_4933_2514" x1="8.87644" y1="29.7591" x2="16.1638" y2="37.0464" gradientUnits="userSpaceOnUse">
<stop stop-color="#C988B9"/>
<stop offset="1" stop-color="#6857A3"/>
</linearGradient>
<linearGradient id="paint4_linear_4933_2514" x1="8.83642" y1="29.7993" x2="16.1237" y2="37.0865" gradientUnits="userSpaceOnUse">
<stop stop-color="#C988B9"/>
<stop offset="1" stop-color="#6857A3"/>
</linearGradient>
<linearGradient id="paint5_linear_4933_2514" x1="8.99092" y1="29.6448" x2="16.2783" y2="36.9321" gradientUnits="userSpaceOnUse">
<stop stop-color="#C988B9"/>
<stop offset="1" stop-color="#6857A3"/>
</linearGradient>
<linearGradient id="paint6_linear_4933_2514" x1="9.30698" y1="29.3284" x2="16.5943" y2="36.6157" gradientUnits="userSpaceOnUse">
<stop stop-color="#C988B9"/>
<stop offset="1" stop-color="#6857A3"/>
</linearGradient>
<linearGradient id="paint7_linear_4933_2514" x1="9.85218" y1="28.7834" x2="17.1394" y2="36.0707" gradientUnits="userSpaceOnUse">
<stop stop-color="#C988B9"/>
<stop offset="1" stop-color="#6857A3"/>
</linearGradient>
<linearGradient id="paint8_linear_4933_2514" x1="10.552" y1="28.0838" x2="17.8392" y2="35.3711" gradientUnits="userSpaceOnUse">
<stop stop-color="#C988B9"/>
<stop offset="1" stop-color="#6857A3"/>
</linearGradient>
<linearGradient id="paint9_linear_4933_2514" x1="11.3179" y1="27.317" x2="18.6053" y2="34.6043" gradientUnits="userSpaceOnUse">
<stop stop-color="#C988B9"/>
<stop offset="1" stop-color="#6857A3"/>
</linearGradient>
<linearGradient id="paint10_linear_4933_2514" x1="12.1134" y1="26.5221" x2="19.4009" y2="33.8095" gradientUnits="userSpaceOnUse">
<stop stop-color="#C988B9"/>
<stop offset="1" stop-color="#6857A3"/>
</linearGradient>
<linearGradient id="paint11_linear_4933_2514" x1="12.9177" y1="25.7176" x2="20.2051" y2="33.005" gradientUnits="userSpaceOnUse">
<stop stop-color="#C988B9"/>
<stop offset="1" stop-color="#6857A3"/>
</linearGradient>
<linearGradient id="paint12_linear_4933_2514" x1="13.7266" y1="24.9089" x2="21.0137" y2="32.1963" gradientUnits="userSpaceOnUse">
<stop stop-color="#C988B9"/>
<stop offset="1" stop-color="#6857A3"/>
</linearGradient>
<linearGradient id="paint13_linear_4933_2514" x1="14.4449" y1="24.1905" x2="21.7322" y2="31.4777" gradientUnits="userSpaceOnUse">
<stop stop-color="#C988B9"/>
<stop offset="1" stop-color="#6857A3"/>
</linearGradient>
<linearGradient id="paint14_linear_4933_2514" x1="36.074" y1="28.5263" x2="28.7863" y2="35.8133" gradientUnits="userSpaceOnUse">
<stop stop-color="#C988B9"/>
<stop offset="1" stop-color="#6857A3"/>
</linearGradient>
<linearGradient id="paint15_linear_4933_2514" x1="36.5465" y1="28.9987" x2="29.259" y2="36.2861" gradientUnits="userSpaceOnUse">
<stop stop-color="#C988B9"/>
<stop offset="1" stop-color="#6857A3"/>
</linearGradient>
<linearGradient id="paint16_linear_4933_2514" x1="37.0065" y1="29.4589" x2="29.719" y2="36.7462" gradientUnits="userSpaceOnUse">
<stop stop-color="#C988B9"/>
<stop offset="1" stop-color="#6857A3"/>
</linearGradient>
<linearGradient id="paint17_linear_4933_2514" x1="37.3067" y1="29.7591" x2="30.0194" y2="37.0464" gradientUnits="userSpaceOnUse">
<stop stop-color="#C988B9"/>
<stop offset="1" stop-color="#6857A3"/>
</linearGradient>
<linearGradient id="paint18_linear_4933_2514" x1="37.347" y1="29.7993" x2="30.0597" y2="37.0865" gradientUnits="userSpaceOnUse">
<stop stop-color="#C988B9"/>
<stop offset="1" stop-color="#6857A3"/>
</linearGradient>
<linearGradient id="paint19_linear_4933_2514" x1="37.1918" y1="29.6448" x2="29.9045" y2="36.9321" gradientUnits="userSpaceOnUse">
<stop stop-color="#C988B9"/>
<stop offset="1" stop-color="#6857A3"/>
</linearGradient>
<linearGradient id="paint20_linear_4933_2514" x1="36.8758" y1="29.3284" x2="29.5885" y2="36.6157" gradientUnits="userSpaceOnUse">
<stop stop-color="#C988B9"/>
<stop offset="1" stop-color="#6857A3"/>
</linearGradient>
<linearGradient id="paint21_linear_4933_2514" x1="36.331" y1="28.7834" x2="29.0438" y2="36.0707" gradientUnits="userSpaceOnUse">
<stop stop-color="#C988B9"/>
<stop offset="1" stop-color="#6857A3"/>
</linearGradient>
<linearGradient id="paint22_linear_4933_2514" x1="35.6312" y1="28.0838" x2="28.344" y2="35.3711" gradientUnits="userSpaceOnUse">
<stop stop-color="#C988B9"/>
<stop offset="1" stop-color="#6857A3"/>
</linearGradient>
<linearGradient id="paint23_linear_4933_2514" x1="34.865" y1="27.317" x2="27.5777" y2="34.6043" gradientUnits="userSpaceOnUse">
<stop stop-color="#C988B9"/>
<stop offset="1" stop-color="#6857A3"/>
</linearGradient>
<linearGradient id="paint24_linear_4933_2514" x1="34.0699" y1="26.5221" x2="26.7824" y2="33.8095" gradientUnits="userSpaceOnUse">
<stop stop-color="#C988B9"/>
<stop offset="1" stop-color="#6857A3"/>
</linearGradient>
<linearGradient id="paint25_linear_4933_2514" x1="33.265" y1="25.7176" x2="25.9776" y2="33.0049" gradientUnits="userSpaceOnUse">
<stop stop-color="#C988B9"/>
<stop offset="1" stop-color="#6857A3"/>
</linearGradient>
<linearGradient id="paint26_linear_4933_2514" x1="32.4563" y1="24.9089" x2="25.1691" y2="32.1962" gradientUnits="userSpaceOnUse">
<stop stop-color="#C988B9"/>
<stop offset="1" stop-color="#6857A3"/>
</linearGradient>
<linearGradient id="paint27_linear_4933_2514" x1="31.7377" y1="24.1905" x2="24.4503" y2="31.4773" gradientUnits="userSpaceOnUse">
<stop stop-color="#C988B9"/>
<stop offset="1" stop-color="#6857A3"/>
</linearGradient>
<linearGradient id="paint28_linear_4933_2514" x1="13.0918" y1="15.1541" x2="31.9543" y2="34.0167" gradientUnits="userSpaceOnUse">
<stop stop-color="#E2BCD8"/>
<stop offset="1" stop-color="#9D68A9"/>
</linearGradient>
</defs>
<path d="M22.5 45C34.9264 45 45 34.9264 45 22.5C45 10.0736 34.9264 0 22.5 0C10.0736 0 0 10.0736 0 22.5C0 34.9264 10.0736 45 22.5 45Z" fill="#EBE4F1"/>
<path d="M17.2703 35.5286L16.964 35.5521L16.9758 35.4697L17.2703 35.5286Z" fill="url(#paint0_linear_4933_2514)"/>
<path d="M16.3745 35.564L15.7737 35.5523L15.8326 35.2106L16.398 35.352L16.3745 35.564Z" fill="url(#paint1_linear_4933_2514)"/>
<path d="M15.1734 35.4932L14.5609 35.3636L14.7493 34.8453L15.2794 35.0455L15.1734 35.4932Z" fill="url(#paint2_linear_4933_2514)"/>
<path d="M13.9716 35.1516L13.4179 34.8453L13.8184 34.2916L14.2543 34.5979L13.9716 35.1516Z" fill="url(#paint3_linear_4933_2514)"/>
<path d="M12.9114 34.4448L12.4873 33.9736L13.1116 33.5024L13.4415 33.9265L12.9114 34.4448Z" fill="url(#paint4_linear_4933_2514)"/>
<path d="M12.1221 33.4672L11.8158 32.9253L12.5815 32.5483L12.8289 33.0431L12.1221 33.4672Z" fill="url(#paint5_linear_4933_2514)"/>
<path d="M11.5681 32.3245L11.4149 31.6766L12.2866 31.5588L12.3927 32.0654L11.5681 32.3245Z" fill="url(#paint6_linear_4933_2514)"/>
<path d="M11.3798 31.0287L11.4505 30.3808L12.2987 30.5222L12.2633 31.0523L11.3798 31.0287Z" fill="url(#paint7_linear_4933_2514)"/>
<path d="M11.5919 29.7683L11.804 29.1793L12.5697 29.462L12.4165 29.9921L11.5919 29.7683Z" fill="url(#paint8_linear_4933_2514)"/>
<path d="M12.0509 28.6253L12.3218 28.0834L12.9933 28.4133L12.7695 28.9434L12.0509 28.6253Z" fill="url(#paint9_linear_4933_2514)"/>
<path d="M12.6285 27.5654L12.9466 27.0588L13.4885 27.3769L13.2293 27.8952L12.6285 27.5654Z" fill="url(#paint10_linear_4933_2514)"/>
<path d="M13.2762 26.5758L13.6179 26.081L14.0066 26.3166L13.7474 26.8467L13.2762 26.5758Z" fill="url(#paint11_linear_4933_2514)"/>
<path d="M13.9715 25.6097L14.3131 25.1267L14.5134 25.2328L14.266 25.7746L13.9715 25.6097Z" fill="url(#paint12_linear_4933_2514)"/>
<path d="M14.6781 24.6203L14.843 24.3847L14.7488 24.6674L14.6781 24.6203Z" fill="url(#paint13_linear_4933_2514)"/>
<path d="M28.92 35.5286L29.2145 35.4697V35.5521L28.92 35.5286Z" fill="url(#paint14_linear_4933_2514)"/>
<path d="M29.7919 35.352L30.3574 35.2106L30.4045 35.5523L29.8037 35.564L29.7919 35.352Z" fill="url(#paint15_linear_4933_2514)"/>
<path d="M30.9107 35.0455L31.4408 34.8453L31.6175 35.3636L31.0167 35.4932L30.9107 35.0455Z" fill="url(#paint16_linear_4933_2514)"/>
<path d="M31.9239 34.5979L32.3598 34.2916L32.7721 34.8453L32.2066 35.1516L31.9239 34.5979Z" fill="url(#paint17_linear_4933_2514)"/>
<path d="M32.737 33.9265L33.0668 33.5024L33.703 33.9736L33.2671 34.4448L32.737 33.9265Z" fill="url(#paint18_linear_4933_2514)"/>
<path d="M33.3489 33.0431L33.608 32.5483L34.362 32.9253L34.0557 33.4672L33.3489 33.0431Z" fill="url(#paint19_linear_4933_2514)"/>
<path d="M33.7969 32.0654L33.903 31.5588L34.7747 31.6766L34.6215 32.3245L33.7969 32.0654Z" fill="url(#paint20_linear_4933_2514)"/>
<path d="M33.9267 31.0523L33.8796 30.5222L34.7395 30.3808L34.7984 31.0287L33.9267 31.0523Z" fill="url(#paint21_linear_4933_2514)"/>
<path d="M33.7735 29.9921L33.6086 29.462L34.3861 29.1793L34.5863 29.7683L33.7735 29.9921Z" fill="url(#paint22_linear_4933_2514)"/>
<path d="M33.4203 28.9434L33.1847 28.4133L33.8562 28.0834L34.1389 28.6253L33.4203 28.9434Z" fill="url(#paint23_linear_4933_2514)"/>
<path d="M32.949 27.8952L32.6899 27.3769L33.2318 27.0588L33.5498 27.5654L32.949 27.8952Z" fill="url(#paint24_linear_4933_2514)"/>
<path d="M32.4302 26.8467L32.1711 26.3166L32.5598 26.081L32.9015 26.5758L32.4302 26.8467Z" fill="url(#paint25_linear_4933_2514)"/>
<path d="M31.9237 25.7746L31.6763 25.2328L31.8648 25.1267L32.2182 25.6097L31.9237 25.7746Z" fill="url(#paint26_linear_4933_2514)"/>
<path d="M31.4406 24.6674L31.3346 24.3847L31.5113 24.6203L31.4406 24.6674Z" fill="url(#paint27_linear_4933_2514)"/>
<path d="M22.9242 37.5078C22.6414 37.5903 22.3469 37.5903 22.0642 37.5078L21.2749 37.2722C20.0498 36.907 20.2736 36.318 17.7645 36.1767C15.2553 36.0353 14.254 35.8115 13.3941 33.9149C12.5341 32.0183 14.6899 28.284 15.6912 26.1636C16.6925 24.0431 16.6336 23.2774 18.059 15.267C19.2016 8.83503 20.4975 6.77351 22.5119 6.77351C24.5263 6.77351 25.5982 8.16357 26.9647 15.267C28.4961 23.2539 28.3312 24.0431 29.3325 26.1636C30.3338 28.284 32.4896 32.0183 31.6297 33.9149C30.7697 35.8115 29.7684 36.0353 27.2592 36.1767C24.7501 36.318 24.9621 36.907 23.7488 37.2722L22.9242 37.5078Z" fill="url(#paint28_linear_4933_2514)"/>
<path d="M25.8571 33.9856C26.8231 32.9607 29.4854 32.3717 29.5561 33.8795C29.6268 35.3992 27.5652 34.7866 26.776 34.9869C25.9985 35.1989 23.6542 36.3062 25.8571 33.9856Z" fill="#E8DFEE"/>
<path d="M20.3207 33.9856C19.3548 32.9607 16.6924 32.3717 16.6218 33.8795C16.5511 35.3992 18.6126 34.7866 19.4019 34.9869C20.1794 35.1989 22.5236 36.3062 20.3207 33.9856Z" fill="#E8DFEE"/>
<path d="M25.6572 23.1243C26.152 24.4083 26.2933 25.7041 26.3404 27.0117C26.3522 28.3075 26.2815 29.6151 25.8575 30.9227C25.3627 29.6387 25.2213 28.3429 25.1742 27.0353C25.1624 25.7395 25.2331 24.4319 25.6572 23.1243Z" fill="white"/>

</svg>
