<svg width="45" height="45" viewBox="0 0 45 45" fill="none" xmlns="http://www.w3.org/2000/svg">
<path d="M22.5 45C34.9264 45 45 34.9264 45 22.5C45 10.0736 34.9264 0 22.5 0C10.0736 0 0 10.0736 0 22.5C0 34.9264 10.0736 45 22.5 45Z" fill="#FBE7F0"/>
<path d="M24.8443 35.6818C26.3757 34.1151 28.4608 33.4436 30.534 32.7604C32.6073 32.0654 33.3142 28.0483 30.0511 25.6805C25.928 22.7002 22.6649 14.407 21.1924 11.0732C19.7199 7.73943 18.106 5.13603 16.4215 8.28132C14.7369 11.4266 15.5262 13.7355 15.6087 18.3415C15.6911 22.9476 16.2801 28.0366 15.055 30.051C12.8992 33.5614 15.4673 37.1544 19.8495 37.5784C23.1833 37.8965 23.4542 36.53 24.8443 35.6818Z" fill="url(#paint0_linear_4933_2301)"/>
<path d="M23.9959 34.4332C24.7027 33.2435 25.221 33.1846 26.3637 32.9607C27.5063 32.7369 28.2014 31.5589 25.7747 31.7592C23.348 31.9594 20.9919 32.6545 20.7328 34.5511C20.4854 36.4476 22.6765 36.6361 23.9959 34.4332Z" fill="#FBE7F0"/>
<path d="M28.0958 20.839L28.5552 21.2042L28.4492 21.3102L28.0958 20.839Z" fill="url(#paint1_linear_4933_2301)"/>
<path d="M29.0144 21.5695L29.4738 21.9465L29.1911 22.2292L28.8141 21.7698L29.0144 21.5695Z" fill="url(#paint2_linear_4933_2301)"/>
<path d="M29.9335 22.3234L30.3929 22.6886L29.9453 23.1362L29.5683 22.6886L29.9335 22.3234Z" fill="url(#paint3_linear_4933_2301)"/>
<path d="M30.8405 23.0771L31.2881 23.454L30.7344 24.0312L30.3339 23.5836L30.8405 23.0771Z" fill="url(#paint4_linear_4933_2301)"/>
<path d="M31.7357 23.8311L32.1834 24.2199L31.5473 24.8913L31.1349 24.4555L31.7357 23.8311Z" fill="url(#paint5_linear_4933_2301)"/>
<path d="M32.6306 24.5969L33.0783 24.9739L32.3833 25.7396L31.9592 25.3155L32.6306 24.5969Z" fill="url(#paint6_linear_4933_2301)"/>
<path d="M33.5262 25.3508L33.9738 25.716L33.267 26.5524L32.8194 26.1519L33.5262 25.3508Z" fill="url(#paint7_linear_4933_2301)"/>
<path d="M34.4331 26.081L34.8808 26.4108L34.2211 27.3415L33.7263 26.9527L34.4331 26.081Z" fill="url(#paint8_linear_4933_2301)"/>
<path d="M35.4115 26.7881C35.5764 26.9766 35.7413 27.165 35.9062 27.3653L34.9049 27.9661C34.8107 27.8601 34.7282 27.7658 34.6458 27.648L35.4115 26.7881Z" fill="url(#paint9_linear_4933_2301)"/>
<path d="M36.1884 28.0719C36.2237 28.3193 36.2473 28.5666 36.2591 28.8022L35.0928 28.7669C35.0693 28.6255 35.0575 28.4842 35.0457 28.3428L36.1884 28.0719Z" fill="url(#paint10_linear_4933_2301)"/>
<path d="M36.1651 29.509L35.9413 30.1569L34.8928 29.7092L35.046 29.238L36.1651 29.509Z" fill="url(#paint11_linear_4933_2301)"/>
<path d="M35.6233 30.7342L35.2463 31.2643L34.3864 30.6046L34.6691 30.157L35.6233 30.7342Z" fill="url(#paint12_linear_4933_2301)"/>
<path d="M34.8224 31.7356L34.3748 32.1714L33.6915 31.4293L34.0567 31.0287L34.8224 31.7356Z" fill="url(#paint13_linear_4933_2301)"/>
<path d="M33.8799 32.5485L33.3734 32.9019L32.855 32.1716L33.2909 31.8064L33.8799 32.5485Z" fill="url(#paint14_linear_4933_2301)"/>
<path d="M32.8432 33.2081L32.2896 33.479L31.9244 32.8311L32.4074 32.513L32.8432 33.2081Z" fill="url(#paint15_linear_4933_2301)"/>
<path d="M31.7596 33.7381L31.2295 33.9973L30.935 33.5143L31.4298 33.1609L31.7596 33.7381Z" fill="url(#paint16_linear_4933_2301)"/>
<path d="M30.6989 34.2567L30.1805 34.5159L29.9921 34.2449L30.4633 33.868L30.6989 34.2567Z" fill="url(#paint17_linear_4933_2301)"/>
<path d="M29.6743 34.8101L29.2031 35.1517L29.156 35.1164C29.2738 34.9632 29.4034 34.7983 29.5448 34.6451L29.6743 34.8101Z" fill="url(#paint18_linear_4933_2301)"/>
<defs>
<linearGradient id="paint0_linear_4933_2301" x1="10.0895" y1="14.1339" x2="29.4991" y2="34.0509" gradientUnits="userSpaceOnUse">
<stop stop-color="#EFCCE0"/>
<stop offset="0.7207" stop-color="#DC5B99"/>
<stop offset="1" stop-color="#DB5697"/>
</linearGradient>
<linearGradient id="paint1_linear_4933_2301" x1="28.3203" y1="20.4298" x2="28.521" y2="35.8966" gradientUnits="userSpaceOnUse">
<stop stop-color="#EFCCE0"/>
<stop offset="0.7207" stop-color="#DA418E"/>
<stop offset="1" stop-color="#DB5697"/>
</linearGradient>
<linearGradient id="paint2_linear_4933_2301" x1="29.1264" y1="20.4194" x2="29.3273" y2="35.8865" gradientUnits="userSpaceOnUse">
<stop stop-color="#EFCCE0"/>
<stop offset="0.7207" stop-color="#DA418E"/>
<stop offset="1" stop-color="#DB5697"/>
</linearGradient>
<linearGradient id="paint3_linear_4933_2301" x1="29.9471" y1="20.4088" x2="30.1479" y2="35.8758" gradientUnits="userSpaceOnUse">
<stop stop-color="#EFCCE0"/>
<stop offset="0.7207" stop-color="#DA418E"/>
<stop offset="1" stop-color="#DB5697"/>
</linearGradient>
<linearGradient id="paint4_linear_4933_2301" x1="30.7733" y1="20.3978" x2="30.9742" y2="35.8648" gradientUnits="userSpaceOnUse">
<stop stop-color="#EFCCE0"/>
<stop offset="0.7207" stop-color="#DA418E"/>
<stop offset="1" stop-color="#DB5697"/>
</linearGradient>
<linearGradient id="paint5_linear_4933_2301" x1="31.6077" y1="20.3871" x2="31.8085" y2="35.854" gradientUnits="userSpaceOnUse">
<stop stop-color="#EFCCE0"/>
<stop offset="0.7207" stop-color="#DA418E"/>
<stop offset="1" stop-color="#DB5697"/>
</linearGradient>
<linearGradient id="paint6_linear_4933_2301" x1="32.4552" y1="20.3761" x2="32.656" y2="35.8431" gradientUnits="userSpaceOnUse">
<stop stop-color="#EFCCE0"/>
<stop offset="0.7207" stop-color="#DA418E"/>
<stop offset="1" stop-color="#DB5697"/>
</linearGradient>
<linearGradient id="paint7_linear_4933_2301" x1="33.3258" y1="20.3648" x2="33.5267" y2="35.8318" gradientUnits="userSpaceOnUse">
<stop stop-color="#EFCCE0"/>
<stop offset="0.7207" stop-color="#DA418E"/>
<stop offset="1" stop-color="#DB5697"/>
</linearGradient>
<linearGradient id="paint8_linear_4933_2301" x1="34.2203" y1="20.353" x2="34.4211" y2="35.8201" gradientUnits="userSpaceOnUse">
<stop stop-color="#EFCCE0"/>
<stop offset="0.7207" stop-color="#DA418E"/>
<stop offset="1" stop-color="#DB5697"/>
</linearGradient>
<linearGradient id="paint9_linear_4933_2301" x1="35.1756" y1="20.3409" x2="35.3765" y2="35.8078" gradientUnits="userSpaceOnUse">
<stop stop-color="#EFCCE0"/>
<stop offset="0.7207" stop-color="#DA418E"/>
<stop offset="1" stop-color="#DB5697"/>
</linearGradient>
<linearGradient id="paint10_linear_4933_2301" x1="35.5484" y1="20.3357" x2="35.7492" y2="35.8028" gradientUnits="userSpaceOnUse">
<stop stop-color="#EFCCE0"/>
<stop offset="0.7207" stop-color="#DA418E"/>
<stop offset="1" stop-color="#DB5697"/>
</linearGradient>
<linearGradient id="paint11_linear_4933_2301" x1="35.4055" y1="20.3375" x2="35.6063" y2="35.8047" gradientUnits="userSpaceOnUse">
<stop stop-color="#EFCCE0"/>
<stop offset="0.7207" stop-color="#DA418E"/>
<stop offset="1" stop-color="#DB5697"/>
</linearGradient>
<linearGradient id="paint12_linear_4933_2301" x1="34.8748" y1="20.3445" x2="35.0756" y2="35.8116" gradientUnits="userSpaceOnUse">
<stop stop-color="#EFCCE0"/>
<stop offset="0.7207" stop-color="#DA418E"/>
<stop offset="1" stop-color="#DB5697"/>
</linearGradient>
<linearGradient id="paint13_linear_4933_2301" x1="34.1107" y1="20.3546" x2="34.3115" y2="35.8216" gradientUnits="userSpaceOnUse">
<stop stop-color="#EFCCE0"/>
<stop offset="0.7207" stop-color="#DA418E"/>
<stop offset="1" stop-color="#DB5697"/>
</linearGradient>
<linearGradient id="paint14_linear_4933_2301" x1="33.2136" y1="20.3664" x2="33.4145" y2="35.8334" gradientUnits="userSpaceOnUse">
<stop stop-color="#EFCCE0"/>
<stop offset="0.7207" stop-color="#DA418E"/>
<stop offset="1" stop-color="#DB5697"/>
</linearGradient>
<linearGradient id="paint15_linear_4933_2301" x1="32.2198" y1="20.3791" x2="32.4206" y2="35.8461" gradientUnits="userSpaceOnUse">
<stop stop-color="#EFCCE0"/>
<stop offset="0.7207" stop-color="#DA418E"/>
<stop offset="1" stop-color="#DB5697"/>
</linearGradient>
<linearGradient id="paint16_linear_4933_2301" x1="31.178" y1="20.3925" x2="31.3788" y2="35.8596" gradientUnits="userSpaceOnUse">
<stop stop-color="#EFCCE0"/>
<stop offset="0.7207" stop-color="#DA418E"/>
<stop offset="1" stop-color="#DB5697"/>
</linearGradient>
<linearGradient id="paint17_linear_4933_2301" x1="30.1677" y1="20.4059" x2="30.3686" y2="35.8729" gradientUnits="userSpaceOnUse">
<stop stop-color="#EFCCE0"/>
<stop offset="0.7207" stop-color="#DA418E"/>
<stop offset="1" stop-color="#DB5697"/>
</linearGradient>
<linearGradient id="paint18_linear_4933_2301" x1="29.2294" y1="20.4176" x2="29.4303" y2="35.8849" gradientUnits="userSpaceOnUse">
<stop stop-color="#EFCCE0"/>
<stop offset="0.7207" stop-color="#DA418E"/>
<stop offset="1" stop-color="#DB5697"/>
</linearGradient>
</defs>
</svg>
