<svg width="12" height="12" viewBox="0 0 12 12" fill="none" xmlns="http://www.w3.org/2000/svg">
<path d="M10.4789 2.62435C9.67734 2.63606 9.01875 3.28997 9.00234 4.09153C8.99063 4.66106 9.29531 5.16028 9.75234 5.42278V8.06184C9.75234 9.40481 8.57578 10.4993 7.12734 10.4993C5.72109 10.4993 4.56797 9.46575 4.50469 8.17434C6.21094 7.82278 7.5 6.30872 7.5 4.49935V0.857158C7.5 0.58997 7.31016 0.357939 7.04766 0.306376L5.57344 0.0110639C5.26875 -0.0498736 4.97344 0.147001 4.9125 0.451689L4.8375 0.819658C4.77656 1.12435 4.97344 1.41966 5.27812 1.4806L5.99766 1.62356V4.46888C5.99766 5.70872 5.00859 6.73528 3.76875 6.747C2.51719 6.75872 1.49766 5.74622 1.49766 4.497V1.62591L2.21719 1.48294C2.52187 1.422 2.71875 1.12669 2.65781 0.822001L2.58516 0.454033C2.52422 0.149345 2.22891 -0.0475299 1.92422 0.0134076L0.452344 0.304033C0.189844 0.357939 0 0.587626 0 0.857158V4.49935C0 6.31106 1.29141 7.82747 3.00234 8.17434C3.06328 10.2931 4.88906 11.9993 7.125 11.9993C9.39844 11.9993 11.25 10.2322 11.25 8.06184V5.42278C11.6977 5.16263 12 4.67981 12 4.12435C12 3.28763 11.3156 2.61263 10.4789 2.62435ZM10.5 4.49935C10.2937 4.49935 10.125 4.3306 10.125 4.12435C10.125 3.9181 10.2937 3.74935 10.5 3.74935C10.7063 3.74935 10.875 3.9181 10.875 4.12435C10.875 4.3306 10.7063 4.49935 10.5 4.49935Z" fill="#666E6E"/>
</svg>
