<svg width="45" height="45" viewBox="0 0 45 45" fill="none" xmlns="http://www.w3.org/2000/svg">
	<defs>
<linearGradient id="paint0_linear_4933_2326" x1="22.4973" y1="-35.7751" x2="22.4973" y2="35.008" gradientUnits="userSpaceOnUse">
<stop offset="0.4913" stop-color="#F39A21"/>
<stop offset="1" stop-color="#E64994"/>
</linearGradient>
<linearGradient id="paint1_linear_4933_2326" x1="12.8112" y1="25.2451" x2="12.8112" y2="31.0244" gradientUnits="userSpaceOnUse">
<stop stop-color="#F39A21"/>
<stop offset="1" stop-color="#E969A3"/>
</linearGradient>
<linearGradient id="paint2_linear_4933_2326" x1="32.5308" y1="25.2451" x2="32.5308" y2="31.0244" gradientUnits="userSpaceOnUse">
<stop stop-color="#F39A21"/>
<stop offset="1" stop-color="#E969A3"/>
</linearGradient>
<linearGradient id="paint3_linear_4933_2326" x1="22.4987" y1="15.2169" x2="22.4987" y2="38.5481" gradientUnits="userSpaceOnUse">
<stop stop-color="#F39A21"/>
<stop offset="1" stop-color="#E969A3"/>
</linearGradient>
<linearGradient id="paint4_linear_4933_2326" x1="25.4709" y1="-18.7977" x2="25.4709" y2="28.5346" gradientUnits="userSpaceOnUse">
<stop offset="0.4913" stop-color="#F39A21"/>
<stop offset="1" stop-color="#E64994"/>
</linearGradient>
<linearGradient id="paint5_linear_4933_2326" x1="21.9362" y1="30.2705" x2="23.2968" y2="31.6311" gradientUnits="userSpaceOnUse">
<stop stop-color="#F39A21"/>
<stop offset="0.745" stop-color="#E64994"/>
</linearGradient>
<linearGradient id="paint6_linear_4933_2326" x1="28.0219" y1="23.5447" x2="28.5385" y2="24.6051" gradientUnits="userSpaceOnUse">
<stop stop-color="#F39A21"/>
<stop offset="0.745" stop-color="#E64994"/>
</linearGradient>
<linearGradient id="paint7_linear_4933_2326" x1="28.9408" y1="23.7163" x2="29.2339" y2="24.9419" gradientUnits="userSpaceOnUse">
<stop stop-color="#F39A21"/>
<stop offset="0.745" stop-color="#E64994"/>
</linearGradient>
<linearGradient id="paint8_linear_4933_2326" x1="29.4341" y1="24.1921" x2="29.6938" y2="25.2781" gradientUnits="userSpaceOnUse">
<stop stop-color="#F39A21"/>
<stop offset="0.745" stop-color="#E64994"/>
</linearGradient>
<linearGradient id="paint9_linear_4933_2326" x1="25.958" y1="25.1836" x2="27.8866" y2="26.7098" gradientUnits="userSpaceOnUse">
<stop offset="0.4913" stop-color="#F39A21"/>
<stop offset="1" stop-color="#E64994"/>
</linearGradient>
<linearGradient id="paint10_linear_4933_2326" x1="28.9617" y1="27.3297" x2="29.4126" y2="27.6865" gradientUnits="userSpaceOnUse">
<stop stop-color="#F39A21"/>
<stop offset="0.7463" stop-color="#E64994"/>
</linearGradient>
<linearGradient id="paint11_linear_4933_2326" x1="24.1986" y1="24.6779" x2="29.7176" y2="24.035" gradientUnits="userSpaceOnUse">
<stop stop-color="#F39A21"/>
<stop offset="0.745" stop-color="#E64994"/>
</linearGradient>
<linearGradient id="paint12_linear_4933_2326" x1="23.1038" y1="32.3898" x2="24.9834" y2="34.2694" gradientUnits="userSpaceOnUse">
<stop stop-color="#F39A21"/>
<stop offset="0.745" stop-color="#E64994"/>
</linearGradient>
<linearGradient id="paint13_linear_4933_2326" x1="27.2513" y1="21.7329" x2="27.2513" y2="23.9993" gradientUnits="userSpaceOnUse">
<stop stop-color="#F39A21"/>
<stop offset="1" stop-color="#E64994"/>
</linearGradient>
<linearGradient id="paint14_linear_4933_2326" x1="17.0985" y1="23.5447" x2="16.582" y2="24.6052" gradientUnits="userSpaceOnUse">
<stop stop-color="#F39A21"/>
<stop offset="0.745" stop-color="#E64994"/>
</linearGradient>
<linearGradient id="paint15_linear_4933_2326" x1="16.1794" y1="23.8166" x2="15.8862" y2="25.042" gradientUnits="userSpaceOnUse">
<stop stop-color="#F39A21"/>
<stop offset="0.745" stop-color="#E64994"/>
</linearGradient>
<linearGradient id="paint16_linear_4933_2326" x1="15.6863" y1="24.2923" x2="15.4265" y2="25.3784" gradientUnits="userSpaceOnUse">
<stop stop-color="#F39A21"/>
<stop offset="0.745" stop-color="#E64994"/>
</linearGradient>
<linearGradient id="paint17_linear_4933_2326" x1="19.1628" y1="25.1835" x2="17.2342" y2="26.7098" gradientUnits="userSpaceOnUse">
<stop offset="0.4913" stop-color="#F39A21"/>
<stop offset="1" stop-color="#E64994"/>
</linearGradient>
<linearGradient id="paint18_linear_4933_2326" x1="20.9212" y1="24.7782" x2="15.4022" y2="24.1352" gradientUnits="userSpaceOnUse">
<stop stop-color="#F39A21"/>
<stop offset="0.745" stop-color="#E64994"/>
</linearGradient>
<linearGradient id="paint19_linear_4933_2326" x1="20.0457" y1="22.0681" x2="17.5748" y2="23.7381" gradientUnits="userSpaceOnUse">
<stop offset="0.4913" stop-color="#F39A21"/>
<stop offset="1" stop-color="#E64994"/>
</linearGradient>
<linearGradient id="paint20_linear_4933_2326" x1="19.7474" y1="33.5076" x2="22.5883" y2="33.5076" gradientUnits="userSpaceOnUse">
<stop stop-color="#F39A21"/>
<stop offset="0.745" stop-color="#E64994"/>
</linearGradient>
<linearGradient id="paint21_linear_4933_2326" x1="22.4575" y1="40.0809" x2="22.752" y2="40.0809" gradientUnits="userSpaceOnUse">
<stop stop-color="#F39A21"/>
<stop offset="0.745" stop-color="#E64994"/>
</linearGradient>
<linearGradient id="paint22_linear_4933_2326" x1="22.4575" y1="22.2658" x2="22.752" y2="22.2658" gradientUnits="userSpaceOnUse">
<stop stop-color="#F39A21"/>
<stop offset="0.745" stop-color="#E64994"/>
</linearGradient>
<linearGradient id="paint23_linear_4933_2326" x1="22.4575" y1="4.45011" x2="22.752" y2="4.45011" gradientUnits="userSpaceOnUse">
<stop stop-color="#F39A21"/>
<stop offset="0.745" stop-color="#E64994"/>
</linearGradient>
<linearGradient id="paint24_linear_4933_2326" x1="24.0574" y1="25.6762" x2="30.0569" y2="25.1496" gradientUnits="userSpaceOnUse">
<stop stop-color="#F39A21"/>
<stop offset="0.745" stop-color="#E64994"/>
</linearGradient>
<linearGradient id="paint25_linear_4933_2326" x1="20.8331" y1="25.367" x2="15.2817" y2="25.0565" gradientUnits="userSpaceOnUse">
<stop stop-color="#F39A21"/>
<stop offset="0.745" stop-color="#E64994"/>
</linearGradient>
</defs>
<path d="M22.5 45C34.9264 45 45 34.9264 45 22.5C45 10.0736 34.9264 0 22.5 0C10.0736 0 0 10.0736 0 22.5C0 34.9264 10.0736 45 22.5 45Z" fill="#FCE4DF"/>
<path d="M35.3282 20.839C37.0245 13.2762 31.535 9.44768 29.0611 7.83381C26.658 6.27883 20.3674 6.03145 16.5507 7.83381C13.8766 9.09428 7.97476 13.2762 9.68287 20.839C11.3792 28.4019 14.925 34.7749 9.25879 33.4438C9.25879 33.4438 14.5009 37.0249 16.2091 33.3142C17.4224 30.6637 20.7208 25.4922 22.5114 22.7592C24.302 25.504 27.6004 30.6637 28.8138 33.3142C30.5101 37.0249 35.764 33.4438 35.764 33.4438C30.086 34.7867 33.62 28.4137 35.3282 20.839Z" fill="url(#paint0_linear_4933_2326)"/>
<path d="M13.9006 26.9058C13.9006 26.9058 12.2514 25.021 11.4032 25.6689C10.5551 26.3168 11.5682 29.6977 14.6899 30.7343" fill="white"/>
<path d="M14.6077 31.0288C12.3813 30.2867 11.1091 28.3901 10.8734 26.9411C10.7556 26.2579 10.8852 25.7042 11.2386 25.445C12.2753 24.644 13.9481 26.5052 14.1365 26.7173L13.6889 27.106C13.2059 26.5641 12.075 25.5511 11.592 25.9162C11.4742 26.0105 11.3564 26.305 11.4507 26.8469C11.6627 28.1309 12.8054 29.8155 14.7962 30.4751L14.6077 31.0288Z" fill="url(#paint1_linear_4933_2326)"/>
<path d="M31.4406 26.9058C31.4406 26.9058 33.0898 25.021 33.938 25.6689C34.7862 26.3168 33.7731 29.6977 30.6514 30.7343" fill="white"/>
<path d="M30.7344 31.0288L30.5459 30.4751C32.5367 29.8155 33.6676 28.1309 33.8914 26.8469C33.9857 26.305 33.8679 26.0105 33.7501 25.9162C33.2671 25.5511 32.1362 26.5641 31.6532 27.106L31.2056 26.7173C31.3941 26.5052 33.0668 24.644 34.1035 25.445C34.4451 25.7042 34.5865 26.2579 34.4687 26.9411C34.2331 28.3901 32.949 30.2867 30.7344 31.0288Z" fill="url(#paint2_linear_4933_2326)"/>
<path d="M19.3549 15.5262C16.3745 18.2357 13.0879 25.6925 13.0879 25.6925C14.8431 35.8823 22.5002 38.2383 22.5002 38.2383C22.5002 38.2383 30.1573 35.8823 31.9125 25.6925C29.368 21.2514 30.063 16.881 19.3549 15.5262Z" fill="white"/>
<path d="M22.4998 38.5445L22.4173 38.521C22.3349 38.4974 20.4147 37.8966 18.2589 36.0118C16.2799 34.2802 13.7236 31.0995 12.8047 25.7514L12.793 25.6689L12.8283 25.5864C12.9579 25.2801 16.1856 18.0354 19.166 15.3142L19.272 15.2199L19.4016 15.2317C28.1189 16.3391 29.4854 19.5315 30.9225 22.9241C31.2877 23.7841 31.6647 24.6676 32.1712 25.5511L32.2184 25.6453L32.1948 25.7514C31.276 31.0995 28.7197 34.2919 26.7406 36.0118C24.5849 37.8966 22.6647 38.4974 22.5822 38.521L22.4998 38.5445ZM13.3938 25.7396C15.0194 34.987 21.6634 37.6375 22.4998 37.932C23.3362 37.6375 29.9801 34.9752 31.6058 25.7514C31.111 24.8678 30.7341 23.9961 30.3807 23.148C28.9553 19.8024 27.7184 16.9045 19.4605 15.8325C16.7511 18.3888 13.7472 24.9267 13.3938 25.7396Z" fill="url(#paint3_linear_4933_2326)"/>
<path d="M16.8814 12.3927C16.8814 12.3927 16.1274 19.1427 22.4651 21.6283C22.4651 21.6283 20.3447 18.7304 21.4992 16.9987C21.4992 16.9987 22.8303 20.8979 26.2701 21.8874C26.2701 21.8874 25.5515 18.7304 26.8945 18.0471C26.8945 18.0471 26.9887 19.0131 29.8748 22.6532C32.7609 26.2932 31.3945 28.5079 31.3945 28.5079C31.3945 28.5079 33.7976 27.3534 34.0803 21.5929C34.0803 21.5929 34.1746 12.2749 25.8225 10.1545C17.4704 8.03404 17.6589 11.627 16.8814 12.3927Z" fill="url(#paint4_linear_4933_2326)"/>
<path d="M23.7606 30.8756C23.6899 31.1112 23.5486 31.335 23.3248 31.4764C23.1127 31.6295 22.83 31.6767 22.5708 31.6649C22.3117 31.6295 22.0761 31.5235 21.864 31.3939C21.6638 31.2526 21.4871 31.0759 21.3457 30.8874C21.7816 31.0994 22.1821 31.3468 22.6062 31.3822C23.0303 31.4411 23.4426 31.229 23.7606 30.8756Z" fill="url(#paint5_linear_4933_2326)"/>
<path d="M27.9424 24.5616C28.1544 24.4909 28.39 24.326 28.496 24.0904C28.6138 23.8548 28.6021 23.572 28.5196 23.3011C28.6492 23.5485 28.7199 23.843 28.6374 24.1375C28.5549 24.432 28.3429 24.6676 28.0602 24.8207L27.9424 24.5616Z" fill="url(#paint6_linear_4933_2326)"/>
<path d="M28.708 24.7736C29.1085 24.5851 29.4266 24.1257 29.4148 23.6192C29.5326 24.1139 29.3088 24.6911 28.8611 25.0328L28.708 24.7736Z" fill="url(#paint7_linear_4933_2326)"/>
<path d="M29.2617 25.0798C29.4149 25.0327 29.5916 24.9031 29.6858 24.7264C29.78 24.5497 29.8154 24.3259 29.7918 24.1138C29.945 24.5144 29.8507 25.0916 29.3677 25.3625L29.2617 25.0798Z" fill="url(#paint8_linear_4933_2326)"/>
<path d="M26.9175 27.1767C27.5941 27.1767 28.1426 26.6282 28.1426 25.9516C28.1426 25.2749 27.5941 24.7264 26.9175 24.7264C26.2409 24.7264 25.6924 25.2749 25.6924 25.9516C25.6924 26.6282 26.2409 27.1767 26.9175 27.1767Z" fill="url(#paint9_linear_4933_2326)"/>
<path d="M29.1909 27.7892C29.3471 27.7892 29.4736 27.6627 29.4736 27.5065C29.4736 27.3504 29.3471 27.2238 29.1909 27.2238C29.0348 27.2238 28.9082 27.3504 28.9082 27.5065C28.9082 27.6627 29.0348 27.7892 29.1909 27.7892Z" fill="url(#paint10_linear_4933_2326)"/>
<path d="M26.4697 25.9516C26.6779 25.9516 26.8467 25.7828 26.8467 25.5746C26.8467 25.3664 26.6779 25.1977 26.4697 25.1977C26.2615 25.1977 26.0928 25.3664 26.0928 25.5746C26.0928 25.7828 26.2615 25.9516 26.4697 25.9516Z" fill="white"/>
<path d="M24.3965 25.3507C24.8206 24.3848 25.8572 23.784 26.8939 23.6309C27.424 23.572 27.9776 23.6191 28.4606 23.8193C28.9554 24.0196 29.3677 24.373 29.674 24.7853C28.9083 24.1021 27.907 23.7487 26.9292 23.9136C26.4344 23.9725 25.9632 24.1374 25.5274 24.373C25.1033 24.6204 24.691 24.9267 24.3965 25.3507Z" fill="url(#paint11_linear_4933_2326)"/>
<path d="M22.583 32.9372C22.583 32.9372 22.7833 32.5013 23.6432 32.7958C24.7977 33.1964 26.4351 32.7251 26.4351 32.7251C26.4351 32.7251 25.2571 34.6453 22.583 34.8573V32.9372Z" fill="url(#paint12_linear_4933_2326)"/>
<path d="M24.1846 23.737C24.538 23.2775 24.9974 22.9359 25.4686 22.6296C25.9516 22.3233 26.4935 22.1466 27.0589 22.0053C27.6008 21.8639 28.2369 21.7579 28.8024 22.0053L30.322 22.6885L30.2984 22.7474L28.6964 22.2762C28.2134 22.1349 27.6833 22.2644 27.1885 22.4529C26.6937 22.6414 26.2343 22.9359 25.7395 23.148C25.233 23.36 24.75 23.6074 24.2081 23.7841L24.1846 23.737Z" fill="url(#paint13_linear_4933_2326)"/>
<path d="M17.0697 24.8443C16.7869 24.6912 16.5749 24.4556 16.4924 24.161C16.41 23.8665 16.4807 23.572 16.6102 23.3247C16.5278 23.5838 16.516 23.8783 16.6338 24.1139C16.7398 24.3495 16.9637 24.5027 17.1875 24.5851L17.0697 24.8443Z" fill="url(#paint14_linear_4933_2326)"/>
<path d="M16.2683 25.1388C15.8089 24.7971 15.5969 24.2317 15.7147 23.7251C15.7029 24.2317 16.0209 24.6911 16.4215 24.8796L16.2683 25.1388Z" fill="url(#paint15_linear_4933_2326)"/>
<path d="M15.7503 25.4569C15.2673 25.1859 15.173 24.6205 15.3262 24.2082C15.3026 24.432 15.338 24.644 15.4322 24.8207C15.5264 24.9974 15.7031 25.127 15.8563 25.1741L15.7503 25.4569Z" fill="url(#paint16_linear_4933_2326)"/>
<path d="M18.2007 27.1767C18.8773 27.1767 19.4258 26.6282 19.4258 25.9516C19.4258 25.2749 18.8773 24.7264 18.2007 24.7264C17.5241 24.7264 16.9756 25.2749 16.9756 25.9516C16.9756 26.6282 17.5241 27.1767 18.2007 27.1767Z" fill="url(#paint17_linear_4933_2326)"/>
<path d="M18.6475 25.9516C18.8557 25.9516 19.0244 25.7828 19.0244 25.5746C19.0244 25.3664 18.8557 25.1977 18.6475 25.1977C18.4393 25.1977 18.2705 25.3664 18.2705 25.5746C18.2705 25.7828 18.4393 25.9516 18.6475 25.9516Z" fill="white"/>
<path d="M20.7209 25.445C20.4264 25.021 20.0141 24.7147 19.5782 24.4673C19.1424 24.2317 18.6712 24.055 18.1764 24.0079C17.1987 23.843 16.1973 24.1846 15.4316 24.8796C15.7379 24.4673 16.1502 24.1139 16.645 23.9136C17.1398 23.7016 17.6934 23.6545 18.2117 23.7252C19.2602 23.8783 20.2968 24.4791 20.7209 25.445Z" fill="url(#paint18_linear_4933_2326)"/>
<path opacity="0.64" d="M21.0156 23.7723C20.2617 23.4306 19.5667 23.0183 18.8481 22.6414C18.4829 22.4647 18.1059 22.2997 17.7172 22.1937C17.3285 22.0877 16.9161 22.017 16.5274 22.123L16.5156 22.0995C16.9044 21.9463 17.3402 21.9817 17.7525 22.0524C18.1648 22.1348 18.5536 22.2644 18.9423 22.4293C19.7198 22.7238 20.4502 23.1597 21.0274 23.7605L21.0156 23.7723Z" fill="url(#paint19_linear_4933_2326)"/>
<path d="M22.5828 33.9267C21.5933 33.9031 20.6155 33.6322 19.8145 33.0903C20.6626 33.5497 21.6404 33.7028 22.5592 33.6322L22.5828 33.9267Z" fill="url(#paint20_linear_4933_2326)"/>
<path d="M22.5821 33.7265C23.8308 33.7736 25.1148 33.5026 26.1986 32.8547C25.1266 33.538 23.8426 33.856 22.5703 33.8443L22.5821 33.7265Z" fill="white"/>
<path d="M22.7476 39.9934H22.4531V40.1701H22.7476V39.9934Z" fill="url(#paint21_linear_4933_2326)"/>
<path d="M22.7476 39.6399H22.4531V39.2865H22.7476V39.6399ZM22.7476 38.9449H22.4531V38.5915H22.7476V38.9449ZM22.7476 38.2381H22.4531V37.8847H22.7476V38.2381ZM22.7476 37.5313H22.4531V37.1779H22.7476V37.5313ZM22.7476 36.8363H22.4531V36.4829H22.7476V36.8363ZM22.7476 36.1295H22.4531V35.7761H22.7476V36.1295ZM22.7476 35.4344H22.4531V35.081H22.7476V35.4344ZM22.7476 34.7276H22.4531V34.3742H22.7476V34.7276ZM22.7476 34.0208H22.4531V33.6674H22.7476V34.0208ZM22.7476 33.3258H22.4531V32.9724H22.7476V33.3258ZM22.7476 32.619H22.4531V32.2656H22.7476V32.619ZM22.7476 31.924H22.4531V31.5706H22.7476V31.924ZM22.7476 31.2172H22.4531V30.8638H22.7476V31.2172ZM22.7476 30.5104H22.4531V30.157H22.7476V30.5104ZM22.7476 29.8153H22.4531V29.4619H22.7476V29.8153ZM22.7476 29.1085H22.4531V28.7551H22.7476V29.1085ZM22.7476 28.4135H22.4531V28.0601H22.7476V28.4135ZM22.7476 27.7067H22.4531V27.3533H22.7476V27.7067ZM22.7476 26.9999H22.4531V26.6465H22.7476V26.9999ZM22.7476 26.3049H22.4531V25.9515H22.7476V26.3049ZM22.7476 25.5981H22.4531V25.2446H22.7476V25.5981ZM22.7476 24.903H22.4531V24.5496H22.7476V24.903ZM22.7476 24.1962H22.4531V23.8428H22.7476V24.1962ZM22.7476 23.4894H22.4531V23.136H22.7476V23.4894ZM22.7476 22.7944H22.4531V22.441H22.7476V22.7944ZM22.7476 22.0876H22.4531V21.7342H22.7476V22.0876ZM22.7476 21.3926H22.4531V21.0392H22.7476V21.3926ZM22.7476 20.6857H22.4531V20.3323H22.7476V20.6857ZM22.7476 19.9789H22.4531V19.6255H22.7476V19.9789ZM22.7476 19.2839H22.4531V18.9305H22.7476V19.2839ZM22.7476 18.5771H22.4531V18.2237H22.7476V18.5771ZM22.7476 17.8821H22.4531V17.5287H22.7476V17.8821ZM22.7476 17.1753H22.4531V16.8219H22.7476V17.1753ZM22.7476 16.4685H22.4531V16.1151H22.7476V16.4685ZM22.7476 15.7734H22.4531V15.42H22.7476V15.7734ZM22.7476 15.0666H22.4531V14.7132H22.7476V15.0666ZM22.7476 14.3716H22.4531V14.0182H22.7476V14.3716ZM22.7476 13.6648H22.4531V13.3114H22.7476V13.6648ZM22.7476 12.9698H22.4531V12.6164H22.7476V12.9698ZM22.7476 12.263H22.4531V11.9096H22.7476V12.263ZM22.7476 11.5562H22.4531V11.2028H22.7476V11.5562ZM22.7476 10.8611H22.4531V10.5077H22.7476V10.8611ZM22.7476 10.1543H22.4531V9.80093H22.7476V10.1543ZM22.7476 9.44753H22.4531V9.09412H22.7476V9.44753ZM22.7476 8.7525H22.4531V8.3991H22.7476V8.7525ZM22.7476 8.04569H22.4531V7.69229H22.7476V8.04569ZM22.7476 7.35067H22.4531V6.99727H22.7476V7.35067ZM22.7476 6.64386H22.4531V6.29046H22.7476V6.64386ZM22.7476 5.94884H22.4531V5.59543H22.7476V5.94884ZM22.7476 5.24203H22.4531V4.88863H22.7476V5.24203Z" fill="url(#paint22_linear_4933_2326)"/>
<path d="M22.7476 4.35858H22.4531V4.53528H22.7476V4.35858Z" fill="url(#paint23_linear_4933_2326)"/>
<path d="M24.9859 26.682C24.7739 26.5171 24.5736 26.3286 24.3734 26.1519L24.3145 26.1048L24.3616 26.0105C24.6207 25.5276 24.9977 25.1388 25.4453 24.8207C25.893 24.5145 26.4349 24.3142 26.9885 24.2553C27.5422 24.1964 28.1076 24.2671 28.626 24.4909C29.1325 24.7265 29.5684 25.0681 29.8747 25.5393L29.9218 25.6218L29.8864 25.6807C29.6391 26.0459 29.321 26.2933 28.9558 26.4464C29.2503 26.199 29.5095 25.8927 29.6391 25.5747L29.6508 25.7043C28.9558 25.021 27.9781 24.7383 27.0474 24.8561C26.1286 24.9503 25.2215 25.4333 24.5618 26.1637L24.5501 26.0223C24.7032 26.2226 24.8563 26.4346 24.9859 26.682Z" fill="url(#paint24_linear_4933_2326)"/>
<path d="M20.6742 26.0812C20.3325 25.7042 19.9084 25.3979 19.4726 25.1741C19.0367 24.9503 18.5537 24.7971 18.059 24.7736C17.5642 24.7264 17.0694 24.7971 16.61 24.962C16.1506 25.1387 15.7147 25.3979 15.3613 25.7749C15.8914 24.8678 17.0223 24.3848 18.0825 24.4791C19.1545 24.5733 20.1558 25.1859 20.6742 26.0812Z" fill="url(#paint25_linear_4933_2326)"/>

</svg>
