<svg width="14" height="15" viewBox="0 0 14 15" fill="none" xmlns="http://www.w3.org/2000/svg">
<path d="M7.63572 13.8776C7.79749 13.8776 7.93936 13.8278 8.06132 13.7257C8.18327 13.6237 8.243 13.5689 8.243 13.5615C8.64123 13.1085 9.06434 12.5883 9.5198 12.0059C9.97527 11.4235 10.3959 10.8038 10.7842 10.1517C11.1724 9.49959 11.496 8.83506 11.7498 8.15808C12.0037 7.48111 12.1331 6.81906 12.1331 6.17195C12.1331 5.53231 12.0286 4.92502 11.822 4.35008C11.6154 3.77515 11.3168 3.26991 10.9235 2.83684C10.5303 2.40377 10.0474 2.06031 9.47252 1.80893C8.89758 1.55755 8.24549 1.43311 7.51625 1.43311C6.8766 1.43311 6.2718 1.55755 5.69936 1.80893C5.12692 2.06031 4.62665 2.40377 4.19856 2.83684C3.76798 3.26991 3.42949 3.77515 3.17812 4.35008C2.92425 4.92502 2.7998 5.53231 2.7998 6.17195C2.7998 6.84395 2.93918 7.51595 3.21794 8.19044C3.49669 8.86493 3.84514 9.51702 4.26327 10.1542C4.6814 10.7913 5.13438 11.3961 5.62469 11.9711C6.115 12.546 6.57047 13.0761 6.99109 13.564C6.99109 13.5714 7.05083 13.6262 7.1678 13.7282C7.28478 13.8303 7.42914 13.8776 7.60087 13.8776H7.63572ZM7.61332 13.0886L7.58843 13.0637L7.56354 13.0388L7.35696 12.8073C6.95874 12.3444 6.53812 11.8491 6.0926 11.319C5.64709 10.7888 5.23892 10.2363 4.86558 9.66635C4.49225 9.0964 4.18612 8.51399 3.9422 7.92164C3.69829 7.32928 3.57883 6.74688 3.57883 6.17195C3.57883 5.63684 3.68336 5.12911 3.89492 4.64626C4.10647 4.16342 4.3902 3.74279 4.74612 3.38191C5.10203 3.02102 5.52016 2.73479 5.99803 2.52573C6.47589 2.31666 6.98363 2.20964 7.51625 2.20964C8.18078 2.20964 8.75323 2.32413 9.23607 2.55062C9.71892 2.77711 10.1171 3.07826 10.4332 3.44911C10.7493 3.82244 10.9833 4.24555 11.1326 4.71844C11.2819 5.19133 11.3566 5.67666 11.3566 6.16946C11.3566 6.60751 11.2794 7.07791 11.1251 7.58564C10.9708 8.09088 10.7394 8.63097 10.4332 9.20093C10.1271 9.77088 9.74132 10.3782 9.27838 11.0178C8.81545 11.6575 8.27785 12.3295 7.66309 13.0363C7.66309 13.0438 7.65812 13.0537 7.64567 13.0612C7.63323 13.0687 7.62078 13.0786 7.61332 13.0886ZM7.47892 8.44431C8.12603 8.44431 8.67856 8.21782 9.13154 7.76484C9.58452 7.31186 9.811 6.75933 9.811 6.11222C9.811 5.47257 9.58452 4.92253 9.13154 4.46457C8.67856 4.00662 8.12603 3.77764 7.47892 3.77764C6.83927 3.77764 6.28923 4.00662 5.83127 4.46457C5.37332 4.92253 5.14434 5.47008 5.14434 6.11222C5.14434 6.75933 5.37332 7.31186 5.83127 7.76484C6.28923 8.21782 6.83927 8.44431 7.47892 8.44431ZM7.47892 7.66777C7.04834 7.66777 6.67998 7.51346 6.37385 7.20484C6.06772 6.89622 5.91092 6.52786 5.91092 6.09977C5.91092 5.67168 6.06274 5.30333 6.36638 4.99968C6.67003 4.69604 7.03589 4.54422 7.46647 4.54422C7.89705 4.54422 8.26292 4.69604 8.56656 4.99968C8.8702 5.30333 9.02203 5.66919 9.02203 6.09977C9.02203 6.53035 8.87269 6.89871 8.57154 7.20484C8.27038 7.51097 7.907 7.66777 7.47892 7.66777Z" fill="#666E6E"/>
</svg>
