<svg width="12" height="12" viewBox="0 0 12 12" fill="none" xmlns="http://www.w3.org/2000/svg">
<path d="M7.26108 12C7.39349 12 7.51949 11.9744 7.63481 11.9189C7.75868 11.8741 7.86973 11.8037 7.96797 11.7056L11.7053 8.0128C11.7309 7.99573 11.7544 7.97227 11.7715 7.94667C11.7971 7.92107 11.8206 7.88907 11.8377 7.8528C11.8548 7.8272 11.8697 7.80373 11.8783 7.78667C11.8954 7.76107 11.9103 7.7376 11.9188 7.72053C11.9188 7.70347 11.9231 7.68853 11.9317 7.68C11.9765 7.55627 11.9979 7.42187 11.9979 7.27893V7.2384C11.9893 7.15733 11.9722 7.0784 11.9445 6.99947C11.9082 6.90987 11.8633 6.82667 11.8121 6.7456C11.7758 6.7008 11.7459 6.66453 11.7181 6.63893L5.32621 0.200533C5.28991 0.155733 5.25147 0.119467 5.20662 0.0938667C5.09984 0.032 4.98665 0 4.87133 0H0.986652C0.711159 0 0.478377 0.0981333 0.286172 0.2944C0.0939669 0.490667 0 0.721067 0 0.9856V5.09227C0 5.09227 0.00213561 5.09653 0.00640683 5.10507C0.0106781 5.1136 0.0128137 5.12 0.0128137 5.12C0.0213561 5.15627 0.0298986 5.18613 0.038441 5.21387C0.0469835 5.2224 0.0512547 5.23093 0.0512547 5.23947C0.0875601 5.30133 0.132408 5.35893 0.183663 5.41227L3.36145 8.55893L6.55206 11.7056C6.63321 11.776 6.7165 11.8336 6.80619 11.8784C6.94928 11.9595 7.10091 12 7.26108 12ZM7.26108 11.04C7.25254 11.04 7.24826 11.0357 7.24826 11.0272H7.23545L4.04485 7.88053L0.961025 4.8256V0.9856C0.961025 0.968533 0.969568 0.96 0.986652 0.96H4.73679L11.024 7.30667H11.0368V7.33227H11.024L7.28671 11.0251C7.27816 11.0357 7.26962 11.04 7.26108 11.04ZM2.67592 3.6928C2.9386 3.6928 3.16284 3.59893 3.35077 3.41333C3.53871 3.22773 3.63054 3.0016 3.63054 2.7392C3.63054 2.4768 3.53657 2.2528 3.35077 2.06507C3.16498 1.87733 2.9386 1.7856 2.67592 1.7856C2.41324 1.7856 2.189 1.87947 2.00107 2.06507C1.81313 2.25067 1.7213 2.4768 1.7213 2.7392C1.7213 3.0016 1.81527 3.2256 2.0032 3.41333C2.19114 3.60107 2.41324 3.6928 2.67592 3.6928Z" fill="#666E6E"/>
</svg>
