<svg width="45" height="45" viewBox="0 0 45 45" fill="none" xmlns="http://www.w3.org/2000/svg">
	<defs>
<linearGradient id="paint0_linear_4933_2418" x1="-25.5243" y1="-29.0146" x2="37.5514" y2="34.0609" gradientUnits="userSpaceOnUse">
<stop offset="0.3883" stop-color="#E2BCD8"/>
<stop offset="1" stop-color="#9D68A9"/>
</linearGradient>
<linearGradient id="paint1_linear_4933_2418" x1="15.4978" y1="20.1593" x2="15.4978" y2="28.5531" gradientUnits="userSpaceOnUse">
<stop stop-color="#E2BCD8"/>
<stop offset="1" stop-color="#9D68A9"/>
</linearGradient>
<linearGradient id="paint2_linear_4933_2418" x1="29.9959" y1="5.1056" x2="29.9959" y2="39.8293" gradientUnits="userSpaceOnUse">
<stop stop-color="#E2BCD8"/>
<stop offset="1" stop-color="#9D68A9"/>
</linearGradient>
<linearGradient id="paint3_linear_4933_2418" x1="34.1573" y1="19.7483" x2="37.8739" y2="23.465" gradientUnits="userSpaceOnUse">
<stop stop-color="#E2BCD8"/>
<stop offset="1" stop-color="#9D68A9"/>
</linearGradient>
<linearGradient id="paint4_linear_4933_2418" x1="34.3247" y1="16.8595" x2="38.9397" y2="21.4746" gradientUnits="userSpaceOnUse">
<stop stop-color="#E2BCD8"/>
<stop offset="1" stop-color="#9D68A9"/>
</linearGradient>
<linearGradient id="paint5_linear_4933_2418" x1="25.7444" y1="19.7483" x2="22.0277" y2="23.465" gradientUnits="userSpaceOnUse">
<stop stop-color="#E2BCD8"/>
<stop offset="1" stop-color="#9D68A9"/>
</linearGradient>
<linearGradient id="paint6_linear_4933_2418" x1="25.5776" y1="16.8595" x2="20.9624" y2="21.4746" gradientUnits="userSpaceOnUse">
<stop stop-color="#E2BCD8"/>
<stop offset="1" stop-color="#9D68A9"/>
</linearGradient>
<linearGradient id="paint7_linear_4933_2418" x1="28.894" y1="27.9659" x2="30.774" y2="29.8459" gradientUnits="userSpaceOnUse">
<stop stop-color="#E2BCD8"/>
<stop offset="1" stop-color="#9D68A9"/>
</linearGradient>
<linearGradient id="paint8_linear_4933_2418" x1="27.4508" y1="30.4861" x2="32.0404" y2="35.0757" gradientUnits="userSpaceOnUse">
<stop stop-color="#E2BCD8"/>
<stop offset="1" stop-color="#9D68A9"/>
</linearGradient>
<linearGradient id="paint9_linear_4933_2418" x1="28.6943" y1="33.0758" x2="30.7935" y2="35.175" gradientUnits="userSpaceOnUse">
<stop stop-color="#E2BCD8"/>
<stop offset="1" stop-color="#9D68A9"/>
</linearGradient>
<linearGradient id="paint10_linear_4933_2418" x1="-9.70289" y1="-30.3288" x2="44.0407" y2="23.4147" gradientUnits="userSpaceOnUse">
<stop offset="0.3883" stop-color="#E2BCD8"/>
<stop offset="1" stop-color="#9D68A9"/>
</linearGradient>
<linearGradient id="paint11_linear_4933_2418" x1="19.9831" y1="27.838" x2="20.8916" y2="28.7464" gradientUnits="userSpaceOnUse">
<stop offset="0.3883" stop-color="#E2BCD8"/>
<stop offset="1" stop-color="#9D68A9"/>
</linearGradient>
<linearGradient id="paint12_linear_4933_2418" x1="21.1394" y1="28.552" x2="21.9846" y2="29.3971" gradientUnits="userSpaceOnUse">
<stop offset="0.3883" stop-color="#E2BCD8"/>
<stop offset="1" stop-color="#9D68A9"/>
</linearGradient>
<linearGradient id="paint13_linear_4933_2418" x1="21.0084" y1="27.3705" x2="21.7448" y2="28.1069" gradientUnits="userSpaceOnUse">
<stop offset="0.3883" stop-color="#E2BCD8"/>
<stop offset="1" stop-color="#9D68A9"/>
</linearGradient>
<linearGradient id="paint14_linear_4933_2418" x1="20.6314" y1="29.6048" x2="21.5042" y2="30.4777" gradientUnits="userSpaceOnUse">
<stop offset="0.3883" stop-color="#E2BCD8"/>
<stop offset="1" stop-color="#9D68A9"/>
</linearGradient>
<linearGradient id="paint15_linear_4933_2418" x1="22.0049" y1="30.7701" x2="22.7937" y2="31.5589" gradientUnits="userSpaceOnUse">
<stop offset="0.3883" stop-color="#E2BCD8"/>
<stop offset="1" stop-color="#9D68A9"/>
</linearGradient>
<linearGradient id="paint16_linear_4933_2418" x1="20.1305" y1="30.2633" x2="20.5682" y2="30.7011" gradientUnits="userSpaceOnUse">
<stop offset="0.3883" stop-color="#E2BCD8"/>
<stop offset="1" stop-color="#9D68A9"/>
</linearGradient>
<linearGradient id="paint17_linear_4933_2418" x1="21.1029" y1="31.0708" x2="21.7431" y2="31.711" gradientUnits="userSpaceOnUse">
<stop offset="0.3883" stop-color="#E2BCD8"/>
<stop offset="1" stop-color="#9D68A9"/>
</linearGradient>
<linearGradient id="paint18_linear_4933_2418" x1="22.778" y1="32.4144" x2="23.1428" y2="32.7793" gradientUnits="userSpaceOnUse">
<stop offset="0.3883" stop-color="#E2BCD8"/>
<stop offset="1" stop-color="#9D68A9"/>
</linearGradient>
<linearGradient id="paint19_linear_4933_2418" x1="22.2119" y1="29.362" x2="23.3109" y2="30.4609" gradientUnits="userSpaceOnUse">
<stop offset="0.3883" stop-color="#E2BCD8"/>
<stop offset="1" stop-color="#9D68A9"/>
</linearGradient>
<linearGradient id="paint20_linear_4933_2418" x1="22.7405" y1="28.6056" x2="23.1781" y2="29.0434" gradientUnits="userSpaceOnUse">
<stop offset="0.3883" stop-color="#E2BCD8"/>
<stop offset="1" stop-color="#9D68A9"/>
</linearGradient>
<linearGradient id="paint21_linear_4933_2418" x1="19.3959" y1="28.7041" x2="20.2058" y2="29.5138" gradientUnits="userSpaceOnUse">
<stop offset="0.3883" stop-color="#E2BCD8"/>
<stop offset="1" stop-color="#9D68A9"/>
</linearGradient>
<linearGradient id="paint22_linear_4933_2418" x1="24.2369" y1="31.2203" x2="24.7476" y2="31.731" gradientUnits="userSpaceOnUse">
<stop offset="0.3883" stop-color="#E2BCD8"/>
<stop offset="1" stop-color="#9D68A9"/>
</linearGradient>
<linearGradient id="paint23_linear_4933_2418" x1="24.0628" y1="29.1821" x2="24.4276" y2="29.5468" gradientUnits="userSpaceOnUse">
<stop offset="0.3883" stop-color="#E2BCD8"/>
<stop offset="1" stop-color="#9D68A9"/>
</linearGradient>
<linearGradient id="paint24_linear_4933_2418" x1="19.0446" y1="26.6088" x2="19.3363" y2="26.9006" gradientUnits="userSpaceOnUse">
<stop offset="0.3883" stop-color="#E2BCD8"/>
<stop offset="1" stop-color="#9D68A9"/>
</linearGradient>
<linearGradient id="paint25_linear_4933_2418" x1="20.0883" y1="25.2904" x2="20.526" y2="25.7281" gradientUnits="userSpaceOnUse">
<stop offset="0.3883" stop-color="#E2BCD8"/>
<stop offset="1" stop-color="#9D68A9"/>
</linearGradient>
<linearGradient id="paint26_linear_4933_2418" x1="19.7168" y1="26.5759" x2="20.6356" y2="27.4946" gradientUnits="userSpaceOnUse">
<stop offset="0.3883" stop-color="#E2BCD8"/>
<stop offset="1" stop-color="#9D68A9"/>
</linearGradient>
<linearGradient id="paint27_linear_4933_2418" x1="18.6715" y1="27.9349" x2="18.9633" y2="28.2267" gradientUnits="userSpaceOnUse">
<stop offset="0.3883" stop-color="#E2BCD8"/>
<stop offset="1" stop-color="#9D68A9"/>
</linearGradient>
<linearGradient id="paint28_linear_4933_2418" x1="28.3089" y1="27.2152" x2="29.1909" y2="28.0972" gradientUnits="userSpaceOnUse">
<stop offset="0.3883" stop-color="#E2BCD8"/>
<stop offset="1" stop-color="#9D68A9"/>
</linearGradient>
<linearGradient id="paint29_linear_4933_2418" x1="29.3679" y1="26.8612" x2="29.7328" y2="27.226" gradientUnits="userSpaceOnUse">
<stop offset="0.3883" stop-color="#E2BCD8"/>
<stop offset="1" stop-color="#9D68A9"/>
</linearGradient>
<linearGradient id="paint30_linear_4933_2418" x1="30.0035" y1="27.7612" x2="30.4412" y2="28.199" gradientUnits="userSpaceOnUse">
<stop offset="0.3883" stop-color="#E2BCD8"/>
<stop offset="1" stop-color="#9D68A9"/>
</linearGradient>
<linearGradient id="paint31_linear_4933_2418" x1="30.5657" y1="26.6503" x2="30.8575" y2="26.942" gradientUnits="userSpaceOnUse">
<stop offset="0.3883" stop-color="#E2BCD8"/>
<stop offset="1" stop-color="#9D68A9"/>
</linearGradient>
<linearGradient id="paint32_linear_4933_2418" x1="29.7363" y1="25.9871" x2="30.0282" y2="26.2789" gradientUnits="userSpaceOnUse">
<stop offset="0.3883" stop-color="#E2BCD8"/>
<stop offset="1" stop-color="#9D68A9"/>
</linearGradient>
<linearGradient id="paint33_linear_4933_2418" x1="28.1456" y1="26.3604" x2="28.7588" y2="26.9735" gradientUnits="userSpaceOnUse">
<stop offset="0.3883" stop-color="#E2BCD8"/>
<stop offset="1" stop-color="#9D68A9"/>
</linearGradient>
<linearGradient id="paint34_linear_4933_2418" x1="27.4028" y1="26.6783" x2="28.0512" y2="27.3268" gradientUnits="userSpaceOnUse">
<stop offset="0.3883" stop-color="#E2BCD8"/>
<stop offset="1" stop-color="#9D68A9"/>
</linearGradient>
<linearGradient id="paint35_linear_4933_2418" x1="27.2343" y1="27.3388" x2="27.8788" y2="27.9833" gradientUnits="userSpaceOnUse">
<stop offset="0.3883" stop-color="#E2BCD8"/>
<stop offset="1" stop-color="#9D68A9"/>
</linearGradient>
<linearGradient id="paint36_linear_4933_2418" x1="27.1677" y1="26.6503" x2="27.4595" y2="26.9421" gradientUnits="userSpaceOnUse">
<stop offset="0.3883" stop-color="#E2BCD8"/>
<stop offset="1" stop-color="#9D68A9"/>
</linearGradient>
<linearGradient id="paint37_linear_4933_2418" x1="28.1786" y1="25.8377" x2="28.6467" y2="26.3058" gradientUnits="userSpaceOnUse">
<stop offset="0.3883" stop-color="#E2BCD8"/>
<stop offset="1" stop-color="#9D68A9"/>
</linearGradient>
<linearGradient id="paint38_linear_4933_2418" x1="28.7888" y1="25.1221" x2="29.6963" y2="26.0297" gradientUnits="userSpaceOnUse">
<stop offset="0.3883" stop-color="#E2BCD8"/>
<stop offset="1" stop-color="#9D68A9"/>
</linearGradient>
<linearGradient id="paint39_linear_4933_2418" x1="28.8345" y1="25.9967" x2="29.633" y2="26.7952" gradientUnits="userSpaceOnUse">
<stop offset="0.3883" stop-color="#E2BCD8"/>
<stop offset="1" stop-color="#9D68A9"/>
</linearGradient>
<linearGradient id="paint40_linear_4933_2418" x1="30.0386" y1="26.6618" x2="30.5493" y2="27.1725" gradientUnits="userSpaceOnUse">
<stop offset="0.3883" stop-color="#E2BCD8"/>
<stop offset="1" stop-color="#9D68A9"/>
</linearGradient>
<linearGradient id="paint41_linear_4933_2418" x1="30.4858" y1="25.5156" x2="31.1747" y2="26.2045" gradientUnits="userSpaceOnUse">
<stop offset="0.3883" stop-color="#E2BCD8"/>
<stop offset="1" stop-color="#9D68A9"/>
</linearGradient>
<linearGradient id="paint42_linear_4933_2418" x1="31.0077" y1="26.2225" x2="31.6945" y2="26.9092" gradientUnits="userSpaceOnUse">
<stop offset="0.3883" stop-color="#E2BCD8"/>
<stop offset="1" stop-color="#9D68A9"/>
</linearGradient>
<linearGradient id="paint43_linear_4933_2418" x1="32.4719" y1="26.733" x2="32.7637" y2="27.0248" gradientUnits="userSpaceOnUse">
<stop offset="0.3883" stop-color="#E2BCD8"/>
<stop offset="1" stop-color="#9D68A9"/>
</linearGradient>
<linearGradient id="paint44_linear_4933_2418" x1="31.193" y1="27.0706" x2="31.7952" y2="27.6726" gradientUnits="userSpaceOnUse">
<stop offset="0.3883" stop-color="#E2BCD8"/>
<stop offset="1" stop-color="#9D68A9"/>
</linearGradient>
<linearGradient id="paint45_linear_4933_2418" x1="31.0211" y1="24.9098" x2="31.3129" y2="25.2016" gradientUnits="userSpaceOnUse">
<stop offset="0.3883" stop-color="#E2BCD8"/>
<stop offset="1" stop-color="#9D68A9"/>
</linearGradient>
<linearGradient id="paint46_linear_4933_2418" x1="30.3622" y1="24.3334" x2="30.7271" y2="24.6982" gradientUnits="userSpaceOnUse">
<stop offset="0.3883" stop-color="#E2BCD8"/>
<stop offset="1" stop-color="#9D68A9"/>
</linearGradient>
<linearGradient id="paint47_linear_4933_2418" x1="28.9307" y1="24.3187" x2="29.5002" y2="24.8883" gradientUnits="userSpaceOnUse">
<stop offset="0.3883" stop-color="#E2BCD8"/>
<stop offset="1" stop-color="#9D68A9"/>
</linearGradient>
<linearGradient id="paint48_linear_4933_2418" x1="27.721" y1="24.7174" x2="28.4667" y2="25.463" gradientUnits="userSpaceOnUse">
<stop offset="0.3883" stop-color="#E2BCD8"/>
<stop offset="1" stop-color="#9D68A9"/>
</linearGradient>
<linearGradient id="paint49_linear_4933_2418" x1="27.2088" y1="25.4484" x2="27.5006" y2="25.7402" gradientUnits="userSpaceOnUse">
<stop offset="0.3883" stop-color="#E2BCD8"/>
<stop offset="1" stop-color="#9D68A9"/>
</linearGradient>
<linearGradient id="paint50_linear_4933_2418" x1="25.8901" y1="25.9851" x2="26.4898" y2="26.5848" gradientUnits="userSpaceOnUse">
<stop offset="0.3883" stop-color="#E2BCD8"/>
<stop offset="1" stop-color="#9D68A9"/>
</linearGradient>
<linearGradient id="paint51_linear_4933_2418" x1="25.804" y1="27.1928" x2="26.1688" y2="27.5576" gradientUnits="userSpaceOnUse">
<stop offset="0.3883" stop-color="#E2BCD8"/>
<stop offset="1" stop-color="#9D68A9"/>
</linearGradient>
<linearGradient id="paint52_linear_4933_2418" x1="26.4218" y1="27.5451" x2="27.0352" y2="28.1585" gradientUnits="userSpaceOnUse">
<stop offset="0.3883" stop-color="#E2BCD8"/>
<stop offset="1" stop-color="#9D68A9"/>
</linearGradient>
<linearGradient id="paint53_linear_4933_2418" x1="27.027" y1="25.7639" x2="27.7019" y2="26.4388" gradientUnits="userSpaceOnUse">
<stop offset="0.3883" stop-color="#E2BCD8"/>
<stop offset="1" stop-color="#9D68A9"/>
</linearGradient>
<linearGradient id="paint54_linear_4933_2418" x1="26.471" y1="26.6579" x2="26.9471" y2="27.1339" gradientUnits="userSpaceOnUse">
<stop offset="0.3883" stop-color="#E2BCD8"/>
<stop offset="1" stop-color="#9D68A9"/>
</linearGradient>
<linearGradient id="paint55_linear_4933_2418" x1="32.0406" y1="25.4286" x2="32.6926" y2="26.0807" gradientUnits="userSpaceOnUse">
<stop offset="0.3883" stop-color="#E2BCD8"/>
<stop offset="1" stop-color="#9D68A9"/>
</linearGradient>
<linearGradient id="paint56_linear_4933_2418" x1="29.7821" y1="25.1622" x2="30.1469" y2="25.5269" gradientUnits="userSpaceOnUse">
<stop offset="0.3883" stop-color="#E2BCD8"/>
<stop offset="1" stop-color="#9D68A9"/>
</linearGradient>
<linearGradient id="paint57_linear_4933_2418" x1="27.9053" y1="24.5705" x2="28.0513" y2="24.7164" gradientUnits="userSpaceOnUse">
<stop offset="0.3883" stop-color="#E2BCD8"/>
<stop offset="1" stop-color="#9D68A9"/>
</linearGradient>
<linearGradient id="paint58_linear_4933_2418" x1="22.5223" y1="27.2265" x2="22.7411" y2="27.4454" gradientUnits="userSpaceOnUse">
<stop offset="0.3883" stop-color="#E2BCD8"/>
<stop offset="1" stop-color="#9D68A9"/>
</linearGradient>
<linearGradient id="paint59_linear_4933_2418" x1="23.0912" y1="30.7495" x2="23.654" y2="31.3122" gradientUnits="userSpaceOnUse">
<stop offset="0.3883" stop-color="#E2BCD8"/>
<stop offset="1" stop-color="#9D68A9"/>
</linearGradient>
</defs>
<path d="M22.5 45C34.9264 45 45 34.9264 45 22.5C45 10.0736 34.9264 0 22.5 0C10.0736 0 0 10.0736 0 22.5C0 34.9264 10.0736 45 22.5 45Z" fill="#EBE4F1"/>
<path d="M43.2562 17.411C41.9604 15.1728 43.5743 13.3115 39.8518 10.8966C36.2471 8.55237 26.7994 1.18981 21.0625 3.88745C17.0455 5.78405 13.912 5.18326 9.74183 12.3102C8.25754 24.75 18.624 34.339 10.107 32.3482C10.107 32.3482 15.4198 38.25 20.5324 32.1479C23.3479 28.7906 27.3178 20.4032 30.0036 16.2919C32.7013 20.4149 37.6489 28.1663 39.4748 32.1479" fill="url(#paint0_linear_4933_2418)"/>
<path d="M17.093 22.5118C17.093 22.5118 14.6191 19.6845 13.3469 20.6623C12.0746 21.64 13.5825 26.7173 18.2827 28.2722" fill="white"/>
<path d="M18.1887 28.555C14.9138 27.4712 13.029 24.6676 12.6756 22.5354C12.5107 21.5576 12.6874 20.7919 13.1586 20.4267C14.6076 19.3076 17.0343 22.0053 17.3052 22.3233L16.8576 22.7121C16.2686 22.0288 14.372 20.2383 13.512 20.8979C13.2293 21.1218 13.1233 21.7108 13.2411 22.4411C13.5709 24.4084 15.3144 26.9883 18.3654 28.0013L18.1887 28.555Z" fill="url(#paint1_linear_4933_2418)"/>
<path d="M25.2805 5.41882C20.8158 9.48296 15.8682 20.6976 15.8682 20.6976C17.9532 37.6139 30.0043 39.534 30.0043 39.534C30.0043 39.534 43.0213 36.8364 44.1404 20.6976C40.3119 14.0183 41.3603 7.45678 25.2805 5.41882Z" fill="white"/>
<path d="M30.0039 39.8285L29.945 39.8167C29.8272 39.7932 17.6466 37.661 15.5615 20.7212V20.6505L15.5969 20.5798C15.7971 20.1204 20.6152 9.27093 25.0799 5.20679L25.1859 5.11255L25.3155 5.12433C38.3207 6.77355 40.2644 11.3207 42.5026 16.5864C43.0563 17.8822 43.6217 19.2133 44.3875 20.5563L44.4346 20.6387L44.4228 20.733C43.2919 36.907 30.1806 39.8167 30.0511 39.8403L30.0039 39.8285ZM16.1623 20.733C18.1532 36.5772 29.1322 39.051 29.9922 39.2277C30.8992 39.0157 42.7382 35.8704 43.8338 20.7565C43.0799 19.4254 42.5144 18.0942 41.9608 16.8102C39.7932 11.733 37.9202 7.35077 25.3744 5.72512C21.216 9.60077 16.5982 19.767 16.1623 20.733Z" fill="url(#paint2_linear_4933_2418)"/>
<path d="M32.4307 21.4987C33.5616 22.1113 34.7396 22.5353 35.9411 22.5353C36.5419 22.5471 37.1309 22.4647 37.7199 22.2644C38.3089 22.0995 38.8508 21.7814 39.428 21.4869C39.004 21.9699 38.4974 22.4058 37.8849 22.6767C37.2958 22.9948 36.6008 23.1126 35.9294 23.1126C35.2579 23.1008 34.5864 22.9476 33.9856 22.6531C33.3966 22.3822 32.843 22.0052 32.4307 21.4987Z" fill="url(#paint3_linear_4933_2418)"/>
<path d="M32.2422 19.4019C32.6781 18.6833 33.3495 18.1061 34.1152 17.7055C34.8809 17.305 35.7644 17.1283 36.6244 17.1283C37.4961 17.1637 38.3443 17.3875 39.1218 17.7291C39.5105 17.9058 39.8639 18.1296 40.2291 18.3299C40.5589 18.589 40.9006 18.8364 41.2186 19.1074C40.8299 18.9425 40.4647 18.754 40.0877 18.589C39.699 18.4477 39.3338 18.271 38.9451 18.1532C38.1676 17.9176 37.3901 17.7291 36.6008 17.7173C35.0341 17.682 33.4673 18.271 32.2422 19.4019Z" fill="url(#paint4_linear_4933_2418)"/>
<path d="M27.471 21.4987C27.0587 22.0052 26.5051 22.3822 25.916 22.6649C25.3153 22.9594 24.6556 23.1126 23.9723 23.1243C23.3009 23.1243 22.6176 23.0065 22.0168 22.6885C21.4043 22.4175 20.8977 21.9817 20.4736 21.4987C21.0509 21.7932 21.5927 22.1113 22.1818 22.2762C22.759 22.4647 23.3598 22.5589 23.9605 22.5471C25.1621 22.5353 26.3401 22.1112 27.471 21.4987Z" fill="url(#paint5_linear_4933_2418)"/>
<path d="M27.6601 19.4019C26.435 18.271 24.8682 17.682 23.2897 17.7291C22.5004 17.7409 21.7229 17.9293 20.9454 18.1649C20.5567 18.2827 20.1915 18.4595 19.8028 18.6008C19.4258 18.7657 19.0606 18.966 18.6719 19.1191C18.9899 18.8482 19.3316 18.6008 19.6614 18.3416C20.0266 18.1414 20.3918 17.9176 20.7687 17.7409C21.5462 17.3992 22.3944 17.1636 23.2661 17.1401C24.1378 17.1283 25.0096 17.305 25.7753 17.7173C26.5645 18.106 27.236 18.6833 27.6601 19.4019Z" fill="url(#paint6_linear_4933_2418)"/>
<path d="M31.3468 28.7671C31.2997 29.0969 31.0994 29.4032 30.8049 29.6152C30.5104 29.8391 30.1216 29.9215 29.7565 29.8862C29.3913 29.8508 29.0732 29.6977 28.8023 29.4974C28.5313 29.2972 28.3075 29.0498 28.1426 28.7671C28.7669 28.9791 29.297 29.2501 29.8271 29.2972C30.3337 29.3679 30.8402 29.1912 31.3468 28.7671Z" fill="url(#paint7_linear_4933_2418)"/>
<path d="M25.3037 32.9254C25.9634 32.8312 26.6113 32.7134 27.2239 32.5249C27.8247 32.3364 28.4254 32.0537 28.7553 31.6178L28.9084 31.4176L29.1205 31.5471L30.0746 32.1126L29.7448 32.1361L30.6047 31.4882L30.7343 31.394L30.8875 31.4529C31.9477 31.9123 33.0197 32.4307 34.1741 32.6545C33.5733 32.7252 32.9608 32.6309 32.3835 32.4896C31.7945 32.36 31.2291 32.1833 30.6637 31.9594L30.9464 31.9241L30.11 32.5956L29.9568 32.7252L29.7801 32.6191L28.8377 32.0419L29.2147 31.9712C28.7082 32.572 27.9896 32.8076 27.3181 32.9136C26.6466 33.0314 25.9634 33.0197 25.3037 32.9254Z" fill="url(#paint8_linear_4933_2418)"/>
<path d="M27.9893 33.8678C28.5783 34.2919 29.1319 34.6453 29.6974 34.6688C29.9801 34.6806 30.2628 34.6335 30.5691 34.5157C30.8754 34.4097 31.1581 34.2212 31.4879 34.0563C31.4173 34.2212 31.2995 34.3743 31.2052 34.5275C31.0756 34.6571 30.9578 34.7984 30.7929 34.9162C30.4984 35.1636 30.0743 35.2814 29.662 35.2578C29.2497 35.2343 28.861 35.0576 28.59 34.7866C28.3073 34.5275 28.0953 34.2212 27.9893 33.8678Z" fill="url(#paint9_linear_4933_2418)"/>
<path d="M21.5695 2.70949C21.5695 2.70949 20.4975 10.8495 29.5565 14.5838C29.5565 14.5838 26.5172 10.237 28.1664 7.63357C28.1664 7.63357 27.919 14.0891 36.1415 15.2789C36.1415 15.2789 33.3968 10.2252 35.3169 9.22389C35.3169 9.22389 35.4583 10.6611 39.5813 16.1506C43.7044 21.6283 42.3261 24.9503 42.3261 24.9503C42.3261 24.9503 42.9033 26.2226 43.3156 17.5642C43.3156 17.5642 41.6428 15.5616 34.351 6.40844C24.2083 2.74483 24.5735 3.43985 21.5695 2.70949Z" fill="url(#paint10_linear_4933_2418)"/>
<path d="M22.6771 44.576C10.4376 44.576 0.483398 34.6218 0.483398 22.3822C0.483398 10.1427 10.4376 0.188522 22.6771 0.188522C34.9166 0.188522 44.8708 10.1427 44.8708 22.3822C44.8708 34.6218 34.9166 44.576 22.6771 44.576ZM22.6771 4.91234C13.041 4.91234 5.19544 12.7579 5.19544 22.394C5.19544 32.0302 13.041 39.8757 22.6771 39.8757C32.3132 39.8757 40.1588 32.0302 40.1588 22.394C40.1588 12.7579 32.3132 4.91234 22.6771 4.91234Z" fill="#EBE4F1"/>
<path d="M20.7094 28.826C20.8525 28.826 20.9685 28.7099 20.9685 28.5668C20.9685 28.4237 20.8525 28.3076 20.7094 28.3076C20.5662 28.3076 20.4502 28.4237 20.4502 28.5668C20.4502 28.7099 20.5662 28.826 20.7094 28.826Z" fill="url(#paint11_linear_4933_2418)"/>
<path d="M21.8167 29.462C21.9468 29.462 22.0523 29.3565 22.0523 29.2264C22.0523 29.0963 21.9468 28.9908 21.8167 28.9908C21.6865 28.9908 21.5811 29.0963 21.5811 29.2264C21.5811 29.3565 21.6865 29.462 21.8167 29.462Z" fill="url(#paint12_linear_4933_2418)"/>
<path d="M21.5929 28.1663C21.71 28.1663 21.8049 28.0713 21.8049 27.9542C21.8049 27.8371 21.71 27.7422 21.5929 27.7422C21.4758 27.7422 21.3809 27.8371 21.3809 27.9542C21.3809 28.0713 21.4758 28.1663 21.5929 28.1663Z" fill="url(#paint13_linear_4933_2418)"/>
<path d="M21.3333 30.5458C21.47 30.5458 21.5807 30.4351 21.5807 30.2985C21.5807 30.1618 21.47 30.0511 21.3333 30.0511C21.1967 30.0511 21.0859 30.1618 21.0859 30.2985C21.0859 30.4351 21.1967 30.5458 21.3333 30.5458Z" fill="url(#paint14_linear_4933_2418)"/>
<path d="M22.6301 31.6295C22.7537 31.6295 22.8539 31.5293 22.8539 31.4057C22.8539 31.2821 22.7537 31.1819 22.6301 31.1819C22.5065 31.1819 22.4062 31.2821 22.4062 31.4057C22.4062 31.5293 22.5065 31.6295 22.6301 31.6295Z" fill="url(#paint15_linear_4933_2418)"/>
<path d="M20.486 30.7461C20.5576 30.7461 20.6156 30.6881 20.6156 30.6165C20.6156 30.5449 20.5576 30.4869 20.486 30.4869C20.4145 30.4869 20.3564 30.5449 20.3564 30.6165C20.3564 30.6881 20.4145 30.7461 20.486 30.7461Z" fill="url(#paint16_linear_4933_2418)"/>
<path d="M21.6162 31.7592C21.7137 31.7592 21.7929 31.6801 21.7929 31.5825C21.7929 31.4849 21.7137 31.4058 21.6162 31.4058C21.5186 31.4058 21.4395 31.4849 21.4395 31.5825C21.4395 31.6801 21.5186 31.7592 21.6162 31.7592Z" fill="url(#paint17_linear_4933_2418)"/>
<path d="M23.065 32.8076C23.1236 32.8076 23.171 32.7602 23.171 32.7016C23.171 32.6431 23.1236 32.5956 23.065 32.5956C23.0065 32.5956 22.959 32.6431 22.959 32.7016C22.959 32.7602 23.0065 32.8076 23.065 32.8076Z" fill="url(#paint18_linear_4933_2418)"/>
<path d="M23.0885 30.5458C23.2577 30.5458 23.3948 30.4087 23.3948 30.2396C23.3948 30.0704 23.2577 29.9333 23.0885 29.9333C22.9194 29.9333 22.7822 30.0704 22.7822 30.2396C22.7822 30.4087 22.9194 30.5458 23.0885 30.5458Z" fill="url(#paint19_linear_4933_2418)"/>
<path d="M23.0886 29.0851C23.1601 29.0851 23.2181 29.027 23.2181 28.9555C23.2181 28.8839 23.1601 28.8259 23.0886 28.8259C23.017 28.8259 22.959 28.8839 22.959 28.9555C22.959 29.027 23.017 29.0851 23.0886 29.0851Z" fill="url(#paint20_linear_4933_2418)"/>
<path d="M20.0383 29.5916C20.1684 29.5916 20.2739 29.4861 20.2739 29.356C20.2739 29.2259 20.1684 29.1204 20.0383 29.1204C19.9082 29.1204 19.8027 29.2259 19.8027 29.356C19.8027 29.4861 19.9082 29.5916 20.0383 29.5916Z" fill="url(#paint21_linear_4933_2418)"/>
<path d="M24.6443 31.7709C24.7224 31.7709 24.7857 31.7076 24.7857 31.6296C24.7857 31.5515 24.7224 31.4882 24.6443 31.4882C24.5662 31.4882 24.5029 31.5515 24.5029 31.6296C24.5029 31.7076 24.5662 31.7709 24.6443 31.7709Z" fill="url(#paint22_linear_4933_2418)"/>
<path d="M24.3492 29.5799C24.4077 29.5799 24.4552 29.5324 24.4552 29.4739C24.4552 29.4153 24.4077 29.3679 24.3492 29.3679C24.2906 29.3679 24.2432 29.4153 24.2432 29.4739C24.2432 29.5324 24.2906 29.5799 24.3492 29.5799Z" fill="url(#paint23_linear_4933_2418)"/>
<path d="M19.2719 26.9293C19.3175 26.9293 19.3544 26.8924 19.3544 26.8468C19.3544 26.8013 19.3175 26.7644 19.2719 26.7644C19.2264 26.7644 19.1895 26.8013 19.1895 26.8468C19.1895 26.8924 19.2264 26.9293 19.2719 26.9293Z" fill="url(#paint24_linear_4933_2418)"/>
<path d="M20.4382 25.7749C20.5097 25.7749 20.5678 25.7169 20.5678 25.6453C20.5678 25.5737 20.5097 25.5157 20.4382 25.5157C20.3666 25.5157 20.3086 25.5737 20.3086 25.6453C20.3086 25.7169 20.3666 25.7749 20.4382 25.7749Z" fill="url(#paint25_linear_4933_2418)"/>
<path d="M20.4506 27.5654C20.5937 27.5654 20.7097 27.4494 20.7097 27.3062C20.7097 27.1631 20.5937 27.0471 20.4506 27.0471C20.3074 27.0471 20.1914 27.1631 20.1914 27.3062C20.1914 27.4494 20.3074 27.5654 20.4506 27.5654Z" fill="url(#paint26_linear_4933_2418)"/>
<path d="M18.9067 28.2487C18.9522 28.2487 18.9891 28.2118 18.9891 28.1662C18.9891 28.1207 18.9522 28.0838 18.9067 28.0838C18.8611 28.0838 18.8242 28.1207 18.8242 28.1662C18.8242 28.2118 18.8611 28.2487 18.9067 28.2487Z" fill="url(#paint27_linear_4933_2418)"/>
<path d="M29.014 28.1662C29.1506 28.1662 29.2614 28.0555 29.2614 27.9188C29.2614 27.7822 29.1506 27.6715 29.014 27.6715C28.8774 27.6715 28.7666 27.7822 28.7666 27.9188C28.7666 28.0555 28.8774 28.1662 29.014 28.1662Z" fill="url(#paint28_linear_4933_2418)"/>
<path d="M29.6627 27.2591C29.7212 27.2591 29.7687 27.2117 29.7687 27.1531C29.7687 27.0945 29.7212 27.0471 29.6627 27.0471C29.6041 27.0471 29.5566 27.0945 29.5566 27.1531C29.5566 27.2117 29.6041 27.2591 29.6627 27.2591Z" fill="url(#paint29_linear_4933_2418)"/>
<path d="M30.3571 28.2369C30.4287 28.2369 30.4867 28.1789 30.4867 28.1073C30.4867 28.0358 30.4287 27.9778 30.3571 27.9778C30.2856 27.9778 30.2275 28.0358 30.2275 28.1073C30.2275 28.1789 30.2856 28.2369 30.3571 28.2369Z" fill="url(#paint30_linear_4933_2418)"/>
<path d="M30.7934 26.9647C30.8389 26.9647 30.8759 26.9277 30.8759 26.8822C30.8759 26.8367 30.8389 26.7997 30.7934 26.7997C30.7479 26.7997 30.7109 26.8367 30.7109 26.8822C30.7109 26.9277 30.7479 26.9647 30.7934 26.9647Z" fill="url(#paint31_linear_4933_2418)"/>
<path d="M29.9682 26.3049C30.0137 26.3049 30.0507 26.268 30.0507 26.2224C30.0507 26.1769 30.0137 26.14 29.9682 26.14C29.9227 26.14 29.8857 26.1769 29.8857 26.2224C29.8857 26.268 29.9227 26.3049 29.9682 26.3049Z" fill="url(#paint32_linear_4933_2418)"/>
<path d="M28.6376 27.0236C28.7352 27.0236 28.8143 26.9445 28.8143 26.8469C28.8143 26.7493 28.7352 26.6702 28.6376 26.6702C28.5401 26.6702 28.4609 26.7493 28.4609 26.8469C28.4609 26.9445 28.5401 27.0236 28.6376 27.0236Z" fill="url(#paint33_linear_4933_2418)"/>
<path d="M27.9189 27.3888C28.023 27.3888 28.1074 27.3044 28.1074 27.2003C28.1074 27.0962 28.023 27.0118 27.9189 27.0118C27.8148 27.0118 27.7305 27.0962 27.7305 27.2003C27.7305 27.3044 27.8148 27.3888 27.9189 27.3888Z" fill="url(#paint34_linear_4933_2418)"/>
<path d="M27.7539 28.0366C27.858 28.0366 27.9424 27.9522 27.9424 27.8481C27.9424 27.744 27.858 27.6597 27.7539 27.6597C27.6498 27.6597 27.5654 27.744 27.5654 27.8481C27.5654 27.9522 27.6498 28.0366 27.7539 28.0366Z" fill="url(#paint35_linear_4933_2418)"/>
<path d="M27.4008 26.9647C27.4464 26.9647 27.4833 26.9277 27.4833 26.8822C27.4833 26.8367 27.4464 26.7997 27.4008 26.7997C27.3553 26.7997 27.3184 26.8367 27.3184 26.8822C27.3184 26.9277 27.3553 26.9647 27.4008 26.9647Z" fill="url(#paint36_linear_4933_2418)"/>
<path d="M28.5554 26.3403C28.6269 26.3403 28.6849 26.2823 28.6849 26.2108C28.6849 26.1392 28.6269 26.0812 28.5554 26.0812C28.4838 26.0812 28.4258 26.1392 28.4258 26.2108C28.4258 26.2823 28.4838 26.3403 28.5554 26.3403Z" fill="url(#paint37_linear_4933_2418)"/>
<path d="M29.5092 26.1047C29.6523 26.1047 29.7683 25.9887 29.7683 25.8455C29.7683 25.7024 29.6523 25.5864 29.5092 25.5864C29.366 25.5864 29.25 25.7024 29.25 25.8455C29.25 25.9887 29.366 26.1047 29.5092 26.1047Z" fill="url(#paint38_linear_4933_2418)"/>
<path d="M29.4738 26.8587C29.5974 26.8587 29.6976 26.7585 29.6976 26.6349C29.6976 26.5113 29.5974 26.411 29.4738 26.411C29.3502 26.411 29.25 26.5113 29.25 26.6349C29.25 26.7585 29.3502 26.8587 29.4738 26.8587Z" fill="url(#paint39_linear_4933_2418)"/>
<path d="M30.4519 27.212C30.53 27.212 30.5933 27.1487 30.5933 27.0707C30.5933 26.9926 30.53 26.9293 30.4519 26.9293C30.3738 26.9293 30.3105 26.9926 30.3105 27.0707C30.3105 27.1487 30.3738 27.212 30.4519 27.212Z" fill="url(#paint40_linear_4933_2418)"/>
<path d="M31.0411 26.2696C31.1517 26.2696 31.2413 26.1799 31.2413 26.0693C31.2413 25.9587 31.1517 25.8691 31.0411 25.8691C30.9305 25.8691 30.8408 25.9587 30.8408 26.0693C30.8408 26.1799 30.9305 26.2696 31.0411 26.2696Z" fill="url(#paint41_linear_4933_2418)"/>
<path d="M31.5587 26.9765C31.6693 26.9765 31.7589 26.8869 31.7589 26.7763C31.7589 26.6657 31.6693 26.576 31.5587 26.576C31.4481 26.576 31.3584 26.6657 31.3584 26.7763C31.3584 26.8869 31.4481 26.9765 31.5587 26.9765Z" fill="url(#paint42_linear_4933_2418)"/>
<path d="M32.7016 27.0471C32.7471 27.0471 32.7841 27.0101 32.7841 26.9646C32.7841 26.9191 32.7471 26.8821 32.7016 26.8821C32.6561 26.8821 32.6191 26.9191 32.6191 26.9646C32.6191 27.0101 32.6561 27.0471 32.7016 27.0471Z" fill="url(#paint43_linear_4933_2418)"/>
<path d="M31.6767 27.7304C31.7743 27.7304 31.8534 27.6512 31.8534 27.5537C31.8534 27.4561 31.7743 27.377 31.6767 27.377C31.5791 27.377 31.5 27.4561 31.5 27.5537C31.5 27.6512 31.5791 27.7304 31.6767 27.7304Z" fill="url(#paint44_linear_4933_2418)"/>
<path d="M31.2524 25.2212C31.2979 25.2212 31.3349 25.1843 31.3349 25.1388C31.3349 25.0932 31.2979 25.0563 31.2524 25.0563C31.2068 25.0563 31.1699 25.0932 31.1699 25.1388C31.1699 25.1843 31.2068 25.2212 31.2524 25.2212Z" fill="url(#paint45_linear_4933_2418)"/>
<path d="M30.6519 24.7265C30.7105 24.7265 30.7579 24.679 30.7579 24.6205C30.7579 24.5619 30.7105 24.5145 30.6519 24.5145C30.5934 24.5145 30.5459 24.5619 30.5459 24.6205C30.5459 24.679 30.5934 24.7265 30.6519 24.7265Z" fill="url(#paint46_linear_4933_2418)"/>
<path d="M29.3915 24.9385C29.4826 24.9385 29.5564 24.8647 29.5564 24.7736C29.5564 24.6825 29.4826 24.6087 29.3915 24.6087C29.3004 24.6087 29.2266 24.6825 29.2266 24.7736C29.2266 24.8647 29.3004 24.9385 29.3915 24.9385Z" fill="url(#paint47_linear_4933_2418)"/>
<path d="M28.3195 25.5275C28.4366 25.5275 28.5315 25.4326 28.5315 25.3155C28.5315 25.1984 28.4366 25.1035 28.3195 25.1035C28.2024 25.1035 28.1074 25.1984 28.1074 25.3155C28.1074 25.4326 28.2024 25.5275 28.3195 25.5275Z" fill="url(#paint48_linear_4933_2418)"/>
<path d="M27.4477 25.7631C27.4932 25.7631 27.5302 25.7261 27.5302 25.6806C27.5302 25.6351 27.4932 25.5981 27.4477 25.5981C27.4022 25.5981 27.3652 25.6351 27.3652 25.6806C27.3652 25.7261 27.4022 25.7631 27.4477 25.7631Z" fill="url(#paint49_linear_4933_2418)"/>
<path d="M26.3641 26.6348C26.4552 26.6348 26.5291 26.5609 26.5291 26.4699C26.5291 26.3788 26.4552 26.3049 26.3641 26.3049C26.2731 26.3049 26.1992 26.3788 26.1992 26.4699C26.1992 26.5609 26.2731 26.6348 26.3641 26.6348Z" fill="url(#paint50_linear_4933_2418)"/>
<path d="M26.0933 27.589C26.1519 27.589 26.1994 27.5415 26.1994 27.483C26.1994 27.4244 26.1519 27.377 26.0933 27.377C26.0348 27.377 25.9873 27.4244 25.9873 27.483C25.9873 27.5415 26.0348 27.589 26.0933 27.589Z" fill="url(#paint51_linear_4933_2418)"/>
<path d="M26.9179 28.2134C27.0155 28.2134 27.0946 28.1343 27.0946 28.0367C27.0946 27.9391 27.0155 27.86 26.9179 27.86C26.8203 27.86 26.7412 27.9391 26.7412 28.0367C26.7412 28.1343 26.8203 28.2134 26.9179 28.2134Z" fill="url(#paint52_linear_4933_2418)"/>
<path d="M27.5654 26.4935C27.6695 26.4935 27.7539 26.4091 27.7539 26.305C27.7539 26.2009 27.6695 26.1165 27.5654 26.1165C27.4613 26.1165 27.377 26.2009 27.377 26.305C27.377 26.4091 27.4613 26.4935 27.5654 26.4935Z" fill="url(#paint53_linear_4933_2418)"/>
<path d="M26.8474 27.1649C26.9189 27.1649 26.9769 27.1069 26.9769 27.0353C26.9769 26.9638 26.9189 26.9057 26.8474 26.9057C26.7758 26.9057 26.7178 26.9638 26.7178 27.0353C26.7178 27.1069 26.7758 27.1649 26.8474 27.1649Z" fill="url(#paint54_linear_4933_2418)"/>
<path d="M32.5606 26.14C32.6646 26.14 32.749 26.0557 32.749 25.9516C32.749 25.8475 32.6646 25.7631 32.5606 25.7631C32.4565 25.7631 32.3721 25.8475 32.3721 25.9516C32.3721 26.0557 32.4565 26.14 32.5606 26.14Z" fill="url(#paint55_linear_4933_2418)"/>
<path d="M30.0748 25.5628C30.1333 25.5628 30.1808 25.5154 30.1808 25.4568C30.1808 25.3983 30.1333 25.3508 30.0748 25.3508C30.0162 25.3508 29.9688 25.3983 29.9688 25.4568C29.9688 25.5154 30.0162 25.5628 30.0748 25.5628Z" fill="url(#paint56_linear_4933_2418)"/>
<path d="M28.0247 24.7383C28.0507 24.7383 28.0718 24.7172 28.0718 24.6912C28.0718 24.6651 28.0507 24.644 28.0247 24.644C27.9986 24.644 27.9775 24.6651 27.9775 24.6912C27.9775 24.7172 27.9986 24.7383 28.0247 24.7383Z" fill="url(#paint57_linear_4933_2418)"/>
<path d="M22.7005 27.4594C22.733 27.4594 22.7594 27.433 22.7594 27.4005C22.7594 27.368 22.733 27.3416 22.7005 27.3416C22.668 27.3416 22.6416 27.368 22.6416 27.4005C22.6416 27.433 22.668 27.4594 22.7005 27.4594Z" fill="url(#paint58_linear_4933_2418)"/>
<path d="M23.537 31.3586C23.6281 31.3586 23.7019 31.2848 23.7019 31.1937C23.7019 31.1026 23.6281 31.0288 23.537 31.0288C23.4459 31.0288 23.3721 31.1026 23.3721 31.1937C23.3721 31.2848 23.4459 31.3586 23.537 31.3586Z" fill="url(#paint59_linear_4933_2418)"/>

</svg>
