<svg width="45" height="45" viewBox="0 0 45 45" fill="none" xmlns="http://www.w3.org/2000/svg">
<path d="M22.5 45C34.9264 45 45 34.9264 45 22.5C45 10.0736 34.9264 0 22.5 0C10.0736 0 0 10.0736 0 22.5C0 34.9264 10.0736 45 22.5 45Z" fill="#E1F2F7"/>
<path d="M24.8441 35.6818C26.3756 34.1151 28.4606 33.4436 30.5339 32.7604C32.6072 32.0654 33.314 28.0483 30.0509 25.6805C25.9279 22.7002 22.6648 14.407 21.1923 11.0732C19.7198 7.73943 18.1059 5.13603 16.4214 8.28132C14.7368 11.4266 15.5261 13.7355 15.6085 18.3415C15.691 22.9476 16.28 28.0366 15.0549 30.051C12.8991 33.5614 15.4672 37.1544 19.8494 37.5784C23.1831 37.8965 23.4541 36.53 24.8441 35.6818Z" fill="url(#paint0_linear_4933_2692)"/>
<path d="M23.9959 34.4333C24.7027 33.2435 25.221 33.1846 26.3637 32.9608C27.5063 32.7369 28.2014 31.5589 25.7747 31.7592C23.348 31.9594 20.9919 32.6545 20.7328 34.5511C20.4854 36.4477 22.6765 36.6361 23.9959 34.4333Z" fill="#E1F2F7"/>
<path d="M22.0762 9.42409C22.3118 9.74215 22.5592 10.0484 22.783 10.3665L22.5827 10.4843C22.4178 10.1427 22.2529 9.77749 22.0762 9.42409Z" fill="url(#paint1_linear_4933_2692)"/>
<path d="M23.4899 11.3089L24.1968 12.2513L23.702 12.5811L23.1483 11.5327L23.4899 11.3089Z" fill="url(#paint2_linear_4933_2692)"/>
<path d="M24.8916 13.2055L25.5866 14.1479L24.8798 14.6191L24.2791 13.606L24.8916 13.2055Z" fill="url(#paint3_linear_4933_2692)"/>
<path d="M26.2818 15.1021L26.9768 16.0446L26.1404 16.6218L25.5043 15.6322L26.2818 15.1021Z" fill="url(#paint4_linear_4933_2692)"/>
<path d="M27.6835 16.975L28.4021 17.9056L27.495 18.5889L26.8118 17.6111L27.6835 16.975Z" fill="url(#paint5_linear_4933_2692)"/>
<path d="M29.1206 18.8246L29.8627 19.7199L28.9674 20.4738L28.2135 19.5432L29.1206 18.8246Z" fill="url(#paint6_linear_4933_2692)"/>
<path d="M30.6286 20.568L31.4414 21.4162L30.605 22.2055L29.7804 21.3809L30.6286 20.568Z" fill="url(#paint7_linear_4933_2692)"/>
<path d="M32.2425 22.3115L32.9964 23.2422L32.16 23.9254L31.3943 23.0537L32.2425 22.3115Z" fill="url(#paint8_linear_4933_2692)"/>
<path d="M33.7032 24.2436L34.3276 25.3038L33.5029 25.7633L32.8668 24.8208L33.7032 24.2436Z" fill="url(#paint9_linear_4933_2692)"/>
<path d="M34.7987 26.4582C34.8929 26.8705 34.9754 27.2946 35.046 27.6951L34.3275 27.7776C34.2097 27.4241 34.1036 27.0825 34.0094 26.7409L34.7987 26.4582Z" fill="url(#paint10_linear_4933_2692)"/>
<path d="M34.9284 28.9673C34.7988 29.3796 34.5986 29.7566 34.3394 30.0864L33.9978 29.8508C34.1863 29.5328 34.3041 29.1794 34.3512 28.826L34.9284 28.9673Z" fill="url(#paint11_linear_4933_2692)"/>
<path d="M33.4319 30.9228C33.0903 31.1113 32.7487 31.288 32.4188 31.4647L33.2905 30.7461L33.4319 30.9228Z" fill="url(#paint12_linear_4933_2692)"/>
<defs>
<linearGradient id="paint0_linear_4933_2692" x1="10.0923" y1="14.1414" x2="29.502" y2="34.0583" gradientUnits="userSpaceOnUse">
<stop stop-color="#B8DEC7"/>
<stop offset="1" stop-color="#21AADA"/>
</linearGradient>
<linearGradient id="paint1_linear_4933_2692" x1="21.5621" y1="9.8775" x2="37.0352" y2="11.457" gradientUnits="userSpaceOnUse">
<stop stop-color="#B8DEC7"/>
<stop offset="0.654" stop-color="#21AADA"/>
</linearGradient>
<linearGradient id="paint2_linear_4933_2692" x1="21.3743" y1="11.7176" x2="36.8477" y2="13.297" gradientUnits="userSpaceOnUse">
<stop stop-color="#B8DEC7"/>
<stop offset="0.654" stop-color="#21AADA"/>
</linearGradient>
<linearGradient id="paint3_linear_4933_2692" x1="21.1887" y1="13.5355" x2="36.6616" y2="15.1149" gradientUnits="userSpaceOnUse">
<stop stop-color="#B8DEC7"/>
<stop offset="0.654" stop-color="#21AADA"/>
</linearGradient>
<linearGradient id="paint4_linear_4933_2692" x1="21.0056" y1="15.3303" x2="36.4787" y2="16.9098" gradientUnits="userSpaceOnUse">
<stop stop-color="#B8DEC7"/>
<stop offset="0.654" stop-color="#21AADA"/>
</linearGradient>
<linearGradient id="paint5_linear_4933_2692" x1="20.8256" y1="17.0921" x2="36.2986" y2="18.6716" gradientUnits="userSpaceOnUse">
<stop stop-color="#B8DEC7"/>
<stop offset="0.654" stop-color="#21AADA"/>
</linearGradient>
<linearGradient id="paint6_linear_4933_2692" x1="20.6516" y1="18.7952" x2="36.1248" y2="20.3746" gradientUnits="userSpaceOnUse">
<stop stop-color="#B8DEC7"/>
<stop offset="0.654" stop-color="#21AADA"/>
</linearGradient>
<linearGradient id="paint7_linear_4933_2692" x1="20.4926" y1="20.3543" x2="35.9658" y2="21.9338" gradientUnits="userSpaceOnUse">
<stop stop-color="#B8DEC7"/>
<stop offset="0.654" stop-color="#21AADA"/>
</linearGradient>
<linearGradient id="paint8_linear_4933_2692" x1="20.3345" y1="21.9033" x2="35.8076" y2="23.4828" gradientUnits="userSpaceOnUse">
<stop stop-color="#B8DEC7"/>
<stop offset="0.654" stop-color="#21AADA"/>
</linearGradient>
<linearGradient id="paint9_linear_4933_2692" x1="20.1587" y1="23.6271" x2="35.6317" y2="25.2064" gradientUnits="userSpaceOnUse">
<stop stop-color="#B8DEC7"/>
<stop offset="0.654" stop-color="#21AADA"/>
</linearGradient>
<linearGradient id="paint10_linear_4933_2692" x1="19.9545" y1="25.6265" x2="35.4275" y2="27.2058" gradientUnits="userSpaceOnUse">
<stop stop-color="#B8DEC7"/>
<stop offset="0.654" stop-color="#21AADA"/>
</linearGradient>
<linearGradient id="paint11_linear_4933_2692" x1="19.7152" y1="27.9731" x2="35.1882" y2="29.5525" gradientUnits="userSpaceOnUse">
<stop stop-color="#B8DEC7"/>
<stop offset="0.654" stop-color="#21AADA"/>
</linearGradient>
<linearGradient id="paint12_linear_4933_2692" x1="19.5337" y1="29.746" x2="35.0068" y2="31.3254" gradientUnits="userSpaceOnUse">
<stop stop-color="#B8DEC7"/>
<stop offset="0.654" stop-color="#21AADA"/>
</linearGradient>
</defs>
</svg>
