<svg width="45" height="45" viewBox="0 0 45 45" fill="none" xmlns="http://www.w3.org/2000/svg">
<path d="M22.5 45C34.9264 45 45 34.9264 45 22.5C45 10.0736 34.9264 0 22.5 0C10.0736 0 0 10.0736 0 22.5C0 34.9264 10.0736 45 22.5 45Z" fill="#E1F2F7"/>
<path d="M35.3287 20.839C37.025 13.2762 31.5355 9.44768 29.0616 7.83381C26.6585 6.27883 20.3679 6.03145 16.5512 7.83381C13.8771 9.09428 7.97525 13.2762 9.68336 20.839C11.3797 28.4019 14.9255 34.7749 9.25928 33.4437C9.25928 33.4437 14.5014 37.0249 16.2096 33.3142C17.4229 30.6636 20.7213 25.4922 22.5119 22.7592C24.3025 25.504 27.6009 30.6636 28.8143 33.3142C30.5106 37.0249 35.7645 33.4437 35.7645 33.4437C30.0865 34.7749 33.6323 28.4136 35.3287 20.839Z" fill="url(#paint0_linear_4933_2377)"/>
<path d="M13.9123 26.9058C13.9123 26.9058 12.2631 25.021 11.4149 25.6689C10.5668 26.3168 11.5799 29.6977 14.7016 30.7343" fill="white"/>
<path d="M14.6072 31.0288C12.3926 30.2866 11.1086 28.39 10.873 26.9411C10.7552 26.2578 10.8847 25.7042 11.2381 25.445C12.2748 24.6557 13.9475 26.5052 14.136 26.7173L13.6884 27.106C13.2054 26.5641 12.0627 25.551 11.5915 25.9162C11.4737 26.0105 11.3559 26.305 11.4502 26.8468C11.6622 28.1309 12.8049 29.8154 14.7957 30.4751L14.6072 31.0288Z" fill="url(#paint1_linear_4933_2377)"/>
<path d="M31.4411 26.9057C31.4411 26.9057 33.0903 25.0209 33.9385 25.6688C34.7867 26.3167 33.7736 29.6976 30.6519 30.7343" fill="white"/>
<path d="M30.7344 31.0288L30.5459 30.4751C32.5367 29.8154 33.6676 28.1309 33.8914 26.8469C33.9857 26.305 33.8679 26.0105 33.7501 25.9162C33.2789 25.5628 32.1362 26.5641 31.6532 27.106L31.2056 26.7173C31.3941 26.5052 33.0668 24.644 34.1035 25.445C34.4451 25.7042 34.5865 26.2579 34.4687 26.9411C34.2331 28.3901 32.9608 30.2867 30.7344 31.0288Z" fill="url(#paint2_linear_4933_2377)"/>
<path d="M19.3548 15.5262C16.3745 18.2357 13.3823 25.6925 13.3823 25.6925C13.9242 28.8731 14.6781 31.1231 15.4438 33.22C16.8928 37.237 18.9779 36.3652 20.1794 37.1545C21.6166 38.1087 22.5001 38.2383 22.5001 38.2383C22.5001 38.2383 23.902 38.4739 25.5394 37.2959C26.5996 36.5419 28.8614 36.8011 29.9098 33.6205C30.6284 31.4529 31.347 29.0027 31.9124 25.6925C29.3679 21.2514 30.0747 16.881 19.3548 15.5262Z" fill="white"/>
<path d="M22.8183 38.5563C22.6062 38.5563 22.4766 38.5328 22.4531 38.5328C22.4177 38.5328 21.4989 38.3796 20.0264 37.4019C19.7436 37.2134 19.3902 37.1309 18.9779 37.0367C17.7764 36.754 16.2803 36.4006 15.173 33.326C14.4308 31.2762 13.6651 29.0027 13.0997 25.7514L13.0879 25.6689L13.1232 25.5864C13.241 25.2802 16.1743 18.0354 19.1664 15.3024L19.2607 15.2082L19.3903 15.2199C28.1075 16.3273 29.4033 19.3783 30.9112 22.9124C31.2764 23.7723 31.6533 24.6558 32.1599 25.5393L32.207 25.6336L32.1835 25.7396C31.5827 29.2265 30.8287 31.7239 30.169 33.7147C29.3562 36.165 27.813 36.7069 26.6939 37.0956C26.2934 37.237 25.94 37.3548 25.6926 37.5432C24.4792 38.4268 23.3602 38.5563 22.8183 38.5563ZM13.7005 25.7278C14.2541 28.8966 15.0081 31.1113 15.7266 33.1139C16.7279 35.894 18.0002 36.1885 19.1193 36.4595C19.567 36.5655 19.991 36.6597 20.3562 36.9071C21.7109 37.8024 22.5473 37.9438 22.5591 37.9438C22.5709 37.9438 23.8667 38.1322 25.3863 37.0603C25.7044 36.8247 26.1167 36.6951 26.5408 36.5419C27.6599 36.1532 28.9321 35.7055 29.6507 33.5262C30.2986 31.5825 31.029 29.144 31.618 25.7514C31.1232 24.8678 30.7463 23.9961 30.3929 23.148C28.9675 19.8024 27.7306 16.9045 19.4727 15.8325C16.7515 18.3888 14.0185 24.9503 13.7005 25.7278Z" fill="url(#paint3_linear_4933_2377)"/>
<path d="M24.1138 26.2343C24.9148 26.5759 25.6805 26.8233 26.4462 26.8233C26.835 26.8351 27.2119 26.7762 27.6007 26.6702C27.9894 26.5759 28.3546 26.3875 28.7669 26.2225C28.5077 26.5759 28.1779 26.8822 27.7656 27.0943C27.3651 27.3181 26.8939 27.4123 26.4344 27.4123C25.5274 27.4005 24.6321 26.9529 24.1138 26.2343Z" fill="url(#paint4_linear_4933_2377)"/>
<path d="M23.9961 24.8442C24.2553 24.3377 24.6911 23.9254 25.2094 23.6544C25.7278 23.3599 26.3286 23.2421 26.9176 23.2421C27.5066 23.2657 28.0838 23.4188 28.6021 23.6662C28.8613 23.7958 29.0969 23.9489 29.3443 24.1021C29.5563 24.2906 29.7801 24.4555 29.9804 24.6557C29.4503 24.4555 28.9555 24.2434 28.4372 24.0903C27.9189 23.9607 27.4123 23.8311 26.9058 23.8311C25.8809 23.7958 24.8678 24.1374 23.9961 24.8442Z" fill="url(#paint5_linear_4933_2377)"/>
<path d="M20.827 26.2343C20.3087 26.9411 19.4252 27.4005 18.4946 27.4123C18.0351 27.4123 17.5639 27.3299 17.1634 27.0943C16.7511 26.894 16.4213 26.5759 16.1621 26.2225C16.5744 26.3875 16.9396 26.5759 17.3283 26.6702C17.7053 26.7762 18.094 26.8351 18.4828 26.8233C19.2603 26.8351 20.026 26.5877 20.827 26.2343Z" fill="url(#paint6_linear_4933_2377)"/>
<path d="M20.9452 24.8442C20.0617 24.1374 19.0604 23.7958 18.0355 23.8311C17.5172 23.8429 17.0107 23.9607 16.5041 24.0903C15.9858 24.2434 15.491 24.4555 14.9609 24.6557C15.1612 24.4555 15.385 24.2906 15.5971 24.1021C15.8445 23.9607 16.0801 23.7958 16.3392 23.6662C16.8575 23.4188 17.4348 23.2539 18.0238 23.2421C18.6128 23.2421 19.2136 23.3599 19.7319 23.6544C20.2502 23.9254 20.6978 24.3259 20.9452 24.8442Z" fill="url(#paint7_linear_4933_2377)"/>
<path d="M16.8926 12.3927C16.8926 12.3927 16.1387 19.1427 22.4764 21.6283C22.4764 21.6283 20.356 18.7304 21.5104 16.9987C21.5104 16.9987 22.0876 19.0131 27.0824 22.0877C27.0824 22.0877 25.1622 18.7304 26.5052 18.0471C26.5052 18.0471 26.5994 19.0131 29.4855 22.6532C32.3717 26.2932 31.4057 28.5079 31.4057 28.5079C31.4057 28.5079 33.8088 27.3534 34.0916 21.5929C34.0916 21.5929 34.1858 12.2749 25.8337 10.1545C17.4816 8.03404 17.6583 11.627 16.8926 12.3927Z" fill="url(#paint8_linear_4933_2377)"/>
<path d="M23.7841 30.9699C23.7841 30.9699 23.1598 32.2304 21.6401 30.9699H23.7841Z" fill="white"/>
<path d="M23.7841 30.9699C23.7841 31.2173 23.6545 31.4411 23.4543 31.6061C23.254 31.7828 22.9713 31.8417 22.7121 31.8181C22.453 31.7828 22.2291 31.6767 22.0524 31.5354C21.8757 31.3822 21.7344 31.2055 21.6519 30.9817C22.1231 31.0642 22.4647 31.2173 22.7828 31.2409C23.0773 31.2644 23.3718 31.2173 23.7841 30.9699Z" fill="url(#paint9_linear_4933_2377)"/>
<path d="M19.7554 34.6452C19.7554 34.6452 21.2986 33.7028 22.2056 33.585L22.83 33.962L23.3954 33.5261C23.3954 33.5261 24.8444 34.068 25.6572 34.551" fill="white"/>
<path d="M19.7554 34.6452C20.097 34.339 20.4622 34.068 20.8627 33.8442C21.2632 33.6086 21.6755 33.4083 22.1821 33.3141L22.2763 33.3023L22.3706 33.3612C22.5826 33.4908 22.7946 33.5968 23.0067 33.7264L22.6768 33.75L23.2541 33.3259L23.3836 33.2316L23.5132 33.2905C24.2789 33.6322 25.0446 34.0209 25.6808 34.5746L23.3247 33.8089L23.5957 33.7735L23.042 34.2212L22.8889 34.339L22.7122 34.2329C22.5001 34.1151 22.2999 33.9738 22.0878 33.8442L22.2645 33.8795C21.8876 33.9267 21.4635 34.068 21.0394 34.1976C20.6035 34.339 20.1912 34.4921 19.7554 34.6452Z" fill="url(#paint10_linear_4933_2377)"/>
<path d="M21.6519 34.6689C21.6519 34.6689 22.6532 36.2474 23.9843 34.7985L21.6519 34.6689Z" fill="white"/>
<path d="M21.6519 34.6689C22.0995 34.9045 22.4647 35.1048 22.7945 35.1048C23.1244 35.1401 23.4896 34.987 23.9725 34.7867C23.9019 35.0341 23.7605 35.2579 23.5485 35.4228C23.3482 35.6113 23.0537 35.6938 22.7592 35.682C22.4647 35.6584 22.1937 35.5289 22.0053 35.3286C21.8168 35.1519 21.6872 34.9281 21.6519 34.6689Z" fill="url(#paint11_linear_4933_2377)"/>
<path d="M24.6909 31.0053C24.6909 31.0053 25.4213 31.0524 25.7629 32.0773C26.1045 33.1022 26.5286 35.199 26.5286 35.199" fill="white"/>
<path d="M24.7029 30.9699C25.1624 30.8639 25.6218 31.1937 25.881 31.5707C26.1401 31.983 26.1166 32.3835 26.199 32.7958C26.3404 33.5969 26.47 34.3979 26.576 35.199L26.5171 35.2107C26.2461 34.445 25.987 33.6911 25.7396 32.9372C25.61 32.572 25.4804 32.1597 25.3626 31.8652C25.2448 31.5471 25.0446 31.2644 24.7029 31.0406V30.9699Z" fill="url(#paint12_linear_4933_2377)"/>
<path d="M24.5967 27.7422C24.5967 27.7422 25.7393 28.1074 26.0927 29.0262L24.5967 27.7422Z" fill="white"/>
<path d="M24.6085 27.7186C24.8323 27.6126 25.0208 27.6597 25.2092 27.6951C25.3859 27.754 25.5155 27.9071 25.6333 28.0485C25.8925 28.3194 26.081 28.661 26.1281 29.0144L26.0692 29.038C25.8689 28.767 25.6098 28.5668 25.3388 28.4136C25.1975 28.343 25.0325 28.3194 24.9265 28.2016C24.8205 28.0838 24.6909 27.9778 24.5967 27.7657L24.6085 27.7186Z" fill="url(#paint13_linear_4933_2377)"/>
<path d="M20.8274 31.0052C20.8274 31.0052 20.0971 31.0523 19.7554 32.0772C19.4138 33.102 18.9897 35.1989 18.9897 35.1989" fill="white"/>
<path d="M20.8271 31.0288C20.4855 31.2526 20.2853 31.5236 20.1675 31.8534C20.0379 32.1479 19.9201 32.5602 19.7905 32.9254C19.5549 33.6793 19.2957 34.445 19.013 35.199L18.9541 35.1872C19.0601 34.3861 19.1897 33.5851 19.3311 32.784C19.4135 32.3835 19.3782 31.9712 19.6491 31.5589C19.8965 31.1819 20.3559 30.8521 20.8271 30.9581V31.0288Z" fill="url(#paint14_linear_4933_2377)"/>
<path d="M20.8271 27.7422C20.8271 27.7422 19.6845 28.1074 19.3311 29.0262L20.8271 27.7422Z" fill="white"/>
<path d="M20.839 27.7776C20.7448 27.9896 20.627 28.0956 20.5092 28.2134C20.3914 28.3194 20.2382 28.3548 20.0969 28.4255C19.8259 28.5786 19.5668 28.7671 19.3665 29.0498L19.3076 29.0262C19.3547 28.6728 19.5432 28.3312 19.8024 28.0603C19.9202 27.9189 20.0498 27.7658 20.2265 27.7069C20.4149 27.6715 20.6034 27.6244 20.8273 27.7304L20.839 27.7776Z" fill="url(#paint15_linear_4933_2377)"/>
<defs>
<linearGradient id="paint0_linear_4933_2377" x1="22.5022" y1="-35.776" x2="22.5022" y2="35.0071" gradientUnits="userSpaceOnUse">
<stop offset="0.3425" stop-color="#B8DEC7"/>
<stop offset="1" stop-color="#21AADA"/>
</linearGradient>
<linearGradient id="paint1_linear_4933_2377" x1="12.8148" y1="25.2467" x2="12.8148" y2="31.0241" gradientUnits="userSpaceOnUse">
<stop offset="0.3425" stop-color="#B8DEC7"/>
<stop offset="1" stop-color="#21AADA"/>
</linearGradient>
<linearGradient id="paint2_linear_4933_2377" x1="32.5354" y1="25.2447" x2="32.5354" y2="31.0241" gradientUnits="userSpaceOnUse">
<stop offset="0.3425" stop-color="#B8DEC7"/>
<stop offset="1" stop-color="#21AADA"/>
</linearGradient>
<linearGradient id="paint3_linear_4933_2377" x1="22.6546" y1="15.2165" x2="22.6546" y2="38.5524" gradientUnits="userSpaceOnUse">
<stop offset="0.3425" stop-color="#B8DEC7"/>
<stop offset="1" stop-color="#21AADA"/>
</linearGradient>
<linearGradient id="paint4_linear_4933_2377" x1="25.2598" y1="25.0722" x2="27.8078" y2="27.6201" gradientUnits="userSpaceOnUse">
<stop stop-color="#B8DEC7"/>
<stop offset="0.7108" stop-color="#21AADA"/>
</linearGradient>
<linearGradient id="paint5_linear_4933_2377" x1="25.3139" y1="23.0752" x2="28.4693" y2="26.2306" gradientUnits="userSpaceOnUse">
<stop stop-color="#B8DEC7"/>
<stop offset="0.7108" stop-color="#21AADA"/>
</linearGradient>
<linearGradient id="paint6_linear_4933_2377" x1="19.683" y1="25.0722" x2="17.1349" y2="27.6201" gradientUnits="userSpaceOnUse">
<stop stop-color="#B8DEC7"/>
<stop offset="0.7108" stop-color="#21AADA"/>
</linearGradient>
<linearGradient id="paint7_linear_4933_2377" x1="19.6293" y1="23.0752" x2="16.4739" y2="26.2306" gradientUnits="userSpaceOnUse">
<stop stop-color="#B8DEC7"/>
<stop offset="0.7108" stop-color="#21AADA"/>
</linearGradient>
<linearGradient id="paint8_linear_4933_2377" x1="25.4749" y1="-18.7987" x2="25.4749" y2="28.5337" gradientUnits="userSpaceOnUse">
<stop offset="0.3425" stop-color="#B8DEC7"/>
<stop offset="1" stop-color="#21AADA"/>
</linearGradient>
<linearGradient id="paint9_linear_4933_2377" x1="22.1202" y1="30.4546" x2="23.4477" y2="31.7821" gradientUnits="userSpaceOnUse">
<stop offset="0.3425" stop-color="#B8DEC7"/>
<stop offset="1" stop-color="#21AADA"/>
</linearGradient>
<linearGradient id="paint10_linear_4933_2377" x1="21.0535" y1="32.9367" x2="24.2191" y2="36.1021" gradientUnits="userSpaceOnUse">
<stop offset="0.3425" stop-color="#B8DEC7"/>
<stop offset="1" stop-color="#21AADA"/>
</linearGradient>
<linearGradient id="paint11_linear_4933_2377" x1="22.0738" y1="34.1535" x2="23.556" y2="35.6357" gradientUnits="userSpaceOnUse">
<stop offset="0.3425" stop-color="#B8DEC7"/>
<stop offset="1" stop-color="#21AADA"/>
</linearGradient>
<linearGradient id="paint12_linear_4933_2377" x1="24.1229" y1="31.2977" x2="27.395" y2="34.5699" gradientUnits="userSpaceOnUse">
<stop offset="0.3425" stop-color="#B8DEC7"/>
<stop offset="1" stop-color="#21AADA"/>
</linearGradient>
<linearGradient id="paint13_linear_4933_2377" x1="25.3546" y1="27.4662" x2="25.3546" y2="29.1391" gradientUnits="userSpaceOnUse">
<stop offset="0.3425" stop-color="#B8DEC7"/>
<stop offset="1" stop-color="#21AADA"/>
</linearGradient>
<linearGradient id="paint14_linear_4933_2377" x1="21.4014" y1="31.2977" x2="18.1291" y2="34.5699" gradientUnits="userSpaceOnUse">
<stop offset="0.3425" stop-color="#B8DEC7"/>
<stop offset="1" stop-color="#21AADA"/>
</linearGradient>
<linearGradient id="paint15_linear_4933_2377" x1="20.0693" y1="27.4662" x2="20.0693" y2="29.1391" gradientUnits="userSpaceOnUse">
<stop offset="0.3425" stop-color="#B8DEC7"/>
<stop offset="1" stop-color="#21AADA"/>
</linearGradient>
</defs>
</svg>
