<svg width="45" height="45" viewBox="0 0 45 45" fill="none" xmlns="http://www.w3.org/2000/svg">
	<defs>
<linearGradient id="paint0_linear_4933_2722" x1="22.5028" y1="-35.7745" x2="22.5028" y2="35.0086" gradientUnits="userSpaceOnUse">
<stop stop-color="#EFCCE0"/>
<stop offset="0.7207" stop-color="#DC5B99"/>
<stop offset="1" stop-color="#DB5697"/>
</linearGradient>
<linearGradient id="paint1_linear_4933_2722" x1="12.8157" y1="25.2476" x2="12.8157" y2="31.0257" gradientUnits="userSpaceOnUse">
<stop stop-color="#EFCCE0"/>
<stop offset="0.7207" stop-color="#D92F88"/>
<stop offset="1" stop-color="#DB5697"/>
</linearGradient>
<linearGradient id="paint2_linear_4933_2722" x1="32.5356" y1="25.2471" x2="32.5356" y2="31.0257" gradientUnits="userSpaceOnUse">
<stop stop-color="#EFCCE0"/>
<stop offset="0.7207" stop-color="#D92F88"/>
<stop offset="1" stop-color="#DB5697"/>
</linearGradient>
<linearGradient id="paint3_linear_4933_2722" x1="22.5046" y1="15.217" x2="22.5046" y2="38.5495" gradientUnits="userSpaceOnUse">
<stop stop-color="#EFCCE0"/>
<stop offset="0.7207" stop-color="#D92F88"/>
<stop offset="1" stop-color="#DB5697"/>
</linearGradient>
<linearGradient id="paint4_linear_4933_2722" x1="25.2603" y1="25.0737" x2="27.8083" y2="27.6218" gradientUnits="userSpaceOnUse">
<stop stop-color="#EFCCE0"/>
<stop offset="0.7207" stop-color="#D92F88"/>
<stop offset="1" stop-color="#DB5697"/>
</linearGradient>
<linearGradient id="paint5_linear_4933_2722" x1="25.315" y1="23.0767" x2="28.4704" y2="26.2323" gradientUnits="userSpaceOnUse">
<stop stop-color="#EFCCE0"/>
<stop offset="0.7207" stop-color="#D92F88"/>
<stop offset="1" stop-color="#DB5697"/>
</linearGradient>
<linearGradient id="paint6_linear_4933_2722" x1="19.6835" y1="25.0737" x2="17.1355" y2="27.6218" gradientUnits="userSpaceOnUse">
<stop stop-color="#EFCCE0"/>
<stop offset="0.7207" stop-color="#D92F88"/>
<stop offset="1" stop-color="#DB5697"/>
</linearGradient>
<linearGradient id="paint7_linear_4933_2722" x1="19.6294" y1="23.0767" x2="16.474" y2="26.2323" gradientUnits="userSpaceOnUse">
<stop stop-color="#EFCCE0"/>
<stop offset="0.7207" stop-color="#D92F88"/>
<stop offset="1" stop-color="#DB5697"/>
</linearGradient>
<linearGradient id="paint8_linear_4933_2722" x1="25.4753" y1="-18.7971" x2="25.4753" y2="28.5353" gradientUnits="userSpaceOnUse">
<stop stop-color="#EFCCE0"/>
<stop offset="0.7207" stop-color="#DC5B99"/>
<stop offset="1" stop-color="#DB5697"/>
</linearGradient>
</defs>
<path d="M22.5 45C34.9264 45 45 34.9264 45 22.5C45 10.0736 34.9264 0 22.5 0C10.0736 0 0 10.0736 0 22.5C0 34.9264 10.0736 45 22.5 45Z" fill="#FBE7F0"/>
<path d="M35.3286 20.8508C37.025 13.288 31.5354 9.45946 29.0616 7.84559C26.6585 6.29061 20.3679 6.04323 16.5511 7.84559C13.8771 9.10606 7.97523 13.288 9.68334 20.8508C11.3797 28.4137 14.9255 34.7867 9.25928 33.4555C9.25928 33.4555 14.5014 37.0367 16.2095 33.326C17.4229 30.6754 20.7213 25.504 22.5119 22.771C24.3025 25.5157 27.6009 30.6754 28.8142 33.326C30.5105 37.0367 35.7645 33.4555 35.7645 33.4555C30.0865 34.7867 33.6323 28.4137 35.3286 20.8508Z" fill="url(#paint0_linear_4933_2722)"/>
<path d="M13.9123 26.9176C13.9123 26.9176 12.2631 25.0327 11.4149 25.6806C10.5668 26.3286 11.5799 29.7094 14.7016 30.7461" fill="white"/>
<path d="M14.6073 31.0288C12.3926 30.2866 11.1086 28.39 10.873 26.9411C10.7552 26.2578 10.8847 25.7159 11.2381 25.445C12.2748 24.6557 13.9476 26.5052 14.1361 26.7173L13.6884 27.106C13.2054 26.5641 12.0628 25.551 11.5916 25.9162C11.4737 26.0105 11.3559 26.305 11.4502 26.8468C11.6622 28.1309 12.8049 29.8154 14.7957 30.4751L14.6073 31.0288Z" fill="url(#paint1_linear_4933_2722)"/>
<path d="M31.4411 26.9176C31.4411 26.9176 33.0903 25.0327 33.9385 25.6806C34.7867 26.3286 33.7736 29.7094 30.6519 30.7461" fill="white"/>
<path d="M30.7343 31.0288L30.5459 30.4751C32.5367 29.8154 33.6676 28.1309 33.8914 26.8469C33.9857 26.305 33.8679 26.0105 33.7501 25.9162C33.2788 25.5511 32.1126 26.5877 31.6532 27.106L31.2056 26.7173C31.3941 26.5052 33.0668 24.644 34.1035 25.445C34.4451 25.7042 34.5865 26.2579 34.4687 26.9411C34.2331 28.3901 32.9608 30.2867 30.7343 31.0288Z" fill="url(#paint2_linear_4933_2722)"/>
<path d="M19.3549 15.5262C16.3745 18.2356 13.0879 25.6924 13.0879 25.6924C14.8431 35.8822 22.5002 38.2383 22.5002 38.2383C22.5002 38.2383 30.1572 35.8822 31.9125 25.6924C29.368 21.2513 30.0748 16.8809 19.3549 15.5262Z" fill="white"/>
<path d="M22.5003 38.5445L22.4178 38.521C22.3353 38.4974 20.4152 37.8966 18.2594 36.0118C16.2804 34.2802 13.7241 31.0995 12.8052 25.7514L12.7935 25.6689L12.8288 25.5864C12.9702 25.2801 16.1861 18.0354 19.1665 15.3142L19.2607 15.2199L19.3903 15.2317C28.1076 16.3391 29.4034 19.3901 30.9113 22.9241C31.2765 23.7841 31.6534 24.6676 32.16 25.5511L32.2071 25.6453L32.1835 25.7514C31.2647 31.0995 28.7084 34.2919 26.7293 36.0118C24.5736 37.8966 22.6534 38.4974 22.5709 38.521L22.5003 38.5445ZM13.3942 25.7396C15.0199 34.987 21.6639 37.6375 22.5003 37.932C23.3366 37.6375 29.9806 34.9752 31.6063 25.7514C31.1115 24.8678 30.7346 23.9961 30.3812 23.148C28.9558 19.8024 27.7188 16.9045 19.461 15.8325C16.7516 18.3888 13.7594 24.9385 13.3942 25.7396Z" fill="url(#paint3_linear_4933_2722)"/>
<path d="M24.1256 26.2348C24.1256 26.2348 26.3874 28.2492 28.7788 26.2348H24.1256Z" fill="white"/>
<path d="M24.1255 26.2343C24.9265 26.5759 25.6922 26.8233 26.458 26.8233C26.8467 26.8351 27.2237 26.7762 27.6124 26.6702C28.0012 26.5759 28.3663 26.3875 28.7787 26.2225C28.5195 26.5759 28.1896 26.8822 27.7773 27.0943C27.3768 27.3181 26.9056 27.4123 26.4462 27.4123C25.5273 27.4005 24.632 26.9529 24.1255 26.2343Z" fill="url(#paint4_linear_4933_2722)"/>
<path d="M23.9961 24.8442C23.9961 24.8442 26.0694 22.017 29.9686 24.6557L23.9961 24.8442Z" fill="white"/>
<path d="M23.9966 24.8442C24.2557 24.3377 24.6916 23.9254 25.2099 23.6544C25.7283 23.3599 26.329 23.2421 26.918 23.2421C27.507 23.2657 28.0843 23.4188 28.6026 23.6662C28.8618 23.7958 29.0974 23.9489 29.3447 24.1021C29.5568 24.2906 29.7806 24.4555 29.9809 24.6557C29.4508 24.4555 28.956 24.2434 28.4377 24.0903C27.9194 23.9607 27.4128 23.8311 26.9063 23.8311C25.8814 23.7958 24.8683 24.1374 23.9966 24.8442Z" fill="url(#paint5_linear_4933_2722)"/>
<path d="M20.8275 26.2348C20.8275 26.2348 18.5657 28.2492 16.1744 26.2348H20.8275Z" fill="white"/>
<path d="M20.827 26.2343C20.3087 26.9411 19.4252 27.4005 18.4946 27.4123C18.0352 27.4123 17.5639 27.3299 17.1634 27.0943C16.7511 26.894 16.4213 26.5759 16.1621 26.2225C16.5744 26.3875 16.9396 26.5759 17.3283 26.6702C17.7053 26.7762 18.094 26.8351 18.4828 26.8233C19.2603 26.8351 20.026 26.5877 20.827 26.2343Z" fill="url(#paint6_linear_4933_2722)"/>
<path d="M20.9452 24.8442C20.9452 24.8442 18.8719 22.017 14.9727 24.6557L20.9452 24.8442Z" fill="white"/>
<path d="M20.9447 24.8442C20.0612 24.1374 19.0599 23.7958 18.0351 23.8311C17.5167 23.8429 17.0102 23.9607 16.5036 24.0903C15.9853 24.2434 15.4906 24.4555 14.9604 24.6557C15.1607 24.4555 15.3845 24.2906 15.5966 24.1021C15.8439 23.9607 16.0796 23.7958 16.3387 23.6662C16.857 23.4188 17.4343 23.2539 18.0233 23.2421C18.6123 23.2421 19.2131 23.3599 19.7314 23.6544C20.2497 23.9254 20.6974 24.3259 20.9447 24.8442Z" fill="url(#paint7_linear_4933_2722)"/>
<path d="M16.8926 12.3927C16.8926 12.3927 16.1387 19.1427 22.4764 21.6283C22.4764 21.6283 20.3559 18.7304 21.5104 16.9987C21.5104 16.9987 22.0876 19.0131 27.0824 22.0877C27.0824 22.0877 25.1622 18.7304 26.5052 18.0471C26.5052 18.0471 26.5994 19.0131 29.4855 22.6532C32.3717 26.2932 31.4057 28.5079 31.4057 28.5079C31.4057 28.5079 33.8088 27.3534 34.0915 21.5929C34.0915 21.5929 34.1858 12.2749 25.8337 10.1545C17.4816 8.03404 17.6583 11.627 16.8926 12.3927Z" fill="url(#paint8_linear_4933_2722)"/>
<path d="M16.6691 28.8967C16.7407 28.8967 16.7987 28.8387 16.7987 28.7671C16.7987 28.6955 16.7407 28.6375 16.6691 28.6375C16.5976 28.6375 16.5396 28.6955 16.5396 28.7671C16.5396 28.8387 16.5976 28.8967 16.6691 28.8967Z" fill="#D05C99"/>
<path d="M17.3758 28.6139C17.5059 28.6139 17.6114 28.5084 17.6114 28.3783C17.6114 28.2482 17.5059 28.1427 17.3758 28.1427C17.2456 28.1427 17.1401 28.2482 17.1401 28.3783C17.1401 28.5084 17.2456 28.6139 17.3758 28.6139Z" fill="#D05C99"/>
<path d="M16.2091 29.4621C16.2742 29.4621 16.3269 29.4094 16.3269 29.3443C16.3269 29.2792 16.2742 29.2265 16.2091 29.2265C16.1441 29.2265 16.0913 29.2792 16.0913 29.3443C16.0913 29.4094 16.1441 29.4621 16.2091 29.4621Z" fill="#D05C99"/>
<path d="M16.3511 28.178C16.4031 28.178 16.4453 28.1358 16.4453 28.0838C16.4453 28.0317 16.4031 27.9895 16.3511 27.9895C16.299 27.9895 16.2568 28.0317 16.2568 28.0838C16.2568 28.1358 16.299 28.178 16.3511 28.178Z" fill="#D05C99"/>
<path d="M16.6571 30.4634C16.6896 30.4634 16.7159 30.437 16.7159 30.4045C16.7159 30.372 16.6896 30.3456 16.6571 30.3456C16.6245 30.3456 16.5981 30.372 16.5981 30.4045C16.5981 30.437 16.6245 30.4634 16.6571 30.4634Z" fill="#D05C99"/>
<path d="M18.3533 29.7918C18.3859 29.7918 18.4122 29.7654 18.4122 29.7329C18.4122 29.7004 18.3859 29.674 18.3533 29.674C18.3208 29.674 18.2944 29.7004 18.2944 29.7329C18.2944 29.7654 18.3208 29.7918 18.3533 29.7918Z" fill="#D05C99"/>
<path d="M14.8782 29.1912C14.9108 29.1912 14.9371 29.1648 14.9371 29.1323C14.9371 29.0997 14.9108 29.0734 14.8782 29.0734C14.8457 29.0734 14.8193 29.0997 14.8193 29.1323C14.8193 29.1648 14.8457 29.1912 14.8782 29.1912Z" fill="#D05C99"/>
<path d="M15.6797 30.2159C15.7317 30.2159 15.7739 30.1738 15.7739 30.1217C15.7739 30.0697 15.7317 30.0275 15.6797 30.0275C15.6276 30.0275 15.5854 30.0697 15.5854 30.1217C15.5854 30.1738 15.6276 30.2159 15.6797 30.2159Z" fill="#D05C99"/>
<path d="M18.5064 29.1322C18.617 29.1322 18.7067 29.0426 18.7067 28.932C18.7067 28.8213 18.617 28.7317 18.5064 28.7317C18.3958 28.7317 18.3062 28.8213 18.3062 28.932C18.3062 29.0426 18.3958 29.1322 18.5064 29.1322Z" fill="#D05C99"/>
<path d="M18.4828 30.6047C18.5739 30.6047 18.6477 30.5308 18.6477 30.4397C18.6477 30.3487 18.5739 30.2748 18.4828 30.2748C18.3917 30.2748 18.3179 30.3487 18.3179 30.4397C18.3179 30.5308 18.3917 30.6047 18.4828 30.6047Z" fill="#D05C99"/>
<path d="M15.6911 28.8495C15.7627 28.8495 15.8207 28.7915 15.8207 28.7199C15.8207 28.6483 15.7627 28.5903 15.6911 28.5903C15.6195 28.5903 15.5615 28.6483 15.5615 28.7199C15.5615 28.7915 15.6195 28.8495 15.6911 28.8495Z" fill="#D05C99"/>
<path d="M17.482 29.8626C17.5926 29.8626 17.6823 29.7729 17.6823 29.6623C17.6823 29.5517 17.5926 29.4621 17.482 29.4621C17.3714 29.4621 17.2817 29.5517 17.2817 29.6623C17.2817 29.7729 17.3714 29.8626 17.482 29.8626Z" fill="#D05C99"/>
<path d="M16.5158 30.0393C16.5874 30.0393 16.6454 29.9813 16.6454 29.9097C16.6454 29.8382 16.5874 29.7802 16.5158 29.7802C16.4442 29.7802 16.3862 29.8382 16.3862 29.9097C16.3862 29.9813 16.4442 30.0393 16.5158 30.0393Z" fill="#D05C99"/>
<path d="M17.411 30.7578C17.5021 30.7578 17.5759 30.684 17.5759 30.5929C17.5759 30.5018 17.5021 30.428 17.411 30.428C17.3199 30.428 17.2461 30.5018 17.2461 30.5929C17.2461 30.684 17.3199 30.7578 17.411 30.7578Z" fill="#D05C99"/>
<path d="M19.4846 29.8743C19.6147 29.8743 19.7202 29.7688 19.7202 29.6387C19.7202 29.5086 19.6147 29.4031 19.4846 29.4031C19.3545 29.4031 19.249 29.5086 19.249 29.6387C19.249 29.7688 19.3545 29.8743 19.4846 29.8743Z" fill="#D05C99"/>
<path d="M28.6491 28.8967C28.7207 28.8967 28.7787 28.8387 28.7787 28.7671C28.7787 28.6955 28.7207 28.6375 28.6491 28.6375C28.5775 28.6375 28.5195 28.6955 28.5195 28.7671C28.5195 28.8387 28.5775 28.8967 28.6491 28.8967Z" fill="#D05C99"/>
<path d="M27.9426 28.6139C28.0728 28.6139 28.1783 28.5084 28.1783 28.3783C28.1783 28.2482 28.0728 28.1427 27.9426 28.1427C27.8125 28.1427 27.707 28.2482 27.707 28.3783C27.707 28.5084 27.8125 28.6139 27.9426 28.6139Z" fill="#D05C99"/>
<path d="M29.1085 29.4621C29.1735 29.4621 29.2263 29.4094 29.2263 29.3443C29.2263 29.2792 29.1735 29.2265 29.1085 29.2265C29.0434 29.2265 28.9907 29.2792 28.9907 29.3443C28.9907 29.4094 29.0434 29.4621 29.1085 29.4621Z" fill="#D05C99"/>
<path d="M28.9673 28.178C29.0193 28.178 29.0615 28.1358 29.0615 28.0838C29.0615 28.0317 29.0193 27.9895 28.9673 27.9895C28.9152 27.9895 28.873 28.0317 28.873 28.0838C28.873 28.1358 28.9152 28.178 28.9673 28.178Z" fill="#D05C99"/>
<path d="M28.6609 30.4634C28.6934 30.4634 28.7198 30.437 28.7198 30.4045C28.7198 30.372 28.6934 30.3456 28.6609 30.3456C28.6284 30.3456 28.6021 30.372 28.6021 30.4045C28.6021 30.437 28.6284 30.4634 28.6609 30.4634Z" fill="#D05C99"/>
<path d="M26.9647 29.7918C26.9972 29.7918 27.0236 29.7654 27.0236 29.7329C27.0236 29.7004 26.9972 29.674 26.9647 29.674C26.9321 29.674 26.9058 29.7004 26.9058 29.7329C26.9058 29.7654 26.9321 29.7918 26.9647 29.7918Z" fill="#D05C99"/>
<path d="M30.4397 29.1912C30.4723 29.1912 30.4987 29.1648 30.4987 29.1323C30.4987 29.0997 30.4723 29.0734 30.4397 29.0734C30.4072 29.0734 30.3809 29.0997 30.3809 29.1323C30.3809 29.1648 30.4072 29.1912 30.4397 29.1912Z" fill="#D05C99"/>
<path d="M29.6386 30.2159C29.6907 30.2159 29.7329 30.1738 29.7329 30.1217C29.7329 30.0697 29.6907 30.0275 29.6386 30.0275C29.5866 30.0275 29.5444 30.0697 29.5444 30.1217C29.5444 30.1738 29.5866 30.2159 29.6386 30.2159Z" fill="#D05C99"/>
<path d="M26.8116 29.1322C26.9222 29.1322 27.0119 29.0426 27.0119 28.932C27.0119 28.8213 26.9222 28.7317 26.8116 28.7317C26.701 28.7317 26.6113 28.8213 26.6113 28.932C26.6113 29.0426 26.701 29.1322 26.8116 29.1322Z" fill="#D05C99"/>
<path d="M26.847 30.6047C26.9381 30.6047 27.012 30.5308 27.012 30.4397C27.012 30.3487 26.9381 30.2748 26.847 30.2748C26.756 30.2748 26.6821 30.3487 26.6821 30.4397C26.6821 30.5308 26.756 30.6047 26.847 30.6047Z" fill="#D05C99"/>
<path d="M29.6388 28.8495C29.7104 28.8495 29.7684 28.7915 29.7684 28.7199C29.7684 28.6483 29.7104 28.5903 29.6388 28.5903C29.5673 28.5903 29.5093 28.6483 29.5093 28.7199C29.5093 28.7915 29.5673 28.8495 29.6388 28.8495Z" fill="#D05C99"/>
<path d="M27.836 29.8626C27.9466 29.8626 28.0363 29.7729 28.0363 29.6623C28.0363 29.5517 27.9466 29.4621 27.836 29.4621C27.7254 29.4621 27.6357 29.5517 27.6357 29.6623C27.6357 29.7729 27.7254 29.8626 27.836 29.8626Z" fill="#D05C99"/>
<path d="M28.8141 30.0393C28.8857 30.0393 28.9437 29.9813 28.9437 29.9097C28.9437 29.8382 28.8857 29.7802 28.8141 29.7802C28.7426 29.7802 28.6846 29.8382 28.6846 29.9097C28.6846 29.9813 28.7426 30.0393 28.8141 30.0393Z" fill="#D05C99"/>
<path d="M27.9071 30.7578C27.9982 30.7578 28.072 30.684 28.072 30.5929C28.072 30.5018 27.9982 30.428 27.9071 30.428C27.816 30.428 27.7422 30.5018 27.7422 30.5929C27.7422 30.684 27.816 30.7578 27.9071 30.7578Z" fill="#D05C99"/>
<path d="M25.8337 29.8743C25.9639 29.8743 26.0693 29.7688 26.0693 29.6387C26.0693 29.5086 25.9639 29.4031 25.8337 29.4031C25.7036 29.4031 25.5981 29.5086 25.5981 29.6387C25.5981 29.7688 25.7036 29.8743 25.8337 29.8743Z" fill="#D05C99"/>

</svg>
