<svg width="10" height="12" viewBox="0 0 10 12" fill="none" xmlns="http://www.w3.org/2000/svg">
<path d="M5 6C6.57812 6 7.85714 4.65703 7.85714 3C7.85714 1.34297 6.57812 0 5 0C3.42188 0 2.14286 1.34297 2.14286 3C2.14286 4.65703 3.42188 6 5 6ZM2.32143 9.9375C2.32143 10.2492 2.56027 10.5 2.85714 10.5C3.15402 10.5 3.39286 10.2492 3.39286 9.9375C3.39286 9.62578 3.15402 9.375 2.85714 9.375C2.56027 9.375 2.32143 9.62578 2.32143 9.9375ZM7.14286 6.76406V7.9125C7.95759 8.08594 8.57143 8.84531 8.57143 9.75V10.7273C8.57143 10.9055 8.45089 11.0602 8.28348 11.0953L7.56473 11.2453C7.46875 11.2664 7.375 11.2008 7.35491 11.0977L7.28571 10.7297C7.26562 10.6289 7.32813 10.5281 7.42634 10.5094L7.85714 10.418V9.75C7.85714 8.27812 5.71429 8.22422 5.71429 9.79453V10.4203L6.14509 10.5117C6.24107 10.5328 6.30357 10.6312 6.28571 10.732L6.21652 11.1C6.19643 11.2008 6.10268 11.2664 6.0067 11.2477L5.31027 11.1492C5.13393 11.1234 5.00223 10.9664 5.00223 10.7766V9.75C5.00223 8.84531 5.61607 8.08828 6.4308 7.9125V6.85312C6.3817 6.86953 6.33259 6.87891 6.28348 6.89766C5.8817 7.04531 5.45089 7.12734 5.00223 7.12734C4.55357 7.12734 4.12277 7.04531 3.72098 6.89766C3.5558 6.83672 3.38839 6.79922 3.21652 6.77578V8.68828C3.73214 8.85 4.10938 9.34688 4.10938 9.93984C4.10938 10.6641 3.54911 11.2523 2.85938 11.2523C2.16964 11.2523 1.60938 10.6641 1.60938 9.93984C1.60938 9.34688 1.98661 8.85 2.50223 8.68828V6.80391C1.08259 7.05469 0 8.33906 0 9.9V10.95C0 11.5289 0.448661 12 1 12H9C9.55134 12 10 11.5289 10 10.95V9.9C10 8.2125 8.73214 6.84609 7.14286 6.76406Z" fill="#333333"/>
</svg>
