<svg width="45" height="45" viewBox="0 0 45 45" fill="none" xmlns="http://www.w3.org/2000/svg">
	<defs>
<linearGradient id="paint0_linear_4933_2780" x1="-22.7395" y1="-22.3294" x2="34.4634" y2="34.8734" gradientUnits="userSpaceOnUse">
<stop stop-color="#A1D4BA"/>
<stop offset="0.9963" stop-color="#00AB9C"/>
</linearGradient>
<linearGradient id="paint1_linear_4933_2780" x1="13.2422" y1="24.9437" x2="13.2422" y2="30.7231" gradientUnits="userSpaceOnUse">
<stop stop-color="#A1D4BA"/>
<stop offset="0.9963" stop-color="#00AB9C"/>
</linearGradient>
<linearGradient id="paint2_linear_4933_2780" x1="32.9652" y1="24.9445" x2="32.9652" y2="30.7231" gradientUnits="userSpaceOnUse">
<stop stop-color="#A1D4BA"/>
<stop offset="0.9963" stop-color="#00AB9C"/>
</linearGradient>
<linearGradient id="paint3_linear_4933_2780" x1="22.9307" y1="15.2223" x2="22.9307" y2="37.9389" gradientUnits="userSpaceOnUse">
<stop stop-color="#A1D4BA"/>
<stop offset="0.9963" stop-color="#00AB9C"/>
</linearGradient>
<linearGradient id="paint4_linear_4933_2780" x1="25.6888" y1="24.7703" x2="28.2372" y2="27.3186" gradientUnits="userSpaceOnUse">
<stop stop-color="#A1D4BA"/>
<stop offset="0.9963" stop-color="#00AB9C"/>
</linearGradient>
<linearGradient id="paint5_linear_4933_2780" x1="25.7429" y1="22.7731" x2="28.8988" y2="25.9289" gradientUnits="userSpaceOnUse">
<stop stop-color="#A1D4BA"/>
<stop offset="0.9963" stop-color="#00AB9C"/>
</linearGradient>
<linearGradient id="paint6_linear_4933_2780" x1="20.1113" y1="24.7703" x2="17.563" y2="27.3187" gradientUnits="userSpaceOnUse">
<stop stop-color="#A1D4BA"/>
<stop offset="0.9963" stop-color="#00AB9C"/>
</linearGradient>
<linearGradient id="paint7_linear_4933_2780" x1="20.0573" y1="22.7731" x2="16.9014" y2="25.9289" gradientUnits="userSpaceOnUse">
<stop stop-color="#A1D4BA"/>
<stop offset="0.9963" stop-color="#00AB9C"/>
</linearGradient>
<linearGradient id="paint8_linear_4933_2780" x1="22.1692" y1="30.2529" x2="23.4969" y2="31.5806" gradientUnits="userSpaceOnUse">
<stop stop-color="#A1D4BA"/>
<stop offset="0.9963" stop-color="#00AB9C"/>
</linearGradient>
<linearGradient id="paint9_linear_4933_2780" x1="21.1877" y1="31.8689" x2="24.3406" y2="35.0218" gradientUnits="userSpaceOnUse">
<stop stop-color="#A1D4BA"/>
<stop offset="0.9963" stop-color="#00AB9C"/>
</linearGradient>
<linearGradient id="paint10_linear_4933_2780" x1="22.0227" y1="33.6518" x2="23.5051" y2="35.1342" gradientUnits="userSpaceOnUse">
<stop stop-color="#A1D4BA"/>
<stop offset="0.9963" stop-color="#00AB9C"/>
</linearGradient>
<linearGradient id="paint11_linear_4933_2780" x1="25.775" y1="31.1754" x2="25.775" y2="34.1413" gradientUnits="userSpaceOnUse">
<stop stop-color="#A1D4BA"/>
<stop offset="0.9963" stop-color="#00AB9C"/>
</linearGradient>
<linearGradient id="paint12_linear_4933_2780" x1="26.103" y1="27.1142" x2="26.103" y2="28.5952" gradientUnits="userSpaceOnUse">
<stop stop-color="#A1D4BA"/>
<stop offset="0.9963" stop-color="#00AB9C"/>
</linearGradient>
<linearGradient id="paint13_linear_4933_2780" x1="30.073" y1="25.7792" x2="30.073" y2="26.2414" gradientUnits="userSpaceOnUse">
<stop stop-color="#A1D4BA"/>
<stop offset="0.9963" stop-color="#00AB9C"/>
</linearGradient>
<linearGradient id="paint14_linear_4933_2780" x1="30.0441" y1="25.1935" x2="30.2005" y2="25.6284" gradientUnits="userSpaceOnUse">
<stop stop-color="#A1D4BA"/>
<stop offset="0.9963" stop-color="#00AB9C"/>
</linearGradient>
<linearGradient id="paint15_linear_4933_2780" x1="19.9999" y1="31.1754" x2="19.9999" y2="34.1413" gradientUnits="userSpaceOnUse">
<stop stop-color="#A1D4BA"/>
<stop offset="0.9963" stop-color="#00AB9C"/>
</linearGradient>
<linearGradient id="paint16_linear_4933_2780" x1="19.6719" y1="27.1142" x2="19.6719" y2="28.5952" gradientUnits="userSpaceOnUse">
<stop stop-color="#A1D4BA"/>
<stop offset="0.9963" stop-color="#00AB9C"/>
</linearGradient>
<linearGradient id="paint17_linear_4933_2780" x1="15.7019" y1="25.7792" x2="15.7019" y2="26.2414" gradientUnits="userSpaceOnUse">
<stop stop-color="#A1D4BA"/>
<stop offset="0.9963" stop-color="#00AB9C"/>
</linearGradient>
<linearGradient id="paint18_linear_4933_2780" x1="15.7309" y1="25.1935" x2="15.5744" y2="25.6284" gradientUnits="userSpaceOnUse">
<stop stop-color="#A1D4BA"/>
<stop offset="0.9963" stop-color="#00AB9C"/>
</linearGradient>
<linearGradient id="paint19_linear_4933_2780" x1="22.7601" y1="20.8504" x2="22.7898" y2="21.7976" gradientUnits="userSpaceOnUse">
<stop stop-color="#A1D4BA"/>
<stop offset="0.9963" stop-color="#00AB9C"/>
</linearGradient>
<linearGradient id="paint20_linear_4933_2780" x1="22.7578" y1="19.8523" x2="22.7856" y2="20.7359" gradientUnits="userSpaceOnUse">
<stop stop-color="#A1D4BA"/>
<stop offset="0.9963" stop-color="#00AB9C"/>
</linearGradient>
<linearGradient id="paint21_linear_4933_2780" x1="-4.28097" y1="-13.7749" x2="34.8378" y2="25.3439" gradientUnits="userSpaceOnUse">
<stop stop-color="#A1D4BA"/>
<stop offset="0.9963" stop-color="#00AB9C"/>
</linearGradient>
</defs>
<path d="M22.5 45C34.9264 45 45 34.9264 45 22.5C45 10.0736 34.9264 0 22.5 0C10.0736 0 0 10.0736 0 22.5C0 34.9264 10.0736 45 22.5 45Z" fill="#D2E9DB"/>
<path d="M35.7605 20.5422C37.4616 12.975 31.9674 9.14347 29.4889 7.53358C27.0873 5.97168 20.7965 5.73656 16.977 7.53358C14.3018 8.79318 8.39969 12.975 10.1007 20.5422C11.8018 28.1094 15.3455 34.4794 9.67609 33.1526C9.67609 33.1526 14.9208 36.737 16.6219 33.0206C17.8359 30.3671 21.1372 25.2015 22.9294 22.4592C24.7217 25.2015 28.023 30.3671 29.237 33.0206C30.9381 36.737 36.1828 33.1526 36.1828 33.1526C30.5134 34.4794 34.0595 28.107 35.7605 20.5422Z" fill="url(#paint0_linear_4933_2780)"/>
<path d="M14.3354 26.6101C14.3354 26.6101 12.6896 24.7243 11.8402 25.3745C10.9909 26.0247 11.9986 29.4028 15.1296 30.4441" fill="white"/>
<path d="M15.0384 30.7222C12.8167 29.9856 11.5427 28.0878 11.3004 26.6363C11.1852 25.9501 11.3172 25.4031 11.6627 25.1392C12.6967 24.345 14.369 26.1996 14.5585 26.4132L14.1147 26.7994C13.6372 26.2524 12.4976 25.2423 12.0202 25.6046C11.9002 25.6982 11.7898 25.9981 11.881 26.5355C12.0969 27.8167 13.2342 29.4986 15.2231 30.1608L15.0384 30.7222Z" fill="url(#paint1_linear_4933_2780)"/>
<path d="M31.8714 26.6099C31.8714 26.6099 33.5173 24.7241 34.3666 25.3743C35.2159 26.0245 34.2083 29.4026 31.0773 30.4439" fill="white"/>
<path d="M31.1684 30.7222L30.9837 30.1631C32.9727 29.501 34.1123 27.8215 34.3258 26.5379C34.417 25.9981 34.3066 25.6982 34.1867 25.607C33.7092 25.2423 32.5696 26.2548 32.0921 26.8018L31.6483 26.4155C31.8354 26.1996 33.5077 24.3474 34.5442 25.1416C34.8897 25.4055 35.0216 25.9525 34.9064 26.6363C34.6641 28.0878 33.3901 29.9856 31.1684 30.7222Z" fill="url(#paint2_linear_4933_2780)"/>
<path d="M19.7865 15.2231C16.809 17.9319 13.5149 25.3959 13.5149 25.3959C14.9016 36.6603 22.9295 37.9415 22.9295 37.9415C22.9295 37.9415 31.5955 36.142 32.3441 25.3959C29.7985 20.9501 30.5015 16.5811 19.7865 15.2231Z" fill="white"/>
<path d="M19.988 15.8421C27.9535 16.9098 29.0955 19.5849 30.535 22.9655C30.8901 23.798 31.2572 24.6569 31.7419 25.5302C30.9957 35.012 23.9252 37.0897 22.9151 37.3393C21.9578 37.1425 15.4103 35.4319 14.1195 25.4871C14.5873 24.4578 17.4136 18.3589 19.988 15.8421ZM19.7865 15.2231C16.809 17.9319 13.5149 25.3959 13.5149 25.3959C14.9016 36.6603 22.9295 37.9415 22.9295 37.9415C22.9295 37.9415 31.5955 36.142 32.3441 25.3959C29.7985 20.9501 30.5015 16.5811 19.7865 15.2231Z" fill="url(#paint3_linear_4933_2780)"/>
<path d="M24.549 25.9357C25.3479 26.2812 26.1132 26.5283 26.8882 26.5307C27.2721 26.5427 27.656 26.49 28.0398 26.382C28.4309 26.2884 28.7956 26.1013 29.2083 25.9357C28.9515 26.2884 28.618 26.6003 28.2078 26.8019C27.8119 27.0322 27.3393 27.1209 26.8786 27.1185C25.9501 27.0994 25.0648 26.6483 24.549 25.9357Z" fill="url(#paint4_linear_4933_2780)"/>
<path d="M24.4218 24.5369C24.6785 24.0283 25.1224 23.6228 25.6358 23.3421C26.1493 23.0494 26.7515 22.927 27.3441 22.9294C27.9367 22.951 28.5101 23.1094 29.0283 23.3589C29.2851 23.4885 29.5226 23.6468 29.7649 23.7908C29.9808 23.9803 30.204 24.1483 30.4031 24.3474C29.8729 24.1483 29.3762 23.9299 28.8652 23.7812C28.3518 23.6468 27.8431 23.5269 27.3321 23.5197C26.31 23.4933 25.2999 23.834 24.4218 24.5369Z" fill="url(#paint5_linear_4933_2780)"/>
<path d="M21.2524 25.9357C20.7366 26.6483 19.8488 27.0994 18.9227 27.1185C18.4621 27.1185 17.9894 27.0298 17.5936 26.8019C17.1857 26.6003 16.8522 26.2884 16.5931 25.9357C17.0057 26.0989 17.3704 26.2884 17.7615 26.382C18.143 26.49 18.5293 26.5427 18.9131 26.5307C19.6881 26.5283 20.4534 26.2812 21.2524 25.9357Z" fill="url(#paint6_linear_4933_2780)"/>
<path d="M21.3771 24.5369C20.499 23.8364 19.4913 23.4933 18.4717 23.5197C17.9582 23.5269 17.452 23.6492 16.9385 23.7812C16.4251 23.9323 15.9309 24.1507 15.4006 24.3474C15.5998 24.1483 15.8229 23.9779 16.0388 23.7908C16.2812 23.6468 16.5211 23.4909 16.7754 23.3589C17.2936 23.1094 17.867 22.951 18.4597 22.9294C19.0499 22.927 19.6545 23.0494 20.1679 23.3421C20.6789 23.6228 21.1204 24.0283 21.3771 24.5369Z" fill="url(#paint7_linear_4933_2780)"/>
<path d="M23.8316 30.7677C23.834 31.0125 23.7068 31.238 23.5053 31.4011C23.3062 31.5763 23.0182 31.6339 22.7615 31.6099C22.5 31.5811 22.2769 31.4707 22.0969 31.322C21.9218 31.1684 21.7778 30.9933 21.6915 30.7677C22.1593 30.8541 22.5072 31.0005 22.8239 31.0245C23.131 31.0652 23.4165 31.0125 23.8316 30.7677Z" fill="url(#paint8_linear_4933_2780)"/>
<path d="M19.8033 33.5365C20.2447 33.4453 20.6718 33.3445 21.0701 33.2102C21.4636 33.0686 21.8354 32.8719 22.0322 32.608L22.1833 32.4064L22.4041 32.536C22.6152 32.6608 22.8311 32.7759 23.0374 32.9079L22.7088 32.9271L23.2846 32.5L23.4189 32.3992L23.5629 32.464C24.2611 32.7807 24.952 33.1406 25.7174 33.3469C25.3191 33.4213 24.8993 33.3829 24.5082 33.299C24.1099 33.2222 23.7236 33.119 23.3422 32.9703L23.6205 32.9343L23.0638 33.3877L22.9127 33.5101L22.7327 33.4069C22.5192 33.2846 22.3153 33.1502 22.1065 33.023L22.4784 32.9535C22.1089 33.3829 21.6099 33.5293 21.1565 33.5893C20.703 33.6636 20.2447 33.6373 19.8033 33.5365Z" fill="url(#paint9_linear_4933_2780)"/>
<path d="M21.5979 34.1674C22.049 34.4074 22.4088 34.5969 22.7447 34.6065C23.0758 34.6377 23.4429 34.4841 23.9276 34.2946C23.8556 34.5441 23.7116 34.7601 23.5029 34.9304C23.3038 35.1151 23.0039 35.2039 22.7087 35.1943C22.4136 35.1703 22.1377 35.0432 21.9554 34.8464C21.7658 34.6545 21.6315 34.429 21.5979 34.1674Z" fill="url(#paint10_linear_4933_2780)"/>
<path d="M24.8657 31.2885C24.8657 31.2885 26.6123 32.7761 26.6771 34.1364L24.8657 31.2885Z" fill="white"/>
<path d="M24.8752 31.2764C25.4102 31.5451 25.8229 31.9842 26.118 32.4952C26.4323 32.9847 26.6914 33.5461 26.6914 34.1339L26.6626 34.1363C26.5763 33.5677 26.2692 33.0735 25.9261 32.632C25.5518 32.2049 25.1775 31.7971 24.856 31.3004L24.8752 31.2764Z" fill="url(#paint11_linear_4933_2780)"/>
<path d="M24.9305 27.2119C24.9305 27.2119 25.7438 28.1404 27.2817 28.4523L24.9305 27.2119Z" fill="white"/>
<path d="M24.9424 27.2025C25.3599 27.4136 25.7078 27.6439 26.0701 27.9006C26.4467 28.1262 26.857 28.3061 27.2865 28.4381L27.2817 28.4669C26.8306 28.4165 26.3844 28.2989 25.9621 28.1094C25.5302 27.9462 25.1272 27.6631 24.9208 27.2217L24.9424 27.2025Z" fill="url(#paint12_linear_4933_2780)"/>
<path d="M29.4914 25.9093C29.7073 25.7846 29.904 25.8085 30.0888 25.8925C30.2783 25.9477 30.4679 26.0101 30.6574 26.0797L30.6526 26.1084C30.4511 26.1228 30.2519 26.1276 30.0552 26.1252C29.8537 26.1516 29.6593 26.1204 29.4866 25.9381L29.4914 25.9093Z" fill="url(#paint13_linear_4933_2780)"/>
<path d="M29.5417 25.5134C29.7025 25.3215 29.8944 25.2783 30.0984 25.2951C30.2951 25.2807 30.4942 25.2759 30.6958 25.2783L30.7006 25.3071C30.5158 25.3886 30.3311 25.4606 30.144 25.5254C29.9616 25.619 29.7697 25.655 29.5465 25.5422L29.5417 25.5134Z" fill="url(#paint14_linear_4933_2780)"/>
<path d="M20.9094 31.2885C20.9094 31.2885 19.1627 32.7761 19.098 34.1364L20.9094 31.2885Z" fill="white"/>
<path d="M20.9189 31.298C20.5974 31.7946 20.2231 32.2049 19.8489 32.6296C19.5058 33.071 19.1987 33.5653 19.1123 34.1339L19.0835 34.1315C19.0835 33.5437 19.3426 32.9823 19.6569 32.4928C19.952 31.9818 20.3647 31.5451 20.8997 31.274L20.9189 31.298Z" fill="url(#paint15_linear_4933_2780)"/>
<path d="M20.8445 27.2119C20.8445 27.2119 20.0312 28.1404 18.4933 28.4523L20.8445 27.2119Z" fill="white"/>
<path d="M20.8541 27.2217C20.6502 27.6607 20.2447 27.9462 19.8128 28.1094C19.3906 28.2989 18.9443 28.4165 18.4933 28.4669L18.4885 28.4381C18.9179 28.3061 19.3282 28.1262 19.7049 27.9006C20.0672 27.6439 20.415 27.4136 20.8325 27.2025L20.8541 27.2217Z" fill="url(#paint16_linear_4933_2780)"/>
<path d="M16.286 25.9405C16.1133 26.1229 15.9213 26.154 15.7174 26.1277C15.5182 26.1301 15.3191 26.1253 15.12 26.1109L15.1152 26.0821C15.3023 26.0125 15.4919 25.9501 15.6838 25.8949C15.8709 25.811 16.0653 25.787 16.2812 25.9117L16.286 25.9405Z" fill="url(#paint17_linear_4933_2780)"/>
<path d="M16.226 25.5422C16.0029 25.655 15.8085 25.6214 15.6286 25.5254C15.4414 25.4606 15.2567 25.3886 15.072 25.3071L15.0768 25.2783C15.2783 25.2759 15.4774 25.2807 15.6742 25.2951C15.8781 25.2783 16.07 25.3215 16.2308 25.5134L16.226 25.5422Z" fill="url(#paint18_linear_4933_2780)"/>
<path d="M18.251 21.4995C19.7121 21.0485 21.2524 20.8853 22.7807 20.8613C23.5461 20.8661 24.3138 20.9045 25.072 21.0125C25.8326 21.1037 26.5787 21.2956 27.3081 21.5139C26.5523 21.4012 25.8038 21.2884 25.048 21.238C24.2946 21.178 23.5389 21.1372 22.7831 21.1564C22.0274 21.1468 21.2716 21.1876 20.5159 21.2452C19.7601 21.3052 19.0043 21.382 18.251 21.4995Z" fill="url(#paint19_linear_4933_2780)"/>
<path d="M18.2797 20.7413C19.6641 20.0768 21.2308 19.904 22.7495 19.8584C23.5148 19.856 24.2802 19.8992 25.0384 19.988C25.7965 20.0792 26.5451 20.2303 27.284 20.4151C25.7701 20.2591 24.2634 20.1199 22.7543 20.1511C22.0009 20.1511 21.2476 20.2015 20.499 20.2903C19.7529 20.3911 19.0019 20.5062 18.2797 20.7413Z" fill="url(#paint20_linear_4933_2780)"/>
<path d="M17.3177 12.0897C17.3177 12.0897 16.5667 18.8436 22.9007 21.3268C22.9007 21.3268 20.7774 18.4309 21.9314 16.701C21.9314 16.701 22.5072 18.7188 27.5048 21.7946C27.5048 21.7946 25.583 18.4309 26.929 17.7591C26.929 17.7591 27.025 18.7188 29.9089 22.3704C32.7927 26.0221 31.8306 28.2317 31.8306 28.2317C31.8306 28.2317 34.2323 27.0777 34.5202 21.3124C34.5202 21.3124 34.6162 11.9913 26.2572 9.87762C17.8983 7.7639 18.0854 11.322 17.3177 12.0897Z" fill="url(#paint21_linear_4933_2780)"/>

</svg>
