<svg width="78" height="87" viewBox="0 0 78 87" fill="none" xmlns="http://www.w3.org/2000/svg">
<path d="M48.6378 4.07227L72.4673 27.9043L49.4251 50.9464L25.7306 27.2519L31.0344 21.9481" stroke="#00B8A9" stroke-width="5" stroke-miterlimit="10"/>
<path d="M29.3622 51.6615L5.53271 27.832L29.3622 4L53.4041 28.0419L46.9406 34.5054" stroke="#00B8A9" stroke-width="5" stroke-miterlimit="10"/>
<path d="M2.50391 67.2671H5.51172V79.0737H12.6406V81.6616H2.50391V67.2671ZM27.1582 78.7026H21.8555L20.8594 81.6616H17.7148L22.8516 67.2671H26.25L31.3477 81.6616H28.0859L27.1582 78.7026ZM26.3184 76.2222L24.5215 70.5581L22.666 76.2222H26.3184ZM48.7559 81.6616H45.1035L42.3691 76.7593L39.4785 81.6616H35.9824L40.6113 74.3276L36.207 67.2671H39.8008L42.3691 71.9448L45.0059 67.2671H48.4824L44.0781 74.2104L48.7559 81.6616ZM54.2891 67.2671H57.2773V81.6616H54.2891V67.2671ZM72.5176 78.7026H67.2148L66.2188 81.6616H63.0742L68.2109 67.2671H71.6094L76.707 81.6616H73.4453L72.5176 78.7026ZM71.6777 76.2222L69.8809 70.5581L68.0254 76.2222H71.6777Z" fill="#00B8A9"/>
</svg>
