<svg width="25" height="24" viewBox="0 0 25 24" fill="none" xmlns="http://www.w3.org/2000/svg">
<path d="M12.5007 22.8974C12.6982 22.8974 12.8753 22.8235 13.0319 22.6795C13.5019 22.193 14.7857 20.8541 16.8835 18.6668C19.1243 16.3317 20.5171 14.88 21.0552 14.3117C21.7942 13.6151 22.3663 12.7627 22.7784 11.7586C23.1904 10.7545 23.3982 9.6803 23.3982 8.54385C23.3982 7.50469 23.2279 6.51613 22.8874 5.57817C22.5604 4.67134 22.0939 3.86571 21.4843 3.16904C20.2924 1.79129 18.8655 1.10241 17.2036 1.10241C16.2944 1.10241 15.4328 1.32815 14.6189 1.7835C13.805 2.23886 13.0966 2.87715 12.5007 3.70614C11.9047 2.88104 11.1998 2.23886 10.3825 1.7835C9.56516 1.32815 8.70698 1.10241 7.79772 1.10241C6.13585 1.10241 4.71237 1.79907 3.52045 3.19629C2.91087 3.89295 2.44092 4.69469 2.11399 5.60152C1.75983 6.55894 1.58955 7.5475 1.60317 8.5672C1.6168 9.68808 1.82453 10.7428 2.21956 11.743C2.618 12.7394 3.1765 13.5878 3.90186 14.2845C3.97338 14.3507 4.03808 14.4129 4.09257 14.4791C4.29009 14.6737 5.09378 15.4988 6.49683 16.9622C9.44937 20.0602 11.2713 21.9633 11.966 22.6795C12.1261 22.8235 12.3032 22.8974 12.5007 22.8974ZM12.5007 20.7101C11.6765 19.85 10.2463 18.3594 8.20297 16.2344L7.18133 15.1641C6.1018 14.0432 5.43773 13.3543 5.18232 13.0974C5.1687 13.0663 5.15508 13.0391 5.14146 13.0235C5.05632 12.9573 4.99843 12.9028 4.97118 12.8523C4.41269 12.3307 3.987 11.6963 3.69073 10.9413C3.39445 10.1863 3.24461 9.39619 3.24461 8.57109C3.23099 7.77713 3.35699 7.02209 3.62602 6.30986C3.86781 5.62487 4.21517 5.02551 4.6681 4.50788C5.54671 3.48818 6.59218 2.97445 7.79772 2.97445C8.47881 2.97445 9.12926 3.15348 9.74565 3.51154C10.362 3.8696 10.8831 4.36388 11.3088 4.99437C11.6084 5.44973 12.0035 5.67547 12.5007 5.67547C12.9979 5.67547 13.3929 5.44973 13.6926 4.99437C14.1183 4.34442 14.6393 3.84625 15.2557 3.49986C15.8721 3.15348 16.5225 2.97834 17.2036 2.97834C18.4092 2.97834 19.4512 3.4804 20.3333 4.48842C20.7862 5.00605 21.1335 5.6093 21.3753 6.28651C21.6307 6.99874 21.7567 7.75378 21.7567 8.54774C21.7567 9.40786 21.6001 10.2252 21.2868 11.0036C20.9735 11.7508 20.5478 12.3735 20.0097 12.8756L19.9689 12.9223C19.0903 13.8136 17.6906 15.2731 15.7767 17.3008C14.2477 18.8926 13.1545 20.0251 12.5007 20.7101Z" fill="#9CA1A1"/>
</svg>
