<svg width="24" height="24" viewBox="0 0 24 24" fill="none" xmlns="http://www.w3.org/2000/svg">
<path d="M23.0562 11.7826C23.3339 11.7641 23.5636 11.6577 23.7503 11.4588C23.937 11.2598 24.0184 11.0285 23.9992 10.7602C23.9801 10.4919 23.87 10.2699 23.6641 10.0894L13.3347 0.48111C12.9613 0.161912 12.5209 0 11.9992 0C11.4823 0 11.0371 0.161912 10.6637 0.48111L0.334262 10.0941C0.128438 10.2745 0.0183465 10.4965 -0.000799859 10.7648C-0.0199463 11.0332 0.0662125 11.2645 0.248103 11.4634C0.434781 11.6623 0.664537 11.7687 0.94216 11.7872C1.21978 11.8057 1.45911 11.7224 1.66494 11.5466L11.9992 1.93369L22.3335 11.542C22.5345 11.7224 22.7786 11.8011 23.0562 11.7826ZM19.9162 24C20.4715 24 20.9454 23.8103 21.3331 23.4356C21.7208 23.0609 21.917 22.6029 21.917 22.0663V14.6276C21.917 14.3593 21.8213 14.1326 21.6251 13.9429C21.4288 13.7533 21.1943 13.6608 20.9166 13.6608C20.639 13.6608 20.4045 13.7533 20.2082 13.9429C20.012 14.1326 19.9162 14.3593 19.9162 14.6276V22.0663H15.9434V15.6222C15.9434 15.0856 15.7471 14.6276 15.3594 14.2529C14.9717 13.8782 14.4978 13.6885 13.9426 13.6885H10.0558C9.5006 13.6885 9.02672 13.8782 8.63901 14.2529C8.2513 14.6276 8.05505 15.0856 8.05505 15.6222V22.0663H4.08217V14.6276C4.08217 14.3593 3.98644 14.1326 3.79019 13.9429C3.59394 13.7533 3.35939 13.6608 3.08177 13.6608C2.80415 13.6608 2.5696 13.7533 2.37335 13.9429C2.1771 14.1326 2.08137 14.3593 2.08137 14.6276V22.0663C2.08137 22.6029 2.27762 23.0609 2.66534 23.4356C3.05305 23.8103 3.52692 24 4.08217 24H19.9162ZM13.9426 22.0663H10.0558V15.6222H13.9426V22.0663Z" fill="#9CA1A1"/>
</svg>
