<svg width="20" height="21" viewBox="0 0 20 21" fill="none" xmlns="http://www.w3.org/2000/svg">
<g clip-path="url(#clip0_7017_11762)">
<path d="M15.3983 0.879975C15.8159 0.879975 16.1715 1.09356 16.4561 1.37262C16.4609 1.37734 16.4657 1.38214 16.4703 1.38702L18.7159 3.73901L18.7242 3.74788L18.728 3.75206C18.9955 4.04904 19.2 4.42107 19.2 4.85909C19.2 5.30156 18.9916 5.67099 18.7159 5.95981L16.956 7.80306C16.7224 8.0478 16.3435 8.0478 16.1099 7.80306L12.5902 4.11656C12.478 3.99903 12.4149 3.83963 12.4149 3.67342C12.4149 3.5072 12.478 3.3478 12.5902 3.23027L14.3482 1.38893L14.3491 1.38799C14.6236 1.09833 14.9757 0.879975 15.3983 0.879975Z" fill="white"/>
<path d="M11.7814 4.38491C11.9401 4.38491 12.0923 4.45094 12.2045 4.56847L15.7242 8.25496C15.9578 8.49971 15.9578 8.89651 15.7242 9.14126L5.34111 20.0164C5.22889 20.1339 5.0767 20.2 4.91801 20.2H1.39833C1.06788 20.2 0.799988 19.9194 0.799988 19.5733V15.8868C0.799988 15.7206 0.863028 15.5612 0.975239 15.4436L11.3583 4.56847C11.4705 4.45094 11.6227 4.38491 11.7814 4.38491Z" fill="white"/>
</g>
<defs>
<clipPath id="clip0_7017_11762">
<rect width="18.4" height="19.32" fill="white" transform="translate(0.799988 0.879975)"/>
</clipPath>
</defs>
</svg>
