<svg width="24" height="24" viewBox="0 0 24 24" fill="none" xmlns="http://www.w3.org/2000/svg">
<path d="M22.1546 24C23.1626 24 24 23.2224 24 22.2864V5.1408C24 4.2048 23.1626 3.4272 22.1546 3.4272H20.3093V2.1408C20.3093 0.96 19.2703 0 18.0039 0H17.0786C15.807 0 14.7732 0.9648 14.7732 2.1408V3.4272H9.23196V2.1408C9.23196 0.96 8.19298 0 6.92656 0H6.00129C4.7297 0 3.69072 0.9648 3.69072 2.1408V3.4272H1.84536C0.83739 3.4272 0 4.2048 0 5.1408V22.2816C0 23.2224 0.83739 24 1.84536 24H22.1546ZM6.92139 6.4272H5.99612C5.73767 6.4272 5.53608 6.24 5.53608 6V2.1408C5.53608 1.9008 5.73767 1.7136 5.99612 1.7136H6.92139C7.17984 1.7136 7.38143 1.9008 7.38143 2.1408V6C7.3866 6.24 7.18501 6.4272 6.92139 6.4272ZM17.9987 6.4272H17.0734C16.815 6.4272 16.6134 6.24 16.6134 6V2.1408C16.6134 1.9008 16.815 1.7136 17.0734 1.7136H17.9987C18.2572 1.7136 18.4588 1.9008 18.4588 2.1408V6C18.4588 6.24 18.2572 6.4272 17.9987 6.4272ZM22.1546 22.2864H1.84536V8.5728H22.1546V22.2864Z" fill="#9CA1A1"/>
</svg>
