<svg width="24" height="24" viewBox="0 0 24 24" fill="none" xmlns="http://www.w3.org/2000/svg">
<path fill-rule="evenodd" clip-rule="evenodd" d="M24 12C24 18.6274 18.6274 24 12 24C5.37258 24 0 18.6274 0 12C0 5.37258 5.37258 0 12 0C18.6274 0 24 5.37258 24 12ZM22.5881 12.0003C22.5881 17.8481 17.8476 22.5886 11.9999 22.5886C6.15214 22.5886 1.41162 17.8481 1.41162 12.0003C1.41162 6.15262 6.15214 1.41211 11.9999 1.41211C17.8476 1.41211 22.5881 6.15262 22.5881 12.0003Z" fill="#9CA1A1"/>
<mask id="mask0_7017_11777" style="mask-type:alpha" maskUnits="userSpaceOnUse" x="1" y="1" width="22" height="22">
<path d="M12 22.5885C17.8477 22.5885 22.5882 17.8479 22.5882 12.0002C22.5882 6.1525 17.8477 1.41199 12 1.41199C6.15226 1.41199 1.41174 6.1525 1.41174 12.0002C1.41174 17.8479 6.15226 22.5885 12 22.5885Z" fill="white"/>
</mask>
<g mask="url(#mask0_7017_11777)">
<mask id="mask1_7017_11777" style="mask-type:alpha" maskUnits="userSpaceOnUse" x="2" y="1" width="20" height="21">
<path d="M11.9998 21.5992C17.5225 21.5992 21.9996 17.1221 21.9996 11.5994C21.9996 6.07667 17.5225 1.59961 11.9998 1.59961C6.47706 1.59961 2 6.07667 2 11.5994C2 17.1221 6.47706 21.5992 11.9998 21.5992Z" fill="white"/>
</mask>
<g mask="url(#mask1_7017_11777)">
<path d="M12.1924 12.1918C14.8 12.1918 16.9115 10.1687 16.9115 7.67263C16.9115 5.17652 14.8 3.15349 12.1924 3.15349C9.58473 3.15349 7.47323 5.17652 7.47323 7.67263C7.47323 10.1687 9.58473 12.1918 12.1924 12.1918ZM17.5653 21.23C19.5191 21.23 20.846 20.0878 20.846 18.1801C20.846 15.5186 20.1961 11.4379 16.5923 11.4379C16.2115 11.4379 14.6 13.0725 12.1924 13.0725C9.78472 13.0725 8.17322 11.4379 7.79246 11.4379C4.18868 11.4379 3.5387 15.5225 3.5387 18.1801C3.5387 20.0878 4.86559 21.23 6.8194 21.23L12.1924 23.0002L17.5653 21.23Z" fill="#9CA1A1"/>
</g>
</g>
</svg>
