<svg width="301" height="328" viewBox="0 0 301 328" fill="none" xmlns="http://www.w3.org/2000/svg">
<defs>
<linearGradient id="paint0_linear_9236_37060" x1="0.500001" y1="208.506" x2="300.5" y2="208.506" gradientUnits="userSpaceOnUse">
<stop stop-color="#FCF58B"/>
<stop offset="0.995824" stop-color="#FCFAE0"/>
</linearGradient>
<linearGradient id="paint1_linear_9236_37060" x1="0.751709" y1="315.117" x2="300.248" y2="315.117" gradientUnits="userSpaceOnUse">
<stop stop-color="#FFB4B1"/>
<stop offset="0.995824" stop-color="#FC8B85"/>
</linearGradient>
<linearGradient id="paint2_linear_9236_37060" x1="24.9626" y1="243.72" x2="63.0017" y2="243.72" gradientUnits="userSpaceOnUse">
<stop stop-color="#FFB4B1"/>
<stop offset="0.995824" stop-color="#FC8B85"/>
</linearGradient>
<linearGradient id="paint3_linear_9236_37060" x1="159.823" y1="97.2426" x2="187.466" y2="94.6819" gradientUnits="userSpaceOnUse">
<stop stop-color="white"/>
<stop offset="0.995824" stop-color="#CCDFFF"/>
</linearGradient>
<linearGradient id="paint4_linear_9236_37060" x1="145.456" y1="162.163" x2="201.116" y2="157.007" gradientUnits="userSpaceOnUse">
<stop stop-color="white"/>
<stop offset="0.995824" stop-color="#CCDFFF"/>
</linearGradient>
<linearGradient id="paint5_linear_9236_37060" x1="186.221" y1="94.9493" x2="164.085" y2="94.9493" gradientUnits="userSpaceOnUse">
<stop stop-color="white"/>
<stop offset="0.995824" stop-color="#CCDFFF"/>
</linearGradient>
<linearGradient id="paint6_linear_9236_37060" x1="72.4117" y1="174.388" x2="29.1614" y2="174.388" gradientUnits="userSpaceOnUse">
<stop stop-color="#4DA78B"/>
<stop offset="0.995824" stop-color="#007994"/>
</linearGradient>
<linearGradient id="paint7_linear_9236_37060" x1="36.5886" y1="172.604" x2="100.99" y2="172.604" gradientUnits="userSpaceOnUse">
<stop stop-color="#4DA78B"/>
<stop offset="0.995824" stop-color="#007994"/>
</linearGradient>
<linearGradient id="paint8_linear_9236_37060" x1="169.249" y1="252.715" x2="169.249" y2="176.852" gradientUnits="userSpaceOnUse">
<stop stop-color="#FF8E8A"/>
<stop offset="0.995824" stop-color="#FC6058"/>
</linearGradient>
</defs>
<path d="M227.415 157.714C224.017 159.404 220.883 161.905 217.206 162.611C203.875 165.17 186.52 148.065 176.803 139.912C139.641 108.732 86.3789 93.2757 40.7758 110.401C29.2604 114.726 18.4613 123.021 13.3955 135.084C7.37396 149.422 10.3406 166.232 14.7085 181.264C18.9255 195.777 27.3568 214.337 22.6881 229.495C19.939 238.42 14.0305 244.65 9.78698 252.628C4.8414 261.926 1.70734 272.374 0.743798 283.072C0.352109 287.421 0.319871 291.892 1.50443 296.067C6.28037 312.899 31.3292 309.486 43.7967 310.09C69.3103 311.326 94.8567 311.838 120.39 312.295C171.556 313.212 222.732 313.558 273.904 313.679C279.583 313.692 285.262 313.704 290.941 313.704C290.941 313.704 307.096 306.668 297.403 289.076C287.71 271.486 268.327 250.378 278.014 239.823C295.928 220.304 296.309 183.237 275.147 164.911C263.842 155.123 240.775 151.183 227.575 157.635C227.521 157.661 227.468 157.687 227.415 157.714Z" fill="url(#paint0_linear_9236_37060)"/>
<path d="M293.241 302.971H7.7589C3.90485 302.971 0.751709 306.124 0.751709 309.978C0.751709 313.832 3.90485 316.985 7.7589 316.985H16.1798C15.7103 317.907 15.4397 318.945 15.4397 320.046V320.465C15.4397 324.204 18.4986 327.263 22.2375 327.263H279.589C283.328 327.263 286.387 324.204 286.387 320.465V320.046C286.387 318.945 286.116 317.907 285.647 316.985H293.241C297.095 316.985 300.248 313.832 300.248 309.978C300.248 306.124 297.095 302.971 293.241 302.971Z" fill="url(#paint1_linear_9236_37060)"/>
<path d="M238.499 309.737H100.607C91.8058 309.737 84.6711 302.602 84.6711 293.801V16.6733C84.6711 7.87219 91.8058 0.737488 100.607 0.737488H238.499C247.3 0.737488 254.434 7.87219 254.434 16.6733V293.801C254.434 302.602 247.3 309.737 238.499 309.737Z" fill="#00BBA9"/>
<path d="M243.444 12.6795H95.6616V287.346H243.444V12.6795Z" fill="white"/>
<path d="M86.3105 173.6L93.651 168.479C94.3574 168.133 102.997 165.757 103.758 165.957C106.168 166.593 103.76 169.361 101.734 172.525C100.272 174.807 93.9629 177.711 89.4413 178.592C88.5725 178.762 87.6803 178.588 87.1546 177.876L85.6835 175.883C84.9314 174.864 85.1735 174.158 86.3105 173.6Z" fill="#F5CAAA"/>
<path d="M91.9064 164.616L75.4828 169.649L58.2405 147.851C56.9044 145.021 54.2875 143.098 51.2766 143.098C46.9086 143.098 43.3677 147.145 43.3677 152.137C43.3677 154.532 44.1889 156.704 45.5198 158.321L45.2468 158.554C45.2468 158.554 69.3541 189.422 77.263 186.032C85.1719 182.642 97.6002 166.825 97.6002 166.825L91.9064 164.616Z" fill="#007994"/>
<path d="M64.3232 263.342L55.3745 265.9C55.3745 265.9 52.906 268.706 56.7739 283.819C60.4479 298.174 63.6801 313.989 63.6801 313.989C63.6801 313.989 70.014 318.065 70.2718 315.529C70.5407 312.884 64.3232 263.342 64.3232 263.342Z" fill="#F5CAAA"/>
<path d="M64.8036 200.056L69.323 300.249L60.3124 303.224L35.4587 197.33L64.8036 200.056Z" fill="#FC8B85"/>
<path d="M62.0822 309.696C61.2827 312.467 62.2497 317.113 62.2497 317.113L86.3803 316.602L87.2223 313.64L69.576 308.827L62.0822 309.696Z" fill="#002A54"/>
<path d="M41.8166 261.378L32.5235 260.864C32.5235 260.864 29.2723 262.705 27.976 278.252C26.7448 293.019 24.6179 309.02 24.6179 309.02C24.6179 309.02 29.2674 314.945 30.3415 312.634C31.4621 310.223 41.8166 261.378 41.8166 261.378Z" fill="#F5CAAA"/>
<path d="M63.0017 201.741L34.4505 297.887L24.9626 297.745L36.1688 189.553L63.0017 201.741Z" fill="url(#paint2_linear_9236_37060)"/>
<path d="M24.5148 304.44C22.8515 306.797 22.2432 311.503 22.2432 311.503L45.2098 318.925L46.9756 316.402L31.8797 306.074L24.5148 304.44Z" fill="#002A54"/>
<path d="M53.2378 134.494L55.793 147.2H43.7935L46.6679 129.91L53.2378 134.494Z" fill="#F5CAAA"/>
<path d="M54.9621 138.508C60.6311 135.918 62.3538 127.53 58.8099 119.773C55.2659 112.015 47.7974 107.826 42.1284 110.415C36.4594 113.005 34.7367 121.393 38.2806 129.151C41.8245 136.909 49.2931 141.098 54.9621 138.508Z" fill="#F5CAAA"/>
<path d="M43.8884 108.275C40.8054 109.684 31.7148 114.768 33.5041 121.404C35.2933 128.04 44.5683 137.466 44.5683 137.466L46.3504 124.541L48.372 118.089C48.372 118.089 57.6173 114.798 58.638 111.164C59.6586 107.53 56.1305 103.304 52.623 103.353C49.1156 103.403 43.8884 108.275 43.8884 108.275Z" fill="#002A54"/>
<path d="M46.1097 131.786C47.6234 131.094 48.1497 129 47.2853 127.108C46.421 125.216 44.4932 124.242 42.9795 124.934C41.4658 125.625 40.9395 127.72 41.8039 129.612C42.6682 131.504 44.596 132.477 46.1097 131.786Z" fill="#F5CAAA"/>
<path d="M224.23 149.877H114.876C108.906 149.877 104.022 144.993 104.022 139.023V33.0585C104.022 27.0888 108.906 22.2045 114.876 22.2045H224.23C230.199 22.2045 235.084 27.0888 235.084 33.0585V139.023C235.084 144.993 230.199 149.877 224.23 149.877Z" fill="#54D1C5"/>
<path d="M146.033 37.494H114.628C114.077 37.494 113.627 37.0436 113.627 36.4931V35.646C113.627 35.0954 114.077 34.645 114.628 34.645L146.033 34.645C146.584 34.645 147.034 35.0954 147.034 35.646V36.4931C147.034 37.0436 146.584 37.494 146.033 37.494Z" fill="white"/>
<path d="M137.431 45.0913H114.487C114.014 45.0913 113.627 44.7043 113.627 44.2313V43.1023C113.627 42.6293 114.014 42.2423 114.487 42.2423H137.431C137.904 42.2423 138.291 42.6293 138.291 43.1023V44.2313C138.291 44.7043 137.904 45.0913 137.431 45.0913Z" fill="white"/>
<path d="M173.433 167.575H115.474C114.458 167.575 113.627 166.744 113.627 165.728V164.165C113.627 163.149 114.458 162.317 115.474 162.317H173.433C174.449 162.317 175.281 163.149 175.281 164.165V165.728C175.281 166.744 174.449 167.575 173.433 167.575Z" fill="#54D1C5"/>
<path d="M157.558 178.207H115.214C114.341 178.207 113.627 177.492 113.627 176.619V174.536C113.627 173.663 114.341 172.949 115.214 172.949H157.558C158.431 172.949 159.145 173.663 159.145 174.536V176.619C159.145 177.492 158.431 178.207 157.558 178.207Z" fill="#54D1C5"/>
<path d="M170.037 63.7403C175.62 63.2232 179.572 56.6112 178.864 48.972C178.156 41.3328 173.057 35.5593 167.475 36.0764C161.892 36.5935 157.94 43.2055 158.648 50.8447C159.356 58.4839 164.455 64.2574 170.037 63.7403Z" fill="#F5CAAA"/>
<path d="M158.433 48.8301C158.288 50.6528 156.574 49.0204 155.882 47.9156C155.468 47.2563 155.431 46.4283 155.518 45.6552C155.999 41.3876 156.741 38.2193 160.251 35.3928C162.678 33.4381 165.476 32.5808 168.584 32.8072C176.328 33.3712 181.613 38.584 181.114 46.5027C180.96 48.9359 180.437 51.3232 179.867 53.6873C179.456 55.3919 178.129 58.0763 178.923 59.7446C180.057 62.1241 184.011 61.8757 186.169 61.7569C194.8 61.2818 200.447 60.5021 199.198 66.8702C197.949 73.2383 201.686 79.3988 194.898 78.3053C188.111 77.2117 177.996 77.1167 176.818 66.2685C175.931 58.1057 175.688 48.191 168.909 41.4119C168.632 41.1347 162.601 43.9785 162.116 44.2107C161.262 44.6201 160.357 44.9773 159.597 45.5533C159.214 45.8427 158.834 46.1794 158.61 46.6121C158.61 46.6121 158.435 48.8109 158.433 48.8301Z" fill="#002A54"/>
<path d="M180.84 239.435C178.811 241.324 172.26 247.659 172.26 247.659C172.26 247.659 175.278 248.988 179.478 246.398C183.679 243.807 187.64 240.056 187.64 240.056L188.305 243.86L190.118 243.61C190.118 243.61 190.818 236.99 190.193 235.873C187.817 231.626 185.999 235.976 185.999 235.976L180.84 239.435Z" fill="#002A54"/>
<path d="M176.292 244.17C175.84 244.732 179.642 242.499 181.381 241.424C185.57 238.835 188.221 234.659 188.221 234.659L187.096 232.39L182.081 234.804L176.292 244.17Z" fill="#F5CAAA"/>
<path d="M177.824 190.416L186.181 190.928C186.181 190.928 188.893 192.913 188.426 206.939C187.983 220.261 188.211 234.779 188.211 234.779C188.211 234.779 183.438 239.587 182.72 237.41C181.97 235.138 177.824 190.416 177.824 190.416Z" fill="#F5CAAA"/>
<path d="M165.129 134.92L181.004 226.38L189.081 224.67L187.56 131.869L165.129 134.92Z" fill="#FC8B85"/>
<path d="M164.307 234.643C162.101 236.323 154.958 241.981 154.958 241.981C154.958 241.981 157.829 243.602 162.265 241.438C166.7 239.274 171.012 235.932 171.012 235.932L171.299 239.783L173.127 239.713C173.127 239.713 174.476 233.195 173.965 232.021C172.02 227.56 169.782 231.71 169.782 231.71L164.307 234.643Z" fill="#002A54"/>
<path d="M159.313 238.907C158.809 239.421 162.812 237.574 164.649 236.676C169.073 234.513 172.122 230.619 172.122 230.619L171.227 228.249L165.998 230.157L159.313 238.907Z" fill="#F5CAAA"/>
<path d="M166.141 185.566L174.406 186.9C174.406 186.9 176.909 189.143 175.061 203.054C173.306 216.267 172.101 230.737 172.101 230.737C172.101 230.737 166.877 235.051 166.377 232.813C165.855 230.479 166.141 185.566 166.141 185.566Z" fill="#F5CAAA"/>
<path d="M158.982 129.088L165.758 221.668L173.964 220.763L181.604 128.265L158.982 129.088Z" fill="#FC8B85"/>
<path d="M169.981 60.4009L168.747 71.9942L179.495 70.9985L173.894 50.4598L169.981 60.4009Z" fill="#F5CAAA"/>
<path d="M176.195 56.7922C177.685 56.6541 178.754 55.0318 178.581 53.1685C178.408 51.3053 177.06 49.9068 175.57 50.0449C174.079 50.183 173.011 51.8054 173.183 53.6686C173.356 55.5318 174.704 56.9303 176.195 56.7922Z" fill="#F5CAAA"/>
<path d="M168.978 69.1154C169.362 68.8563 169.763 68.6551 170.183 68.522C173.324 67.5252 177.431 67.8009 180.756 67.1758C180.756 67.1758 184.012 71.6308 185.815 79.9761C187.617 88.3215 188.459 119.538 188.459 119.538C188.459 119.538 179.959 124.333 170.641 124.213C161.324 124.093 161.959 119.953 161.959 119.951C162.486 116.522 161.476 112.205 161.264 108.76C160.875 102.47 160.47 96.1811 160.055 89.8926C159.974 88.6725 159.895 87.4316 160.169 86.2397C160.371 85.3593 160.76 84.5346 161.145 83.7177C163.134 79.5073 165.273 71.6149 168.978 69.1154Z" fill="url(#paint3_linear_9236_37060)"/>
<path d="M186.704 113.174C186.704 113.174 193.418 139.714 196.965 156.116C200.512 172.518 204.598 194.594 204.598 194.594C204.598 194.594 176.023 208.547 165.798 206.903C155.572 205.26 148.929 199.656 148.929 199.656L161.549 113.662L186.704 113.174Z" fill="url(#paint4_linear_9236_37060)"/>
<path d="M165.476 120.549L145.818 124.279C143.89 124.645 142.03 123.378 141.664 121.45L135.618 89.5812C135.252 87.6531 136.518 85.7935 138.446 85.4277L158.105 81.6978C160.033 81.3319 161.893 82.5984 162.259 84.5265L168.305 116.396C168.671 118.324 167.405 120.183 165.476 120.549Z" fill="#002A54"/>
<path d="M156.717 96.4892L149.493 92.935C148.818 92.723 140.813 91.7862 140.163 92.068C138.106 92.961 140.625 95.0947 142.857 97.6325C144.467 99.4625 150.472 101.186 154.613 101.355C155.408 101.387 156.178 101.111 156.549 100.406L157.585 98.434C158.116 97.4256 157.804 96.8304 156.717 96.4892Z" fill="#F5CAAA"/>
<path d="M156.092 96.9803C156.922 96.3931 156.266 94.9404 153.83 92.6422C151.395 90.3439 149.705 90.2951 149.705 90.2951C149.705 90.2951 149.149 90.6888 149.736 91.5183C150.323 92.3478 152.771 95.8066 152.771 95.8066L156.092 96.9803Z" fill="#F5CAAA"/>
<path d="M151.576 81.3789L143.806 82.8531L144.438 86.1833L152.208 84.709L151.576 81.3789Z" fill="white"/>
<path d="M170.039 66.2685L166.649 71.9177L165.52 78.6968L179.078 67.3983L175.882 61.227L170.037 63.7403L170.039 66.2685Z" fill="#F5CAAA"/>
<path d="M163.405 85.9774C162.868 85.5914 166.065 77.1496 169.329 73.2649C172.594 69.3802 181.106 66.2531 181.106 66.2531L183.016 69.4355L175.967 74.6815L172.406 73.0053L173.972 77.3588L163.405 85.9774Z" fill="#86A2D2"/>
<path d="M168.978 67.9855L163.405 84.8475C163.405 84.8475 163.151 77.5669 163.205 77.5669C163.26 77.5669 166.649 70.7878 166.649 70.7878L168.978 67.9855Z" fill="#86A2D2"/>
<path d="M189.837 81.156C189.973 79.2768 189.447 77.2555 188.202 75.4967C185.608 71.8315 180.905 70.7006 177.698 72.9706C175.488 74.5354 174.566 77.3077 175.055 80.0797L173.724 105.045L156.982 96.4076L153.949 100.988C153.949 100.988 173.363 119.62 180.932 117.999C188.5 116.377 190.158 81.1852 190.158 81.1852L189.837 81.156Z" fill="url(#paint5_linear_9236_37060)"/>
<path d="M130.201 115.108L132.152 119.061L136.514 119.695L133.358 122.772L134.103 127.117L130.201 125.065L126.299 127.117L127.044 122.772L123.887 119.695L128.25 119.061L130.201 115.108Z" fill="#FDEE00"/>
<path d="M149.877 115.108L151.828 119.061L156.19 119.695L153.034 122.772L153.779 127.117L149.877 125.065L145.975 127.117L146.72 122.772L143.563 119.695L147.926 119.061L149.877 115.108Z" fill="#FDEE00"/>
<path d="M169.553 115.108L171.504 119.061L175.866 119.695L172.709 122.772L173.455 127.117L169.553 125.065L165.651 127.117L166.396 122.772L163.239 119.695L167.602 119.061L169.553 115.108Z" fill="#FDEE00"/>
<path d="M189.228 115.108L191.179 119.061L195.542 119.695L192.385 122.772L193.13 127.117L189.228 125.065L185.327 127.117L186.072 122.772L182.915 119.695L187.277 119.061L189.228 115.108Z" fill="#FDEE00"/>
<path d="M208.904 115.108L210.855 119.061L215.218 119.695L212.061 122.772L212.806 127.117L208.904 125.065L205.003 127.117L205.748 122.772L202.591 119.695L206.954 119.061L208.904 115.108Z" fill="#FDEE00"/>
<path d="M55.796 143.098C53.538 144.227 42.0226 143.1 42.0057 143.098C39.5187 142.854 33.0965 160.007 32.4433 162.272C31.5306 165.436 27.9728 205.107 29.5669 205.198C29.5671 205.198 48.7488 206.286 59.0515 205.198C69.3542 204.11 72.4117 201.469 72.4117 201.469L61.8156 161.79L55.796 143.098Z" fill="url(#paint6_linear_9236_37060)"/>
<path d="M85.2065 192.289L80.4954 189.992C80.4954 189.992 107.724 139.127 107.675 134.244C107.626 129.361 112.386 136.541 112.386 136.541L85.2065 192.289Z" fill="#002A54"/>
<path d="M84.4214 191.906L89.1325 194.203C89.1325 194.203 112.435 141.424 116.312 138.455C120.189 135.486 111.601 136.158 111.601 136.158L84.4214 191.906Z" fill="#002A54"/>
<path d="M131.109 141.205C155.444 141.205 175.173 121.477 175.173 97.1414C175.173 72.8055 155.444 53.0775 131.109 53.0775C106.773 53.0775 87.0447 72.8055 87.0447 97.1414C87.0447 121.477 106.773 141.205 131.109 141.205Z" stroke="#002A54" stroke-width="7.90891" stroke-miterlimit="10"/>
<path opacity="0.5" d="M131.109 141.205C155.444 141.205 175.173 121.477 175.173 97.1414C175.173 72.8055 155.444 53.0775 131.109 53.0775C106.773 53.0775 87.0447 72.8055 87.0447 97.1414C87.0447 121.477 106.773 141.205 131.109 141.205Z" fill="#A7DAE3" stroke="#002A54" stroke-width="7.90891" stroke-miterlimit="10"/>
<path d="M101.499 83.016C109.043 67.5425 127.702 61.1143 143.175 68.6582" stroke="white" stroke-width="5.59455" stroke-miterlimit="10" stroke-linecap="round" stroke-linejoin="round"/>
<path d="M95.2449 162.864L100.394 155.544C100.94 154.977 108.248 149.793 109.032 149.721C111.514 149.495 110.197 152.919 109.373 156.585C108.779 159.229 103.841 164.114 99.8929 166.487C99.1342 166.943 98.2364 167.085 97.499 166.595L95.4356 165.224C94.3806 164.524 94.3668 163.777 95.2449 162.864Z" fill="#F5CAAA"/>
<path d="M95.296 163.486L68.7038 177.558L51.4614 155.76C50.1253 152.93 47.5084 151.007 44.4976 151.007C40.1296 151.007 36.5886 155.054 36.5886 160.046C36.5886 162.441 37.4098 164.613 38.7407 166.23L38.4678 166.463C38.4678 166.463 62.575 197.33 70.4839 193.941C78.3929 190.551 100.99 165.695 100.99 165.695L95.296 163.486Z" fill="url(#paint7_linear_9236_37060)"/>
<path d="M223.508 186.032H114.989C108.957 186.032 104.022 190.967 104.022 196.999V264.322C104.022 270.354 108.957 275.29 114.989 275.29H223.508C229.54 275.29 234.475 270.354 234.475 264.322V196.999C234.475 190.967 229.54 186.032 223.508 186.032Z" fill="url(#paint8_linear_9236_37060)"/>
<path d="M121.11 214.329C126.798 214.329 131.409 209.718 131.409 204.03C131.409 198.342 126.798 193.731 121.11 193.731C115.422 193.731 110.811 198.342 110.811 204.03C110.811 209.718 115.422 214.329 121.11 214.329Z" fill="white"/>
<path d="M121.338 206.591C123.851 206.591 125.889 204.554 125.889 202.04C125.889 199.526 123.851 197.488 121.338 197.488C118.824 197.488 116.786 199.526 116.786 202.04C116.786 204.554 118.824 206.591 121.338 206.591Z" fill="#002A54"/>
<path d="M129.758 214.329C129.758 210.707 127.529 207.609 124.37 206.322C123.564 207.047 122.508 207.502 121.338 207.502C120.102 207.502 118.985 207.005 118.165 206.206C114.841 207.412 112.462 210.589 112.462 214.329H129.758Z" fill="#002A54"/>
<path d="M214.565 213.744H140.575C139.681 213.744 138.949 213.012 138.949 212.117C138.949 211.223 139.681 210.491 140.575 210.491H214.565C215.46 210.491 216.191 211.223 216.191 212.117C216.191 213.012 215.46 213.744 214.565 213.744Z" fill="white"/>
<path d="M179.943 222.416H140.151C139.49 222.416 138.949 221.876 138.949 221.215V220.366C138.949 219.705 139.49 219.164 140.151 219.164H179.943C180.604 219.164 181.145 219.705 181.145 220.366V221.215C181.145 221.876 180.604 222.416 179.943 222.416Z" fill="white"/>
<path d="M213.886 228.394H138.949V269.701H213.886V228.394Z" fill="#A7DAE3"/>
<path d="M161.862 240.99H148.275V269.701H161.862V240.99Z" fill="white"/>
<path d="M158.401 243.554H151.736V267.65H158.401V243.554Z" fill="#00BBA9"/>
<path d="M154.556 243.81H151.929V248.424H154.556V243.81Z" fill="#4D4D4D"/>
<path d="M154.3 244.066V248.168H152.185V244.066H154.3ZM154.812 243.554H151.672V248.681H154.812V243.554Z" fill="white"/>
<path d="M158.209 243.81H155.582V248.424H158.209V243.81Z" fill="#4D4D4D"/>
<path d="M157.953 244.066V248.168H155.838V244.066H157.953ZM158.466 243.554H155.325V248.681H158.466V243.554Z" fill="white"/>
<path d="M154.556 252.27H151.929V256.884H154.556V252.27Z" fill="#4D4D4D"/>
<path d="M154.3 252.526V256.627H152.185V252.526H154.3ZM154.812 252.013H151.672V257.14H154.812V252.013Z" fill="white"/>
<path d="M158.209 252.27H155.582V256.884H158.209V252.27Z" fill="#4D4D4D"/>
<path d="M157.953 252.526V256.627H155.838V252.526H157.953ZM158.466 252.013H155.325V257.14H158.466V252.013Z" fill="white"/>
<path d="M154.556 260.729H151.929V265.343H154.556V260.729Z" fill="#4D4D4D"/>
<path d="M154.3 260.985V265.087H152.185V260.985H154.3ZM154.812 260.473H151.672V265.6H154.812V260.473Z" fill="white"/>
<path d="M158.209 260.729H155.582V265.343H158.209V260.729Z" fill="#4D4D4D"/>
<path d="M157.953 260.985V265.087H155.838V260.985H157.953ZM158.466 260.473H155.325V265.6H158.466V260.473Z" fill="white"/>
<path d="M190.973 269.701L204.56 269.701L204.56 240.99L190.973 240.99L190.973 269.701Z" fill="white"/>
<path d="M194.434 267.651L201.099 267.651L201.099 243.554L194.434 243.554L194.434 267.651Z" fill="#00BBA9"/>
<path d="M200.906 243.81H198.279V248.424H200.906V243.81Z" fill="#4D4D4D"/>
<path d="M200.651 244.066V248.168H198.536V244.066H200.651ZM201.163 243.554H198.023V248.681H201.163V243.554Z" fill="white"/>
<path d="M197.253 243.81H194.626V248.424H197.253V243.81Z" fill="#4D4D4D"/>
<path d="M196.997 244.066V248.168H194.883V244.066H196.997ZM197.51 243.554H194.37V248.681H197.51V243.554Z" fill="white"/>
<path d="M200.906 252.27H198.279V256.884H200.906V252.27Z" fill="#4D4D4D"/>
<path d="M200.651 252.526V256.627H198.536V252.526H200.651ZM201.163 252.013H198.023V257.14H201.163V252.013Z" fill="white"/>
<path d="M197.253 252.27H194.626V256.884H197.253V252.27Z" fill="#4D4D4D"/>
<path d="M196.997 252.526V256.627H194.883V252.526H196.997ZM197.51 252.013H194.37V257.14H197.51V252.013Z" fill="white"/>
<path d="M200.906 260.729H198.279V265.343H200.906V260.729Z" fill="#4D4D4D"/>
<path d="M200.651 260.985V265.087H198.536V260.985H200.651ZM201.163 260.473H198.023V265.6H201.163V260.473Z" fill="white"/>
<path d="M197.253 260.729H194.626V265.343H197.253V260.729Z" fill="#4D4D4D"/>
<path d="M196.997 260.985V265.087H194.883V260.985H196.997ZM197.51 260.473H194.37V265.6H197.51V260.473Z" fill="white"/>
<path d="M190.962 233.3H161.738V269.701H190.962V233.3Z" fill="#00BBA9"/>
<path d="M187.117 238.17H165.84V255.602H187.117V238.17Z" fill="white"/>
<path d="M187.117 242.785H165.84V243.81H187.117V242.785Z" fill="#999999"/>
<path d="M171.287 244.835H168.147V252.27H171.287V244.835Z" fill="#4D4D4D"/>
<path d="M175.709 244.835H172.569V252.27H175.709V244.835Z" fill="#4D4D4D"/>
<path d="M180.131 244.835H176.991V252.27H180.131V244.835Z" fill="#4D4D4D"/>
<path d="M187.402 244.835H184.262V252.27H187.402V244.835Z" fill="#4D4D4D"/>
<path d="M190.962 249.415H161.738V255.568H190.962V249.415Z" fill="white"/>
<path d="M176.222 258.806H170.582V269.317H176.222V258.806Z" fill="#4D4D4D"/>
<path d="M175.837 259.191V268.932H170.967V259.191H175.837ZM176.606 258.422H170.198V269.701H176.606V258.422Z" fill="white"/>
<path d="M175.581 263.036H174.812V265.087H175.581V263.036Z" fill="white"/>
<path d="M182.118 258.806H176.478V269.317H182.118V258.806Z" fill="#4D4D4D"/>
<path d="M181.733 259.191V268.932H176.863V259.191H181.733ZM182.502 258.422H176.094V269.701H182.502V258.422Z" fill="white"/>
<path d="M177.888 263.036H177.119V265.087H177.888V263.036Z" fill="#4D4D4D"/>
<path d="M177.888 263.036H177.119V265.087H177.888V263.036Z" fill="white"/>
<path d="M171.979 253.634C171.086 253.634 170.605 252.971 170.605 252.271C170.605 251.543 171.118 250.851 171.993 250.851C172.563 250.851 172.95 251.181 172.95 251.375C172.95 251.497 172.847 251.597 172.731 251.597C172.667 251.597 172.603 251.568 172.549 251.5C172.409 251.328 172.184 251.246 171.957 251.246C171.352 251.246 171.028 251.762 171.028 252.246C171.028 252.547 171.204 253.222 171.961 253.222C172.233 253.222 172.502 253.118 172.649 252.92C172.699 252.852 172.761 252.827 172.825 252.827C172.947 252.827 173.065 252.935 173.065 253.057C173.065 253.243 172.639 253.634 171.979 253.634Z" fill="#00BBA9"/>
<path d="M173.509 251.095C173.509 250.955 173.609 250.884 173.709 250.884C173.81 250.884 173.914 250.955 173.914 251.103C173.914 251.106 173.914 251.113 173.914 251.117C173.903 251.346 173.893 252.103 173.893 252.601C173.893 252.806 173.896 252.967 173.899 253.028C173.914 253.2 173.993 253.2 174.48 253.2C174.688 253.2 174.918 253.196 174.986 253.193C174.993 253.193 174.997 253.193 175.004 253.193C175.126 253.193 175.197 253.286 175.197 253.383C175.197 253.479 175.126 253.58 174.972 253.587C174.925 253.591 174.714 253.594 174.502 253.594C174.294 253.594 174.082 253.591 174.036 253.587C173.706 253.562 173.509 253.444 173.498 253.128C173.494 253.053 173.494 252.938 173.494 252.806C173.494 252.314 173.509 251.529 173.509 251.174C173.509 251.146 173.509 251.12 173.509 251.099V251.095Z" fill="#00BBA9"/>
<path d="M176.053 253.408C176.053 253.534 175.945 253.598 175.837 253.598C175.729 253.598 175.622 253.534 175.622 253.408V253.404C175.629 252.974 175.641 252.494 175.641 252.031C175.641 251.69 175.633 251.364 175.622 251.074C175.615 250.923 175.776 250.884 175.841 250.884C175.945 250.884 176.053 250.941 176.053 251.059C176.053 251.063 176.053 251.063 176.053 251.066C176.045 251.364 176.042 251.701 176.042 252.049C176.042 252.497 176.045 252.963 176.053 253.404V253.408Z" fill="#00BBA9"/>
<path d="M176.685 253.426C176.691 253.057 176.695 252.623 176.695 252.21C176.695 251.852 176.691 251.511 176.688 251.242C176.688 251.239 176.688 251.231 176.688 251.228C176.688 250.977 176.828 250.876 176.986 250.876C177.118 250.876 177.262 250.952 177.337 251.07C177.563 251.429 178.162 252.547 178.435 252.956C178.456 252.988 178.474 253.006 178.484 253.006C178.495 253.006 178.51 252.996 178.51 252.856C178.51 252.519 178.499 251.4 178.488 251.07C178.484 250.952 178.582 250.876 178.696 250.876C178.801 250.876 178.904 250.941 178.904 251.063C178.904 251.066 178.904 251.066 178.904 251.07C178.897 251.321 178.894 251.669 178.894 252.027C178.894 252.483 178.897 252.953 178.904 253.265C178.904 253.268 178.904 253.271 178.904 253.271C178.904 253.487 178.746 253.612 178.578 253.612C178.463 253.612 178.349 253.555 178.27 253.433C178.019 253.035 177.348 251.809 177.154 251.482C177.14 251.461 177.115 251.414 177.097 251.414C177.075 251.414 177.075 251.45 177.075 251.615C177.075 251.988 177.086 253.046 177.097 253.426C177.097 253.43 177.097 253.43 177.097 253.433C177.097 253.548 176.997 253.602 176.893 253.602C176.789 253.602 176.685 253.544 176.685 253.43V253.426Z" fill="#00BBA9"/>
<path d="M179.969 253.408C179.969 253.534 179.861 253.598 179.753 253.598C179.645 253.598 179.538 253.534 179.538 253.408V253.404C179.545 252.974 179.557 252.494 179.557 252.031C179.557 251.69 179.549 251.364 179.538 251.074C179.531 250.923 179.692 250.884 179.757 250.884C179.861 250.884 179.969 250.941 179.969 251.059C179.969 251.063 179.969 251.063 179.969 251.066C179.961 251.364 179.958 251.701 179.958 252.049C179.958 252.497 179.961 252.963 179.969 253.404V253.408Z" fill="#00BBA9"/>
<path d="M181.855 253.634C180.963 253.634 180.482 252.971 180.482 252.271C180.482 251.543 180.995 250.851 181.87 250.851C182.44 250.851 182.827 251.181 182.827 251.375C182.827 251.497 182.724 251.597 182.608 251.597C182.544 251.597 182.479 251.568 182.426 251.5C182.286 251.328 182.061 251.246 181.834 251.246C181.229 251.246 180.905 251.762 180.905 252.246C180.905 252.547 181.081 253.222 181.838 253.222C182.11 253.222 182.379 253.118 182.526 252.92C182.576 252.852 182.638 252.827 182.702 252.827C182.824 252.827 182.942 252.935 182.942 253.057C182.942 253.243 182.516 253.634 181.855 253.634Z" fill="#00BBA9"/>
<path d="M143.831 193.731L145.669 197.455L149.778 198.052L146.805 200.951L147.507 205.043L143.831 203.111L140.155 205.043L140.857 200.951L137.884 198.052L141.993 197.455L143.831 193.731Z" fill="#FDEE00"/>
<path d="M161.982 193.731L163.819 197.455L167.929 198.052L164.955 200.951L165.657 205.043L161.982 203.111L158.306 205.043L159.008 200.951L156.034 198.052L160.144 197.455L161.982 193.731Z" fill="#FDEE00"/>
<path d="M180.132 193.731L181.97 197.455L186.08 198.052L183.106 200.951L183.808 205.043L180.132 203.111L176.457 205.043L177.159 200.951L174.185 198.052L178.295 197.455L180.132 193.731Z" fill="#FDEE00"/>
<path d="M198.283 193.731L200.121 197.455L204.23 198.052L201.257 200.951L201.959 205.043L198.283 203.111L194.607 205.043L195.309 200.951L192.336 198.052L196.445 197.455L198.283 193.731Z" fill="#FDEE00"/>
<path d="M214.596 197.455L210.486 198.052L213.46 200.95L212.758 205.043L216.434 203.111V193.731L214.596 197.455Z" fill="#FDEE00"/>
<path d="M222.381 198.052L218.271 197.455L216.434 193.731V203.111L220.109 205.043L219.407 200.95L222.381 198.052Z" fill="#002A54"/>

</svg>
