<svg width="301" height="304" viewBox="0 0 301 304" fill="none" xmlns="http://www.w3.org/2000/svg">
<defs>
<linearGradient id="paint0_linear_9236_37400" x1="0.500001" y1="124.584" x2="300.5" y2="124.584" gradientUnits="userSpaceOnUse">
<stop stop-color="#FCF58B"/>
<stop offset="0.995824" stop-color="#FCFAE0"/>
</linearGradient>
<linearGradient id="paint1_linear_9236_37400" x1="0.751709" y1="231.194" x2="300.248" y2="231.194" gradientUnits="userSpaceOnUse">
<stop stop-color="#FFB4B1"/>
<stop offset="0.995824" stop-color="#FC8B85"/>
</linearGradient>
<linearGradient id="paint2_linear_9236_37400" x1="186.297" y1="47.1034" x2="186.297" y2="18.5547" gradientUnits="userSpaceOnUse">
<stop stop-color="#FF8E8A"/>
<stop offset="0.995824" stop-color="#FC6058"/>
</linearGradient>
<linearGradient id="paint3_linear_9236_37400" x1="103.546" y1="55.7196" x2="87.8724" y2="2.02086" gradientUnits="userSpaceOnUse">
<stop stop-color="#FF8E8A"/>
<stop offset="0.995824" stop-color="#FC6058"/>
</linearGradient>
<linearGradient id="paint4_linear_9236_37400" x1="97.1388" y1="31.8515" x2="86.5465" y2="25.3209" gradientUnits="userSpaceOnUse">
<stop stop-color="white"/>
<stop offset="0.995824" stop-color="white"/>
</linearGradient>
<linearGradient id="paint5_linear_9236_37400" x1="95.3" y1="48.4532" x2="98.7344" y2="36.4928" gradientUnits="userSpaceOnUse">
<stop stop-color="white"/>
<stop offset="0.995824" stop-color="white"/>
</linearGradient>
<linearGradient id="paint6_linear_9236_37400" x1="286.646" y1="58.3615" x2="222.925" y2="58.3615" gradientUnits="userSpaceOnUse">
<stop offset="0.0041756" stop-color="#A7DAE3"/>
<stop offset="1" stop-color="#A7DAE3"/>
</linearGradient>
<linearGradient id="paint7_linear_9236_37400" x1="9.19691" y1="103.06" x2="70.846" y2="103.06" gradientUnits="userSpaceOnUse">
<stop offset="0.0041756" stop-color="#A7DAE3"/>
<stop offset="1" stop-color="#A7DAE3"/>
</linearGradient>
<linearGradient id="paint8_linear_9236_37400" x1="116.315" y1="183.367" x2="204.497" y2="183.367" gradientUnits="userSpaceOnUse">
<stop offset="0.0041756" stop-color="#A7DAE3"/>
<stop offset="1" stop-color="#A7DAE3"/>
</linearGradient>
<linearGradient id="paint9_linear_9236_37400" x1="116.315" y1="210.888" x2="204.497" y2="210.888" gradientUnits="userSpaceOnUse">
<stop offset="0.0041756" stop-color="#A7DAE3"/>
<stop offset="1" stop-color="#A7DAE3"/>
</linearGradient>
</defs>
<path d="M227.415 73.7912C224.017 75.4818 220.883 77.9827 217.206 78.6886C203.875 81.2473 186.52 64.1423 176.803 55.9892C139.641 24.8092 86.3789 9.35311 40.7758 26.4787C29.2604 30.8031 18.4613 39.0988 13.3955 51.1614C7.37396 65.4996 10.3406 82.3098 14.7085 97.3415C18.9255 111.854 27.3568 130.414 22.6881 145.572C19.939 154.497 14.0305 160.727 9.78698 168.705C4.8414 178.003 1.70734 188.452 0.743798 199.149C0.352109 203.498 0.319871 207.969 1.50443 212.144C6.28037 228.977 31.3292 225.563 43.7967 226.167C69.3103 227.403 94.8567 227.916 120.39 228.373C171.556 229.289 222.732 229.636 273.904 229.756C279.583 229.77 285.262 229.782 290.941 229.782C290.941 229.782 307.096 222.745 297.403 205.154C287.71 187.564 268.327 166.456 278.014 155.9C295.928 136.382 296.309 99.3141 275.147 80.9888C263.842 71.1999 240.775 67.2599 227.575 73.7122C227.521 73.7383 227.468 73.7646 227.415 73.7912Z" fill="url(#paint0_linear_9236_37400)"/>
<path d="M293.241 219.048H7.7589C3.90485 219.048 0.751709 222.201 0.751709 226.055C0.751709 229.909 3.90485 233.063 7.7589 233.063H16.1798C15.7103 233.985 15.4397 235.023 15.4397 236.123V236.542C15.4397 240.281 18.4986 243.34 22.2375 243.34H279.589C283.328 243.34 286.387 240.281 286.387 236.542V236.123C286.387 235.023 286.116 233.985 285.647 233.063H293.241C297.095 233.063 300.248 229.909 300.248 226.055C300.248 222.201 297.095 219.048 293.241 219.048Z" fill="url(#paint1_linear_9236_37400)"/>
<path d="M28.6321 256.936C33.6083 252.059 38.5845 247.183 43.5607 242.307C51.0769 234.941 58.9406 226.969 61.2008 216.691C62.8523 209.181 61.2738 201.346 61.9052 193.682C62.6831 184.239 66.7614 175.443 69.9892 166.534C76.0197 149.891 79.2078 132.223 79.3744 114.522C79.3898 112.882 79.3905 111.188 80.0484 109.686C81.4813 106.416 85.7614 105.135 89.1867 106.143C92.6119 107.151 95.2542 109.894 97.283 112.832C108.431 128.977 104.684 150.697 100.486 169.863C119.472 155.034 139.678 141.768 160.834 130.244C164.111 128.459 167.502 126.686 171.203 126.21C174.904 125.734 179.03 126.814 181.248 129.814C182.838 131.965 183.239 134.741 183.619 137.388C186.042 154.279 189.586 171.064 190.293 188.113C191.001 205.162 188.674 222.816 180.114 237.578C169.187 256.424 148.696 268.754 127.174 272.126C117.759 273.601 107.478 273.749 99.9442 279.583C96.4288 282.306 93.8614 286.04 91.3529 289.712C89.3356 292.664 87.3184 295.616 85.3012 298.568C84.2899 300.048 83.2267 301.577 81.6743 302.473C79.272 303.859 76.2656 303.432 73.5632 302.807C53.6542 298.207 35.9619 284.761 26.1986 266.81C24.0764 262.909 24.0169 260.369 27.3473 257.431L28.6321 256.936Z" fill="#F5CAAA"/>
<path d="M204.268 261.478H116.544C110.945 261.478 106.406 256.939 106.406 251.34V75.0375C106.406 69.4385 110.945 64.8995 116.544 64.8995H204.268C209.867 64.8995 214.406 69.4385 214.406 75.0375V251.34C214.406 256.939 209.867 261.478 204.268 261.478Z" fill="#00BBA9"/>
<path d="M207.414 75.8206H113.398V250.557H207.414V75.8206Z" fill="white"/>
<path d="M216.972 184.881H216.972C223.19 184.881 228.278 179.793 228.278 173.575V169.335C228.278 163.117 223.19 158.029 216.972 158.029H216.972C210.754 158.029 205.666 163.117 205.666 169.335V173.575C205.666 179.793 210.754 184.881 216.972 184.881Z" fill="#F5CAAA"/>
<path d="M215.559 213.146H215.559C221.777 213.146 226.865 208.059 226.865 201.84V197.601C226.865 191.382 221.777 186.294 215.559 186.294H215.559C209.341 186.294 204.253 191.382 204.253 197.601V201.84C204.253 208.059 209.341 213.146 215.559 213.146Z" fill="#F5CAAA"/>
<path d="M200.952 22.5237L172.122 22.0096C170.314 21.9774 168.822 23.417 168.79 25.225L168.428 45.5183C168.396 47.3263 169.835 48.8181 171.643 48.8504L182.311 49.0406L185.943 55.5986L189.806 49.1742L200.473 49.3644C202.281 49.3966 203.773 47.9571 203.805 46.149L204.167 25.8558C204.199 24.0477 202.76 22.5559 200.952 22.5237Z" fill="url(#paint2_linear_9236_37400)"/>
<path d="M176.6 38.3476C177.919 38.3476 178.989 37.2783 178.989 35.9592C178.989 34.6402 177.919 33.5709 176.6 33.5709C175.281 33.5709 174.212 34.6402 174.212 35.9592C174.212 37.2783 175.281 38.3476 176.6 38.3476Z" fill="white"/>
<path d="M186.154 38.3476C187.473 38.3476 188.542 37.2783 188.542 35.9592C188.542 34.6402 187.473 33.5709 186.154 33.5709C184.835 33.5709 183.765 34.6402 183.765 35.9592C183.765 37.2783 184.835 38.3476 186.154 38.3476Z" fill="white"/>
<path d="M195.707 38.3476C197.026 38.3476 198.095 37.2783 198.095 35.9592C198.095 34.6402 197.026 33.5709 195.707 33.5709C194.388 33.5709 193.319 34.6402 193.319 35.9592C193.319 37.2783 194.388 38.3476 195.707 38.3476Z" fill="white"/>
<path d="M133.923 45.5909L121.848 4.221C121.098 1.65349 118.385 0.165941 115.817 0.915392L63.7207 16.1216C61.1533 16.871 59.6658 19.5848 60.4152 22.1523L72.4905 63.5223C73.24 66.0898 75.9538 67.5773 78.5213 66.8279L90.8145 63.2396C96.8844 67.8157 103.77 72.995 103.77 72.995L100.129 60.5209L130.618 51.6217C133.185 50.8723 134.673 48.1584 133.923 45.5909Z" fill="url(#paint3_linear_9236_37400)"/>
<path d="M92.9178 14.987C91.3897 17.4655 91.8154 20.5916 93.7588 22.5867L87.343 32.9929C84.6875 32.1527 81.7033 33.1764 80.1752 35.6549C78.3719 38.5799 79.2811 42.413 82.2061 44.2163C85.1311 46.0197 88.9642 45.1104 90.7675 42.1855C92.2956 39.7069 91.8699 36.5809 89.9265 34.5858L96.3423 24.1795C98.9977 25.0197 101.982 23.9961 103.51 21.5175C105.313 18.5926 104.404 14.7595 101.479 12.9561C98.5542 11.1527 94.7211 12.062 92.9178 14.987Z" fill="url(#paint4_linear_9236_37400)"/>
<path d="M110.403 39.8435C107.604 39.0398 104.709 40.2923 103.311 42.7015L91.5609 39.3274C91.6545 36.5437 89.8644 33.9458 87.0658 33.1421C83.763 32.1937 80.3168 34.1023 79.3684 37.4051C78.42 40.7078 80.3286 44.1541 83.6314 45.1025C86.43 45.9061 89.3257 44.6537 90.7232 42.2445L102.473 45.6186C102.38 48.4022 104.17 51.0002 106.969 51.8038C110.271 52.7522 113.718 50.8436 114.666 47.5409C115.614 44.2381 113.706 40.7919 110.403 39.8435Z" fill="url(#paint5_linear_9236_37400)"/>
<path d="M281.289 35.5756H228.282C225.336 35.5756 222.925 37.9863 222.925 40.9327V73.8173C222.925 76.7637 225.336 79.1744 228.282 79.1744H278.056L284.76 81.1474L283.195 78.8061C285.204 78.0321 286.646 76.091 286.646 73.8173V40.9327C286.646 37.9863 284.236 35.5756 281.289 35.5756Z" fill="url(#paint6_linear_9236_37400)"/>
<path d="M231.272 50.4751C234.05 50.4751 236.302 48.2228 236.302 45.4445C236.302 42.6661 234.05 40.4138 231.272 40.4138C228.493 40.4138 226.241 42.6661 226.241 45.4445C226.241 48.2228 228.493 50.4751 231.272 50.4751Z" fill="white"/>
<path d="M231.383 46.6956C232.611 46.6956 233.606 45.7003 233.606 44.4724C233.606 43.2446 232.611 42.2492 231.383 42.2492C230.155 42.2492 229.16 43.2446 229.16 44.4724C229.16 45.7003 230.155 46.6956 231.383 46.6956Z" fill="#00BBA9"/>
<path d="M235.496 50.4751C235.496 48.706 234.407 47.193 232.864 46.564C232.47 46.9184 231.955 47.1403 231.383 47.1403C230.78 47.1403 230.234 46.8979 229.833 46.5076C228.21 47.0966 227.048 48.6481 227.048 50.4751H235.496Z" fill="#00BBA9"/>
<path d="M276.921 42.0024H240.78C240.343 42.0024 239.986 41.645 239.986 41.2081C239.986 40.7713 240.343 40.4138 240.78 40.4138H276.921C277.358 40.4138 277.715 40.7713 277.715 41.2081C277.715 41.645 277.358 42.0024 276.921 42.0024Z" fill="white"/>
<path d="M276.921 46.2388H240.78C240.343 46.2388 239.986 45.8813 239.986 45.4445C239.986 45.0076 240.343 44.6501 240.78 44.6501H276.921C277.358 44.6501 277.715 45.0076 277.715 45.4445C277.715 45.8813 277.358 46.2388 276.921 46.2388Z" fill="white"/>
<path d="M276.921 50.4751H240.78C240.343 50.4751 239.986 50.1177 239.986 49.6808C239.986 49.2439 240.343 48.8865 240.78 48.8865H276.921C277.358 48.8865 277.715 49.2439 277.715 49.6808C277.715 50.1177 277.358 50.4751 276.921 50.4751Z" fill="white"/>
<path d="M276.877 54.5443H240.273V74.721H276.877V54.5443Z" fill="#00BBA9"/>
<path d="M256.147 61.4127L250.916 70.2262H261.378L256.147 61.4127Z" fill="white"/>
<path d="M260.839 63.7864L257.017 70.2262H264.661L260.839 63.7864Z" fill="white"/>
<path d="M264.404 62.5996C265.415 62.5996 266.234 61.8025 266.234 60.8193C266.234 59.8361 265.415 59.039 264.404 59.039C263.393 59.039 262.574 59.8361 262.574 60.8193C262.574 61.8025 263.393 62.5996 264.404 62.5996Z" fill="white"/>
<path d="M65.6631 81.0156H14.3798C11.5293 81.0156 9.1969 83.3478 9.1969 86.1984V118.014C9.1969 120.213 10.5918 122.091 12.5361 122.84L11.0215 125.105L17.5078 123.196H65.6631C68.5137 123.196 70.8459 120.864 70.8459 118.014V86.1984C70.8459 83.3478 68.5137 81.0156 65.6631 81.0156Z" fill="url(#paint7_linear_9236_37400)"/>
<path d="M17.2724 95.4305C19.9604 95.4305 22.1395 93.2514 22.1395 90.5634C22.1395 87.8755 19.9604 85.6964 17.2724 85.6964C14.5844 85.6964 12.4054 87.8755 12.4054 90.5634C12.4054 93.2514 14.5844 95.4305 17.2724 95.4305Z" fill="white"/>
<path d="M17.3799 91.7739C18.5678 91.7739 19.5308 90.8109 19.5308 89.623C19.5308 88.4351 18.5678 87.4721 17.3799 87.4721C16.192 87.4721 15.229 88.4351 15.229 89.623C15.229 90.8109 16.192 91.7739 17.3799 91.7739Z" fill="#00BBA9"/>
<path d="M21.3591 95.4305C21.3591 93.7189 20.3059 92.2551 18.813 91.6466C18.432 91.9895 17.9329 92.2041 17.38 92.2041C16.7961 92.2041 16.2683 91.9696 15.8807 91.592C14.31 92.1619 13.1857 93.6629 13.1857 95.4305H21.3591Z" fill="#00BBA9"/>
<path d="M61.4371 87.2334H26.4714C26.0487 87.2334 25.7029 86.8876 25.7029 86.4649C25.7029 86.0422 26.0487 85.6964 26.4714 85.6964H61.4371C61.8598 85.6964 62.2056 86.0422 62.2056 86.4649C62.2056 86.8876 61.8598 87.2334 61.4371 87.2334Z" fill="white"/>
<path d="M61.4371 91.3319H26.4714C26.0487 91.3319 25.7029 90.9861 25.7029 90.5635C25.7029 90.1408 26.0487 89.795 26.4714 89.795H61.4371C61.8598 89.795 62.2056 90.1408 62.2056 90.5635C62.2056 90.9861 61.8598 91.3319 61.4371 91.3319Z" fill="white"/>
<path d="M61.4371 95.4305H26.4714C26.0487 95.4305 25.7029 95.0847 25.7029 94.662C25.7029 94.2394 26.0487 93.8936 26.4714 93.8936H61.4371C61.8598 93.8936 62.2056 94.2394 62.2056 94.662C62.2056 95.0847 61.8598 95.4305 61.4371 95.4305Z" fill="white"/>
<path d="M61.3944 99.3673H25.9813V118.888H61.3944V99.3673Z" fill="#00BBA9"/>
<path d="M41.3389 106.012L36.278 114.539H46.3998L41.3389 106.012Z" fill="white"/>
<path d="M45.878 108.309L42.1802 114.539H49.5759L45.878 108.309Z" fill="white"/>
<path d="M49.3272 107.161C50.3051 107.161 51.0978 106.39 51.0978 105.438C51.0978 104.487 50.3051 103.716 49.3272 103.716C48.3493 103.716 47.5565 104.487 47.5565 105.438C47.5565 106.39 48.3493 107.161 49.3272 107.161Z" fill="white"/>
<path d="M197.098 167.735H123.715C119.645 167.735 116.315 164.405 116.315 160.336V86.9524C116.315 82.8829 119.645 79.5533 123.715 79.5533H197.098C201.167 79.5533 204.497 82.8829 204.497 86.9524V160.336C204.497 164.405 201.167 167.735 197.098 167.735Z" fill="#FCF6F9"/>
<path d="M161.325 149.547H121.584C121.006 149.547 120.533 149.074 120.533 148.496V148.09C120.533 147.512 121.006 147.04 121.584 147.04H161.325C161.903 147.04 162.376 147.512 162.376 148.09V148.496C162.376 149.074 161.903 149.547 161.325 149.547Z" fill="#54D1C5"/>
<path d="M178.323 97.4879H138.582C138.005 97.4879 137.532 97.015 137.532 96.437V96.0314C137.532 95.4535 138.005 94.9806 138.582 94.9806H178.323C178.901 94.9806 179.374 95.4535 179.374 96.0314V96.437C179.374 97.015 178.901 97.4879 178.323 97.4879Z" fill="#54D1C5"/>
<path d="M150.522 156.233H121.436C120.939 156.233 120.533 155.827 120.533 155.33V154.629C120.533 154.132 120.939 153.726 121.436 153.726H150.522C151.019 153.726 151.425 154.132 151.425 154.629V155.33C151.425 155.827 151.019 156.233 150.522 156.233Z" fill="#54D1C5"/>
<path d="M127.919 98.3461C131.415 98.3461 134.249 95.512 134.249 92.0161C134.249 88.5202 131.415 85.6862 127.919 85.6862C124.423 85.6862 121.589 88.5202 121.589 92.0161C121.589 95.512 124.423 98.3461 127.919 98.3461Z" fill="white"/>
<path d="M128.059 93.5905C129.604 93.5905 130.856 92.338 130.856 90.793C130.856 89.2481 129.604 87.9956 128.059 87.9956C126.514 87.9956 125.262 89.2481 125.262 90.793C125.262 92.338 126.514 93.5905 128.059 93.5905Z" fill="#002A54"/>
<path d="M133.234 98.3461C133.234 96.12 131.864 94.2162 129.923 93.4248C129.427 93.8708 128.778 94.1499 128.059 94.1499C127.3 94.1499 126.613 93.845 126.109 93.3539C124.066 94.095 122.604 96.0472 122.604 98.3461H133.234Z" fill="#002A54"/>
<path d="M157.304 138.222C157.333 138.118 157.356 138.01 157.373 137.901C157.378 137.872 157.383 137.844 157.387 137.815C157.403 137.693 157.413 137.569 157.413 137.443C157.413 137.443 157.414 137.442 157.414 137.442V106.115C157.414 105.01 156.792 104.043 155.881 103.547C155.55 103.366 155.181 103.248 154.789 103.208C154.691 103.198 154.592 103.193 154.491 103.193H123.165C122.26 103.193 121.449 103.609 120.912 104.259C120.852 104.331 120.796 104.406 120.743 104.484C120.585 104.717 120.46 104.974 120.374 105.249C120.289 105.523 120.242 105.814 120.242 106.115V136.539C120.298 136.535 120.353 136.531 120.41 136.531H122.239C122.175 136.307 122.075 136.089 121.972 135.879C121.396 134.695 120.734 133.529 120.465 132.24C120.195 130.951 120.391 129.475 121.335 128.557C122.262 127.656 123.682 127.472 124.782 126.818C125.094 126.354 125.406 125.892 125.651 125.391C126.384 123.893 126.456 122.195 126.525 120.512C126.507 117.864 126.956 115.214 127.86 112.726L127.665 114.202C127.687 114.144 127.712 114.087 127.736 114.029C128.16 112.401 129.178 110.928 130.562 109.97C130.845 109.73 131.14 109.503 131.458 109.3C133.606 107.931 136.181 107.67 138.765 107.86C141.35 107.67 143.925 107.931 146.072 109.3C146.391 109.503 146.686 109.73 146.969 109.97C148.353 110.928 149.37 112.401 149.795 114.029C149.818 114.087 149.843 114.144 149.866 114.202L149.671 112.726C150.574 115.214 151.024 117.864 151.005 120.511C151.075 122.194 151.146 123.893 151.879 125.391C152.124 125.892 152.437 126.354 152.748 126.818C153.848 127.472 155.269 127.656 156.195 128.557C157.139 129.475 157.336 130.951 157.066 132.24C156.796 133.529 156.134 134.695 155.558 135.879C155.385 136.235 155.216 136.61 155.221 137.007C155.234 137.958 156.102 138.441 156.979 138.964C156.979 138.964 156.979 138.964 156.979 138.964C157.114 138.744 157.221 138.506 157.296 138.254C157.299 138.244 157.301 138.233 157.304 138.222Z" fill="#A7DAE3"/>
<path d="M132.881 136.839C132.556 136.644 132.178 136.531 131.772 136.531H124.382H122.239H120.41C120.353 136.531 120.298 136.535 120.242 136.539V137.442C120.242 137.564 120.252 137.684 120.267 137.802C120.271 137.831 120.276 137.86 120.281 137.889C120.296 137.987 120.315 138.083 120.34 138.177C120.345 138.196 120.35 138.215 120.355 138.234C120.424 138.473 120.521 138.699 120.644 138.909C120.707 139.017 120.776 139.12 120.852 139.218C120.853 139.219 120.854 139.221 120.856 139.223C121.005 139.417 121.18 139.591 121.372 139.742C121.382 139.75 121.391 139.756 121.4 139.763C121.485 139.828 121.573 139.887 121.664 139.943C121.68 139.952 121.696 139.962 121.712 139.972C121.913 140.089 122.13 140.181 122.358 140.247C122.387 140.256 122.416 140.263 122.446 140.27C122.532 140.292 122.619 140.31 122.707 140.324C122.741 140.33 122.774 140.335 122.807 140.34C122.924 140.354 123.043 140.364 123.164 140.364C123.165 140.364 123.165 140.364 123.165 140.364H126.301H127.472H133.937V138.695C133.937 137.905 133.512 137.217 132.881 136.839Z" fill="#333333"/>
<path d="M124.114 127.88C124.316 127.514 124.549 127.166 124.782 126.818C123.682 127.472 122.262 127.656 121.335 128.557C120.391 129.475 120.195 130.951 120.465 132.24C120.734 133.529 121.396 134.694 121.972 135.879C122.075 136.089 122.175 136.307 122.239 136.531H124.382C122.98 133.791 122.645 130.531 124.114 127.88Z" fill="#002A54"/>
<path d="M155.221 137.007C155.216 136.61 155.385 136.235 155.559 135.879C156.134 134.695 156.796 133.529 157.066 132.24C157.336 130.951 157.139 129.475 156.195 128.557C155.269 127.656 153.849 127.472 152.748 126.818C152.982 127.166 153.214 127.514 153.417 127.88C155.447 131.543 154.033 136.37 151.119 139.377C150.869 139.635 150.608 139.877 150.341 140.114C150.407 140.196 150.471 140.279 150.532 140.364H154.491C154.611 140.364 154.728 140.355 154.843 140.341C154.876 140.336 154.909 140.33 154.942 140.325C155.028 140.312 155.112 140.295 155.195 140.274C155.226 140.266 155.257 140.259 155.288 140.25C155.393 140.22 155.496 140.186 155.596 140.144C155.599 140.143 155.602 140.142 155.605 140.141C155.716 140.095 155.823 140.041 155.927 139.982C155.936 139.977 155.945 139.971 155.954 139.965C156.048 139.911 156.138 139.851 156.225 139.786C156.235 139.779 156.246 139.771 156.256 139.763C156.542 139.544 156.789 139.273 156.979 138.964C156.979 138.964 156.979 138.964 156.979 138.964C156.102 138.441 155.234 137.958 155.221 137.007Z" fill="#002A54"/>
<path d="M124.382 136.531H131.773C132.178 136.531 132.556 136.644 132.881 136.839C134.356 135.627 135.396 133.662 135.646 131.383C136.273 132.014 137.244 132.421 138.337 132.421C139.365 132.421 140.285 132.061 140.913 131.493C141.248 134.254 142.745 136.539 144.763 137.557H145.052C147.187 137.557 149.098 138.558 150.341 140.114C150.608 139.877 150.869 139.635 151.119 139.377C154.033 136.37 155.447 131.543 153.417 127.88C153.214 127.514 152.982 127.166 152.748 126.818C152.534 126.691 152.331 126.547 152.147 126.375C150.76 125.078 150.949 122.884 151.003 120.985C151.007 120.827 151.004 120.669 151.005 120.511C150.989 120.117 150.973 119.724 150.948 119.334C150.838 117.605 150.499 115.827 149.866 114.202L149.921 114.616C149.951 114.794 149.976 114.974 149.992 115.154C149.976 114.974 149.951 114.794 149.921 114.616C149.887 114.419 149.846 114.223 149.795 114.029C149.157 112.457 148.236 111.042 146.969 109.97C146.83 109.874 146.688 109.781 146.542 109.695C145.264 108.948 143.788 108.625 142.334 108.352C141.17 108.134 139.967 107.948 138.765 107.86C137.564 107.948 136.36 108.134 135.197 108.352C133.742 108.625 132.266 108.948 130.989 109.695C130.842 109.781 130.701 109.874 130.562 109.97C129.295 111.042 128.373 112.457 127.736 114.029C127.685 114.223 127.643 114.419 127.61 114.616L127.539 115.154L127.61 114.616L127.665 114.202C127.032 115.827 126.692 117.605 126.583 119.334C126.558 119.724 126.542 120.117 126.525 120.512C126.527 120.669 126.523 120.827 126.528 120.985C126.582 122.884 126.771 125.078 125.384 126.375C125.2 126.547 124.997 126.691 124.782 126.818C124.549 127.166 124.317 127.514 124.114 127.88C122.645 130.531 122.98 133.791 124.382 136.531Z" fill="#002A54"/>
<path d="M141.101 128.115C141.121 128.029 141.138 127.941 141.161 127.856H140.829C140.926 127.938 141.017 128.025 141.101 128.115Z" fill="#F5CAAA"/>
<path d="M138.337 132.421C139.365 132.421 140.285 132.061 140.912 131.493C140.866 131.109 140.841 130.716 140.841 130.315C140.841 129.55 140.936 128.814 141.101 128.115C141.017 128.025 140.926 127.938 140.829 127.856H135.845C135.708 127.972 135.583 128.095 135.473 128.228C135.622 128.893 135.706 129.592 135.706 130.315C135.706 130.678 135.685 131.034 135.646 131.383C136.273 132.014 137.244 132.421 138.337 132.421Z" fill="#F2A66F"/>
<path d="M138.48 130.139C143.443 130.139 147.467 125.285 147.467 119.297C147.467 113.31 143.443 108.456 138.48 108.456C133.517 108.456 129.493 113.31 129.493 119.297C129.493 125.285 133.517 130.139 138.48 130.139Z" fill="#F5CAAA"/>
<path d="M129.065 122.436C130.247 122.436 131.205 121.286 131.205 119.868C131.205 118.45 130.247 117.3 129.065 117.3C127.883 117.3 126.925 118.45 126.925 119.868C126.925 121.286 127.883 122.436 129.065 122.436Z" fill="#F5CAAA"/>
<path d="M147.324 122.436C148.506 122.436 149.464 121.286 149.464 119.868C149.464 118.45 148.506 117.3 147.324 117.3C146.143 117.3 145.185 118.45 145.185 119.868C145.185 121.286 146.143 122.436 147.324 122.436Z" fill="#F5CAAA"/>
<path d="M139.583 111.4C139.583 111.4 138.358 114.805 135.779 116.195C134.402 116.938 132.788 117.202 131.242 117.294C130.9 117.314 129.947 117.146 129.66 117.312C128.999 117.695 129.312 119.226 129.308 119.845C128.693 119.887 128.075 119.89 127.46 119.852C127.263 119.84 127.054 119.819 126.896 119.701C126.686 119.544 126.622 119.263 126.581 119.006C125.962 115.131 127.5 111.085 130.365 108.386C132.69 106.195 138.295 103.145 140.125 107.487C140.706 108.865 140.042 110.123 139.583 111.4Z" fill="#002A54"/>
<path d="M137.377 111.4C137.377 111.4 138.602 114.805 141.181 116.195C142.558 116.938 144.172 117.202 145.718 117.294C146.06 117.314 147.013 117.146 147.3 117.312C147.961 117.695 147.648 119.226 147.652 119.845C148.267 119.887 148.885 119.89 149.5 119.852C149.697 119.84 149.906 119.819 150.064 119.701C150.274 119.544 150.338 119.263 150.379 119.006C150.998 115.131 149.46 111.085 146.595 108.386C144.27 106.195 138.665 103.145 136.835 107.487C136.254 108.865 136.918 110.123 137.377 111.4Z" fill="#002A54"/>
<path d="M139.998 126.071C140.006 126.1 139.977 126.136 139.945 126.124C139.851 126.089 139.767 126.038 139.67 126.01C139.568 125.981 139.464 125.967 139.359 125.96C139.228 125.95 139.095 125.942 138.964 125.932C138.895 125.926 138.827 125.923 138.76 125.917C138.688 125.911 138.622 125.915 138.567 125.862C138.522 125.819 138.538 125.75 138.586 125.719C138.651 125.676 138.737 125.7 138.811 125.706C138.882 125.713 138.954 125.721 139.026 125.729C139.161 125.743 139.296 125.754 139.429 125.772C139.627 125.797 139.933 125.846 139.998 126.071Z" fill="#FC8B85"/>
<path d="M138.246 125.719C138.295 125.75 138.311 125.819 138.266 125.862C138.211 125.915 138.145 125.911 138.072 125.917C138.006 125.923 137.937 125.926 137.869 125.932C137.738 125.942 137.605 125.95 137.474 125.96C137.368 125.967 137.265 125.981 137.163 126.011C137.065 126.038 136.981 126.089 136.888 126.124C136.856 126.136 136.827 126.1 136.835 126.071C136.899 125.846 137.206 125.797 137.404 125.772C137.542 125.754 137.681 125.743 137.818 125.727C137.891 125.719 137.963 125.711 138.035 125.706C138.106 125.698 138.184 125.678 138.246 125.719Z" fill="#FC8B85"/>
<path d="M134.708 120.724C135.101 120.724 135.421 120.405 135.421 120.011C135.421 119.617 135.101 119.297 134.708 119.297C134.314 119.297 133.994 119.617 133.994 120.011C133.994 120.405 134.314 120.724 134.708 120.724Z" fill="#002A54"/>
<path d="M142.125 120.724C142.519 120.724 142.839 120.405 142.839 120.011C142.839 119.617 142.519 119.297 142.125 119.297C141.731 119.297 141.412 119.617 141.412 120.011C141.412 120.405 141.731 120.724 142.125 120.724Z" fill="#002A54"/>
<path d="M132.797 117.626C133.743 118.334 135.198 117.987 136.048 116.852" stroke="#002A54" stroke-width="0.285298" stroke-miterlimit="10" stroke-linecap="round" stroke-linejoin="round"/>
<path d="M143.878 117.626C142.932 118.334 141.476 117.987 140.627 116.852" stroke="#002A54" stroke-width="0.285298" stroke-miterlimit="10" stroke-linecap="round" stroke-linejoin="round"/>
<path d="M138.606 123.864C138.13 123.586 138.098 122.754 138.534 122.006" stroke="#E69264" stroke-width="0.285298" stroke-miterlimit="10" stroke-linecap="round" stroke-linejoin="round"/>
<path d="M136.992 121.865C137.105 121.865 137.196 121.774 137.196 121.661C137.196 121.549 137.105 121.458 136.992 121.458C136.88 121.458 136.789 121.549 136.789 121.661C136.789 121.774 136.88 121.865 136.992 121.865Z" fill="#A67C52"/>
<path d="M138.011 121.661C138.124 121.661 138.215 121.57 138.215 121.457C138.215 121.345 138.124 121.254 138.011 121.254C137.899 121.254 137.807 121.345 137.807 121.457C137.807 121.57 137.899 121.661 138.011 121.661Z" fill="#A67C52"/>
<path d="M139.03 121.661C139.143 121.661 139.234 121.57 139.234 121.457C139.234 121.345 139.143 121.254 139.03 121.254C138.918 121.254 138.826 121.345 138.826 121.457C138.826 121.57 138.918 121.661 139.03 121.661Z" fill="#A67C52"/>
<path d="M139.845 121.865C139.958 121.865 140.049 121.774 140.049 121.661C140.049 121.549 139.958 121.458 139.845 121.458C139.733 121.458 139.642 121.549 139.642 121.661C139.642 121.774 139.733 121.865 139.845 121.865Z" fill="#A67C52"/>
<path d="M140.987 121.865C141.099 121.865 141.19 121.774 141.19 121.661C141.19 121.549 141.099 121.458 140.987 121.458C140.874 121.458 140.783 121.549 140.783 121.661C140.783 121.774 140.874 121.865 140.987 121.865Z" fill="#A67C52"/>
<path d="M141.842 122.15C141.955 122.15 142.046 122.059 142.046 121.947C142.046 121.834 141.955 121.743 141.842 121.743C141.73 121.743 141.639 121.834 141.639 121.947C141.639 122.059 141.73 122.15 141.842 122.15Z" fill="#A67C52"/>
<path d="M135.851 121.865C135.964 121.865 136.055 121.774 136.055 121.661C136.055 121.549 135.964 121.458 135.851 121.458C135.739 121.458 135.647 121.549 135.647 121.661C135.647 121.774 135.739 121.865 135.851 121.865Z" fill="#A67C52"/>
<path d="M134.995 122.15C135.108 122.15 135.199 122.059 135.199 121.947C135.199 121.834 135.108 121.743 134.995 121.743C134.883 121.743 134.792 121.834 134.792 121.947C134.792 122.059 134.883 122.15 134.995 122.15Z" fill="#A67C52"/>
<path d="M140.131 121.294C140.243 121.294 140.334 121.203 140.334 121.091C140.334 120.978 140.243 120.887 140.131 120.887C140.018 120.887 139.927 120.978 139.927 121.091C139.927 121.203 140.018 121.294 140.131 121.294Z" fill="#A67C52"/>
<path d="M136.707 121.294C136.82 121.294 136.911 121.203 136.911 121.091C136.911 120.978 136.82 120.887 136.707 120.887C136.595 120.887 136.503 120.978 136.503 121.091C136.503 121.203 136.595 121.294 136.707 121.294Z" fill="#A67C52"/>
<path d="M137.604 121.05C137.716 121.05 137.807 120.959 137.807 120.846C137.807 120.734 137.716 120.642 137.604 120.642C137.491 120.642 137.4 120.734 137.4 120.846C137.4 120.959 137.491 121.05 137.604 121.05Z" fill="#A67C52"/>
<path d="M138.419 120.846C138.531 120.846 138.623 120.755 138.623 120.642C138.623 120.53 138.531 120.439 138.419 120.439C138.306 120.439 138.215 120.53 138.215 120.642C138.215 120.755 138.306 120.846 138.419 120.846Z" fill="#A67C52"/>
<path d="M139.234 121.05C139.347 121.05 139.438 120.959 139.438 120.846C139.438 120.734 139.347 120.642 139.234 120.642C139.122 120.642 139.03 120.734 139.03 120.846C139.03 120.959 139.122 121.05 139.234 121.05Z" fill="#A67C52"/>
<path d="M124.38 139.191C124.351 139.193 124.292 139.195 124.235 139.195C124.016 139.195 123.756 139.186 123.747 138.903C123.742 138.808 123.742 138.639 123.742 138.455C123.742 138.179 123.744 137.871 123.749 137.726C123.756 137.443 124.007 137.439 124.199 137.439C124.249 137.439 124.297 137.441 124.331 137.443C124.706 137.468 124.847 137.667 124.847 137.858C124.847 138.03 124.734 138.197 124.575 138.22C124.553 138.224 124.539 138.229 124.539 138.233C124.539 138.236 124.548 138.24 124.573 138.242C124.818 138.261 124.949 138.455 124.949 138.666C124.949 138.908 124.772 139.168 124.38 139.191ZM124.688 138.641C124.688 138.507 124.598 138.376 124.39 138.36C124.333 138.356 124.274 138.353 124.217 138.353C124.007 138.353 123.987 138.36 123.987 138.405C123.987 138.688 123.987 138.792 123.993 138.854C124.005 138.937 124.027 138.965 124.238 138.965C124.29 138.965 124.347 138.962 124.39 138.96C124.577 138.949 124.688 138.792 124.688 138.641ZM124.19 137.672C124.045 137.672 124 137.69 123.993 137.776C123.989 137.83 123.991 137.959 123.989 138.091C123.989 138.138 124.021 138.138 124.17 138.138C124.224 138.138 124.283 138.138 124.324 138.136C124.487 138.127 124.591 138 124.591 137.88C124.591 137.774 124.507 137.674 124.308 137.674C124.308 137.674 124.249 137.672 124.19 137.672Z" fill="white"/>
<path d="M125.694 139.191C125.384 139.191 125.153 138.958 125.153 138.62C125.153 138.274 125.397 138.036 125.689 138.036C126.002 138.036 126.178 138.265 126.178 138.437C126.178 138.544 126.108 138.629 125.963 138.634C125.893 138.636 125.846 138.636 125.406 138.636C125.393 138.636 125.388 138.654 125.388 138.679C125.391 138.867 125.535 138.98 125.696 138.98C125.839 138.98 125.925 138.913 125.99 138.842C126.013 138.817 126.04 138.806 126.067 138.806C126.129 138.806 126.187 138.86 126.187 138.924C126.187 138.951 126.178 138.978 126.153 139.003C126.045 139.116 125.922 139.191 125.694 139.191ZM125.943 138.399C125.943 138.367 125.895 138.233 125.692 138.233C125.508 138.233 125.409 138.392 125.409 138.43C125.409 138.451 125.431 138.451 125.642 138.451C125.735 138.451 125.837 138.451 125.898 138.448C125.925 138.446 125.943 138.426 125.943 138.399Z" fill="white"/>
<path d="M126.81 138.279C126.788 138.279 126.781 138.279 126.781 138.315C126.781 138.315 126.785 138.79 126.785 138.98C126.785 139.012 126.785 139.037 126.785 139.048C126.785 139.13 126.724 139.171 126.663 139.171C126.606 139.171 126.55 139.132 126.55 139.057C126.55 139.055 126.55 139.051 126.55 139.048C126.552 139.012 126.552 138.919 126.552 138.811C126.552 138.593 126.55 138.315 126.55 138.315C126.55 138.283 126.548 138.279 126.511 138.279H126.432C126.362 138.279 126.33 138.224 126.33 138.17C126.33 138.116 126.364 138.059 126.432 138.059H126.514C126.536 138.059 126.55 138.059 126.55 138.03C126.55 138.007 126.548 137.982 126.548 137.923C126.548 137.486 126.896 137.457 126.957 137.457C127.037 137.457 127.098 137.482 127.098 137.566C127.098 137.622 127.059 137.679 126.989 137.679C126.987 137.679 126.982 137.679 126.98 137.679C126.976 137.679 126.969 137.679 126.964 137.679C126.783 137.679 126.779 137.876 126.779 137.948C126.779 137.987 126.779 138.007 126.781 138.036C126.781 138.059 126.797 138.059 126.813 138.059H126.987C127.055 138.059 127.089 138.113 127.089 138.168C127.089 138.224 127.055 138.279 126.987 138.279H126.81Z" fill="white"/>
<path d="M127.229 138.614C127.229 138.283 127.476 138.041 127.8 138.041C128.124 138.041 128.368 138.283 128.368 138.614C128.368 138.955 128.124 139.186 127.8 139.186C127.476 139.186 127.229 138.955 127.229 138.614ZM128.139 138.614C128.139 138.39 127.985 138.249 127.8 138.249C127.614 138.249 127.458 138.39 127.458 138.614C127.458 138.835 127.612 138.974 127.8 138.974C127.988 138.974 128.139 138.835 128.139 138.614Z" fill="white"/>
<path d="M128.656 139.066C128.656 139.064 128.656 139.064 128.656 139.062C128.663 138.847 128.665 138.697 128.665 138.564C128.665 138.428 128.663 138.31 128.658 138.159C128.658 138.156 128.658 138.156 128.658 138.154C128.658 138.086 128.724 138.052 128.78 138.052C128.837 138.052 128.896 138.086 128.896 138.159C128.896 138.168 128.894 138.175 128.894 138.181C128.894 138.186 128.894 138.188 128.894 138.19C128.894 138.195 128.894 138.197 128.896 138.197C128.896 138.197 128.9 138.195 128.905 138.188C128.995 138.088 129.118 138.05 129.195 138.05C129.265 138.05 129.305 138.102 129.305 138.159C129.305 138.215 129.265 138.274 129.176 138.283C129.043 138.297 128.894 138.408 128.887 138.55C128.884 138.591 128.884 138.639 128.884 138.7C128.884 138.788 128.887 138.901 128.891 139.062C128.894 139.109 128.866 139.177 128.776 139.177C128.715 139.177 128.656 139.139 128.656 139.066Z" fill="white"/>
<path d="M129.987 139.191C129.677 139.191 129.446 138.958 129.446 138.62C129.446 138.274 129.691 138.036 129.983 138.036C130.295 138.036 130.472 138.265 130.472 138.437C130.472 138.544 130.401 138.629 130.257 138.634C130.186 138.636 130.139 138.636 129.7 138.636C129.686 138.636 129.681 138.654 129.681 138.679C129.684 138.867 129.829 138.98 129.989 138.98C130.132 138.98 130.218 138.913 130.284 138.842C130.306 138.817 130.333 138.806 130.361 138.806C130.422 138.806 130.481 138.86 130.481 138.924C130.481 138.951 130.472 138.978 130.447 139.003C130.338 139.116 130.216 139.191 129.987 139.191ZM130.236 138.399C130.236 138.367 130.189 138.233 129.985 138.233C129.802 138.233 129.702 138.392 129.702 138.43C129.702 138.451 129.725 138.451 129.935 138.451C130.028 138.451 130.13 138.451 130.191 138.448C130.218 138.446 130.236 138.426 130.236 138.399Z" fill="white"/>
<path d="M122.358 140.247C122.13 140.181 121.913 140.089 121.712 139.972C121.913 140.088 122.13 140.181 122.358 140.247Z" fill="#A7DAE3"/>
<path d="M122.707 140.324C122.619 140.31 122.532 140.292 122.446 140.27C122.532 140.292 122.619 140.31 122.707 140.324Z" fill="#A7DAE3"/>
<path d="M120.855 139.223C121.006 139.417 121.179 139.591 121.372 139.742C121.179 139.591 121.005 139.417 120.855 139.223Z" fill="#A7DAE3"/>
<path d="M120.355 138.234C120.458 138.595 120.628 138.927 120.852 139.218C120.776 139.12 120.707 139.017 120.644 138.909C120.521 138.699 120.424 138.473 120.355 138.234Z" fill="#A7DAE3"/>
<path d="M120.34 138.177C120.315 138.083 120.296 137.987 120.281 137.889C120.296 137.987 120.316 138.083 120.34 138.177Z" fill="#A7DAE3"/>
<path d="M121.664 139.943C121.573 139.887 121.485 139.828 121.4 139.763C121.485 139.828 121.573 139.888 121.664 139.943Z" fill="#A7DAE3"/>
<path d="M157.413 137.443C157.413 137.569 157.403 137.693 157.387 137.815C157.403 137.693 157.413 137.569 157.413 137.443Z" fill="#A7DAE3"/>
<path d="M120.242 137.442C120.242 137.564 120.252 137.684 120.267 137.802C120.252 137.684 120.242 137.564 120.242 137.442Z" fill="#A7DAE3"/>
<path d="M123.164 140.364C123.043 140.364 122.924 140.354 122.807 140.34C122.924 140.354 123.043 140.364 123.164 140.364Z" fill="#A7DAE3"/>
<path d="M156.979 138.964C157.114 138.744 157.222 138.507 157.296 138.254C157.221 138.506 157.114 138.744 156.979 138.964Z" fill="#A7DAE3"/>
<path d="M156.225 139.786C156.138 139.851 156.048 139.911 155.954 139.965C156.048 139.911 156.138 139.851 156.225 139.786Z" fill="#A7DAE3"/>
<path d="M155.927 139.982C155.823 140.041 155.716 140.095 155.605 140.141C155.716 140.095 155.823 140.041 155.927 139.982Z" fill="#A7DAE3"/>
<path d="M154.491 140.364C154.611 140.364 154.728 140.355 154.843 140.341C154.728 140.355 154.611 140.364 154.491 140.364Z" fill="#A7DAE3"/>
<path d="M155.596 140.144C155.496 140.186 155.393 140.22 155.288 140.25C155.393 140.22 155.496 140.186 155.596 140.144Z" fill="#A7DAE3"/>
<path d="M154.491 103.193C154.592 103.193 154.691 103.198 154.789 103.208C154.691 103.198 154.592 103.193 154.491 103.193Z" fill="#A7DAE3"/>
<path d="M156.256 139.763C156.543 139.544 156.788 139.273 156.979 138.964C156.789 139.273 156.542 139.544 156.256 139.763Z" fill="#A7DAE3"/>
<path d="M157.373 137.901C157.356 138.01 157.333 138.118 157.304 138.222C157.333 138.117 157.356 138.01 157.373 137.901Z" fill="#A7DAE3"/>
<path d="M155.195 140.274C155.112 140.295 155.028 140.312 154.942 140.325C155.028 140.312 155.112 140.295 155.195 140.274Z" fill="#A7DAE3"/>
<path d="M130.562 109.97C129.178 110.928 128.16 112.401 127.736 114.029C128.373 112.457 129.295 111.042 130.562 109.97Z" fill="#002A54"/>
<path d="M146.542 109.695C146.688 109.781 146.83 109.874 146.969 109.97C146.686 109.73 146.391 109.503 146.072 109.3C143.925 107.931 141.35 107.67 138.765 107.86C139.967 107.948 141.17 108.134 142.334 108.352C143.788 108.625 145.264 108.948 146.542 109.695Z" fill="#002A54"/>
<path d="M152.147 126.375C152.33 126.547 152.534 126.691 152.748 126.818C152.437 126.354 152.124 125.892 151.879 125.391C151.146 123.893 151.075 122.194 151.005 120.511C151.004 120.669 151.007 120.827 151.003 120.985C150.949 122.884 150.76 125.078 152.147 126.375Z" fill="#002A54"/>
<path d="M127.665 114.202L127.86 112.726C126.956 115.214 126.507 117.864 126.525 120.512C126.542 120.117 126.558 119.724 126.583 119.334C126.692 117.605 127.032 115.827 127.665 114.202Z" fill="#002A54"/>
<path d="M149.866 114.202C149.843 114.144 149.818 114.087 149.795 114.029C149.845 114.223 149.887 114.418 149.921 114.616L149.866 114.202Z" fill="#002A54"/>
<path d="M135.197 108.352C136.36 108.134 137.564 107.948 138.765 107.86C136.181 107.67 133.606 107.931 131.458 109.3C131.14 109.503 130.845 109.73 130.562 109.97C130.701 109.874 130.842 109.781 130.989 109.695C132.266 108.948 133.742 108.625 135.197 108.352Z" fill="#002A54"/>
<path d="M151.005 120.511C151.024 117.864 150.574 115.214 149.671 112.726L149.866 114.202C150.499 115.827 150.838 117.605 150.948 119.334C150.973 119.724 150.989 120.117 151.005 120.511Z" fill="#002A54"/>
<path d="M149.795 114.029C149.37 112.401 148.353 110.928 146.969 109.97C148.236 111.042 149.157 112.457 149.795 114.029Z" fill="#002A54"/>
<path d="M154.942 140.325C154.909 140.33 154.876 140.336 154.843 140.34C154.876 140.336 154.909 140.33 154.942 140.325Z" fill="#002A54"/>
<path d="M155.288 140.25C155.257 140.259 155.226 140.266 155.195 140.274C155.226 140.266 155.257 140.259 155.288 140.25Z" fill="#002A54"/>
<path d="M156.256 139.763C156.246 139.771 156.235 139.779 156.225 139.786C156.235 139.779 156.246 139.771 156.256 139.763Z" fill="#002A54"/>
<path d="M155.605 140.141C155.602 140.142 155.599 140.143 155.596 140.144C155.599 140.143 155.602 140.142 155.605 140.141Z" fill="#002A54"/>
<path d="M155.954 139.965C155.945 139.971 155.936 139.977 155.927 139.982C155.936 139.977 155.945 139.971 155.954 139.965Z" fill="#002A54"/>
<path d="M156.979 138.964L156.979 138.964L156.979 138.964Z" fill="#002A54"/>
<path d="M150.059 140.364H150.532C150.471 140.279 150.407 140.196 150.341 140.114C150.247 140.197 150.155 140.283 150.059 140.364Z" fill="#002A54"/>
<path d="M126.528 120.985C126.523 120.827 126.526 120.669 126.525 120.511C126.456 122.195 126.384 123.893 125.651 125.391C125.406 125.892 125.094 126.354 124.782 126.818C124.997 126.691 125.2 126.547 125.384 126.375C126.771 125.078 126.582 122.883 126.528 120.985Z" fill="#002A54"/>
<path d="M127.736 114.029C127.712 114.087 127.687 114.144 127.665 114.202L127.61 114.616C127.643 114.418 127.685 114.223 127.736 114.029Z" fill="#002A54"/>
<path d="M145.052 137.556H144.763C142.745 136.539 141.248 134.254 140.912 131.493C140.285 132.061 139.365 132.421 138.337 132.421C137.244 132.421 136.273 132.014 135.646 131.383C135.396 133.662 134.356 135.627 132.881 136.839C133.512 137.216 133.937 137.905 133.937 138.695V140.364H150.059C150.154 140.283 150.247 140.197 150.341 140.114C149.097 138.558 147.187 137.556 145.052 137.556Z" fill="#F5CAAA"/>
<path d="M120.355 138.234C120.35 138.215 120.345 138.196 120.34 138.177C120.345 138.196 120.35 138.215 120.355 138.234Z" fill="#333333"/>
<path d="M120.281 137.889C120.276 137.86 120.271 137.831 120.267 137.802C120.271 137.831 120.276 137.86 120.281 137.889Z" fill="#333333"/>
<path d="M120.856 139.223C120.854 139.221 120.853 139.219 120.852 139.218C120.853 139.219 120.854 139.221 120.856 139.223Z" fill="#333333"/>
<path d="M122.446 140.27C122.416 140.263 122.387 140.256 122.358 140.247C122.387 140.256 122.416 140.263 122.446 140.27Z" fill="#333333"/>
<path d="M121.712 139.972C121.696 139.962 121.68 139.952 121.664 139.943C121.68 139.952 121.696 139.962 121.712 139.972Z" fill="#333333"/>
<path d="M122.807 140.34C122.774 140.335 122.741 140.33 122.707 140.324C122.741 140.33 122.773 140.335 122.807 140.34Z" fill="#333333"/>
<path d="M121.4 139.763C121.391 139.756 121.382 139.749 121.372 139.742C121.382 139.749 121.391 139.756 121.4 139.763Z" fill="#333333"/>
<path d="M196.626 140.45H165.299C163.692 140.45 162.377 139.135 162.377 137.528V106.201C162.377 104.594 163.692 103.279 165.299 103.279H196.626C198.233 103.279 199.548 104.594 199.548 106.201V137.528C199.548 139.135 198.233 140.45 196.626 140.45Z" fill="#A7DAE3"/>
<path d="M197.349 136.289C197.344 135.893 197.514 135.518 197.687 135.161C198.263 133.977 198.925 132.811 199.194 131.523C199.464 130.234 199.267 128.758 198.324 127.84C197.397 126.939 195.977 126.755 194.877 126.101C194.565 125.637 194.253 125.174 194.008 124.673C193.275 123.175 193.203 121.477 193.134 119.794C193.117 119.4 193.101 119.006 193.076 118.617C192.967 116.887 192.627 115.109 191.994 113.485L192.049 113.898C192.016 113.701 191.974 113.505 191.923 113.312C191.286 111.739 190.364 110.324 189.097 109.252C188.958 109.156 188.817 109.064 188.67 108.978C187.393 108.231 185.917 107.908 184.462 107.635C183.299 107.416 182.095 107.231 180.894 107.142C179.692 107.231 178.489 107.416 177.325 107.635C175.871 107.908 174.395 108.231 173.117 108.978C172.971 109.064 172.829 109.156 172.69 109.252C171.423 110.324 170.502 111.739 169.864 113.312C169.814 113.505 169.772 113.701 169.738 113.898L169.793 113.485C169.16 115.109 168.821 116.887 168.711 118.617C168.686 119.006 168.67 119.4 168.654 119.794C168.584 121.477 168.513 123.175 167.78 124.673C167.535 125.174 167.222 125.637 166.911 126.101C165.811 126.755 164.39 126.939 163.464 127.84C162.52 128.758 162.324 130.234 162.593 131.523C162.863 132.811 163.525 133.977 164.101 135.161C164.274 135.518 164.443 135.893 164.438 136.289C164.437 136.406 164.418 136.514 164.392 136.617H166.962H173.907C174.027 136.617 174.144 136.63 174.258 136.648C176.126 135.538 177.484 133.314 177.775 130.665C178.401 131.297 179.373 131.704 180.466 131.704C181.494 131.704 182.413 131.343 183.041 130.775C183.376 133.536 184.873 135.821 186.891 136.839H187.18C189.316 136.839 191.227 137.841 192.471 139.397C192.733 139.725 192.965 140.077 193.164 140.45H196.626C197.919 140.45 199.022 139.598 199.404 138.427C198.438 137.828 197.364 137.348 197.349 136.289Z" fill="#002A54"/>
<path d="M183.229 127.398C183.249 127.312 183.266 127.224 183.289 127.139H182.958C183.055 127.221 183.145 127.307 183.229 127.398Z" fill="#F5CAAA"/>
<path d="M180.466 131.704C181.494 131.704 182.413 131.343 183.041 130.775C182.994 130.391 182.97 129.998 182.97 129.598C182.97 128.833 183.064 128.097 183.229 127.398C183.145 127.307 183.055 127.221 182.958 127.139H177.974C177.837 127.254 177.712 127.378 177.602 127.511C177.75 128.176 177.834 128.874 177.834 129.598C177.834 129.96 177.813 130.316 177.775 130.665C178.401 131.297 179.373 131.704 180.466 131.704Z" fill="#F2A66F"/>
<path d="M180.545 129.421C185.508 129.421 189.532 124.568 189.532 118.58C189.532 112.593 185.508 107.739 180.545 107.739C175.581 107.739 171.558 112.593 171.558 118.58C171.558 124.568 175.581 129.421 180.545 129.421Z" fill="#F5CAAA"/>
<path d="M171.193 121.718C172.375 121.718 173.333 120.569 173.333 119.151C173.333 117.733 172.375 116.583 171.193 116.583C170.012 116.583 169.054 117.733 169.054 119.151C169.054 120.569 170.012 121.718 171.193 121.718Z" fill="#F5CAAA"/>
<path d="M179.506 110.683C179.506 110.683 180.731 114.087 183.309 115.478C184.686 116.221 186.3 116.484 187.846 116.577C188.188 116.597 189.141 116.429 189.428 116.595C190.089 116.977 189.777 118.509 189.781 119.128C190.395 119.17 191.013 119.172 191.628 119.134C191.825 119.122 192.034 119.102 192.193 118.983C192.402 118.827 192.466 118.546 192.507 118.288C193.127 114.414 191.588 110.368 188.723 107.668C186.399 105.477 180.793 102.428 178.963 106.769C178.382 108.148 179.046 109.406 179.506 110.683Z" fill="#002A54"/>
<path d="M189.453 121.718C190.634 121.718 191.592 120.569 191.592 119.151C191.592 117.733 190.634 116.583 189.453 116.583C188.271 116.583 187.313 117.733 187.313 119.151C187.313 120.569 188.271 121.718 189.453 121.718Z" fill="#F5CAAA"/>
<path d="M181.711 110.683C181.711 110.683 180.486 114.087 177.908 115.478C176.53 116.221 174.916 116.484 173.37 116.577C173.029 116.597 172.075 116.429 171.789 116.595C171.127 116.977 171.44 118.509 171.436 119.128C170.821 119.17 170.204 119.172 169.589 119.134C169.391 119.122 169.182 119.102 169.024 118.983C168.815 118.827 168.75 118.546 168.709 118.288C168.09 114.414 169.628 110.368 172.493 107.668C174.818 105.477 180.423 102.428 182.254 106.769C182.835 108.148 182.171 109.406 181.711 110.683Z" fill="#002A54"/>
<path d="M176.836 120.007C177.23 120.007 177.549 119.687 177.549 119.293C177.549 118.899 177.23 118.58 176.836 118.58C176.442 118.58 176.123 118.899 176.123 119.293C176.123 119.687 176.442 120.007 176.836 120.007Z" fill="#002A54"/>
<path d="M174.652 117.805C175.145 116.731 176.589 116.339 177.878 116.93" stroke="#002A54" stroke-width="0.285298" stroke-miterlimit="10" stroke-linecap="round" stroke-linejoin="round"/>
<path d="M184.254 120.007C184.648 120.007 184.967 119.687 184.967 119.293C184.967 118.899 184.648 118.58 184.254 118.58C183.86 118.58 183.54 118.899 183.54 119.293C183.54 119.687 183.86 120.007 184.254 120.007Z" fill="#002A54"/>
<path d="M186.437 117.805C185.945 116.731 184.5 116.339 183.211 116.93" stroke="#002A54" stroke-width="0.285298" stroke-miterlimit="10" stroke-linecap="round" stroke-linejoin="round"/>
<path opacity="0.6" d="M175.98 122.432C176.768 122.432 177.406 122.08 177.406 121.647C177.406 121.214 176.768 120.862 175.98 120.862C175.192 120.862 174.553 121.214 174.553 121.647C174.553 122.08 175.192 122.432 175.98 122.432Z" fill="#FC8B85"/>
<path opacity="0.6" d="M185.11 122.432C185.897 122.432 186.536 122.08 186.536 121.647C186.536 121.214 185.897 120.862 185.11 120.862C184.322 120.862 183.683 121.214 183.683 121.647C183.683 122.08 184.322 122.432 185.11 122.432Z" fill="#FC8B85"/>
<path d="M183.01 124.143H180.683H180.606H178.278C178.278 124.143 178.164 124.54 178.708 125.602C179.024 126.221 179.548 126.839 180.259 126.982C181.253 127.183 182.151 126.442 182.581 125.602C183.124 124.54 183.01 124.143 183.01 124.143Z" fill="white" stroke="#FC8B85" stroke-width="0.285298" stroke-miterlimit="10"/>
<path d="M179.752 119.579L178.268 122.201L179.752 122.915" stroke="#E69264" stroke-width="0.285298" stroke-miterlimit="10" stroke-linecap="round" stroke-linejoin="round"/>
<path d="M172.69 109.253C171.306 110.211 170.289 111.684 169.864 113.312C170.502 111.739 171.423 110.324 172.69 109.253Z" fill="#002A54"/>
<path d="M188.67 108.978C188.817 109.063 188.958 109.156 189.097 109.252C188.814 109.013 188.519 108.786 188.201 108.583C186.053 107.214 183.478 106.952 180.894 107.142C182.095 107.231 183.299 107.416 184.462 107.635C185.917 107.908 187.393 108.231 188.67 108.978Z" fill="#002A54"/>
<path d="M191.994 113.485C191.972 113.427 191.947 113.37 191.923 113.312C191.974 113.505 192.016 113.701 192.049 113.898L191.994 113.485Z" fill="#002A54"/>
<path d="M169.793 113.485L169.988 112.009C169.085 114.497 168.635 117.147 168.654 119.794C168.67 119.4 168.686 119.006 168.711 118.617C168.821 116.887 169.16 115.109 169.793 113.485Z" fill="#002A54"/>
<path d="M191.923 113.312C191.499 111.683 190.481 110.211 189.097 109.252C190.364 110.324 191.286 111.739 191.923 113.312Z" fill="#002A54"/>
<path d="M169.864 113.312C169.841 113.37 169.816 113.427 169.793 113.485L169.738 113.898C169.772 113.701 169.814 113.505 169.864 113.312Z" fill="#002A54"/>
<path d="M177.325 107.635C178.489 107.416 179.692 107.231 180.894 107.142C178.309 106.952 175.734 107.214 173.587 108.583C173.268 108.786 172.973 109.013 172.69 109.252C172.829 109.156 172.971 109.064 173.117 108.978C174.395 108.231 175.871 107.908 177.325 107.635Z" fill="#002A54"/>
<path d="M193.133 119.794C193.152 117.147 192.703 114.497 191.799 112.009L191.994 113.485C192.627 115.109 192.967 116.887 193.076 118.617C193.101 119.006 193.117 119.4 193.133 119.794Z" fill="#002A54"/>
<path d="M192.049 113.898L192.12 114.437C192.105 114.256 192.079 114.077 192.049 113.898Z" fill="#002A54"/>
<path d="M169.738 113.898C169.708 114.077 169.683 114.256 169.667 114.437L169.738 113.898Z" fill="#002A54"/>
<path d="M191.152 140.45H193.164C192.965 140.077 192.733 139.725 192.47 139.397C192.049 139.773 191.609 140.123 191.152 140.45Z" fill="#F5CAAA"/>
<path d="M187.18 136.839H186.891C184.873 135.821 183.376 133.536 183.041 130.776C182.413 131.343 181.494 131.704 180.466 131.704C179.373 131.704 178.401 131.297 177.775 130.665C177.484 133.314 176.126 135.538 174.258 136.648C175.286 136.816 176.071 137.706 176.071 138.782V140.45H191.152C191.609 140.123 192.049 139.773 192.47 139.397C191.227 137.841 189.315 136.839 187.18 136.839Z" fill="#F5CAAA"/>
<path d="M174.258 136.648C174.144 136.63 174.027 136.617 173.907 136.617H166.962H164.392H162.544C162.488 136.617 162.432 136.621 162.377 136.626V137.528C162.377 137.816 162.421 138.093 162.499 138.356C162.858 139.563 163.979 140.45 165.299 140.45H167.926H170.636H176.071V138.782C176.071 137.706 175.286 136.816 174.258 136.648Z" fill="#333333"/>
<path d="M167.876 139.257C167.823 139.257 167.769 139.232 167.747 139.173C167.719 139.108 167.66 138.927 167.59 138.716C167.586 138.702 167.579 138.696 167.565 138.696C167.529 138.693 167.436 138.693 167.334 138.693C167.199 138.693 167.047 138.693 167 138.696C166.988 138.696 166.977 138.702 166.972 138.716C166.916 138.895 166.864 139.058 166.83 139.166C166.809 139.23 166.757 139.259 166.703 139.259C166.64 139.259 166.574 139.216 166.574 139.146C166.574 139.105 166.581 139.087 167.076 137.693C167.113 137.589 167.194 137.541 167.276 137.541C167.362 137.541 167.45 137.595 167.486 137.697C167.631 138.105 167.925 138.893 168 139.069C168.009 139.092 168.014 139.114 168.014 139.135C168.014 139.212 167.946 139.257 167.876 139.257ZM167.497 138.435C167.428 138.222 167.36 138.016 167.323 137.906C167.31 137.865 167.298 137.842 167.285 137.842C167.273 137.842 167.26 137.863 167.244 137.908C167.21 137.998 167.063 138.422 167.063 138.442C167.063 138.451 167.068 138.456 167.081 138.456C167.126 138.456 167.21 138.458 167.289 138.458C167.371 138.458 167.45 138.456 167.482 138.456C167.495 138.456 167.5 138.453 167.5 138.447C167.5 138.444 167.5 138.44 167.497 138.435Z" fill="white"/>
<path d="M168.591 138.365C168.569 138.365 168.562 138.365 168.562 138.401C168.562 138.401 168.567 138.877 168.567 139.067C168.567 139.098 168.567 139.123 168.567 139.135C168.567 139.216 168.505 139.257 168.444 139.257C168.388 139.257 168.331 139.219 168.331 139.144C168.331 139.142 168.331 139.137 168.331 139.135C168.333 139.098 168.333 139.006 168.333 138.897C168.333 138.68 168.331 138.401 168.331 138.401C168.331 138.37 168.329 138.365 168.293 138.365H168.213C168.143 138.365 168.112 138.311 168.112 138.257C168.112 138.202 168.146 138.145 168.213 138.145H168.295C168.317 138.145 168.331 138.145 168.331 138.116C168.331 138.094 168.329 138.069 168.329 138.01C168.329 137.573 168.677 137.543 168.738 137.543C168.818 137.543 168.879 137.568 168.879 137.652C168.879 137.709 168.84 137.765 168.77 137.765C168.768 137.765 168.764 137.765 168.761 137.765C168.757 137.765 168.75 137.765 168.745 137.765C168.564 137.765 168.56 137.962 168.56 138.035C168.56 138.073 168.56 138.094 168.562 138.123C168.562 138.145 168.578 138.145 168.594 138.145H168.768C168.836 138.145 168.87 138.2 168.87 138.254C168.87 138.311 168.836 138.365 168.768 138.365H168.591Z" fill="white"/>
<path d="M169.427 138.361C169.393 138.361 169.393 138.372 169.393 138.385C169.393 138.469 169.386 138.662 169.386 138.811C169.386 138.988 169.393 139.06 169.52 139.06C169.536 139.06 169.554 139.058 169.572 139.056C169.579 139.056 169.583 139.053 169.59 139.053C169.651 139.053 169.687 139.103 169.687 139.153C169.687 139.234 169.612 139.273 169.495 139.273C169.16 139.273 169.16 138.976 169.16 138.884C169.16 138.752 169.164 138.526 169.164 138.426C169.164 138.413 169.164 138.401 169.164 138.392C169.164 138.363 169.151 138.361 169.128 138.361H169.06C168.994 138.361 168.958 138.306 168.958 138.252C168.958 138.2 168.992 138.148 169.06 138.148H169.126C169.162 138.148 169.164 138.141 169.164 138.109C169.164 138.109 169.167 138.064 169.167 138.012C169.167 137.985 169.167 137.958 169.164 137.933C169.164 137.931 169.164 137.928 169.164 137.926C169.164 137.858 169.219 137.824 169.278 137.824C169.398 137.824 169.398 137.933 169.398 137.962C169.398 138.023 169.393 138.109 169.393 138.109C169.393 138.145 169.402 138.148 169.425 138.148H169.576C169.644 138.148 169.676 138.2 169.676 138.254C169.676 138.306 169.644 138.361 169.576 138.361H169.427Z" fill="white"/>
<path d="M170.391 139.277C170.081 139.277 169.85 139.044 169.85 138.707C169.85 138.361 170.095 138.123 170.387 138.123C170.699 138.123 170.876 138.352 170.876 138.524C170.876 138.63 170.806 138.716 170.661 138.721C170.591 138.723 170.543 138.723 170.104 138.723C170.09 138.723 170.086 138.741 170.086 138.766C170.088 138.954 170.233 139.067 170.394 139.067C170.536 139.067 170.622 138.999 170.688 138.929C170.711 138.904 170.738 138.893 170.765 138.893C170.826 138.893 170.885 138.947 170.885 139.01C170.885 139.037 170.876 139.065 170.851 139.09C170.742 139.203 170.62 139.277 170.391 139.277ZM170.64 138.485C170.64 138.453 170.593 138.32 170.389 138.32C170.206 138.32 170.106 138.478 170.106 138.517C170.106 138.537 170.129 138.537 170.339 138.537C170.432 138.537 170.534 138.537 170.595 138.535C170.622 138.533 170.64 138.512 170.64 138.485Z" fill="white"/>
<path d="M171.161 139.153C171.161 139.151 171.161 139.151 171.161 139.148C171.168 138.933 171.171 138.784 171.171 138.65C171.171 138.514 171.168 138.397 171.164 138.245C171.164 138.243 171.164 138.243 171.164 138.241C171.164 138.173 171.229 138.139 171.286 138.139C171.343 138.139 171.401 138.173 171.401 138.245C171.401 138.254 171.399 138.261 171.399 138.268C171.399 138.272 171.399 138.275 171.399 138.277C171.399 138.281 171.399 138.284 171.401 138.284C171.401 138.284 171.406 138.281 171.411 138.275C171.501 138.175 171.623 138.136 171.7 138.136C171.771 138.136 171.811 138.189 171.811 138.245C171.811 138.302 171.771 138.361 171.682 138.37C171.548 138.383 171.399 138.494 171.392 138.637C171.39 138.677 171.39 138.725 171.39 138.786C171.39 138.874 171.392 138.988 171.397 139.148C171.399 139.196 171.372 139.264 171.282 139.264C171.22 139.264 171.161 139.225 171.161 139.153Z" fill="white"/>
<path d="M188.453 159.227C187.543 156.795 184.587 157.886 184.313 159.101C183.937 157.806 181.054 156.841 180.174 159.229C179.194 161.889 183.972 164.277 184.313 164.668C184.655 164.357 189.433 161.844 188.453 159.227Z" fill="#FF5A79"/>
<path d="M195.04 157.766C192.557 157.766 190.544 159.188 190.544 160.941C190.544 161.898 191.157 162.747 192.108 163.329L192.242 164.668L193.342 163.877C193.867 164.028 194.439 164.115 195.04 164.115C197.524 164.115 199.537 162.694 199.537 160.941C199.537 159.188 197.524 157.766 195.04 157.766Z" stroke="#93CEAE" stroke-width="0.529014" stroke-miterlimit="10"/>
<path d="M192.924 161.734C193.216 161.734 193.453 161.497 193.453 161.205C193.453 160.913 193.216 160.676 192.924 160.676C192.632 160.676 192.395 160.913 192.395 161.205C192.395 161.497 192.632 161.734 192.924 161.734Z" fill="#93CEAE"/>
<path d="M195.04 161.734C195.333 161.734 195.569 161.497 195.569 161.205C195.569 160.913 195.333 160.676 195.04 160.676C194.748 160.676 194.511 160.913 194.511 161.205C194.511 161.497 194.748 161.734 195.04 161.734Z" fill="#93CEAE"/>
<path d="M197.156 161.734C197.449 161.734 197.685 161.497 197.685 161.205C197.685 160.913 197.449 160.676 197.156 160.676C196.864 160.676 196.627 160.913 196.627 161.205C196.627 161.497 196.864 161.734 197.156 161.734Z" fill="#93CEAE"/>
<path d="M178.083 161.217C178.083 161.217 175.852 164.668 173.099 164.668C170.346 164.668 168.115 161.217 168.115 161.217C168.115 161.217 170.346 157.766 173.099 157.766C175.852 157.766 178.083 161.217 178.083 161.217Z" fill="#93CEAE"/>
<path d="M173.099 164.284C174.793 164.284 176.166 162.911 176.166 161.217C176.166 159.523 174.793 158.15 173.099 158.15C171.405 158.15 170.032 159.523 170.032 161.217C170.032 162.911 171.405 164.284 173.099 164.284Z" fill="white"/>
<path d="M173.099 163.671C174.454 163.671 175.553 162.572 175.553 161.217C175.553 159.862 174.454 158.763 173.099 158.763C171.744 158.763 170.645 159.862 170.645 161.217C170.645 162.572 171.744 163.671 173.099 163.671Z" fill="#93CEAE"/>
<path d="M175.016 160.834C175.44 160.834 175.783 160.49 175.783 160.067C175.783 159.643 175.44 159.3 175.016 159.3C174.593 159.3 174.249 159.643 174.249 160.067C174.249 160.49 174.593 160.834 175.016 160.834Z" fill="white"/>
<path d="M198.48 142.157C198.217 142.157 197.053 141.675 196.432 141.069C195.84 140.491 195.355 138.997 195.355 138.665C195.355 138.542 195.255 138.443 195.132 138.443C195.01 138.443 194.91 138.542 194.91 138.665C194.91 139.008 194.345 140.512 193.773 141.069C193.174 141.654 192.072 142.157 191.785 142.157C191.662 142.157 191.562 142.257 191.562 142.38C191.562 142.502 191.662 142.602 191.785 142.602C192.076 142.602 193.18 143.101 193.773 143.68C194.345 144.237 194.91 145.748 194.91 146.094C194.91 146.217 195.01 146.316 195.132 146.316C195.255 146.316 195.355 146.217 195.355 146.094C195.355 145.77 195.852 144.246 196.432 143.68C197.047 143.08 198.214 142.602 198.48 142.602C198.603 142.602 198.703 142.502 198.703 142.38C198.703 142.257 198.603 142.157 198.48 142.157Z" fill="#FDEE00"/>
<path d="M202.463 137.877C202.296 137.877 201.514 137.547 201.108 137.151C200.722 136.774 200.391 135.767 200.391 135.553C200.391 135.43 200.291 135.331 200.168 135.331C200.046 135.331 199.946 135.43 199.946 135.553C199.946 135.751 199.588 136.761 199.188 137.151C198.774 137.555 198.034 137.877 197.874 137.877C197.751 137.877 197.651 137.976 197.651 138.099C197.651 138.222 197.751 138.322 197.874 138.322C198.036 138.322 198.778 138.641 199.188 139.041C199.579 139.422 199.946 140.452 199.946 140.646C199.946 140.768 200.046 140.868 200.168 140.868C200.291 140.868 200.391 140.768 200.391 140.646C200.391 140.43 200.722 139.418 201.108 139.041C201.51 138.648 202.294 138.322 202.463 138.322C202.586 138.322 202.686 138.222 202.686 138.099C202.686 137.976 202.586 137.877 202.463 137.877Z" fill="#FDEE00"/>
<path d="M167.138 107.097C166.875 107.097 165.711 106.615 165.091 106.009C164.498 105.431 164.013 103.937 164.013 103.605C164.013 103.482 163.914 103.383 163.791 103.383C163.668 103.383 163.568 103.482 163.568 103.605C163.568 103.948 163.003 105.452 162.431 106.009C161.833 106.594 160.731 107.097 160.443 107.097C160.32 107.097 160.221 107.197 160.221 107.319C160.221 107.442 160.32 107.542 160.443 107.542C160.734 107.542 161.838 108.041 162.431 108.62C163.003 109.177 163.568 110.688 163.568 111.034C163.568 111.157 163.668 111.256 163.791 111.256C163.914 111.256 164.013 111.157 164.013 111.034C164.013 110.71 164.51 109.186 165.091 108.62C165.705 108.02 166.872 107.542 167.138 107.542C167.261 107.542 167.361 107.442 167.361 107.319C167.361 107.197 167.261 107.097 167.138 107.097Z" fill="#FDEE00"/>
<path d="M171.122 102.817C170.954 102.817 170.173 102.487 169.767 102.091C169.38 101.714 169.049 100.707 169.049 100.493C169.049 100.37 168.95 100.271 168.827 100.271C168.704 100.271 168.604 100.37 168.604 100.493C168.604 100.691 168.246 101.701 167.846 102.091C167.432 102.495 166.693 102.817 166.532 102.817C166.409 102.817 166.309 102.916 166.309 103.039C166.309 103.162 166.409 103.262 166.532 103.262C166.695 103.262 167.436 103.581 167.846 103.981C168.237 104.362 168.604 105.392 168.604 105.585C168.604 105.708 168.704 105.808 168.827 105.808C168.95 105.808 169.049 105.708 169.049 105.585C169.049 105.37 169.38 104.358 169.767 103.981C170.169 103.588 170.952 103.262 171.122 103.262C171.244 103.262 171.344 103.162 171.344 103.039C171.344 102.916 171.244 102.817 171.122 102.817Z" fill="#FDEE00"/>
<path d="M140.2 86.9404L141.063 88.6883L142.992 88.9686L141.596 90.3291L141.925 92.2502L140.2 91.3432L138.475 92.2502L138.804 90.3291L137.409 88.9686L139.338 88.6883L140.2 86.9404Z" fill="#FDEE00"/>
<path d="M148.72 86.9404L149.582 88.6883L151.511 88.9686L150.115 90.3291L150.445 92.2502L148.72 91.3432L146.994 92.2502L147.324 90.3291L145.928 88.9686L147.857 88.6883L148.72 86.9404Z" fill="#FDEE00"/>
<path d="M157.239 86.9404L158.102 88.6883L160.031 88.9686L158.635 90.3291L158.964 92.2502L157.239 91.3432L155.514 92.2502L155.843 90.3291L154.448 88.9686L156.376 88.6883L157.239 86.9404Z" fill="#FDEE00"/>
<path d="M165.758 86.9404L166.621 88.6883L168.55 88.9686L167.154 90.3291L167.484 92.2502L165.758 91.3432L164.033 92.2502L164.363 90.3291L162.967 88.9686L164.896 88.6883L165.758 86.9404Z" fill="#FDEE00"/>
<path d="M174.278 86.9404L175.14 88.6883L177.069 88.9686L175.674 90.3291L176.003 92.2502L174.278 91.3432L172.553 92.2502L172.882 90.3291L171.486 88.9686L173.415 88.6883L174.278 86.9404Z" fill="#FDEE00"/>
<path d="M216.689 128.351H216.689C222.907 128.351 227.995 123.263 227.995 117.045V112.805C227.995 106.587 222.907 101.499 216.689 101.499H216.689C210.47 101.499 205.383 106.587 205.383 112.805V117.045C205.383 123.263 210.47 128.351 216.689 128.351Z" fill="#F5CAAA"/>
<path d="M219.515 156.616H219.515C225.734 156.616 230.821 151.528 230.821 145.31V141.07C230.821 134.852 225.734 129.764 219.515 129.764H219.515C213.297 129.764 208.209 134.852 208.209 141.07V145.31C208.209 151.528 213.297 156.616 219.515 156.616Z" fill="#F5CAAA"/>
<path d="M185.125 243.997H139.67C135.295 243.997 131.716 240.418 131.716 236.043V236.043C131.716 231.668 135.295 228.088 139.67 228.088H185.125C189.501 228.088 193.08 231.668 193.08 236.043V236.043C193.08 240.418 189.501 243.997 185.125 243.997Z" fill="#F35347"/>
<path d="M199.871 195.256H120.942C118.387 195.256 116.315 193.185 116.315 190.63V176.103C116.315 173.548 118.387 171.477 120.942 171.477H199.871C202.426 171.477 204.497 173.548 204.497 176.103V190.63C204.497 193.185 202.426 195.256 199.871 195.256Z" fill="url(#paint8_linear_9236_37400)"/>
<path d="M146.868 179.738L148.047 182.127L150.683 182.51L148.775 184.369L149.226 186.995L146.868 185.755L144.51 186.995L144.96 184.369L143.053 182.51L145.689 182.127L146.868 179.738Z" fill="#FDEE00"/>
<path d="M158.757 179.738L159.936 182.127L162.572 182.51L160.665 184.369L161.115 186.995L158.757 185.755L156.4 186.995L156.85 184.369L154.942 182.51L157.579 182.127L158.757 179.738Z" fill="#FDEE00"/>
<path d="M170.647 179.738L171.826 182.127L174.462 182.51L172.555 184.369L173.005 186.995L170.647 185.755L168.289 186.995L168.74 184.369L166.832 182.51L169.468 182.127L170.647 179.738Z" fill="#FDEE00"/>
<path d="M182.537 179.738L183.716 182.127L186.352 182.51L184.444 184.369L184.895 186.995L182.537 185.755L180.179 186.995L180.629 184.369L178.722 182.51L181.358 182.127L182.537 179.738Z" fill="#FDEE00"/>
<path d="M194.426 179.738L195.605 182.127L198.241 182.51L196.334 184.369L196.784 186.995L194.426 185.755L192.069 186.995L192.519 184.369L190.611 182.51L193.247 182.127L194.426 179.738Z" fill="#FDEE00"/>
<path d="M130.318 191.546C134.835 191.546 138.497 187.884 138.497 183.367C138.497 178.849 134.835 175.187 130.318 175.187C125.801 175.187 122.139 178.849 122.139 183.367C122.139 187.884 125.801 191.546 130.318 191.546Z" fill="white"/>
<path d="M130.499 185.401C132.495 185.401 134.114 183.782 134.114 181.786C134.114 179.79 132.495 178.171 130.499 178.171C128.503 178.171 126.884 179.79 126.884 181.786C126.884 183.782 128.503 185.401 130.499 185.401Z" fill="#002A54"/>
<path d="M137.186 191.546C137.186 188.669 135.416 186.209 132.907 185.187C132.267 185.763 131.428 186.124 130.499 186.124C129.518 186.124 128.631 185.73 127.979 185.095C125.34 186.053 123.45 188.575 123.45 191.546H137.186Z" fill="#002A54"/>
<path d="M199.871 222.778H120.942C118.387 222.778 116.315 220.706 116.315 218.151V203.624C116.315 201.069 118.387 198.998 120.942 198.998H199.871C202.426 198.998 204.497 201.069 204.497 203.624V218.151C204.497 220.706 202.426 222.778 199.871 222.778Z" fill="url(#paint9_linear_9236_37400)"/>
<path d="M146.868 207.26L148.047 209.648L150.683 210.031L148.775 211.891L149.226 214.516L146.868 213.277L144.51 214.516L144.96 211.891L143.053 210.031L145.689 209.648L146.868 207.26Z" fill="#FDEE00"/>
<path d="M158.757 207.26L159.936 209.648L162.572 210.031L160.665 211.891L161.115 214.516L158.757 213.277L156.4 214.516L156.85 211.891L154.942 210.031L157.579 209.648L158.757 207.26Z" fill="#FDEE00"/>
<path d="M170.647 207.26L171.826 209.648L174.462 210.031L172.555 211.891L173.005 214.516L170.647 213.277L168.289 214.516L168.74 211.891L166.832 210.031L169.468 209.648L170.647 207.26Z" fill="#FDEE00"/>
<path d="M182.537 207.26L183.716 209.648L186.352 210.031L184.444 211.891L184.895 214.516L182.537 213.277L180.179 214.516L180.629 211.891L178.722 210.031L181.358 209.648L182.537 207.26Z" fill="#FDEE00"/>
<path d="M194.426 207.26L195.605 209.648L198.241 210.031L196.334 211.891L196.784 214.516L194.426 213.277L192.069 214.516L192.519 211.891L190.611 210.031L193.247 209.648L194.426 207.26Z" fill="#002A54"/>
<path d="M130.318 219.067C134.835 219.067 138.497 215.405 138.497 210.888C138.497 206.371 134.835 202.709 130.318 202.709C125.801 202.709 122.139 206.371 122.139 210.888C122.139 215.405 125.801 219.067 130.318 219.067Z" fill="white"/>
<path d="M130.499 212.922C132.495 212.922 134.114 211.304 134.114 209.307C134.114 207.311 132.495 205.693 130.499 205.693C128.503 205.693 126.884 207.311 126.884 209.307C126.884 211.304 128.503 212.922 130.499 212.922Z" fill="#002A54"/>
<path d="M137.186 219.067C137.186 216.191 135.416 213.731 132.907 212.708C132.267 213.284 131.428 213.645 130.499 213.645C129.518 213.645 128.631 213.251 127.979 212.616C125.34 213.574 123.45 216.097 123.45 219.067H137.186Z" fill="#002A54"/>

</svg>
