<svg width="297" height="273" viewBox="0 0 297 273" fill="none" xmlns="http://www.w3.org/2000/svg">
<defs>
<linearGradient id="paint0_linear_9236_37247" x1="5.45605" y1="110.621" x2="285.985" y2="110.621" gradientUnits="userSpaceOnUse">
<stop stop-color="#A7DAE3"/>
<stop offset="0.995824" stop-color="#D9F9FF"/>
</linearGradient>
<linearGradient id="paint1_linear_9236_37247" x1="162.956" y1="42.7313" x2="246.618" y2="42.7313" gradientUnits="userSpaceOnUse">
<stop stop-color="#FFB4B1"/>
<stop offset="0.995824" stop-color="#FC8B85"/>
</linearGradient>
<linearGradient id="paint2_linear_9236_37247" x1="5.69141" y1="212.425" x2="285.75" y2="212.425" gradientUnits="userSpaceOnUse">
<stop stop-color="#FFB4B1"/>
<stop offset="0.995824" stop-color="#FC8B85"/>
</linearGradient>
</defs>
<path d="M217.643 63.1249C214.467 64.7058 211.536 67.0444 208.098 67.7045C195.631 70.0971 179.403 54.1023 170.316 46.4784C135.567 17.322 85.7612 2.86909 43.1179 18.8832C32.3498 22.927 22.2516 30.6842 17.5146 41.9639C11.8839 55.3715 14.658 71.0906 18.7424 85.1468C22.6857 98.7174 30.5697 116.073 26.2041 130.247C23.6335 138.593 18.1083 144.419 14.1403 151.879C9.51568 160.573 6.58503 170.344 5.68403 180.347C5.31776 184.414 5.28762 188.594 6.39529 192.498C10.8613 208.238 34.2844 205.047 45.9426 205.612C69.8004 206.767 93.6888 207.246 117.565 207.674C165.41 208.531 213.264 208.855 261.115 208.968C266.426 208.98 271.736 208.991 277.046 208.991C277.046 208.991 292.153 202.411 283.089 185.962C274.026 169.513 255.9 149.775 264.959 139.905C281.71 121.653 282.066 86.9913 262.277 69.8554C251.707 60.7019 230.137 57.0176 217.793 63.0511C217.743 63.0755 217.693 63.1001 217.643 63.1249Z" fill="url(#paint0_linear_9236_37247)"/>
<path d="M204.787 84.5621C227.889 84.5621 246.618 65.8338 246.618 42.7313C246.618 19.6287 227.889 0.900452 204.787 0.900452C181.684 0.900452 162.956 19.6287 162.956 42.7313C162.956 65.8338 181.684 84.5621 204.787 84.5621Z" fill="url(#paint1_linear_9236_37247)"/>
<path d="M228.116 64.3477H179.464C176.413 64.3477 173.939 61.8742 173.939 58.823V24.5771C173.939 21.526 176.413 19.0525 179.464 19.0525H228.116C231.167 19.0525 233.641 21.526 233.641 24.5771V58.823C233.641 61.8742 231.167 64.3477 228.116 64.3477Z" fill="white"/>
<path d="M203.79 75.302L213.717 58.1073H193.863L203.79 75.302Z" fill="white"/>
<path d="M197.932 54.9927L199.835 51.2195C203.218 52.9255 208.374 49.8094 211.094 44.415C213.814 39.0207 213.254 33.022 209.871 31.316L211.773 27.5429C217.295 30.327 218.682 38.7495 214.866 46.3171C211.05 53.8847 203.453 57.7767 197.932 54.9927Z" fill="#4DA78B"/>
<path d="M198.351 45.6365C198.882 44.5837 200.165 44.1606 201.218 44.6915L202.641 45.4092C204.93 46.5634 205.957 49.1865 204.922 51.2383L202.665 55.7148C201.63 57.7666 198.911 58.501 196.622 57.3467L195.199 56.629C194.146 56.0982 193.723 54.8145 194.254 53.7617L198.351 45.6365Z" fill="#4DA78B"/>
<path d="M208.596 25.3173C209.127 24.2645 210.411 23.8414 211.464 24.3723L212.887 25.09C215.176 26.2442 216.203 28.8673 215.168 30.9191L212.911 35.3956C211.876 37.4474 209.157 38.1817 206.868 37.0275L205.444 36.3098C204.392 35.779 203.969 34.4952 204.499 33.4425L208.596 25.3173Z" fill="#4DA78B"/>
<g opacity="0.6">
<path opacity="0.6" d="M189.768 61.7477L224.513 27.0026L220.828 23.3175L186.083 58.0626L189.768 61.7477Z" fill="#F35347"/>
<path opacity="0.6" d="M186.083 27.0026L220.828 61.7477L224.513 58.0626L189.768 23.3175L186.083 27.0026Z" fill="#F35347"/>
</g>
<path d="M183.283 178.67H138.309L140.986 168.497H180.606L183.283 178.67Z" fill="#007994"/>
<path d="M180.071 175.993H141.522V201.692H180.071V175.993Z" fill="#007994"/>
<path d="M37.4279 184.368H11.4424V201.692H37.4279V184.368Z" fill="#007994"/>
<path d="M35.1495 178.383H21.2319V188.173H35.1495V178.383Z" fill="#007994"/>
<path d="M222.7 175.993H194.446V201.692H222.7V175.993Z" fill="#007994"/>
<path d="M208.573 162.273L190.207 179.562H226.94L208.573 162.273Z" fill="#007994"/>
<path d="M115.989 95.9507C115.989 112.876 85.3441 139.403 85.3441 139.403C85.3441 139.403 54.6987 112.876 54.6987 95.9507C54.6987 79.0258 68.4191 65.3054 85.3441 65.3054C102.269 65.3054 115.989 79.0258 115.989 95.9507Z" fill="#F35347"/>
<path d="M85.344 108.3C92.1645 108.3 97.6936 102.771 97.6936 95.9507C97.6936 89.1302 92.1645 83.6011 85.344 83.6011C78.5235 83.6011 72.9944 89.1302 72.9944 95.9507C72.9944 102.771 78.5235 108.3 85.344 108.3Z" fill="white"/>
<path d="M62.657 156.17H41.1155V201.692H62.657V156.17Z" fill="white"/>
<path d="M57.1698 160.235H46.6023V198.44H57.1698V160.235Z" fill="#00BBA9"/>
<path d="M51.0732 160.641H46.9072V167.958H51.0732V160.641Z" fill="#4D4D4D"/>
<path d="M50.6667 161.048V167.551H47.3136V161.048H50.6667ZM51.4796 160.235H46.5007V168.364H51.4796V160.235Z" fill="white"/>
<path d="M56.8652 160.641H52.6992V167.958H56.8652V160.641Z" fill="#4D4D4D"/>
<path d="M56.4585 161.048V167.551H53.1053V161.048H56.4585ZM57.2714 160.235H52.2925V168.364H57.2714V160.235Z" fill="white"/>
<path d="M51.0732 174.054H46.9072V181.37H51.0732V174.054Z" fill="#4D4D4D"/>
<path d="M50.6667 174.46V180.963H47.3136V174.46H50.6667ZM51.4796 173.647H46.5007V181.776H51.4796V173.647Z" fill="white"/>
<path d="M56.8652 174.054H52.6992V181.37H56.8652V174.054Z" fill="#4D4D4D"/>
<path d="M56.4585 174.46V180.963H53.1053V174.46H56.4585ZM57.2714 173.647H52.2925V181.776H57.2714V173.647Z" fill="white"/>
<path d="M51.0732 187.466H46.9072V194.783H51.0732V187.466Z" fill="#4D4D4D"/>
<path d="M50.6667 187.873V194.376H47.3136V187.873H50.6667ZM51.4796 187.06H46.5007V195.189H51.4796V187.06Z" fill="white"/>
<path d="M56.8652 187.466H52.6992V194.783H56.8652V187.466Z" fill="#4D4D4D"/>
<path d="M56.4585 187.873V194.376H53.1053V187.873H56.4585ZM57.2714 187.06H52.2925V195.189H57.2714V187.06Z" fill="white"/>
<path d="M108.813 201.692L130.354 201.692L130.354 156.17L108.813 156.17L108.813 201.692Z" fill="white"/>
<path d="M114.3 198.44L124.867 198.44L124.867 160.235L114.3 160.235L114.3 198.44Z" fill="#00BBA9"/>
<path d="M124.562 160.641H120.396V167.958H124.562V160.641Z" fill="#4D4D4D"/>
<path d="M124.156 161.048V167.551H120.803V161.048H124.156ZM124.969 160.235H119.99V168.364H124.969V160.235Z" fill="white"/>
<path d="M118.771 160.641H114.604V167.958H118.771V160.641Z" fill="#4D4D4D"/>
<path d="M118.364 161.048V167.551H115.011V161.048H118.364ZM119.177 160.235H114.198V168.364H119.177V160.235Z" fill="white"/>
<path d="M124.562 174.054H120.396V181.37H124.562V174.054Z" fill="#4D4D4D"/>
<path d="M124.156 174.46V180.963H120.803V174.46H124.156ZM124.969 173.647H119.99V181.776H124.969V173.647Z" fill="white"/>
<path d="M118.771 174.054H114.604V181.37H118.771V174.054Z" fill="#4D4D4D"/>
<path d="M118.364 174.46V180.963H115.011V174.46H118.364ZM119.177 173.647H114.198V181.776H119.177V173.647Z" fill="white"/>
<path d="M124.562 187.466H120.396V194.783H124.562V187.466Z" fill="#4D4D4D"/>
<path d="M124.156 187.873V194.376H120.803V187.873H124.156ZM124.969 187.06H119.99V195.189H124.969V187.06Z" fill="white"/>
<path d="M118.771 187.466H114.604V194.783H118.771V187.466Z" fill="#4D4D4D"/>
<path d="M118.364 187.873V194.376H115.011V187.873H118.364ZM119.177 187.06H114.198V195.189H119.177V187.06Z" fill="white"/>
<path d="M108.795 143.977H62.4604V201.692H108.795V143.977Z" fill="#00BBA9"/>
<path d="M102.698 151.699H68.9634V179.338H102.698V151.699Z" fill="white"/>
<path d="M102.698 159.015H68.9634V160.641H102.698V159.015Z" fill="#999999"/>
<path d="M77.6005 162.267H72.6216V174.054H77.6005V162.267Z" fill="#4D4D4D"/>
<path d="M84.6115 162.267H79.6326V174.054H84.6115V162.267Z" fill="#4D4D4D"/>
<path d="M91.6227 162.267H86.6438V174.054H91.6227V162.267Z" fill="#4D4D4D"/>
<path d="M103.151 162.267H98.1721V174.054H103.151V162.267Z" fill="#4D4D4D"/>
<path d="M108.795 169.529H62.4604V179.283H108.795V169.529Z" fill="white"/>
<path d="M85.4248 184.418H76.4824V201.082H85.4248V184.418Z" fill="#4D4D4D"/>
<path d="M84.8147 185.028V200.473H77.0924V185.028H84.8147ZM86.0341 183.809H75.873V201.692H86.0341V183.809Z" fill="white"/>
<path d="M84.4083 191.124H83.189V194.376H84.4083V191.124Z" fill="#4D4D4D"/>
<path d="M84.4083 191.124H83.189V194.376H84.4083V191.124Z" fill="white"/>
<path d="M94.7725 184.418H85.8311V201.082H94.7725V184.418Z" fill="#4D4D4D"/>
<path d="M94.163 185.028V200.473H86.4406V185.028H94.163ZM95.3823 183.809H85.2212V201.692H95.3823V183.809Z" fill="white"/>
<path d="M87.4561 191.734L87.457 193.766L87.4561 191.734Z" fill="#4D4D4D"/>
<path d="M88.0664 191.124H86.8472V194.376H88.0664V191.124Z" fill="white"/>
<path d="M78.6992 176.219C77.2822 176.219 76.5195 175.166 76.5195 174.056C76.5195 172.9 77.333 171.802 78.7227 171.802C79.627 171.802 80.2422 172.326 80.2422 172.633C80.2422 172.827 80.0771 172.986 79.8945 172.986C79.792 172.986 79.6895 172.94 79.6045 172.832C79.3828 172.559 79.0234 172.428 78.665 172.428C77.7031 172.428 77.1914 173.248 77.1914 174.016C77.1914 174.494 77.4697 175.564 78.6709 175.564C79.1035 175.564 79.5303 175.399 79.7637 175.086C79.8438 174.978 79.9404 174.938 80.043 174.938C80.2363 174.938 80.4238 175.109 80.4238 175.302C80.4238 175.598 79.7471 176.219 78.6992 176.219Z" fill="#00BBA9"/>
<path d="M81.123 172.189C81.123 171.967 81.2822 171.853 81.4424 171.853C81.6016 171.853 81.7666 171.967 81.7666 172.201C81.7666 172.206 81.7666 172.217 81.7666 172.223C81.749 172.587 81.7324 173.789 81.7324 174.58C81.7324 174.904 81.7383 175.16 81.7432 175.257C81.7666 175.53 81.8916 175.53 82.666 175.53C82.9961 175.53 83.3604 175.524 83.4678 175.519C83.4795 175.519 83.4854 175.519 83.4971 175.519C83.6904 175.519 83.8037 175.667 83.8037 175.82C83.8037 175.974 83.6904 176.133 83.4453 176.145C83.3711 176.15 83.0352 176.156 82.7002 176.156C82.3701 176.156 82.0342 176.15 81.96 176.145C81.4365 176.105 81.123 175.917 81.1064 175.416C81.1006 175.296 81.1006 175.115 81.1006 174.904C81.1006 174.124 81.123 172.878 81.123 172.314C81.123 172.269 81.123 172.229 81.123 172.195V172.189Z" fill="#00BBA9"/>
<path d="M85.1583 175.86C85.1583 176.059 84.9874 176.162 84.8165 176.162C84.6456 176.162 84.4747 176.059 84.4747 175.86V175.855C84.4864 175.171 84.504 174.409 84.504 173.674C84.504 173.134 84.4923 172.616 84.4747 172.155C84.464 171.916 84.7198 171.853 84.8223 171.853C84.9874 171.853 85.1583 171.944 85.1583 172.132C85.1583 172.138 85.1583 172.138 85.1583 172.144C85.1466 172.616 85.1407 173.151 85.1407 173.703C85.1407 174.415 85.1466 175.154 85.1583 175.855V175.86Z" fill="#00BBA9"/>
<path d="M86.1592 175.889C86.1709 175.302 86.1768 174.614 86.1768 173.959C86.1768 173.39 86.1709 172.849 86.165 172.422C86.165 172.417 86.165 172.405 86.165 172.399C86.165 172.001 86.3877 171.842 86.6377 171.842C86.8486 171.842 87.0762 171.961 87.1953 172.149C87.5537 172.718 88.5049 174.494 88.9375 175.143C88.9707 175.194 89 175.223 89.0166 175.223C89.0342 175.223 89.0566 175.206 89.0566 174.983C89.0566 174.449 89.0391 172.673 89.0225 172.149C89.0166 171.961 89.1699 171.842 89.3525 171.842C89.5176 171.842 89.6826 171.944 89.6826 172.138C89.6826 172.144 89.6826 172.144 89.6826 172.149C89.6709 172.548 89.666 173.1 89.666 173.669C89.666 174.392 89.6709 175.137 89.6826 175.632C89.6826 175.638 89.6826 175.644 89.6826 175.644C89.6826 175.985 89.4326 176.185 89.165 176.185C88.9824 176.185 88.8008 176.093 88.6748 175.9C88.2764 175.268 87.2129 173.322 86.9053 172.804C86.8828 172.77 86.8428 172.696 86.8145 172.696C86.7803 172.696 86.7803 172.752 86.7803 173.014C86.7803 173.606 86.7969 175.285 86.8145 175.889C86.8145 175.894 86.8145 175.894 86.8145 175.9C86.8145 176.082 86.6543 176.168 86.4893 176.168C86.3242 176.168 86.1592 176.076 86.1592 175.894V175.889Z" fill="#00BBA9"/>
<path d="M91.3663 175.86C91.3663 176.059 91.1954 176.162 91.0245 176.162C90.8536 176.162 90.6827 176.059 90.6827 175.86V175.855C90.6944 175.171 90.711 174.409 90.711 173.674C90.711 173.134 90.7003 172.616 90.6827 172.155C90.672 171.916 90.9278 171.853 91.0304 171.853C91.1954 171.853 91.3663 171.944 91.3663 172.132C91.3663 172.138 91.3663 172.138 91.3663 172.144C91.3546 172.616 91.3487 173.151 91.3487 173.703C91.3487 174.415 91.3546 175.154 91.3663 175.855V175.86Z" fill="#00BBA9"/>
<path d="M94.3594 176.219C92.9424 176.219 92.1797 175.166 92.1797 174.056C92.1797 172.9 92.9932 171.802 94.3828 171.802C95.2871 171.802 95.9023 172.326 95.9023 172.633C95.9023 172.827 95.7373 172.986 95.5547 172.986C95.4521 172.986 95.3496 172.94 95.2646 172.832C95.043 172.559 94.6836 172.428 94.3252 172.428C93.3633 172.428 92.8516 173.248 92.8516 174.016C92.8516 174.494 93.1299 175.564 94.3311 175.564C94.7637 175.564 95.1904 175.399 95.4238 175.086C95.5039 174.978 95.6006 174.938 95.7031 174.938C95.8965 174.938 96.084 175.109 96.084 175.302C96.084 175.598 95.4072 176.219 94.3594 176.219Z" fill="#00BBA9"/>
<path d="M279.197 201.068H12.2438C8.6399 201.068 5.69141 204.016 5.69141 207.62C5.69141 211.224 8.6399 214.172 12.2438 214.172H20.1181C19.6791 215.035 19.4261 216.005 19.4261 217.034V217.426C19.4261 220.922 22.2865 223.783 25.7827 223.783H266.431C269.927 223.783 272.788 220.922 272.788 217.426V217.034C272.788 216.005 272.535 215.035 272.096 214.172H279.197C282.801 214.172 285.75 211.224 285.75 207.62C285.75 204.016 282.801 201.068 279.197 201.068Z" fill="url(#paint2_linear_9236_37247)"/>
<path d="M293.348 237.33C289.606 233.663 285.865 229.997 282.123 226.331C276.472 220.793 270.559 214.798 268.86 207.07C267.618 201.423 268.805 195.532 268.33 189.77C267.745 182.67 264.679 176.056 262.252 169.358C257.717 156.844 255.32 143.559 255.195 130.25C255.183 129.017 255.183 127.743 254.688 126.614C253.611 124.155 250.393 123.192 247.817 123.95C245.242 124.708 243.255 126.77 241.73 128.979C233.347 141.119 236.165 157.45 239.321 171.861C225.046 160.711 209.853 150.736 193.946 142.071C191.482 140.729 188.932 139.396 186.149 139.038C183.366 138.68 180.264 139.492 178.596 141.748C177.401 143.365 177.099 145.452 176.814 147.443C174.992 160.143 172.328 172.763 171.795 185.582C171.263 198.402 173.013 211.675 179.449 222.775C187.665 236.945 203.072 246.216 219.255 248.751C226.334 249.86 234.064 249.971 239.729 254.359C242.372 256.406 244.302 259.214 246.188 261.974C247.705 264.194 249.222 266.413 250.739 268.633C251.499 269.746 252.298 270.895 253.466 271.569C255.272 272.611 257.532 272.29 259.564 271.82C274.534 268.361 287.836 258.251 295.178 244.755C296.773 241.821 296.818 239.912 294.314 237.702L293.348 237.33Z" fill="#F5CAAA"/>
<path d="M233.815 243.824H167.857C163.647 243.824 160.234 240.411 160.234 236.201V103.64C160.234 99.4304 163.647 96.0176 167.857 96.0176H233.815C238.025 96.0176 241.438 99.4304 241.438 103.64V236.201C241.438 240.411 238.025 243.824 233.815 243.824Z" fill="#00BBA9"/>
<path d="M236.181 101.73H165.491V233.113H236.181V101.73Z" fill="#FFF4D9"/>
<path d="M227.955 184.429H178.552C176.319 184.429 174.491 182.602 174.491 180.368V141.793C174.491 139.56 176.319 137.733 178.552 137.733H227.955C230.188 137.733 232.015 139.56 232.015 141.793V180.368C232.015 182.602 230.188 184.429 227.955 184.429Z" fill="#BDCCD4"/>
<path d="M171.446 151.945V180.368C171.446 182.602 173.273 184.429 175.506 184.429H224.909C227.143 184.429 228.97 182.602 228.97 180.368V151.945H171.446Z" fill="#F7F7F7"/>
<path d="M228.97 141.793C228.97 139.56 227.143 137.733 224.909 137.733H175.506C173.273 137.733 171.446 139.56 171.446 141.793V151.945H228.97V141.793Z" fill="#00BBA9" stroke="#E6E6E6" stroke-width="0.338377" stroke-miterlimit="10"/>
<path d="M184.135 143.485C183.111 143.485 182.274 142.648 182.274 141.624V133.165C182.274 132.141 183.111 131.304 184.135 131.304C185.159 131.304 185.996 132.141 185.996 133.165V141.624C185.996 142.648 185.159 143.485 184.135 143.485Z" fill="#007994"/>
<path d="M216.958 143.485C215.934 143.485 215.097 142.648 215.097 141.624V133.165C215.097 132.141 215.934 131.304 216.958 131.304C217.981 131.304 218.819 132.141 218.819 133.165V141.624C218.819 142.648 217.981 143.485 216.958 143.485Z" fill="#007994"/>
<path d="M223.894 166.495H175.506C175.134 166.495 174.83 166.19 174.83 165.818C174.83 165.446 175.134 165.141 175.506 165.141H223.894C224.267 165.141 224.571 165.446 224.571 165.818C224.571 166.19 224.267 166.495 223.894 166.495Z" fill="#BDCCD4"/>
<path d="M207.314 182.216V153.819C207.314 153.533 207.548 153.298 207.834 153.298H208.147C208.433 153.298 208.667 153.533 208.667 153.819V182.216C208.667 182.503 208.433 182.737 208.147 182.737H207.834C207.548 182.737 207.314 182.503 207.314 182.216Z" fill="#BDCCD4"/>
<path d="M190.395 182.216V153.819C190.395 153.533 190.629 153.298 190.916 153.298H191.228C191.514 153.298 191.749 153.533 191.749 153.819V182.216C191.749 182.503 191.514 182.737 191.228 182.737H190.916C190.629 182.737 190.395 182.503 190.395 182.216Z" fill="#BDCCD4"/>
<path d="M182.105 163.111C184.441 163.111 186.335 161.217 186.335 158.881C186.335 156.545 184.441 154.652 182.105 154.652C179.769 154.652 177.875 156.545 177.875 158.881C177.875 161.217 179.769 163.111 182.105 163.111Z" stroke="#F35347" stroke-width="1.01513" stroke-miterlimit="10"/>
<path d="M199.531 179.184C201.867 179.184 203.761 177.29 203.761 174.954C203.761 172.618 201.867 170.725 199.531 170.725C197.195 170.725 195.302 172.618 195.302 174.954C195.302 177.29 197.195 179.184 199.531 179.184Z" stroke="#F35347" stroke-width="1.01513" stroke-miterlimit="10"/>
<path d="M217.042 163.28C219.705 163.28 221.864 161.121 221.864 158.458C221.864 155.795 219.705 153.637 217.042 153.637C214.379 153.637 212.22 155.795 212.22 158.458C212.22 161.121 214.379 163.28 217.042 163.28Z" fill="#00BBA9"/>
<path d="M213.863 158.649L216.279 160.992L219.742 156.53" stroke="white" stroke-width="1.37288" stroke-miterlimit="10" stroke-linecap="round" stroke-linejoin="round"/>
<path d="M222.983 217.156H180.478C176.387 217.156 173.04 213.809 173.04 209.718V209.718C173.04 205.627 176.387 202.28 180.478 202.28H222.983C227.074 202.28 230.422 205.627 230.422 209.718V209.718C230.422 213.809 227.074 217.156 222.983 217.156Z" fill="#F35347"/>
<path d="M192.289 214.089C192.14 214.101 191.842 214.112 191.556 214.112C190.443 214.112 189.126 214.066 189.08 212.634C189.058 212.153 189.058 211.293 189.058 210.365C189.058 208.967 189.068 207.409 189.092 206.675C189.126 205.243 190.398 205.22 191.372 205.22C191.624 205.22 191.865 205.231 192.037 205.243C193.938 205.369 194.649 206.377 194.649 207.34C194.649 208.21 194.076 209.059 193.274 209.173C193.16 209.196 193.091 209.219 193.091 209.242C193.091 209.253 193.137 209.276 193.263 209.288C194.5 209.379 195.165 210.365 195.165 211.431C195.165 212.657 194.271 213.975 192.289 214.089ZM193.848 211.305C193.848 210.628 193.389 209.964 192.335 209.884C192.048 209.861 191.75 209.85 191.464 209.85C190.398 209.85 190.295 209.884 190.295 210.113C190.295 211.545 190.295 212.072 190.329 212.382C190.387 212.806 190.501 212.943 191.566 212.943C191.83 212.943 192.117 212.932 192.335 212.92C193.286 212.863 193.848 212.072 193.848 211.305ZM191.326 206.4C190.593 206.4 190.363 206.492 190.329 206.927C190.307 207.202 190.317 207.855 190.307 208.52C190.307 208.761 190.467 208.761 191.223 208.761C191.498 208.761 191.796 208.761 192.002 208.75C192.827 208.704 193.354 208.062 193.354 207.455C193.354 206.916 192.931 206.412 191.922 206.412C191.922 206.412 191.624 206.4 191.326 206.4Z" fill="white"/>
<path d="M196.188 211.167C196.188 209.494 197.437 208.268 199.075 208.268C200.714 208.268 201.952 209.494 201.952 211.167C201.952 212.897 200.714 214.066 199.075 214.066C197.437 214.066 196.188 212.897 196.188 211.167ZM200.795 211.167C200.795 210.033 200.016 209.322 199.075 209.322C198.136 209.322 197.345 210.033 197.345 211.167C197.345 212.29 198.124 212.989 199.075 212.989C200.026 212.989 200.795 212.29 200.795 211.167Z" fill="white"/>
<path d="M202.963 211.167C202.963 209.494 204.212 208.268 205.851 208.268C207.489 208.268 208.728 209.494 208.728 211.167C208.728 212.897 207.489 214.066 205.851 214.066C204.212 214.066 202.963 212.897 202.963 211.167ZM207.57 211.167C207.57 210.033 206.791 209.322 205.851 209.322C204.911 209.322 204.12 210.033 204.12 211.167C204.12 212.29 204.899 212.989 205.851 212.989C206.802 212.989 207.57 212.29 207.57 211.167Z" fill="white"/>
<path d="M214.46 214.021C214.311 214.021 214.15 213.952 214.013 213.814C213.681 213.471 212.317 211.992 211.824 211.419C211.778 211.362 211.698 211.339 211.595 211.339C211.331 211.339 211.331 211.408 211.331 212.176C211.331 212.428 211.343 212.794 211.366 213.436C211.377 213.677 211.24 214.021 210.781 214.021C210.472 214.021 210.174 213.826 210.174 213.459C210.174 213.448 210.174 213.448 210.174 213.436C210.208 212.245 210.231 210.525 210.231 208.967C210.231 207.684 210.22 206.515 210.197 205.827C210.186 205.518 210.438 205.3 210.827 205.3C211.125 205.3 211.423 205.46 211.423 205.816C211.423 205.827 211.423 205.827 211.423 205.838C211.389 207.099 211.377 210.056 211.377 210.056C211.377 210.159 211.48 210.216 211.561 210.216C211.732 210.216 211.778 210.182 213.944 208.451C214.07 208.36 214.196 208.314 214.311 208.314C214.654 208.314 214.941 208.658 214.941 208.99C214.941 209.162 214.872 209.322 214.712 209.437C214.036 209.918 213.531 210.273 212.924 210.674C212.844 210.72 212.81 210.766 212.81 210.8C212.81 210.846 212.844 210.892 212.901 210.95C213.485 211.534 214.632 212.565 214.941 212.897C215.079 213.046 215.136 213.207 215.136 213.356C215.136 213.711 214.815 214.021 214.46 214.021Z" fill="white"/>
<path d="M157.046 140.648H157.046C152.371 140.648 148.545 136.822 148.545 132.147V128.959C148.545 124.283 152.371 120.458 157.046 120.458H157.046C161.722 120.458 165.547 124.283 165.547 128.959V132.147C165.547 136.822 161.722 140.648 157.046 140.648Z" fill="#F5CAAA"/>
<path d="M154.921 161.9H154.921C150.245 161.9 146.42 158.075 146.42 153.399V150.211C146.42 145.536 150.245 141.71 154.921 141.71H154.921C159.596 141.71 163.422 145.536 163.422 150.211V153.399C163.422 158.075 159.596 161.9 154.921 161.9Z" fill="#F5CAAA"/>
<path d="M155.984 183.153H155.984C151.308 183.153 147.483 179.327 147.483 174.652V171.464C147.483 166.788 151.308 162.963 155.984 162.963H155.984C160.659 162.963 164.484 166.788 164.484 171.464V174.652C164.484 179.327 160.659 183.153 155.984 183.153Z" fill="#F5CAAA"/>
<path d="M157.046 204.405H157.046C152.371 204.405 148.545 200.58 148.545 195.904V192.716C148.545 188.041 152.371 184.215 157.046 184.215H157.046C161.722 184.215 165.547 188.041 165.547 192.716V195.904C165.547 200.58 161.722 204.405 157.046 204.405Z" fill="#F5CAAA"/>
<path d="M76.9258 39.3111C76.2654 37.8063 74.3871 37.036 72.0124 37.064C71.9939 36.7025 71.9157 36.354 71.7712 36.0247C70.723 33.6366 66.6095 33.0964 62.3082 34.667C62.2837 34.3296 62.2071 34.0037 62.0716 33.695C60.9438 31.1255 56.2675 30.6937 51.6266 32.7306C50.8446 33.0738 50.115 33.466 49.4453 33.8919C47.8176 33.1924 45.6603 33.2159 43.6042 34.1183C42.1326 34.7642 40.9566 35.753 40.1916 36.8758C38.7423 36.4939 37.0181 36.6193 35.3683 37.3434C32.0945 38.7802 30.3547 42.028 31.4825 44.5975C31.9105 45.5729 32.6908 46.3096 33.6726 46.7706C33.1503 47.9525 33.0726 49.1988 33.5586 50.3061C34.2953 51.9848 36.1427 52.9279 38.3032 52.9555C38.0874 53.743 38.1057 54.5023 38.4033 55.1802C39.4031 57.4582 43.1924 58.0543 47.2732 56.7412C48.8202 58.6533 52.4181 59.0402 55.8771 57.5221C57.1133 56.9795 58.1819 56.2587 59.0294 55.4458C60.7777 56.5064 63.3563 56.6189 65.7976 55.5474C67.2135 54.926 68.3671 54.0006 69.1656 52.942C70.5493 53.0728 72.1576 52.8138 73.7372 52.1206C77.2494 50.5791 79.2853 47.4809 78.2845 45.2006C77.9041 44.3337 77.1388 43.7106 76.1441 43.3549C77.1151 41.9468 77.4492 40.5035 76.9258 39.3111Z" fill="white"/>
<path d="M160.39 58.3283C159.73 56.8236 157.852 56.0533 155.477 56.0812C155.458 55.7198 155.38 55.3712 155.236 55.042C154.188 52.6539 150.074 52.1137 145.773 53.6843C145.748 53.3469 145.672 53.021 145.536 52.7123C144.408 50.1428 139.732 49.711 135.091 51.7478C134.309 52.091 133.58 52.4833 132.91 52.9092C131.282 52.2097 129.125 52.2332 127.069 53.1356C125.597 53.7815 124.421 54.7703 123.656 55.8931C122.207 55.5112 120.483 55.6365 118.833 56.3606C115.559 57.7975 113.819 61.0453 114.947 63.6148C115.375 64.5901 116.155 65.3269 117.137 65.7879C116.615 66.9698 116.537 68.2161 117.023 69.3234C117.76 71.0021 119.607 71.9452 121.768 71.9728C121.552 72.7603 121.57 73.5195 121.868 74.1974C122.868 76.4755 126.657 77.0716 130.738 75.7585C132.285 77.6705 135.883 78.0575 139.342 76.5394C140.578 75.9968 141.646 75.276 142.494 74.4631C144.242 75.5237 146.821 75.6362 149.262 74.5647C150.678 73.9433 151.832 73.0179 152.63 71.9593C154.014 72.0901 155.622 71.8311 157.202 71.1378C160.714 69.5963 162.75 66.4982 161.749 64.2179C161.369 63.351 160.603 62.7278 159.609 62.3722C160.58 60.9641 160.914 59.5208 160.39 58.3283Z" fill="white"/>
<path d="M46.2869 120.663C45.6265 119.158 43.7482 118.388 41.3735 118.416C41.355 118.054 41.2767 117.706 41.1322 117.376C40.0841 114.988 35.9706 114.448 31.6693 116.019C31.6448 115.681 31.5682 115.355 31.4326 115.047C30.3049 112.477 25.6285 112.045 20.9877 114.082C20.2057 114.425 19.4761 114.818 18.8064 115.244C17.1787 114.544 15.0214 114.568 12.9653 115.47C11.4937 116.116 10.3177 117.105 9.55265 118.227C8.10336 117.846 6.37919 117.971 4.72943 118.695C1.45557 120.132 -0.284189 123.38 0.843542 125.949C1.27162 126.924 2.05186 127.661 3.03366 128.122C2.51134 129.304 2.43368 130.55 2.91967 131.658C3.65641 133.336 5.50377 134.28 7.66431 134.307C7.44846 135.095 7.46681 135.854 7.76434 136.532C8.76416 138.81 12.5535 139.406 16.6342 138.093C18.1813 140.005 21.7792 140.392 25.2382 138.874C26.4744 138.331 27.5429 137.61 28.3905 136.797C30.1388 137.858 32.7174 137.971 35.1587 136.899C36.5746 136.278 37.7281 135.352 38.5267 134.294C39.9104 134.424 41.5187 134.165 43.0983 133.472C46.6105 131.931 48.6464 128.833 47.6456 126.552C47.2651 125.685 46.4999 125.062 45.5052 124.707C46.4762 123.298 46.8103 121.855 46.2869 120.663Z" fill="white"/>
<path d="M292.455 84.7412C291.794 83.2364 289.916 82.4661 287.541 82.4941C287.523 82.1326 287.445 81.7841 287.3 81.4548C286.252 79.0667 282.139 78.5265 277.837 80.0972C277.813 79.7597 277.736 79.4339 277.601 79.1251C276.473 76.5556 271.796 76.1238 267.156 78.1607C266.374 78.5039 265.644 78.8961 264.974 79.322C263.347 78.6225 261.189 78.646 259.133 79.5484C257.662 80.1943 256.486 81.1831 255.721 82.3059C254.271 81.924 252.547 82.0494 250.897 82.7735C247.624 84.2103 245.884 87.4581 247.012 90.0276C247.44 91.003 248.22 91.7397 249.202 92.2007C248.679 93.3827 248.602 94.6289 249.088 95.7362C249.824 97.4149 251.672 98.358 253.832 98.3856C253.616 99.1731 253.635 99.9324 253.932 100.61C254.932 102.888 258.721 103.484 262.802 102.171C264.349 104.083 267.947 104.47 271.406 102.952C272.642 102.41 273.711 101.689 274.558 100.876C276.307 101.937 278.885 102.049 281.327 100.978C282.743 100.356 283.896 99.4307 284.695 98.3721C286.078 98.5029 287.687 98.2439 289.266 97.5507C292.778 96.0092 294.814 92.911 293.814 90.6307C293.433 89.7638 292.668 89.1407 291.673 88.785C292.644 87.3769 292.978 85.9336 292.455 84.7412Z" fill="white"/>

</svg>
