<svg width="16" height="16" viewBox="0 0 16 16" fill="none" xmlns="http://www.w3.org/2000/svg">
<path d="M8 0.5C3.8525 0.5 0.5 3.8525 0.5 8C0.5 12.1475 3.8525 15.5 8 15.5C12.1475 15.5 15.5 12.1475 15.5 8C15.5 3.8525 12.1475 0.5 8 0.5ZM11.225 11.225C10.9325 11.5175 10.46 11.5175 10.1675 11.225L8 9.0575L5.8325 11.225C5.54 11.5175 5.0675 11.5175 4.775 11.225C4.4825 10.9325 4.4825 10.46 4.775 10.1675L6.9425 8L4.775 5.8325C4.4825 5.54 4.4825 5.0675 4.775 4.775C5.0675 4.4825 5.54 4.4825 5.8325 4.775L8 6.9425L10.1675 4.775C10.46 4.4825 10.9325 4.4825 11.225 4.775C11.5175 5.0675 11.5175 5.54 11.225 5.8325L9.0575 8L11.225 10.1675C11.51 10.4525 11.51 10.9325 11.225 11.225Z" fill="white"/>
</svg>
