<svg width="10" height="6" viewBox="0 0 10 6" fill="none" xmlns="http://www.w3.org/2000/svg">
<path d="M10 1.21188C10 1.14454 9.96073 1.06758 9.89902 1.01467L9.39972 0.58658C9.33801 0.53367 9.24825 0.5 9.16971 0.5C9.09116 0.5 8.9986 0.53367 8.93969 0.58658L5.0014 3.9632L1.06311 0.58658C1.00421 0.53367 0.914447 0.5 0.8331 0.5C0.743339 0.5 0.661992 0.53367 0.603086 0.58658L0.100982 1.01708C0.0420764 1.06758 4.88438e-07 1.14695 4.85495e-07 1.21429C4.82446e-07 1.28403 0.0392713 1.36099 0.100982 1.4115L4.76858 5.41342C4.82749 5.46393 4.92006 5.5 4.9986 5.5C5.07994 5.5 5.16971 5.46633 5.22861 5.41342L9.89902 1.4115C9.96073 1.35859 10 1.28163 10 1.21188Z" fill="#00B8A9"/>
</svg>
