<svg width="30" height="30" viewBox="0 0 30 30" fill="none" xmlns="http://www.w3.org/2000/svg">
<circle cx="15" cy="15" r="15" fill="black" fill-opacity="0.7"/>
<path d="M17.7186 23C17.8398 23 17.9784 22.9372 18.0736 22.8384L18.8442 22.0396C18.9394 21.9408 19 21.7972 19 21.6715C19 21.5459 18.9394 21.3978 18.8442 21.3035L12.7662 15.0022L18.8442 8.70098C18.9394 8.60673 19 8.46311 19 8.33296C19 8.18934 18.9394 8.05919 18.8442 7.96494L18.0693 7.16157C17.9784 7.06732 17.8355 7 17.7143 7C17.5887 7 17.4502 7.06283 17.3593 7.16157L10.1558 14.6297C10.0649 14.724 10 14.8721 10 14.9978C10 15.1279 10.0606 15.2715 10.1558 15.3658L17.3593 22.8384C17.4545 22.9372 17.5931 23 17.7186 23Z" fill="white"/>
</svg>
