<svg width="25" height="22" viewBox="0 0 25 22" fill="none" xmlns="http://www.w3.org/2000/svg">
<path d="M12.4955 18.7301L6.40127 21.8754C6.08285 22.0602 5.64944 22.0301 5.31775 21.8023C4.99049 21.5746 4.82686 21.1793 4.85339 20.7926L6.05189 14.1109L1.13892 9.37578C0.853226 9.10508 0.75195 8.69687 0.87755 8.32305C1.00271 7.95352 1.33307 7.68281 1.73065 7.62695L8.50639 6.65156L11.5402 0.580938C11.7216 0.225543 12.0886 0 12.4955 0C12.9024 0 13.2739 0.225586 13.4508 0.580938L16.4846 6.65156L23.2643 7.62695C23.6623 7.68281 23.9896 7.95352 24.1179 8.32305C24.2417 8.69687 24.14 9.10508 23.8569 9.37578L18.9391 14.1109L20.1022 20.7926C20.1686 21.1793 20.0049 21.5746 19.6732 21.8023C19.346 22.0301 18.8728 22.0602 18.5543 21.8754L12.4955 18.7301ZM9.78007 7.25313C9.57664 7.66133 9.17861 7.94492 8.71425 8.01367L2.63727 8.88594L7.05138 13.1313C7.37422 13.4449 7.52459 13.8961 7.44941 14.3387L6.40569 20.3328L11.8277 17.5184C12.2478 17.2992 12.7476 17.2992 13.1633 17.5184L18.5853 20.3328L17.546 14.3387C17.4664 13.8961 17.6168 13.4449 17.944 13.1313L22.3577 8.88594L16.2767 8.01367C15.777 7.94492 15.379 7.66133 15.2109 7.25313L12.4955 1.81844L9.78007 7.25313Z" fill="#9B9B9B"/>
</svg>
