<svg width="22" height="22" viewBox="0 0 22 22" fill="none" xmlns="http://www.w3.org/2000/svg">
<path d="M16.5001 13.7504L16.3232 13.9313L16.3642 14.181L17.5005 21.1019C17.5075 21.159 17.508 21.2112 17.508 21.3067C17.508 21.3613 17.5019 21.4078 17.4927 21.4442C17.4857 21.472 17.4779 21.4898 17.4724 21.4999C17.4709 21.5 17.4692 21.5 17.4674 21.5C17.4028 21.5 17.308 21.4731 17.2012 21.4074L17.191 21.4012L17.1805 21.3954L11.2428 18.1254L11.0016 17.9925L10.7604 18.1254L4.82267 21.3954L4.82264 21.3953L4.81643 21.3989C4.67706 21.4782 4.59427 21.5 4.53579 21.5C4.52953 21.5 4.52494 21.4997 4.52177 21.4993C4.52166 21.4991 4.52155 21.4989 4.52143 21.4988C4.50697 21.4784 4.47943 21.4158 4.47943 21.3067C4.47943 21.255 4.485 21.2123 4.49679 21.1222C4.4976 21.1159 4.49844 21.1095 4.49931 21.1028L5.63584 14.181L5.67692 13.9309L5.49941 13.7499L0.697585 8.854C0.632443 8.77861 0.579304 8.70834 0.542944 8.64303C0.504388 8.57378 0.5 8.53721 0.5 8.52667C0.5 8.51587 0.501266 8.51092 0.501473 8.51014C0.501663 8.50943 0.501647 8.50958 0.501683 8.50952C0.501707 8.50948 0.507845 8.49871 0.533018 8.48106C0.590579 8.4407 0.692496 8.40265 0.821708 8.38027L7.45258 7.37097L7.71584 7.3309L7.8295 7.09009L10.8062 0.783419L10.8063 0.783461L10.8104 0.774393C10.8543 0.676214 10.9096 0.590973 10.9624 0.538018C10.9799 0.52038 10.993 0.510315 11.0016 0.504721C11.0102 0.510315 11.0232 0.52038 11.0408 0.538019C11.0936 0.590973 11.1488 0.676214 11.1928 0.774393L11.1927 0.774431L11.1968 0.78305L14.1672 7.08972L14.2807 7.33074L14.5441 7.37094L21.1787 8.38366C21.2991 8.40425 21.4032 8.44163 21.4645 8.48384C21.4895 8.50109 21.4977 8.51249 21.499 8.5146L21.4995 8.5169C21.4997 8.51871 21.5 8.5219 21.5 8.52667C21.5 8.56774 21.4576 8.67906 21.2983 8.84538C21.2978 8.84591 21.2973 8.84645 21.2968 8.84698L16.5001 13.7504ZM11.0141 0.498237C11.0141 0.498317 11.0133 0.498658 11.0118 0.499019C11.0134 0.498337 11.0141 0.498156 11.0141 0.498237ZM10.9914 0.49902C10.9898 0.498658 10.989 0.498317 10.989 0.498237C10.989 0.498157 10.9898 0.498337 10.9914 0.49902Z" stroke="#9CA1A1"/>
</svg>
