<svg width="22" height="17" viewBox="0 0 22 17" fill="none" xmlns="http://www.w3.org/2000/svg">
<path d="M1.83441 17L1.94765 16.9463L4.81088 15.7772L5.04059 15.6698C5.23147 15.5982 5.34471 15.5625 5.38353 15.5625L5.51941 15.5237C5.70382 15.4789 5.885 15.4551 6.06941 15.4551C6.22147 15.4551 6.41235 15.4909 6.64206 15.5625H6.76176C7.98471 15.9532 9.41471 16.147 11.0582 16.147C14.1124 16.147 16.7006 15.3775 18.8197 13.8356C20.9388 12.2937 22 10.4118 22 8.18088C22 5.91421 20.9194 3.98456 18.7615 2.38895C16.6035 0.793333 14.0185 0 11 0C7.98147 0 5.38676 0.796316 3.20941 2.39193C1.07088 3.98456 0 5.91421 0 8.18088C0 9.8093 0.572647 11.2975 1.71794 12.6426L1.88941 12.8007C2.00265 12.9767 2.06088 13.1735 2.06088 13.3853C2.06088 13.4211 1.73735 14.447 1.08706 16.4661C1.00941 16.7495 1.14529 16.9254 1.48824 16.997H1.83441V17ZM2.56235 15.5088C3.04118 14.1249 3.28059 13.3346 3.28059 13.1318C3.28059 12.7619 3.17059 12.4249 2.95059 12.1207L2.84059 12.0193C2.805 11.9865 2.78559 11.9358 2.78559 11.8672C1.78912 10.6861 1.29412 9.45439 1.29412 8.17491C1.29412 6.25123 2.24206 4.60789 4.13471 3.24193C6.02735 1.87596 8.31471 1.19298 11 1.19298C13.6853 1.19298 15.9629 1.88491 17.8394 3.26579C19.7515 4.61684 20.7059 6.25123 20.7059 8.17491C20.7059 10.03 19.7871 11.6137 17.9494 12.9289C16.0018 14.277 13.7047 14.9511 11.055 14.9511C9.65735 14.9511 8.36971 14.7811 7.19529 14.444H7.08529L7.03029 14.3933C6.66147 14.3247 6.40588 14.2919 6.25706 14.2919C5.96265 14.2919 5.66824 14.3426 5.37382 14.444H5.31882C5.20882 14.444 5.005 14.5126 4.71059 14.6468L2.56235 15.5088Z" fill="#9CA1A1"/>
<path d="M7.92699 9.2455C8.37369 9.2455 8.73581 8.91168 8.73581 8.49989C8.73581 8.0881 8.37369 7.75427 7.92699 7.75427C7.48029 7.75427 7.11816 8.0881 7.11816 8.49989C7.11816 8.91168 7.48029 9.2455 7.92699 9.2455Z" fill="#9CA1A1"/>
<path d="M11.1623 9.24538C11.609 9.24538 11.9712 8.91156 11.9712 8.49977C11.9712 8.08797 11.609 7.75415 11.1623 7.75415C10.7156 7.75415 10.3535 8.08797 10.3535 8.49977C10.3535 8.91156 10.7156 9.24538 11.1623 9.24538Z" fill="#9CA1A1"/>
<path d="M14.3974 9.2455C14.8441 9.2455 15.2063 8.91168 15.2063 8.49989C15.2063 8.0881 14.8441 7.75427 14.3974 7.75427C13.9507 7.75427 13.5886 8.0881 13.5886 8.49989C13.5886 8.91168 13.9507 9.2455 14.3974 9.2455Z" fill="#9CA1A1"/>
</svg>
