<svg width="22" height="20" viewBox="0 0 22 20" fill="none" xmlns="http://www.w3.org/2000/svg">
<path d="M11.0001 0.336304C4.9243 0.336304 0.0387548 4.33798 0.0387548 9.2738C0.0387548 11.32 0.894263 13.1947 2.31223 14.7008C1.67329 16.398 0.341255 17.8323 0.31977 17.8482C0.0351884 18.149 -0.0400499 18.5894 0.121083 18.9654C0.249989 19.3801 0.617974 19.625 1.03133 19.625C3.67348 19.625 5.71922 18.5185 7.00829 17.6377C8.21571 18.0244 9.59329 18.25 11.0001 18.25C17.0759 18.25 21.9614 14.2483 21.9614 9.35115C21.9614 4.454 17.0759 0.336304 11.0001 0.336304ZM11.0001 16.875C9.78622 16.875 8.58352 16.6924 7.42336 16.3271C7.01447 16.1953 6.56743 16.2643 6.21723 16.5135C5.26762 17.2118 3.70184 18.0299 1.80434 18.2177C2.28129 17.568 3.08266 16.4774 3.55489 15.2257L3.56043 15.2111C3.74446 14.7269 3.63738 14.2186 3.28414 13.8009C2.04153 12.4535 1.37766 10.9281 1.37766 9.31248C1.37766 5.14451 5.69602 1.74998 10.964 1.74998C16.2706 1.74998 20.5503 5.14451 20.5503 9.31248C20.5503 13.4804 16.3067 16.875 11.0001 16.875ZM11.0001 8.28123C10.4307 8.28123 9.96883 8.74271 9.96883 9.31248C9.96883 9.88181 10.4307 10.3437 11.0001 10.3437C11.5694 10.3437 12.0313 9.88181 12.0313 9.31248C12.0313 8.74099 11.5716 8.28123 11.0001 8.28123ZM16.5001 8.28123C15.9307 8.28123 15.4688 8.74271 15.4688 9.31248C15.4688 9.88181 15.9307 10.3437 16.5001 10.3437C17.0694 10.3437 17.5313 9.88181 17.5313 9.31248C17.5313 8.74099 17.0716 8.28123 16.5001 8.28123ZM5.50008 8.28123C4.93075 8.28123 4.46883 8.74271 4.46883 9.31248C4.46883 9.88181 4.93075 10.3437 5.50008 10.3437C6.06942 10.3437 6.53133 9.88396 6.53133 9.31248C6.53133 8.74099 6.07157 8.28123 5.50008 8.28123Z" fill="#9B9B9B"/>
</svg>
