<svg width="17" height="17" viewBox="0 0 17 17" fill="none" xmlns="http://www.w3.org/2000/svg">
<circle opacity="0.6" cx="8.5" cy="8.5" r="8.5" fill="#333333"/>
<path d="M11.5704 12C11.6904 12 11.7913 11.9583 11.8748 11.8748C11.9583 11.7913 12 11.6904 12 11.5704C12 11.4504 11.9565 11.3513 11.8696 11.2713L9.10783 8.49913L11.8696 5.7287C11.9565 5.6487 12 5.54957 12 5.42957C12 5.30957 11.9583 5.2087 11.8748 5.12522C11.7913 5.04174 11.6904 5 11.5704 5C11.4504 5 11.3513 5.04348 11.2713 5.13043L8.49913 7.89043L5.7287 5.13043C5.6487 5.04348 5.54957 5 5.42957 5C5.30957 5 5.2087 5.04174 5.12522 5.12522C5.04174 5.2087 5 5.30957 5 5.42957C5 5.54957 5.04348 5.6487 5.13043 5.7287L7.89217 8.50087L5.13043 11.2713C5.04348 11.3513 5 11.4504 5 11.5704C5 11.6904 5.04174 11.7913 5.12522 11.8748C5.2087 11.9583 5.30957 12 5.42957 12C5.54957 12 5.6487 11.9565 5.7287 11.8696L8.50087 9.09739L11.2713 11.8696C11.3513 11.9565 11.4504 12 11.5704 12Z" fill="#9CA1A1"/>
<path d="M11.5704 12C11.6904 12 11.7913 11.9583 11.8748 11.8748C11.9583 11.7913 12 11.6904 12 11.5704C12 11.4504 11.9565 11.3513 11.8696 11.2713L9.10783 8.49913L11.8696 5.7287C11.9565 5.6487 12 5.54957 12 5.42957C12 5.30957 11.9583 5.2087 11.8748 5.12522C11.7913 5.04174 11.6904 5 11.5704 5C11.4504 5 11.3513 5.04348 11.2713 5.13043L8.49913 7.89043L5.7287 5.13043C5.6487 5.04348 5.54957 5 5.42957 5C5.30957 5 5.2087 5.04174 5.12522 5.12522C5.04174 5.2087 5 5.30957 5 5.42957C5 5.54957 5.04348 5.6487 5.13043 5.7287L7.89217 8.50087L5.13043 11.2713C5.04348 11.3513 5 11.4504 5 11.5704C5 11.6904 5.04174 11.7913 5.12522 11.8748C5.2087 11.9583 5.30957 12 5.42957 12C5.54957 12 5.6487 11.9565 5.7287 11.8696L8.50087 9.09739L11.2713 11.8696C11.3513 11.9565 11.4504 12 11.5704 12Z" fill="white"/>
</svg>
