<svg width="22" height="22" viewBox="0 0 22 22" fill="none" xmlns="http://www.w3.org/2000/svg">
<path d="M20.3708 0H8.20994C7.34324 0 6.63818 0.7051 6.63818 1.57176V5.26077H8.07297V1.57176C8.07297 1.49624 8.13442 1.43478 8.20994 1.43478H20.3708C20.4463 1.43478 20.5077 1.49624 20.5077 1.57176V13.7326C20.5077 13.8082 20.4463 13.8696 20.3708 13.8696H16.7968V15.3044H20.3708C21.2374 15.3044 21.9425 14.5993 21.9425 13.7326V1.57176C21.9425 0.7051 21.2374 0 20.3708 0Z" fill="#666E6E"/>
<path d="M13.7902 6.69531H1.62942C0.762717 6.69531 0.0576172 7.40041 0.0576172 8.26712V20.428C0.057665 21.2947 0.762717 21.9998 1.62942 21.9998H13.7903C14.657 21.9998 15.3621 21.2947 15.3621 20.428V8.26712C15.3621 7.40041 14.6569 6.69531 13.7902 6.69531ZM13.7903 20.565H1.62942C1.55386 20.565 1.4924 20.5035 1.4924 20.428V8.26712C1.4924 8.19155 1.55386 8.1301 1.62942 8.1301H13.7903C13.8658 8.1301 13.9273 8.19155 13.9273 8.26712V20.428H13.9273C13.9273 20.5035 13.8658 20.565 13.7903 20.565Z" fill="#666E6E"/>
</svg>
