<svg width="44" height="44" viewBox="0 0 44 44" fill="none" xmlns="http://www.w3.org/2000/svg">
<circle cx="22" cy="22" r="22" fill="#00B8A9"/>
<path d="M29.0156 17.0389L26.3743 15.8602C26.8885 14.708 26.359 13.3484 25.1935 12.8283C24.0281 12.3082 22.6625 12.8222 22.1483 13.9744L19.507 12.7957C18.6321 12.4053 17.6091 12.7903 17.2231 13.6552L12.0959 25.1447C11.7099 26.0097 12.1066 27.0282 12.9815 27.4187L22.4901 31.6618C23.365 32.0523 24.388 31.6673 24.774 30.8023L29.9011 19.3128C30.2871 18.4478 29.8905 17.4293 29.0156 17.0389ZM24.6109 14.1339C25.05 14.3299 25.2474 14.8368 25.0537 15.2709C24.8599 15.705 24.3508 15.8966 23.9117 15.7007C23.4726 15.5047 23.2752 14.9978 23.4689 14.5637C23.6626 14.1296 24.1718 13.938 24.6109 14.1339ZM23.2766 29.8992C23.2285 30.007 23.1001 30.0553 22.9911 30.0067L13.8788 25.9403C13.7698 25.8917 13.72 25.7638 13.7681 25.6561L18.7205 14.5583C18.7685 14.4506 18.897 14.4022 19.006 14.4508L20.3926 15.0696L19.8683 16.2447C19.7721 16.4601 19.8717 16.7159 20.0897 16.8132L25.6363 19.2884C25.8542 19.3856 26.1111 19.2889 26.2073 19.0735L26.7316 17.8984L28.1183 18.5172C28.2272 18.5658 28.2771 18.6938 28.229 18.8015L23.2766 29.8992Z" fill="white"/>
</svg>
