<svg width="44" height="44" viewBox="0 0 44 44" fill="none" xmlns="http://www.w3.org/2000/svg">
<circle cx="22" cy="22" r="22" fill="#00B8A9"/>
<path d="M30.7688 13.3496C28.7708 13.4628 24.7997 13.8748 22.3482 15.3727C22.179 15.4761 22.0832 15.6599 22.0832 15.852V29.0945C22.0832 29.5149 22.5436 29.7806 22.9319 29.5855C25.4542 28.3183 29.1019 27.9725 30.9055 27.8779C31.5213 27.8455 32 27.3527 32 26.7621V14.4669C32.0004 13.8224 31.4404 13.3118 30.7688 13.3496ZM20.6518 15.3727C18.2006 13.8748 14.2295 13.4632 12.2316 13.3496C11.56 13.3118 11 13.8224 11 14.4669V26.7624C11 27.3535 11.4787 27.8462 12.0945 27.8783C13.8989 27.9729 17.5484 28.319 20.0706 29.5869C20.4578 29.7816 20.9168 29.5163 20.9168 29.0971V15.8455C20.9168 15.653 20.8213 15.4765 20.6518 15.3727Z" fill="white"/>
</svg>
