<svg width="21" height="21" viewBox="0 0 21 21" fill="none" xmlns="http://www.w3.org/2000/svg">
<path d="M13.125 0.875H3.5C2.5375 0.875 1.75 1.6625 1.75 2.625V14C1.75 14.4812 2.14375 14.875 2.625 14.875C3.10625 14.875 3.5 14.4812 3.5 14V3.5C3.5 3.01875 3.89375 2.625 4.375 2.625H13.125C13.6062 2.625 14 2.23125 14 1.75C14 1.26875 13.6062 0.875 13.125 0.875ZM16.625 4.375H7C6.0375 4.375 5.25 5.1625 5.25 6.125V18.375C5.25 19.3375 6.0375 20.125 7 20.125H16.625C17.5875 20.125 18.375 19.3375 18.375 18.375V6.125C18.375 5.1625 17.5875 4.375 16.625 4.375ZM15.75 18.375H7.875C7.39375 18.375 7 17.9813 7 17.5V7C7 6.51875 7.39375 6.125 7.875 6.125H15.75C16.2312 6.125 16.625 6.51875 16.625 7V17.5C16.625 17.9813 16.2312 18.375 15.75 18.375Z" fill="#666E6E"/>
</svg>
