<svg width="28" height="40" viewBox="0 0 28 40" fill="none" xmlns="http://www.w3.org/2000/svg">
<path d="M27.75 13.75C27.75 6.15625 21.5938 0 14 0C6.40625 0 0.25 6.15625 0.25 13.75C0.25 20.7062 5.42031 26.4375 12.125 27.3594V30.625H8.375C7.34375 30.625 6.5 31.4688 6.5 32.5C6.5 33.5312 7.33984 34.375 8.375 34.375H12.125V38.125C12.125 39.1641 12.9688 40 14 40C15.0312 40 15.875 39.1602 15.875 38.125V34.375H19.625C20.6602 34.375 21.5 33.5352 21.5 32.5C21.5 31.4648 20.6602 30.625 19.625 30.625H15.875V27.3578C22.5781 26.4375 27.75 20.7031 27.75 13.75ZM4 13.75C4 8.23594 8.48594 3.75 14 3.75C19.5141 3.75 24 8.23594 24 13.75C24 19.2641 19.5141 23.75 14 23.75C8.48438 23.75 4 19.2656 4 13.75Z" fill="#333333"/>
</svg>
