<svg width="22" height="20" viewBox="0 0 22 20" fill="none" xmlns="http://www.w3.org/2000/svg">
<path d="M10.9613 3.12505L11.477 2.61028C12.9164 1.20735 14.9102 0.568835 16.8695 0.894968C19.8301 1.38825 22 3.95005 22 6.95356V7.20278C22 8.98598 21.2609 10.6918 19.9547 11.9079L12.1902 19.1567C11.868 19.4575 11.4426 19.625 11 19.625C10.5574 19.625 10.132 19.4575 9.80977 19.1567L2.04488 11.9079C0.740352 10.6918 0 8.98598 0 7.20278V6.95356C0 3.95005 2.17078 1.38825 5.13047 0.894968C7.05117 0.568835 9.08359 1.20735 10.4844 2.61028L10.9613 3.12505ZM10.9613 5.07153L9.51328 3.58052C8.42617 2.49384 6.875 1.99798 5.3582 2.25106C3.0598 2.63434 1.33633 4.62466 1.33633 6.95356V7.20278C1.33633 8.60786 1.95723 9.94419 2.98289 10.9024L10.7465 18.1512C10.8152 18.2157 10.9055 18.25 10.9613 18.25C11.0945 18.25 11.1848 18.2157 11.2535 18.1512L19.018 10.9024C20.0406 9.94419 20.625 8.60786 20.625 7.20278V6.95356C20.625 4.62466 18.9406 2.63434 16.6418 2.25106C15.0863 1.99798 13.5738 2.49384 12.4867 3.58052L10.9613 5.07153Z" fill="#9B9B9B"/>
</svg>
