<svg width="13" height="10" viewBox="0 0 13 10" fill="none" xmlns="http://www.w3.org/2000/svg">
<path d="M12.2951 1.66152C12.1496 1.48574 11.9657 1.35979 11.7705 1.25675L11.7547 1.24799L11.7377 1.24126C11.7281 1.23744 11.4155 1.10835 10.9624 0.978144C10.5083 0.848607 9.91609 0.715478 9.32554 0.714355C7.90773 0.7166 6.84827 1.17997 6.49912 1.35306C6.15021 1.17974 5.09051 0.716376 3.67247 0.714355C3.08238 0.715478 2.48994 0.848607 2.03612 0.978144C1.58301 1.10835 1.26993 1.23744 1.26074 1.24126L1.24353 1.24799L1.22726 1.25675C1.03277 1.35979 0.848883 1.48574 0.703424 1.66152C0.557495 1.83574 0.46178 2.06922 0.463902 2.31886V8.28249C0.463902 8.55616 0.60158 8.81276 0.833795 8.97328C0.989154 9.08059 1.17351 9.13604 1.36046 9.13604C1.45358 9.13604 1.54765 9.12212 1.63794 9.09429L1.6568 9.08822L1.67495 9.08059L1.67613 9.08014C1.69829 9.07071 1.96634 8.96048 2.34614 8.85452C2.72522 8.74833 3.21723 8.64798 3.6727 8.64865C4.37736 8.6482 5.0113 8.79637 5.46559 8.94499C5.69238 9.0193 5.87438 9.09361 5.99791 9.14839C6.05897 9.17578 6.10612 9.19823 6.13654 9.21327L6.16978 9.22966L6.17708 9.23347H6.17779V9.23392L6.21315 9.25278L6.25135 9.26446C6.2992 9.27882 6.34848 9.28578 6.3968 9.28578C6.4317 9.28578 6.46564 9.28084 6.49959 9.27388C6.53307 9.28084 6.56749 9.28578 6.60191 9.28578C6.65047 9.28578 6.69998 9.27882 6.74736 9.26446L6.78603 9.25278L6.82068 9.23415C6.8254 9.22921 7.93909 8.64528 9.32601 8.64843C9.79633 8.64775 10.3056 8.75462 10.6894 8.8644C10.8817 8.91918 11.043 8.97418 11.155 9.01526C11.2111 9.03524 11.2544 9.05208 11.2832 9.06375L11.3157 9.07677L11.3231 9.07992L11.3238 9.08037L11.3421 9.088L11.361 9.09406C11.4515 9.12167 11.5456 9.13582 11.6385 9.13582C11.825 9.13582 12.0098 9.08037 12.1649 8.97305H12.1654C12.3971 8.81276 12.5353 8.55593 12.5353 8.28227V2.31886C12.5367 2.06922 12.4407 1.83574 12.2951 1.66152ZM6.11673 8.40305C5.61788 8.20279 4.73476 7.92239 3.67223 7.92037C3.08569 7.92105 2.51823 8.04564 2.08964 8.16687C1.73389 8.26857 1.47787 8.36847 1.39488 8.40193L1.36023 8.40754C1.33217 8.40754 1.30577 8.39901 1.2829 8.38374C1.24824 8.35994 1.22844 8.32268 1.22844 8.28227V2.31886C1.23056 2.23018 1.25131 2.17989 1.30577 2.11052C1.3581 2.04564 1.45311 1.97201 1.58419 1.90151C1.65491 1.87345 1.92933 1.76749 2.29521 1.66467C2.70118 1.54972 3.22053 1.44196 3.67223 1.44263C4.42381 1.44263 5.07118 1.5953 5.52736 1.74773C5.7558 1.82429 5.93544 1.90039 6.05638 1.95607C6.07948 1.96662 6.09811 1.97582 6.11673 1.98458V8.40305ZM11.7696 8.28249C11.7696 8.32245 11.7498 8.35994 11.7151 8.38397C11.6922 8.39968 11.6658 8.40776 11.6378 8.40776L11.6031 8.40215C11.5201 8.36892 11.2641 8.2688 10.9084 8.1671C10.4795 8.04564 9.91232 7.92127 9.32554 7.9206C8.26348 7.92262 7.38012 8.20302 6.88151 8.40327V1.98413C7.19529 1.83304 8.1291 1.44084 9.32554 1.44263C9.79232 1.44151 10.3301 1.55668 10.7419 1.67567C10.9477 1.73493 11.1236 1.7942 11.246 1.83843C11.307 1.86043 11.3549 1.87884 11.3874 1.89096L11.4136 1.90151C11.5451 1.97156 11.6401 2.04564 11.6927 2.11052C11.7469 2.17989 11.7674 2.23018 11.7698 2.31886L11.7696 8.28249Z" fill="#333333"/>
</svg>
