<svg width="30" height="30" viewBox="0 0 30 30" fill="none" xmlns="http://www.w3.org/2000/svg">
<circle cx="15" cy="15" r="15" fill="black" fill-opacity="0.7"/>
<path d="M22.6503 12.04L17.8103 11.62L15.9203 7.17C15.5803 6.36 14.4203 6.36 14.0803 7.17L12.1903 11.63L7.36032 12.04C6.48032 12.11 6.12032 13.21 6.79032 13.79L10.4603 16.97L9.36032 21.69C9.16032 22.55 10.0903 23.23 10.8503 22.77L15.0003 20.27L19.1503 22.78C19.9103 23.24 20.8403 22.56 20.6403 21.7L19.5403 16.97L23.2103 13.79C23.8803 13.21 23.5303 12.11 22.6503 12.04ZM15.0003 18.4L11.2403 20.67L12.2403 16.39L8.92032 13.51L13.3003 13.13L15.0003 9.1L16.7103 13.14L21.0903 13.52L17.7703 16.4L18.7703 20.68L15.0003 18.4Z" fill="#FAFAFA"/>
</svg>
