<svg width="35" height="36" viewBox="0 0 35 36" fill="none" xmlns="http://www.w3.org/2000/svg">
<path d="M33.125 0.5H24.375C23.3438 0.5 22.5 1.33984 22.5 2.375C22.5 3.41016 23.3399 4.25 24.375 4.25H28.5985L22.0157 10.8359C19.5704 8.98438 16.6719 8 13.75 8C10.1641 8 6.71255 9.34375 4.02739 12.0234C-1.34214 17.393 -1.34214 26.1016 4.02739 31.4688C6.71255 34.1562 10.1641 35.5 13.75 35.5C17.336 35.5 20.7743 34.1578 23.461 31.4727C28.3766 26.557 28.7508 18.8789 24.6672 13.4883L31.25 6.89844V11.125C31.25 12.1641 32.0938 13 33.125 13C34.1563 13 35 12.1641 35 11.125V2.375C35 1.33984 34.1641 0.5 33.125 0.5ZM20.8204 28.8203C18.9297 30.7109 16.4219 31.75 13.75 31.75C11.0782 31.75 8.56802 30.7102 6.67896 28.8211C2.77974 24.9219 2.77974 18.5789 6.67896 14.6805C8.57036 12.7891 11.0782 11.75 13.75 11.75C16.4219 11.75 18.9329 12.7906 20.8211 14.6797C20.8214 14.68 20.8208 14.6794 20.8211 14.6797C20.8213 14.6798 20.821 14.6795 20.8211 14.6797C24.7188 18.5781 24.7188 24.9219 20.8204 28.8203Z" fill="#333333"/>
</svg>
