<svg id="Layer_1" data-name="Layer 1" xmlns="http://www.w3.org/2000/svg" viewBox="0 0 512 512"><defs></defs><title>discount-badge-glyph</title><path fill="#141f38" d="M202.11,215.58a13.47,13.47,0,1,1,13.47-13.47A13.49,13.49,0,0,1,202.11,215.58Zm107.79,80.84a13.47,13.47,0,1,0,13.47,13.47A13.49,13.49,0,0,0,309.89,296.42Zm177.43-6.73a21.75,21.75,0,0,0-4.72,23.71l9.91,23.92a21.75,21.75,0,0,1-11.77,28.42l-23.92,9.91a21.75,21.75,0,0,0-13.43,20.1v25.89a21.75,21.75,0,0,1-21.75,21.75H395.75a21.75,21.75,0,0,0-20.1,13.43l-9.91,23.92a21.75,21.75,0,0,1-28.42,11.77L313.4,482.6a21.75,21.75,0,0,0-23.71,4.72l-18.31,18.31a21.75,21.75,0,0,1-30.76,0l-18.31-18.31a21.75,21.75,0,0,0-23.71-4.72l-23.92,9.91a21.75,21.75,0,0,1-28.42-11.77l-9.91-23.92a21.75,21.75,0,0,0-20.1-13.43H90.36a21.75,21.75,0,0,1-21.75-21.75V395.74a21.75,21.75,0,0,0-13.43-20.1l-23.92-9.91a21.75,21.75,0,0,1-11.77-28.42L29.4,313.4a21.75,21.75,0,0,0-4.72-23.71L6.37,271.38a21.75,21.75,0,0,1,0-30.76l18.31-18.31A21.75,21.75,0,0,0,29.4,198.6l-9.91-23.92a21.75,21.75,0,0,1,11.77-28.42l23.92-9.91a21.75,21.75,0,0,0,13.43-20.1V90.36A21.75,21.75,0,0,1,90.36,68.61h25.89a21.75,21.75,0,0,0,20.1-13.43l9.91-23.92a21.75,21.75,0,0,1,28.42-11.77L198.6,29.4a21.75,21.75,0,0,0,23.71-4.72L240.62,6.37a21.75,21.75,0,0,1,30.76,0l18.31,18.31A21.75,21.75,0,0,0,313.4,29.4l23.92-9.91a21.75,21.75,0,0,1,28.42,11.77l9.91,23.92a21.75,21.75,0,0,0,20.1,13.43h25.89a21.75,21.75,0,0,1,21.75,21.75v25.89a21.75,21.75,0,0,0,13.43,20.1l23.92,9.91a21.75,21.75,0,0,1,11.77,28.42L482.6,198.6a21.75,21.75,0,0,0,4.72,23.71l18.31,18.31a21.75,21.75,0,0,1,0,30.76ZM202.11,242.53a40.42,40.42,0,1,0-40.42-40.42A40.47,40.47,0,0,0,202.11,242.53Zm130.79-44.37a13.47,13.47,0,0,0-19.05-19.05L179.11,313.84a13.47,13.47,0,1,0,19.05,19.05Zm17.42,111.74a40.42,40.42,0,1,0-40.42,40.42A40.47,40.47,0,0,0,350.32,309.89Z"/></svg>