<svg width="34" height="30" viewBox="0 0 34 30" fill="none" xmlns="http://www.w3.org/2000/svg">
<path d="M7.38589 11.2074V7.01377H11.802V4.19359H7.38589V0H4.41608V4.19359H0V7.01377H4.41608V11.2074H7.38589ZM30.9125 29.3551C31.713 29.3551 32.4085 29.0878 32.9991 28.5478C33.5898 28.0132 33.8824 27.3632 33.8824 26.6031V9.82872C33.8824 9.06863 33.5898 8.40814 32.9991 7.84725C32.4085 7.28636 31.713 7.00853 30.9125 7.00853H26.2149L23.5267 4.19359H13.2482V8.38717H8.83215V12.5808H4.41608V26.6031C4.41608 27.3632 4.70864 28.0132 5.29929 28.5478C5.88994 29.0825 6.58548 29.3551 7.38589 29.3551H30.9125ZM19.1106 25.1615C17.7692 25.1615 16.5382 24.8522 15.4176 24.2389C14.297 23.6256 13.4138 22.7869 12.768 21.7228C12.1221 20.6587 11.7964 19.4897 11.7964 18.2159C11.7964 16.9421 12.1221 15.7679 12.768 14.6933C13.4138 13.6187 14.3026 12.7695 15.4342 12.1457C16.5658 11.5219 17.7968 11.2074 19.1271 11.2074C20.4575 11.2074 21.6885 11.5219 22.8201 12.1457C23.9517 12.7695 24.846 13.6239 25.5028 14.6933C26.1653 15.7679 26.4965 16.9368 26.4965 18.2002C26.4965 19.4635 26.1653 20.6324 25.5084 21.7071C24.8515 22.7817 23.9517 23.6256 22.8256 24.2389C21.694 24.8522 20.4575 25.1615 19.1106 25.1615ZM19.1106 22.6768C19.9607 22.6768 20.7556 22.4776 21.4953 22.074C22.2349 21.6704 22.8201 21.1304 23.2451 20.449C23.6702 19.7675 23.8799 19.0232 23.8799 18.2159C23.8799 17.4086 23.6647 16.659 23.2286 15.9671C22.7925 15.2751 22.2073 14.7195 21.4787 14.3054C20.75 13.8913 19.9607 13.6868 19.1106 13.6868C18.2605 13.6868 17.4821 13.886 16.759 14.2896C16.0414 14.6933 15.4673 15.2437 15.0478 15.9514C14.6227 16.6538 14.413 17.4086 14.413 18.2159C14.413 19.0232 14.6227 19.7623 15.0478 20.449C15.4728 21.1304 16.0414 21.6756 16.759 22.074C17.4766 22.4724 18.266 22.6768 19.1106 22.6768Z" fill="white"/>
</svg>
