<svg width="13" height="13" viewBox="0 0 13 13" fill="none" xmlns="http://www.w3.org/2000/svg">
<path d="M12.0624 8.24859L11.5732 6.75434C11.5192 6.58947 11.5192 6.41068 11.5732 6.24581L12.0624 4.75156C12.0869 4.67727 12.061 4.59557 11.9989 4.54998L10.7498 3.6368C10.6121 3.53616 10.5103 3.39171 10.4597 3.22594L10.0009 1.72134C9.97821 1.64734 9.91178 1.59702 9.83643 1.59702C9.83585 1.59702 9.83528 1.59702 9.8347 1.59702L8.30209 1.61212C8.13355 1.61389 7.96934 1.55884 7.83388 1.45553L6.60295 0.5163C6.54198 0.469827 6.45858 0.469827 6.39761 0.5163L5.1664 1.45523C5.03094 1.55854 4.86672 1.6133 4.69819 1.61182L3.16557 1.59672C3.165 1.59672 3.16442 1.59672 3.16385 1.59672C3.08849 1.59672 3.02177 1.64705 2.99934 1.72105L2.54091 3.22565C2.49029 3.39141 2.38848 3.53586 2.25072 3.63651L1.00168 4.54998C0.939555 4.59527 0.913671 4.67727 0.938117 4.75156L1.42732 6.24581C1.48139 6.41068 1.48139 6.58947 1.42732 6.75434L0.937829 8.24859C0.913383 8.32288 0.939267 8.40458 1.00139 8.45017L2.25043 9.36335C2.38819 9.46399 2.49 9.60844 2.54062 9.7742L2.99934 11.2788C3.02206 11.3528 3.08849 11.4031 3.16385 11.4031C3.16442 11.4031 3.165 11.4031 3.16557 11.4031L4.69819 11.388C4.86672 11.3863 5.03094 11.4413 5.1664 11.5446L6.39761 12.4836C6.42809 12.5069 6.46433 12.5185 6.50028 12.5185C6.53623 12.5185 6.57247 12.5069 6.60295 12.4836L7.83416 11.5446C7.96962 11.4413 8.13384 11.3866 8.30238 11.388L9.83499 11.4031C9.83557 11.4031 9.83614 11.4031 9.83672 11.4031C9.91207 11.4031 9.97879 11.3528 10.0012 11.2788L10.4599 9.7742C10.5106 9.60844 10.6124 9.46399 10.7501 9.36335L11.9992 8.45017C12.061 8.40488 12.0869 8.32288 12.0624 8.24859ZM9.20601 5.26573L5.91243 8.4327C5.82298 8.51854 5.7091 8.56147 5.59549 8.56147C5.47643 8.56147 5.35765 8.5147 5.26706 8.42145L3.78276 6.89376C3.60157 6.70728 3.60157 6.40476 3.78276 6.21798C3.96395 6.0315 4.25787 6.0315 4.43935 6.21798L5.60642 7.41918L8.57214 4.56745C8.75937 4.38748 9.0533 4.39754 9.22844 4.59054C9.40359 4.78324 9.39353 5.08546 9.20601 5.26573Z" fill="#333333"/>
</svg>
