<svg width="44" height="44" viewBox="0 0 44 44" fill="none" xmlns="http://www.w3.org/2000/svg">
<circle cx="22" cy="22" r="22" fill="#00B8A9"/>
<g clip-path="url(#clip0_5124_38845)">
<path d="M31.3938 27.2313C32.3962 26.1424 32.9977 24.7763 32.9977 23.2857C32.9977 20.0714 30.209 17.4156 26.5745 16.9415C25.4262 14.6272 22.7286 13 19.5827 13C15.3941 13 12.0002 15.8768 12.0002 19.4286C12.0002 20.9152 12.6017 22.2812 13.6042 23.3741C13.0465 24.6076 12.2445 25.5638 12.2299 25.5799C12.0002 25.8491 11.9346 26.2429 12.0695 26.5844C12.2007 26.9259 12.507 27.1469 12.8423 27.1469C14.7926 27.1469 16.3674 26.3353 17.4064 25.5879C17.7417 25.6723 18.0881 25.7366 18.4417 25.7848C19.5863 28.0911 22.273 29.7143 25.4153 29.7143C26.1735 29.7143 26.9026 29.6179 27.5953 29.4411C28.6342 30.1844 30.2054 31 32.1593 31C32.4947 31 32.7972 30.779 32.9321 30.4375C33.0633 30.096 33.0014 29.7022 32.7717 29.433C32.7571 29.421 31.9515 28.4647 31.3938 27.2313ZM17.0746 23.5228L16.4513 23.9688C15.9373 24.3344 15.4123 24.6237 14.8801 24.8286C14.9785 24.6397 15.077 24.4388 15.1717 24.2339L15.7368 22.9844L14.8327 22C14.3406 21.4616 13.75 20.5817 13.75 19.4286C13.75 16.9897 16.4221 14.9286 19.5827 14.9286C22.7432 14.9286 25.4153 16.9897 25.4153 19.4286C25.4153 21.8674 22.7432 23.9286 19.5827 23.9286C18.9812 23.9286 18.3797 23.8522 17.7964 23.7036L17.0746 23.5228ZM30.1653 25.8571L29.2648 26.8375L29.8299 28.0871C29.9247 28.292 30.0231 28.4929 30.1215 28.6817C29.5893 28.4768 29.0643 28.1875 28.5503 27.8219L27.927 27.3759L27.2015 27.5607C26.6183 27.7094 26.0168 27.7857 25.4153 27.7857C23.4468 27.7857 21.6897 26.9781 20.6289 25.7888C24.3217 25.3549 27.1651 22.679 27.1651 19.4286C27.1651 19.292 27.1505 19.1594 27.1396 19.0268C29.4872 19.6094 31.2479 21.3089 31.2479 23.2857C31.2479 24.4388 30.6574 25.3187 30.1653 25.8571Z" fill="white"/>
</g>
<defs>
<clipPath id="clip0_5124_38845">
<rect width="21.12" height="21.12" fill="white" transform="translate(11.8462 11)"/>
</clipPath>
</defs>
</svg>
