<svg width="22" height="20" viewBox="0 0 22 20" fill="none" xmlns="http://www.w3.org/2000/svg">
<path d="M0 7.20272V6.9535C0 3.94999 2.17078 1.38819 5.13047 0.894907C7.05117 0.568774 9.08359 1.20729 10.4844 2.61022L11 3.12499L11.477 2.61022C12.9164 1.20729 14.9102 0.568774 16.8695 0.894907C19.8301 1.38819 22 3.94999 22 6.9535V7.20272C22 8.98592 21.2609 10.6918 19.9547 11.9078L12.1902 19.1566C11.868 19.4574 11.4426 19.625 11 19.625C10.5574 19.625 10.132 19.4574 9.80977 19.1566L2.04488 11.9078C0.740352 10.6918 1.28906e-05 8.98592 1.28906e-05 7.20272H0Z" fill="#FF234B"/>
</svg>
