<svg width="22" height="22" viewBox="0 0 22 22" fill="none" xmlns="http://www.w3.org/2000/svg">
<path d="M12.7035 16C12.9824 16 13.0967 15.7576 13.0967 15.4958C13.0967 15.4255 13.0967 15.3648 13.0876 15.2945L12.26 10.2545L15.7508 6.68606C15.8766 6.55515 16 6.38303 16 6.20121C16 5.89818 15.6914 5.77697 15.4605 5.73818L10.6324 5.00121L8.47207 0.414545C8.3852 0.220606 8.22289 0 8.00114 0C7.7794 0 7.61709 0.220606 7.53022 0.414545L5.36534 5.00121L0.539506 5.73576C0.297185 5.77697 0 5.89818 0 6.20121C0 6.38303 0.125732 6.55515 0.240034 6.68606L3.73996 10.2545L2.91242 15.2945C2.90327 15.3648 2.89413 15.4255 2.89413 15.4958C2.89413 15.7576 3.01986 16 3.29876 16C3.43363 16 3.55937 15.9491 3.68281 15.8788L8.00114 13.5006L12.3195 15.8788C12.4338 15.9491 12.5687 16 12.7035 16Z" fill="#CEB058"/>
</svg>
