<svg width="30" height="30" viewBox="0 0 30 30" fill="none" xmlns="http://www.w3.org/2000/svg">
<path d="M22.5595 27.8574C23.0077 27.8574 23.1914 27.4677 23.1914 27.047C23.1914 26.934 23.1914 26.8366 23.1767 26.7236L21.8467 18.6236L27.4569 12.8885C27.659 12.6781 27.8574 12.4015 27.8574 12.1093C27.8574 11.6223 27.3614 11.4275 26.9903 11.3651L19.2308 10.1807L15.7589 2.8093C15.6193 2.49761 15.3584 2.14307 15.002 2.14307C14.6457 2.14307 14.3848 2.49761 14.2452 2.8093L10.7659 10.1807L3.01013 11.3612C2.62069 11.4275 2.14307 11.6223 2.14307 12.1093C2.14307 12.4015 2.34514 12.6781 2.52884 12.8885L8.15372 18.6236L6.82373 26.7236C6.80904 26.8366 6.79434 26.934 6.79434 27.047C6.79434 27.4677 6.99641 27.8574 7.44464 27.8574C7.66141 27.8574 7.86348 27.7755 8.06187 27.6625L15.002 23.8405L21.9422 27.6625C22.1259 27.7755 22.3427 27.8574 22.5595 27.8574Z" fill="#F2C94C"/>
</svg>
