<svg width="27" height="27" viewBox="0 0 27 27" fill="none" xmlns="http://www.w3.org/2000/svg">
<circle cx="13.5" cy="13.5" r="13.5" fill="#E1E3E3"/>
<path d="M18.564 18.144C18.396 17.832 18.252 17.496 17.952 16.728L15.288 9.804C15.012 9.072 14.94 8.88 14.88 8.592H12.792C12.732 8.904 12.636 9.204 12.408 9.804L9.768 16.728C9.552 17.28 9.312 17.82 9.132 18.144H11.1C11.196 17.64 11.244 17.46 11.46 16.884L11.94 15.576H15.78L16.26 16.884C16.392 17.232 16.524 17.748 16.596 18.144H18.564ZM15.348 14.196H12.372L13.62 10.644C13.656 10.536 13.656 10.536 13.848 9.972C13.98 10.368 14.016 10.512 14.064 10.644L15.348 14.196Z" fill="#333333"/>
</svg>
