<svg width="27" height="27" viewBox="0 0 27 27" fill="none" xmlns="http://www.w3.org/2000/svg">
<circle cx="13.5" cy="13.5" r="13.5" fill="#00B8A9"/>
<path d="M17.336 17.976C17.06 17.76 16.832 17.568 16.556 17.304L16.22 16.98C16.712 16.404 16.904 16.104 17.12 15.564C17.372 14.892 17.504 14.172 17.504 13.344C17.504 10.332 15.764 8.4 13.052 8.4C10.328 8.4 8.54 10.38 8.54 13.404C8.54 14.94 9.008 16.248 9.896 17.148C10.676 17.94 11.744 18.348 13.016 18.348C13.892 18.348 14.528 18.18 15.224 17.784C16.016 18.576 16.124 18.684 16.364 18.996L17.336 17.976ZM13.16 15.876C13.508 16.14 13.748 16.356 14.12 16.716C13.784 16.884 13.448 16.956 13.04 16.956C11.312 16.956 10.196 15.552 10.196 13.38C10.196 12.144 10.532 11.148 11.156 10.524C11.648 10.044 12.284 9.792 13.016 9.792C13.748 9.792 14.384 10.044 14.864 10.524C15.488 11.148 15.824 12.132 15.824 13.32C15.824 14.52 15.608 15.24 15.08 15.888C14.588 15.408 14.348 15.168 14.144 14.916L13.16 15.876Z" fill="white"/>
</svg>
