<svg width="13" height="13" viewBox="0 0 13 13" fill="none" xmlns="http://www.w3.org/2000/svg">
<path d="M0 6.40144V1.21875C0 0.545645 0.545645 0 1.21875 0H6.40144C6.72467 1.69019e-06 7.03466 0.128407 7.26322 0.356967L12.643 5.73679C13.119 6.21273 13.119 6.98441 12.643 7.46035L7.46035 12.643C6.98441 13.119 6.21273 13.119 5.73679 12.643L0.356967 7.26322C0.128407 7.03466 1.69019e-06 6.72467 0 6.40144H0ZM2.84375 1.625C2.17065 1.625 1.625 2.17065 1.625 2.84375C1.625 3.51686 2.17065 4.0625 2.84375 4.0625C3.51686 4.0625 4.0625 3.51686 4.0625 2.84375C4.0625 2.17065 3.51686 1.625 2.84375 1.625Z" fill="#00B8A9"/>
</svg>
