<svg width="30" height="30" viewBox="0 0 30 30" fill="none" xmlns="http://www.w3.org/2000/svg">
<circle cx="15" cy="15" r="15" fill="black" fill-opacity="0.7"/>
<path d="M20.5 17H19.5C19.3674 17 19.2402 17.0527 19.1464 17.1464C19.0527 17.2402 19 17.3674 19 17.5V21H9V11H13.5C13.6326 11 13.7598 10.9473 13.8536 10.8536C13.9473 10.7598 14 10.6326 14 10.5V9.5C14 9.36739 13.9473 9.24021 13.8536 9.14645C13.7598 9.05268 13.6326 9 13.5 9H8.5C8.10218 9 7.72064 9.15804 7.43934 9.43934C7.15804 9.72064 7 10.1022 7 10.5V21.5C7 21.8978 7.15804 22.2794 7.43934 22.5607C7.72064 22.842 8.10218 23 8.5 23H19.5C19.8978 23 20.2794 22.842 20.5607 22.5607C20.842 22.2794 21 21.8978 21 21.5V17.5C21 17.3674 20.9473 17.2402 20.8536 17.1464C20.7598 17.0527 20.6326 17 20.5 17ZM22.25 7H18.25C17.5822 7 17.2484 7.80969 17.7188 8.28125L18.8353 9.39781L11.2188 17.0116C11.1488 17.0812 11.0934 17.164 11.0555 17.2552C11.0176 17.3464 10.9982 17.4441 10.9982 17.5428C10.9982 17.6415 11.0176 17.7393 11.0555 17.8304C11.0934 17.9216 11.1488 18.0044 11.2188 18.0741L11.9272 18.7812C11.9969 18.8512 12.0797 18.9066 12.1708 18.9445C12.262 18.9824 12.3597 19.0018 12.4584 19.0018C12.5571 19.0018 12.6549 18.9824 12.7461 18.9445C12.8372 18.9066 12.92 18.8512 12.9897 18.7812L20.6025 11.1663L21.7188 12.2812C22.1875 12.75 23 12.4219 23 11.75V7.75C23 7.55109 22.921 7.36032 22.7803 7.21967C22.6397 7.07902 22.4489 7 22.25 7V7Z" fill="white"/>
</svg>
